%TF.GenerationSoftware,KiCad,Pcbnew,9.0.0*%
%TF.CreationDate,2025-10-27T18:32:50+02:00*%
%TF.ProjectId,6L_ESC,364c5f45-5343-42e6-9b69-6361645f7063,rev?*%
%TF.SameCoordinates,Original*%
%TF.FileFunction,Soldermask,Top*%
%TF.FilePolarity,Negative*%
%FSLAX46Y46*%
G04 Gerber Fmt 4.6, Leading zero omitted, Abs format (unit mm)*
G04 Created by KiCad (PCBNEW 9.0.0) date 2025-10-27 18:32:50*
%MOMM*%
%LPD*%
G01*
G04 APERTURE LIST*
G04 Aperture macros list*
%AMRoundRect*
0 Rectangle with rounded corners*
0 $1 Rounding radius*
0 $2 $3 $4 $5 $6 $7 $8 $9 X,Y pos of 4 corners*
0 Add a 4 corners polygon primitive as box body*
4,1,4,$2,$3,$4,$5,$6,$7,$8,$9,$2,$3,0*
0 Add four circle primitives for the rounded corners*
1,1,$1+$1,$2,$3*
1,1,$1+$1,$4,$5*
1,1,$1+$1,$6,$7*
1,1,$1+$1,$8,$9*
0 Add four rect primitives between the rounded corners*
20,1,$1+$1,$2,$3,$4,$5,0*
20,1,$1+$1,$4,$5,$6,$7,0*
20,1,$1+$1,$6,$7,$8,$9,0*
20,1,$1+$1,$8,$9,$2,$3,0*%
%AMRotRect*
0 Rectangle, with rotation*
0 The origin of the aperture is its center*
0 $1 length*
0 $2 width*
0 $3 Rotation angle, in degrees counterclockwise*
0 Add horizontal line*
21,1,$1,$2,0,0,$3*%
G04 Aperture macros list end*
%ADD10C,0.010000*%
%ADD11R,0.508000X0.711200*%
%ADD12R,1.150000X2.700000*%
%ADD13RoundRect,0.250000X-0.262500X-0.450000X0.262500X-0.450000X0.262500X0.450000X-0.262500X0.450000X0*%
%ADD14C,0.700000*%
%ADD15RoundRect,0.780000X1.820000X-3.220000X1.820000X3.220000X-1.820000X3.220000X-1.820000X-3.220000X0*%
%ADD16RoundRect,0.300000X-0.700000X0.700000X-0.700000X-0.700000X0.700000X-0.700000X0.700000X0.700000X0*%
%ADD17RoundRect,0.250000X0.600000X0.725000X-0.600000X0.725000X-0.600000X-0.725000X0.600000X-0.725000X0*%
%ADD18O,1.700000X1.950000*%
%ADD19RoundRect,0.250000X0.262500X0.450000X-0.262500X0.450000X-0.262500X-0.450000X0.262500X-0.450000X0*%
%ADD20R,0.800000X2.700000*%
%ADD21RoundRect,0.250000X-0.625000X0.312500X-0.625000X-0.312500X0.625000X-0.312500X0.625000X0.312500X0*%
%ADD22C,2.000000*%
%ADD23RoundRect,0.333333X-3.666667X-3.666667X3.666667X-3.666667X3.666667X3.666667X-3.666667X3.666667X0*%
%ADD24RoundRect,0.190000X0.685000X0.190000X-0.685000X0.190000X-0.685000X-0.190000X0.685000X-0.190000X0*%
%ADD25R,2.510000X3.200000*%
%ADD26RoundRect,0.250000X0.325000X1.100000X-0.325000X1.100000X-0.325000X-1.100000X0.325000X-1.100000X0*%
%ADD27RoundRect,0.225000X0.225000X0.250000X-0.225000X0.250000X-0.225000X-0.250000X0.225000X-0.250000X0*%
%ADD28RoundRect,0.250000X-0.325000X-1.100000X0.325000X-1.100000X0.325000X1.100000X-0.325000X1.100000X0*%
%ADD29C,2.100000*%
%ADD30RoundRect,0.250000X0.475000X-0.250000X0.475000X0.250000X-0.475000X0.250000X-0.475000X-0.250000X0*%
%ADD31RotRect,1.700000X1.700000X135.000000*%
%ADD32C,1.700000*%
%ADD33RoundRect,0.112500X-0.625000X-0.112500X0.625000X-0.112500X0.625000X0.112500X-0.625000X0.112500X0*%
%ADD34RoundRect,0.200000X-0.275000X0.200000X-0.275000X-0.200000X0.275000X-0.200000X0.275000X0.200000X0*%
%ADD35R,1.700000X1.700000*%
%ADD36RoundRect,0.250000X0.450000X-0.262500X0.450000X0.262500X-0.450000X0.262500X-0.450000X-0.262500X0*%
%ADD37RoundRect,0.250000X0.600000X0.750000X-0.600000X0.750000X-0.600000X-0.750000X0.600000X-0.750000X0*%
%ADD38O,1.700000X2.000000*%
%ADD39RoundRect,0.243750X-0.456250X0.243750X-0.456250X-0.243750X0.456250X-0.243750X0.456250X0.243750X0*%
%ADD40RoundRect,0.225000X-0.250000X0.225000X-0.250000X-0.225000X0.250000X-0.225000X0.250000X0.225000X0*%
G04 APERTURE END LIST*
D10*
%TO.C,U12*%
X312082999Y-206201000D02*
X312085001Y-206201000D01*
X312088000Y-206202000D01*
X312090000Y-206202000D01*
X312093000Y-206203000D01*
X312095000Y-206204000D01*
X312098000Y-206204999D01*
X312100000Y-206207000D01*
X312102000Y-206208000D01*
X312104000Y-206210000D01*
X312106000Y-206211000D01*
X312108000Y-206213000D01*
X312110000Y-206215000D01*
X312112000Y-206217000D01*
X312114000Y-206219000D01*
X312115000Y-206221000D01*
X312117000Y-206223000D01*
X312118000Y-206225000D01*
X312120000Y-206227000D01*
X312121000Y-206230001D01*
X312122000Y-206232000D01*
X312123000Y-206235000D01*
X312123000Y-206237000D01*
X312124000Y-206240000D01*
X312124000Y-206242000D01*
X312125000Y-206245001D01*
X312125000Y-206247000D01*
X312125000Y-206250000D01*
X312124999Y-206825000D01*
X312125000Y-206828000D01*
X312125000Y-206830000D01*
X312124000Y-206833000D01*
X312124000Y-206835000D01*
X312123000Y-206838000D01*
X312123000Y-206840000D01*
X312122000Y-206843000D01*
X312121000Y-206845000D01*
X312119999Y-206848000D01*
X312118000Y-206850000D01*
X312117001Y-206852000D01*
X312115000Y-206854000D01*
X312114000Y-206856000D01*
X312112000Y-206858001D01*
X312110000Y-206860000D01*
X312108001Y-206862000D01*
X312106000Y-206864000D01*
X312104000Y-206865000D01*
X312102000Y-206867001D01*
X312100000Y-206868000D01*
X312098000Y-206869999D01*
X312095000Y-206871000D01*
X312093000Y-206872000D01*
X312090000Y-206873000D01*
X312088000Y-206873000D01*
X312085000Y-206874000D01*
X312083000Y-206874000D01*
X312080000Y-206875000D01*
X312078000Y-206875000D01*
X312075000Y-206874999D01*
X311525000Y-206875000D01*
X311522000Y-206874999D01*
X311520000Y-206875000D01*
X311517000Y-206874000D01*
X311515000Y-206874000D01*
X311512000Y-206873000D01*
X311510000Y-206873000D01*
X311507000Y-206872001D01*
X311505000Y-206871000D01*
X311502000Y-206870000D01*
X311500000Y-206868000D01*
X311498000Y-206867000D01*
X311496000Y-206865000D01*
X311494000Y-206864000D01*
X311492000Y-206862000D01*
X311490000Y-206860000D01*
X311488000Y-206858000D01*
X311486000Y-206856000D01*
X311485000Y-206854000D01*
X311483000Y-206852000D01*
X311482000Y-206850000D01*
X311480000Y-206848000D01*
X311479000Y-206845000D01*
X311478000Y-206843000D01*
X311477000Y-206840000D01*
X311477000Y-206838000D01*
X311476000Y-206835000D01*
X311476000Y-206833000D01*
X311475000Y-206830001D01*
X311475000Y-206827999D01*
X311475000Y-206825000D01*
X311475000Y-206250000D01*
X311475000Y-206247000D01*
X311475000Y-206245000D01*
X311476000Y-206242000D01*
X311476001Y-206240000D01*
X311477000Y-206237000D01*
X311477000Y-206235000D01*
X311478000Y-206232000D01*
X311479000Y-206230000D01*
X311480000Y-206227000D01*
X311482000Y-206225000D01*
X311483000Y-206223000D01*
X311485001Y-206221000D01*
X311486000Y-206219000D01*
X311488000Y-206217001D01*
X311490001Y-206215000D01*
X311492000Y-206213000D01*
X311494001Y-206211000D01*
X311496000Y-206210000D01*
X311498000Y-206208000D01*
X311500000Y-206207000D01*
X311502000Y-206205000D01*
X311505000Y-206204000D01*
X311507000Y-206203000D01*
X311510000Y-206202000D01*
X311511999Y-206202000D01*
X311515000Y-206201000D01*
X311517000Y-206201000D01*
X311520000Y-206200000D01*
X311522000Y-206200000D01*
X311525000Y-206200000D01*
X312075000Y-206200000D01*
X312078000Y-206200000D01*
X312080000Y-206200000D01*
X312082999Y-206201000D01*
G36*
X312082999Y-206201000D02*
G01*
X312085001Y-206201000D01*
X312088000Y-206202000D01*
X312090000Y-206202000D01*
X312093000Y-206203000D01*
X312095000Y-206204000D01*
X312098000Y-206204999D01*
X312100000Y-206207000D01*
X312102000Y-206208000D01*
X312104000Y-206210000D01*
X312106000Y-206211000D01*
X312108000Y-206213000D01*
X312110000Y-206215000D01*
X312112000Y-206217000D01*
X312114000Y-206219000D01*
X312115000Y-206221000D01*
X312117000Y-206223000D01*
X312118000Y-206225000D01*
X312120000Y-206227000D01*
X312121000Y-206230001D01*
X312122000Y-206232000D01*
X312123000Y-206235000D01*
X312123000Y-206237000D01*
X312124000Y-206240000D01*
X312124000Y-206242000D01*
X312125000Y-206245001D01*
X312125000Y-206247000D01*
X312125000Y-206250000D01*
X312124999Y-206825000D01*
X312125000Y-206828000D01*
X312125000Y-206830000D01*
X312124000Y-206833000D01*
X312124000Y-206835000D01*
X312123000Y-206838000D01*
X312123000Y-206840000D01*
X312122000Y-206843000D01*
X312121000Y-206845000D01*
X312119999Y-206848000D01*
X312118000Y-206850000D01*
X312117001Y-206852000D01*
X312115000Y-206854000D01*
X312114000Y-206856000D01*
X312112000Y-206858001D01*
X312110000Y-206860000D01*
X312108001Y-206862000D01*
X312106000Y-206864000D01*
X312104000Y-206865000D01*
X312102000Y-206867001D01*
X312100000Y-206868000D01*
X312098000Y-206869999D01*
X312095000Y-206871000D01*
X312093000Y-206872000D01*
X312090000Y-206873000D01*
X312088000Y-206873000D01*
X312085000Y-206874000D01*
X312083000Y-206874000D01*
X312080000Y-206875000D01*
X312078000Y-206875000D01*
X312075000Y-206874999D01*
X311525000Y-206875000D01*
X311522000Y-206874999D01*
X311520000Y-206875000D01*
X311517000Y-206874000D01*
X311515000Y-206874000D01*
X311512000Y-206873000D01*
X311510000Y-206873000D01*
X311507000Y-206872001D01*
X311505000Y-206871000D01*
X311502000Y-206870000D01*
X311500000Y-206868000D01*
X311498000Y-206867000D01*
X311496000Y-206865000D01*
X311494000Y-206864000D01*
X311492000Y-206862000D01*
X311490000Y-206860000D01*
X311488000Y-206858000D01*
X311486000Y-206856000D01*
X311485000Y-206854000D01*
X311483000Y-206852000D01*
X311482000Y-206850000D01*
X311480000Y-206848000D01*
X311479000Y-206845000D01*
X311478000Y-206843000D01*
X311477000Y-206840000D01*
X311477000Y-206838000D01*
X311476000Y-206835000D01*
X311476000Y-206833000D01*
X311475000Y-206830001D01*
X311475000Y-206827999D01*
X311475000Y-206825000D01*
X311475000Y-206250000D01*
X311475000Y-206247000D01*
X311475000Y-206245000D01*
X311476000Y-206242000D01*
X311476001Y-206240000D01*
X311477000Y-206237000D01*
X311477000Y-206235000D01*
X311478000Y-206232000D01*
X311479000Y-206230000D01*
X311480000Y-206227000D01*
X311482000Y-206225000D01*
X311483000Y-206223000D01*
X311485001Y-206221000D01*
X311486000Y-206219000D01*
X311488000Y-206217001D01*
X311490001Y-206215000D01*
X311492000Y-206213000D01*
X311494001Y-206211000D01*
X311496000Y-206210000D01*
X311498000Y-206208000D01*
X311500000Y-206207000D01*
X311502000Y-206205000D01*
X311505000Y-206204000D01*
X311507000Y-206203000D01*
X311510000Y-206202000D01*
X311511999Y-206202000D01*
X311515000Y-206201000D01*
X311517000Y-206201000D01*
X311520000Y-206200000D01*
X311522000Y-206200000D01*
X311525000Y-206200000D01*
X312075000Y-206200000D01*
X312078000Y-206200000D01*
X312080000Y-206200000D01*
X312082999Y-206201000D01*
G37*
X312078000Y-207025000D02*
X312080000Y-207025000D01*
X312082999Y-207026000D01*
X312085001Y-207026000D01*
X312088000Y-207027000D01*
X312090000Y-207027000D01*
X312093000Y-207028000D01*
X312095000Y-207029000D01*
X312098000Y-207029999D01*
X312100000Y-207032000D01*
X312102000Y-207033000D01*
X312104000Y-207035000D01*
X312106000Y-207036000D01*
X312108000Y-207038000D01*
X312110000Y-207040000D01*
X312112000Y-207042000D01*
X312114000Y-207044000D01*
X312115000Y-207046000D01*
X312117000Y-207047999D01*
X312118000Y-207050000D01*
X312120000Y-207052000D01*
X312121000Y-207055001D01*
X312122000Y-207057000D01*
X312123000Y-207060000D01*
X312123000Y-207062000D01*
X312124000Y-207065000D01*
X312124000Y-207067000D01*
X312125000Y-207070000D01*
X312125000Y-207072000D01*
X312125000Y-207075000D01*
X312125000Y-207325000D01*
X312125000Y-207328000D01*
X312124999Y-207330000D01*
X312124000Y-207333000D01*
X312124000Y-207335000D01*
X312123000Y-207338000D01*
X312123000Y-207340000D01*
X312122000Y-207342999D01*
X312121000Y-207345001D01*
X312120000Y-207348000D01*
X312118000Y-207350000D01*
X312117000Y-207352000D01*
X312115000Y-207354000D01*
X312114000Y-207356000D01*
X312112000Y-207358000D01*
X312110000Y-207360000D01*
X312108000Y-207362000D01*
X312106000Y-207364000D01*
X312104000Y-207365000D01*
X312102000Y-207367000D01*
X312100000Y-207368000D01*
X312098000Y-207370000D01*
X312095000Y-207371000D01*
X312093000Y-207371999D01*
X312090000Y-207373000D01*
X312088000Y-207373000D01*
X312085000Y-207374000D01*
X312083000Y-207374000D01*
X312080000Y-207375000D01*
X312078000Y-207375000D01*
X312075000Y-207375000D01*
X311525000Y-207375000D01*
X311522000Y-207375000D01*
X311520000Y-207375000D01*
X311517000Y-207374000D01*
X311515000Y-207374000D01*
X311512000Y-207373001D01*
X311510000Y-207373000D01*
X311507000Y-207372000D01*
X311505000Y-207371000D01*
X311502000Y-207370000D01*
X311500000Y-207368000D01*
X311498000Y-207366999D01*
X311496000Y-207365000D01*
X311494000Y-207364001D01*
X311492000Y-207362000D01*
X311490000Y-207360000D01*
X311487999Y-207358000D01*
X311486000Y-207356000D01*
X311485001Y-207354000D01*
X311483000Y-207352000D01*
X311482000Y-207350000D01*
X311480000Y-207347999D01*
X311479000Y-207345000D01*
X311478000Y-207343000D01*
X311477000Y-207340000D01*
X311477000Y-207338000D01*
X311476001Y-207335000D01*
X311476000Y-207333000D01*
X311475000Y-207330000D01*
X311475000Y-207328000D01*
X311475000Y-207324999D01*
X311475000Y-207075000D01*
X311475000Y-207071999D01*
X311475000Y-207070000D01*
X311476000Y-207067000D01*
X311476000Y-207065000D01*
X311477000Y-207062000D01*
X311477000Y-207060000D01*
X311478000Y-207057000D01*
X311479000Y-207055000D01*
X311480000Y-207052000D01*
X311482000Y-207050000D01*
X311483000Y-207048000D01*
X311485000Y-207046000D01*
X311486000Y-207044000D01*
X311488000Y-207042000D01*
X311490001Y-207040000D01*
X311492000Y-207038000D01*
X311494000Y-207036001D01*
X311496000Y-207035000D01*
X311498000Y-207033000D01*
X311500000Y-207032000D01*
X311502000Y-207030000D01*
X311505000Y-207029000D01*
X311507000Y-207028000D01*
X311510000Y-207027000D01*
X311512000Y-207027001D01*
X311515000Y-207026000D01*
X311517000Y-207026000D01*
X311520000Y-207025000D01*
X311522000Y-207024999D01*
X311525000Y-207025000D01*
X312075000Y-207024999D01*
X312078000Y-207025000D01*
G36*
X312078000Y-207025000D02*
G01*
X312080000Y-207025000D01*
X312082999Y-207026000D01*
X312085001Y-207026000D01*
X312088000Y-207027000D01*
X312090000Y-207027000D01*
X312093000Y-207028000D01*
X312095000Y-207029000D01*
X312098000Y-207029999D01*
X312100000Y-207032000D01*
X312102000Y-207033000D01*
X312104000Y-207035000D01*
X312106000Y-207036000D01*
X312108000Y-207038000D01*
X312110000Y-207040000D01*
X312112000Y-207042000D01*
X312114000Y-207044000D01*
X312115000Y-207046000D01*
X312117000Y-207047999D01*
X312118000Y-207050000D01*
X312120000Y-207052000D01*
X312121000Y-207055001D01*
X312122000Y-207057000D01*
X312123000Y-207060000D01*
X312123000Y-207062000D01*
X312124000Y-207065000D01*
X312124000Y-207067000D01*
X312125000Y-207070000D01*
X312125000Y-207072000D01*
X312125000Y-207075000D01*
X312125000Y-207325000D01*
X312125000Y-207328000D01*
X312124999Y-207330000D01*
X312124000Y-207333000D01*
X312124000Y-207335000D01*
X312123000Y-207338000D01*
X312123000Y-207340000D01*
X312122000Y-207342999D01*
X312121000Y-207345001D01*
X312120000Y-207348000D01*
X312118000Y-207350000D01*
X312117000Y-207352000D01*
X312115000Y-207354000D01*
X312114000Y-207356000D01*
X312112000Y-207358000D01*
X312110000Y-207360000D01*
X312108000Y-207362000D01*
X312106000Y-207364000D01*
X312104000Y-207365000D01*
X312102000Y-207367000D01*
X312100000Y-207368000D01*
X312098000Y-207370000D01*
X312095000Y-207371000D01*
X312093000Y-207371999D01*
X312090000Y-207373000D01*
X312088000Y-207373000D01*
X312085000Y-207374000D01*
X312083000Y-207374000D01*
X312080000Y-207375000D01*
X312078000Y-207375000D01*
X312075000Y-207375000D01*
X311525000Y-207375000D01*
X311522000Y-207375000D01*
X311520000Y-207375000D01*
X311517000Y-207374000D01*
X311515000Y-207374000D01*
X311512000Y-207373001D01*
X311510000Y-207373000D01*
X311507000Y-207372000D01*
X311505000Y-207371000D01*
X311502000Y-207370000D01*
X311500000Y-207368000D01*
X311498000Y-207366999D01*
X311496000Y-207365000D01*
X311494000Y-207364001D01*
X311492000Y-207362000D01*
X311490000Y-207360000D01*
X311487999Y-207358000D01*
X311486000Y-207356000D01*
X311485001Y-207354000D01*
X311483000Y-207352000D01*
X311482000Y-207350000D01*
X311480000Y-207347999D01*
X311479000Y-207345000D01*
X311478000Y-207343000D01*
X311477000Y-207340000D01*
X311477000Y-207338000D01*
X311476001Y-207335000D01*
X311476000Y-207333000D01*
X311475000Y-207330000D01*
X311475000Y-207328000D01*
X311475000Y-207324999D01*
X311475000Y-207075000D01*
X311475000Y-207071999D01*
X311475000Y-207070000D01*
X311476000Y-207067000D01*
X311476000Y-207065000D01*
X311477000Y-207062000D01*
X311477000Y-207060000D01*
X311478000Y-207057000D01*
X311479000Y-207055000D01*
X311480000Y-207052000D01*
X311482000Y-207050000D01*
X311483000Y-207048000D01*
X311485000Y-207046000D01*
X311486000Y-207044000D01*
X311488000Y-207042000D01*
X311490001Y-207040000D01*
X311492000Y-207038000D01*
X311494000Y-207036001D01*
X311496000Y-207035000D01*
X311498000Y-207033000D01*
X311500000Y-207032000D01*
X311502000Y-207030000D01*
X311505000Y-207029000D01*
X311507000Y-207028000D01*
X311510000Y-207027000D01*
X311512000Y-207027001D01*
X311515000Y-207026000D01*
X311517000Y-207026000D01*
X311520000Y-207025000D01*
X311522000Y-207024999D01*
X311525000Y-207025000D01*
X312075000Y-207024999D01*
X312078000Y-207025000D01*
G37*
X312083000Y-207526000D02*
X312085000Y-207526000D01*
X312087999Y-207527000D01*
X312090000Y-207527000D01*
X312093000Y-207528000D01*
X312095000Y-207529000D01*
X312098000Y-207530000D01*
X312100000Y-207532000D01*
X312102000Y-207533000D01*
X312104000Y-207535000D01*
X312105999Y-207536000D01*
X312108000Y-207538000D01*
X312110000Y-207540000D01*
X312112000Y-207542001D01*
X312114000Y-207544000D01*
X312115000Y-207546000D01*
X312117000Y-207548000D01*
X312118000Y-207550000D01*
X312120000Y-207552000D01*
X312121000Y-207555000D01*
X312122000Y-207557000D01*
X312123000Y-207560000D01*
X312123000Y-207562000D01*
X312124000Y-207565000D01*
X312124000Y-207567000D01*
X312125000Y-207570000D01*
X312125000Y-207572000D01*
X312125000Y-207575000D01*
X312125000Y-207825000D01*
X312125000Y-207828000D01*
X312125000Y-207830000D01*
X312124000Y-207833000D01*
X312124000Y-207835000D01*
X312123000Y-207838000D01*
X312123000Y-207840000D01*
X312122000Y-207843000D01*
X312121000Y-207845000D01*
X312120000Y-207848000D01*
X312118000Y-207850000D01*
X312117000Y-207852000D01*
X312115000Y-207854000D01*
X312114000Y-207856000D01*
X312112000Y-207857999D01*
X312110000Y-207860000D01*
X312108000Y-207862000D01*
X312105999Y-207864000D01*
X312104000Y-207865000D01*
X312102000Y-207867000D01*
X312100000Y-207868000D01*
X312098000Y-207870000D01*
X312095000Y-207871000D01*
X312093000Y-207872000D01*
X312090000Y-207873000D01*
X312087999Y-207873000D01*
X312085000Y-207874000D01*
X312083000Y-207874000D01*
X312080000Y-207875000D01*
X312078000Y-207875000D01*
X312075000Y-207875000D01*
X311525000Y-207875000D01*
X311522000Y-207875000D01*
X311520000Y-207875000D01*
X311517000Y-207874001D01*
X311515000Y-207874000D01*
X311512000Y-207873000D01*
X311510000Y-207873000D01*
X311507000Y-207871999D01*
X311505000Y-207871000D01*
X311502000Y-207870000D01*
X311500000Y-207868000D01*
X311498000Y-207867000D01*
X311496000Y-207865000D01*
X311494000Y-207864000D01*
X311492000Y-207862000D01*
X311490000Y-207860000D01*
X311488000Y-207858000D01*
X311486000Y-207856000D01*
X311485000Y-207854000D01*
X311483000Y-207852000D01*
X311482000Y-207850000D01*
X311480000Y-207848000D01*
X311478999Y-207845000D01*
X311478000Y-207843000D01*
X311477000Y-207840000D01*
X311477000Y-207838000D01*
X311476000Y-207835000D01*
X311476000Y-207833000D01*
X311475000Y-207829999D01*
X311475000Y-207828000D01*
X311475000Y-207825000D01*
X311475000Y-207575000D01*
X311475000Y-207572000D01*
X311475000Y-207570001D01*
X311476000Y-207567000D01*
X311476000Y-207565000D01*
X311477000Y-207562000D01*
X311477000Y-207560000D01*
X311478000Y-207557000D01*
X311478999Y-207555000D01*
X311480000Y-207552000D01*
X311482000Y-207550000D01*
X311483000Y-207548000D01*
X311485000Y-207546000D01*
X311486000Y-207544000D01*
X311488000Y-207542000D01*
X311490000Y-207540000D01*
X311492000Y-207538000D01*
X311494000Y-207536000D01*
X311496000Y-207535000D01*
X311498000Y-207533000D01*
X311500000Y-207532000D01*
X311502000Y-207530000D01*
X311505000Y-207529000D01*
X311507000Y-207528001D01*
X311510000Y-207527000D01*
X311512000Y-207527000D01*
X311515000Y-207526000D01*
X311517000Y-207525999D01*
X311520000Y-207525000D01*
X311522000Y-207525000D01*
X311525000Y-207525000D01*
X312075000Y-207525000D01*
X312078000Y-207525000D01*
X312080000Y-207525000D01*
X312083000Y-207526000D01*
G36*
X312083000Y-207526000D02*
G01*
X312085000Y-207526000D01*
X312087999Y-207527000D01*
X312090000Y-207527000D01*
X312093000Y-207528000D01*
X312095000Y-207529000D01*
X312098000Y-207530000D01*
X312100000Y-207532000D01*
X312102000Y-207533000D01*
X312104000Y-207535000D01*
X312105999Y-207536000D01*
X312108000Y-207538000D01*
X312110000Y-207540000D01*
X312112000Y-207542001D01*
X312114000Y-207544000D01*
X312115000Y-207546000D01*
X312117000Y-207548000D01*
X312118000Y-207550000D01*
X312120000Y-207552000D01*
X312121000Y-207555000D01*
X312122000Y-207557000D01*
X312123000Y-207560000D01*
X312123000Y-207562000D01*
X312124000Y-207565000D01*
X312124000Y-207567000D01*
X312125000Y-207570000D01*
X312125000Y-207572000D01*
X312125000Y-207575000D01*
X312125000Y-207825000D01*
X312125000Y-207828000D01*
X312125000Y-207830000D01*
X312124000Y-207833000D01*
X312124000Y-207835000D01*
X312123000Y-207838000D01*
X312123000Y-207840000D01*
X312122000Y-207843000D01*
X312121000Y-207845000D01*
X312120000Y-207848000D01*
X312118000Y-207850000D01*
X312117000Y-207852000D01*
X312115000Y-207854000D01*
X312114000Y-207856000D01*
X312112000Y-207857999D01*
X312110000Y-207860000D01*
X312108000Y-207862000D01*
X312105999Y-207864000D01*
X312104000Y-207865000D01*
X312102000Y-207867000D01*
X312100000Y-207868000D01*
X312098000Y-207870000D01*
X312095000Y-207871000D01*
X312093000Y-207872000D01*
X312090000Y-207873000D01*
X312087999Y-207873000D01*
X312085000Y-207874000D01*
X312083000Y-207874000D01*
X312080000Y-207875000D01*
X312078000Y-207875000D01*
X312075000Y-207875000D01*
X311525000Y-207875000D01*
X311522000Y-207875000D01*
X311520000Y-207875000D01*
X311517000Y-207874001D01*
X311515000Y-207874000D01*
X311512000Y-207873000D01*
X311510000Y-207873000D01*
X311507000Y-207871999D01*
X311505000Y-207871000D01*
X311502000Y-207870000D01*
X311500000Y-207868000D01*
X311498000Y-207867000D01*
X311496000Y-207865000D01*
X311494000Y-207864000D01*
X311492000Y-207862000D01*
X311490000Y-207860000D01*
X311488000Y-207858000D01*
X311486000Y-207856000D01*
X311485000Y-207854000D01*
X311483000Y-207852000D01*
X311482000Y-207850000D01*
X311480000Y-207848000D01*
X311478999Y-207845000D01*
X311478000Y-207843000D01*
X311477000Y-207840000D01*
X311477000Y-207838000D01*
X311476000Y-207835000D01*
X311476000Y-207833000D01*
X311475000Y-207829999D01*
X311475000Y-207828000D01*
X311475000Y-207825000D01*
X311475000Y-207575000D01*
X311475000Y-207572000D01*
X311475000Y-207570001D01*
X311476000Y-207567000D01*
X311476000Y-207565000D01*
X311477000Y-207562000D01*
X311477000Y-207560000D01*
X311478000Y-207557000D01*
X311478999Y-207555000D01*
X311480000Y-207552000D01*
X311482000Y-207550000D01*
X311483000Y-207548000D01*
X311485000Y-207546000D01*
X311486000Y-207544000D01*
X311488000Y-207542000D01*
X311490000Y-207540000D01*
X311492000Y-207538000D01*
X311494000Y-207536000D01*
X311496000Y-207535000D01*
X311498000Y-207533000D01*
X311500000Y-207532000D01*
X311502000Y-207530000D01*
X311505000Y-207529000D01*
X311507000Y-207528001D01*
X311510000Y-207527000D01*
X311512000Y-207527000D01*
X311515000Y-207526000D01*
X311517000Y-207525999D01*
X311520000Y-207525000D01*
X311522000Y-207525000D01*
X311525000Y-207525000D01*
X312075000Y-207525000D01*
X312078000Y-207525000D01*
X312080000Y-207525000D01*
X312083000Y-207526000D01*
G37*
X312083000Y-208026000D02*
X312085000Y-208026000D01*
X312088000Y-208027000D01*
X312090000Y-208027000D01*
X312093000Y-208028001D01*
X312095000Y-208029000D01*
X312098000Y-208030000D01*
X312100000Y-208032000D01*
X312102000Y-208033000D01*
X312104000Y-208035000D01*
X312106000Y-208036000D01*
X312108000Y-208038000D01*
X312110000Y-208040000D01*
X312112000Y-208042000D01*
X312114000Y-208044000D01*
X312115000Y-208046000D01*
X312117000Y-208048000D01*
X312118000Y-208050000D01*
X312120000Y-208052000D01*
X312121000Y-208054999D01*
X312122000Y-208057001D01*
X312123000Y-208060000D01*
X312123000Y-208062000D01*
X312124000Y-208065000D01*
X312124000Y-208067000D01*
X312124999Y-208070000D01*
X312125000Y-208072000D01*
X312125000Y-208075000D01*
X312125000Y-208325000D01*
X312125000Y-208328000D01*
X312125000Y-208330000D01*
X312124000Y-208333000D01*
X312124000Y-208335000D01*
X312123000Y-208338000D01*
X312123000Y-208340000D01*
X312122000Y-208343000D01*
X312121000Y-208344999D01*
X312120000Y-208348000D01*
X312118000Y-208350000D01*
X312117000Y-208352001D01*
X312115000Y-208354000D01*
X312114000Y-208356000D01*
X312112000Y-208358000D01*
X312110000Y-208360000D01*
X312108000Y-208362000D01*
X312106000Y-208364000D01*
X312104000Y-208365000D01*
X312102000Y-208367000D01*
X312100000Y-208368000D01*
X312098000Y-208370001D01*
X312095000Y-208371000D01*
X312093000Y-208372000D01*
X312090000Y-208373000D01*
X312088000Y-208373000D01*
X312085001Y-208374000D01*
X312082999Y-208374000D01*
X312080000Y-208375000D01*
X312078000Y-208375000D01*
X312075000Y-208375001D01*
X311525000Y-208375000D01*
X311522000Y-208375001D01*
X311520000Y-208375000D01*
X311517000Y-208374000D01*
X311515000Y-208374000D01*
X311512000Y-208372999D01*
X311510000Y-208373000D01*
X311507000Y-208372000D01*
X311505000Y-208371000D01*
X311502000Y-208370000D01*
X311500000Y-208368000D01*
X311498000Y-208367000D01*
X311496000Y-208365000D01*
X311494000Y-208363999D01*
X311492000Y-208362000D01*
X311490001Y-208360000D01*
X311488000Y-208358000D01*
X311486000Y-208356000D01*
X311485000Y-208354000D01*
X311483000Y-208352000D01*
X311482000Y-208350000D01*
X311480000Y-208348000D01*
X311479000Y-208345000D01*
X311478000Y-208343000D01*
X311477000Y-208340000D01*
X311477000Y-208338000D01*
X311476000Y-208335000D01*
X311476000Y-208333000D01*
X311475000Y-208330000D01*
X311475000Y-208328001D01*
X311475000Y-208325000D01*
X311475000Y-208075001D01*
X311475000Y-208072000D01*
X311475000Y-208070000D01*
X311476000Y-208067000D01*
X311476001Y-208065000D01*
X311477000Y-208062000D01*
X311477000Y-208060000D01*
X311478000Y-208057000D01*
X311479000Y-208055000D01*
X311480000Y-208052001D01*
X311482000Y-208050000D01*
X311483000Y-208048000D01*
X311485001Y-208046000D01*
X311486000Y-208044000D01*
X311487999Y-208042000D01*
X311490000Y-208040000D01*
X311492000Y-208038000D01*
X311494000Y-208035999D01*
X311496000Y-208035000D01*
X311498000Y-208033001D01*
X311500000Y-208032000D01*
X311502000Y-208030000D01*
X311505000Y-208029000D01*
X311507000Y-208028000D01*
X311510000Y-208027000D01*
X311512000Y-208026999D01*
X311515000Y-208026000D01*
X311517000Y-208026000D01*
X311520000Y-208025000D01*
X311522000Y-208025000D01*
X311525000Y-208025000D01*
X312075000Y-208025000D01*
X312078000Y-208025000D01*
X312080000Y-208025000D01*
X312083000Y-208026000D01*
G36*
X312083000Y-208026000D02*
G01*
X312085000Y-208026000D01*
X312088000Y-208027000D01*
X312090000Y-208027000D01*
X312093000Y-208028001D01*
X312095000Y-208029000D01*
X312098000Y-208030000D01*
X312100000Y-208032000D01*
X312102000Y-208033000D01*
X312104000Y-208035000D01*
X312106000Y-208036000D01*
X312108000Y-208038000D01*
X312110000Y-208040000D01*
X312112000Y-208042000D01*
X312114000Y-208044000D01*
X312115000Y-208046000D01*
X312117000Y-208048000D01*
X312118000Y-208050000D01*
X312120000Y-208052000D01*
X312121000Y-208054999D01*
X312122000Y-208057001D01*
X312123000Y-208060000D01*
X312123000Y-208062000D01*
X312124000Y-208065000D01*
X312124000Y-208067000D01*
X312124999Y-208070000D01*
X312125000Y-208072000D01*
X312125000Y-208075000D01*
X312125000Y-208325000D01*
X312125000Y-208328000D01*
X312125000Y-208330000D01*
X312124000Y-208333000D01*
X312124000Y-208335000D01*
X312123000Y-208338000D01*
X312123000Y-208340000D01*
X312122000Y-208343000D01*
X312121000Y-208344999D01*
X312120000Y-208348000D01*
X312118000Y-208350000D01*
X312117000Y-208352001D01*
X312115000Y-208354000D01*
X312114000Y-208356000D01*
X312112000Y-208358000D01*
X312110000Y-208360000D01*
X312108000Y-208362000D01*
X312106000Y-208364000D01*
X312104000Y-208365000D01*
X312102000Y-208367000D01*
X312100000Y-208368000D01*
X312098000Y-208370001D01*
X312095000Y-208371000D01*
X312093000Y-208372000D01*
X312090000Y-208373000D01*
X312088000Y-208373000D01*
X312085001Y-208374000D01*
X312082999Y-208374000D01*
X312080000Y-208375000D01*
X312078000Y-208375000D01*
X312075000Y-208375001D01*
X311525000Y-208375000D01*
X311522000Y-208375001D01*
X311520000Y-208375000D01*
X311517000Y-208374000D01*
X311515000Y-208374000D01*
X311512000Y-208372999D01*
X311510000Y-208373000D01*
X311507000Y-208372000D01*
X311505000Y-208371000D01*
X311502000Y-208370000D01*
X311500000Y-208368000D01*
X311498000Y-208367000D01*
X311496000Y-208365000D01*
X311494000Y-208363999D01*
X311492000Y-208362000D01*
X311490001Y-208360000D01*
X311488000Y-208358000D01*
X311486000Y-208356000D01*
X311485000Y-208354000D01*
X311483000Y-208352000D01*
X311482000Y-208350000D01*
X311480000Y-208348000D01*
X311479000Y-208345000D01*
X311478000Y-208343000D01*
X311477000Y-208340000D01*
X311477000Y-208338000D01*
X311476000Y-208335000D01*
X311476000Y-208333000D01*
X311475000Y-208330000D01*
X311475000Y-208328001D01*
X311475000Y-208325000D01*
X311475000Y-208075001D01*
X311475000Y-208072000D01*
X311475000Y-208070000D01*
X311476000Y-208067000D01*
X311476001Y-208065000D01*
X311477000Y-208062000D01*
X311477000Y-208060000D01*
X311478000Y-208057000D01*
X311479000Y-208055000D01*
X311480000Y-208052001D01*
X311482000Y-208050000D01*
X311483000Y-208048000D01*
X311485001Y-208046000D01*
X311486000Y-208044000D01*
X311487999Y-208042000D01*
X311490000Y-208040000D01*
X311492000Y-208038000D01*
X311494000Y-208035999D01*
X311496000Y-208035000D01*
X311498000Y-208033001D01*
X311500000Y-208032000D01*
X311502000Y-208030000D01*
X311505000Y-208029000D01*
X311507000Y-208028000D01*
X311510000Y-208027000D01*
X311512000Y-208026999D01*
X311515000Y-208026000D01*
X311517000Y-208026000D01*
X311520000Y-208025000D01*
X311522000Y-208025000D01*
X311525000Y-208025000D01*
X312075000Y-208025000D01*
X312078000Y-208025000D01*
X312080000Y-208025000D01*
X312083000Y-208026000D01*
G37*
X312083000Y-208526000D02*
X312085000Y-208526000D01*
X312088000Y-208527000D01*
X312090000Y-208527000D01*
X312093000Y-208528000D01*
X312095000Y-208529000D01*
X312098000Y-208530001D01*
X312100000Y-208532000D01*
X312102000Y-208532999D01*
X312104000Y-208535000D01*
X312106000Y-208536000D01*
X312108001Y-208538000D01*
X312110000Y-208540000D01*
X312112000Y-208541999D01*
X312114000Y-208544000D01*
X312115000Y-208546000D01*
X312117001Y-208548000D01*
X312118000Y-208550000D01*
X312119999Y-208552000D01*
X312121000Y-208555000D01*
X312122000Y-208557000D01*
X312123000Y-208560000D01*
X312123000Y-208562000D01*
X312124000Y-208565000D01*
X312124000Y-208567000D01*
X312125000Y-208570000D01*
X312125000Y-208572000D01*
X312124999Y-208575000D01*
X312125000Y-209150000D01*
X312125000Y-209153000D01*
X312125000Y-209154999D01*
X312124000Y-209158000D01*
X312124000Y-209160000D01*
X312123000Y-209163000D01*
X312123000Y-209165000D01*
X312122000Y-209168000D01*
X312121000Y-209169999D01*
X312120000Y-209173000D01*
X312118000Y-209175000D01*
X312117000Y-209177000D01*
X312115000Y-209179000D01*
X312114000Y-209181000D01*
X312112000Y-209183000D01*
X312110000Y-209185000D01*
X312108000Y-209187000D01*
X312106000Y-209189000D01*
X312104000Y-209190000D01*
X312102000Y-209192000D01*
X312100000Y-209193000D01*
X312098000Y-209195001D01*
X312095000Y-209196000D01*
X312093000Y-209197000D01*
X312090000Y-209198000D01*
X312088000Y-209198000D01*
X312085001Y-209199000D01*
X312082999Y-209199000D01*
X312080000Y-209200000D01*
X312078000Y-209200000D01*
X312075000Y-209200000D01*
X311525000Y-209200000D01*
X311522000Y-209200000D01*
X311520000Y-209200000D01*
X311517000Y-209199000D01*
X311515000Y-209199000D01*
X311511999Y-209198000D01*
X311510000Y-209198000D01*
X311507000Y-209197000D01*
X311505000Y-209196000D01*
X311502000Y-209195000D01*
X311500000Y-209193000D01*
X311498000Y-209192000D01*
X311496000Y-209190000D01*
X311494001Y-209189000D01*
X311492000Y-209187000D01*
X311490001Y-209185000D01*
X311488000Y-209182999D01*
X311486000Y-209181000D01*
X311485001Y-209179000D01*
X311483000Y-209177000D01*
X311482000Y-209175000D01*
X311480000Y-209173000D01*
X311479000Y-209170000D01*
X311478000Y-209168000D01*
X311477000Y-209165000D01*
X311477000Y-209163000D01*
X311476001Y-209160000D01*
X311476000Y-209158000D01*
X311475000Y-209155000D01*
X311475000Y-209153000D01*
X311475000Y-209150000D01*
X311475000Y-208575000D01*
X311475000Y-208572001D01*
X311475000Y-208569999D01*
X311476000Y-208567000D01*
X311476000Y-208565000D01*
X311477000Y-208562000D01*
X311477000Y-208560000D01*
X311478000Y-208557000D01*
X311479000Y-208555000D01*
X311480000Y-208552000D01*
X311482000Y-208550000D01*
X311483000Y-208548000D01*
X311485000Y-208546000D01*
X311486000Y-208544000D01*
X311488000Y-208542000D01*
X311490000Y-208540000D01*
X311492000Y-208538000D01*
X311494000Y-208536000D01*
X311496000Y-208535000D01*
X311498000Y-208533000D01*
X311500000Y-208532000D01*
X311502000Y-208530000D01*
X311505000Y-208529000D01*
X311507000Y-208527999D01*
X311510000Y-208527000D01*
X311512000Y-208527000D01*
X311515000Y-208526000D01*
X311517000Y-208526000D01*
X311520000Y-208525000D01*
X311522000Y-208525001D01*
X311525000Y-208525000D01*
X312075000Y-208525001D01*
X312078000Y-208525000D01*
X312080000Y-208525000D01*
X312083000Y-208526000D01*
G36*
X312083000Y-208526000D02*
G01*
X312085000Y-208526000D01*
X312088000Y-208527000D01*
X312090000Y-208527000D01*
X312093000Y-208528000D01*
X312095000Y-208529000D01*
X312098000Y-208530001D01*
X312100000Y-208532000D01*
X312102000Y-208532999D01*
X312104000Y-208535000D01*
X312106000Y-208536000D01*
X312108001Y-208538000D01*
X312110000Y-208540000D01*
X312112000Y-208541999D01*
X312114000Y-208544000D01*
X312115000Y-208546000D01*
X312117001Y-208548000D01*
X312118000Y-208550000D01*
X312119999Y-208552000D01*
X312121000Y-208555000D01*
X312122000Y-208557000D01*
X312123000Y-208560000D01*
X312123000Y-208562000D01*
X312124000Y-208565000D01*
X312124000Y-208567000D01*
X312125000Y-208570000D01*
X312125000Y-208572000D01*
X312124999Y-208575000D01*
X312125000Y-209150000D01*
X312125000Y-209153000D01*
X312125000Y-209154999D01*
X312124000Y-209158000D01*
X312124000Y-209160000D01*
X312123000Y-209163000D01*
X312123000Y-209165000D01*
X312122000Y-209168000D01*
X312121000Y-209169999D01*
X312120000Y-209173000D01*
X312118000Y-209175000D01*
X312117000Y-209177000D01*
X312115000Y-209179000D01*
X312114000Y-209181000D01*
X312112000Y-209183000D01*
X312110000Y-209185000D01*
X312108000Y-209187000D01*
X312106000Y-209189000D01*
X312104000Y-209190000D01*
X312102000Y-209192000D01*
X312100000Y-209193000D01*
X312098000Y-209195001D01*
X312095000Y-209196000D01*
X312093000Y-209197000D01*
X312090000Y-209198000D01*
X312088000Y-209198000D01*
X312085001Y-209199000D01*
X312082999Y-209199000D01*
X312080000Y-209200000D01*
X312078000Y-209200000D01*
X312075000Y-209200000D01*
X311525000Y-209200000D01*
X311522000Y-209200000D01*
X311520000Y-209200000D01*
X311517000Y-209199000D01*
X311515000Y-209199000D01*
X311511999Y-209198000D01*
X311510000Y-209198000D01*
X311507000Y-209197000D01*
X311505000Y-209196000D01*
X311502000Y-209195000D01*
X311500000Y-209193000D01*
X311498000Y-209192000D01*
X311496000Y-209190000D01*
X311494001Y-209189000D01*
X311492000Y-209187000D01*
X311490001Y-209185000D01*
X311488000Y-209182999D01*
X311486000Y-209181000D01*
X311485001Y-209179000D01*
X311483000Y-209177000D01*
X311482000Y-209175000D01*
X311480000Y-209173000D01*
X311479000Y-209170000D01*
X311478000Y-209168000D01*
X311477000Y-209165000D01*
X311477000Y-209163000D01*
X311476001Y-209160000D01*
X311476000Y-209158000D01*
X311475000Y-209155000D01*
X311475000Y-209153000D01*
X311475000Y-209150000D01*
X311475000Y-208575000D01*
X311475000Y-208572001D01*
X311475000Y-208569999D01*
X311476000Y-208567000D01*
X311476000Y-208565000D01*
X311477000Y-208562000D01*
X311477000Y-208560000D01*
X311478000Y-208557000D01*
X311479000Y-208555000D01*
X311480000Y-208552000D01*
X311482000Y-208550000D01*
X311483000Y-208548000D01*
X311485000Y-208546000D01*
X311486000Y-208544000D01*
X311488000Y-208542000D01*
X311490000Y-208540000D01*
X311492000Y-208538000D01*
X311494000Y-208536000D01*
X311496000Y-208535000D01*
X311498000Y-208533000D01*
X311500000Y-208532000D01*
X311502000Y-208530000D01*
X311505000Y-208529000D01*
X311507000Y-208527999D01*
X311510000Y-208527000D01*
X311512000Y-208527000D01*
X311515000Y-208526000D01*
X311517000Y-208526000D01*
X311520000Y-208525000D01*
X311522000Y-208525001D01*
X311525000Y-208525000D01*
X312075000Y-208525001D01*
X312078000Y-208525000D01*
X312080000Y-208525000D01*
X312083000Y-208526000D01*
G37*
X313333000Y-206201000D02*
X313335000Y-206201000D01*
X313337999Y-206202000D01*
X313340000Y-206202000D01*
X313343000Y-206203000D01*
X313345000Y-206204000D01*
X313348000Y-206205000D01*
X313350000Y-206207000D01*
X313352000Y-206208000D01*
X313354000Y-206210000D01*
X313355999Y-206211000D01*
X313358000Y-206213000D01*
X313360000Y-206215000D01*
X313362000Y-206217001D01*
X313364000Y-206219000D01*
X313365000Y-206221000D01*
X313367000Y-206223000D01*
X313368000Y-206225000D01*
X313370000Y-206227000D01*
X313371000Y-206230000D01*
X313372000Y-206232000D01*
X313373000Y-206235000D01*
X313373000Y-206237000D01*
X313374000Y-206240000D01*
X313374000Y-206242000D01*
X313375000Y-206245000D01*
X313375000Y-206247000D01*
X313375000Y-206250000D01*
X313375000Y-209150000D01*
X313375000Y-209153000D01*
X313375000Y-209155000D01*
X313374000Y-209158000D01*
X313374000Y-209160000D01*
X313373000Y-209163000D01*
X313373000Y-209165000D01*
X313372000Y-209168000D01*
X313371000Y-209170000D01*
X313370000Y-209173000D01*
X313368000Y-209175000D01*
X313367000Y-209177000D01*
X313365000Y-209179000D01*
X313364000Y-209181000D01*
X313362000Y-209182999D01*
X313360000Y-209185000D01*
X313358000Y-209187000D01*
X313355999Y-209189000D01*
X313354000Y-209190000D01*
X313352000Y-209192000D01*
X313350000Y-209193000D01*
X313348000Y-209195000D01*
X313345000Y-209196000D01*
X313343000Y-209197000D01*
X313340000Y-209198000D01*
X313337999Y-209198000D01*
X313335000Y-209199000D01*
X313333000Y-209199000D01*
X313330000Y-209200000D01*
X313328000Y-209200000D01*
X313325000Y-209200000D01*
X312425000Y-209200000D01*
X312422000Y-209200000D01*
X312420000Y-209200000D01*
X312417000Y-209199000D01*
X312415000Y-209199000D01*
X312412001Y-209198000D01*
X312410000Y-209198000D01*
X312407000Y-209197000D01*
X312405000Y-209196000D01*
X312402000Y-209195000D01*
X312400000Y-209193000D01*
X312398000Y-209192000D01*
X312396000Y-209190000D01*
X312394001Y-209189000D01*
X312392000Y-209187000D01*
X312390000Y-209185000D01*
X312388000Y-209182999D01*
X312386000Y-209181000D01*
X312385000Y-209179000D01*
X312383000Y-209177000D01*
X312382000Y-209175000D01*
X312380000Y-209173000D01*
X312379000Y-209170000D01*
X312378000Y-209168000D01*
X312377000Y-209165000D01*
X312377000Y-209163000D01*
X312376000Y-209160000D01*
X312376000Y-209158000D01*
X312375000Y-209155000D01*
X312375000Y-209153000D01*
X312375000Y-209150000D01*
X312375000Y-206250000D01*
X312375000Y-206247000D01*
X312375000Y-206245000D01*
X312376000Y-206242000D01*
X312376000Y-206240000D01*
X312377000Y-206237000D01*
X312377000Y-206235000D01*
X312378000Y-206232000D01*
X312379000Y-206230000D01*
X312380000Y-206227000D01*
X312382000Y-206225000D01*
X312383000Y-206223000D01*
X312385000Y-206221000D01*
X312386000Y-206219000D01*
X312388000Y-206217001D01*
X312390000Y-206215000D01*
X312392000Y-206213000D01*
X312394001Y-206211000D01*
X312396000Y-206210000D01*
X312398000Y-206208000D01*
X312400000Y-206207000D01*
X312402000Y-206205000D01*
X312405000Y-206204000D01*
X312407000Y-206203000D01*
X312410000Y-206202000D01*
X312412001Y-206202000D01*
X312415000Y-206201000D01*
X312417000Y-206201000D01*
X312420000Y-206200000D01*
X312422000Y-206200000D01*
X312425000Y-206200000D01*
X313325000Y-206200000D01*
X313328000Y-206200000D01*
X313330000Y-206200000D01*
X313333000Y-206201000D01*
G36*
X313333000Y-206201000D02*
G01*
X313335000Y-206201000D01*
X313337999Y-206202000D01*
X313340000Y-206202000D01*
X313343000Y-206203000D01*
X313345000Y-206204000D01*
X313348000Y-206205000D01*
X313350000Y-206207000D01*
X313352000Y-206208000D01*
X313354000Y-206210000D01*
X313355999Y-206211000D01*
X313358000Y-206213000D01*
X313360000Y-206215000D01*
X313362000Y-206217001D01*
X313364000Y-206219000D01*
X313365000Y-206221000D01*
X313367000Y-206223000D01*
X313368000Y-206225000D01*
X313370000Y-206227000D01*
X313371000Y-206230000D01*
X313372000Y-206232000D01*
X313373000Y-206235000D01*
X313373000Y-206237000D01*
X313374000Y-206240000D01*
X313374000Y-206242000D01*
X313375000Y-206245000D01*
X313375000Y-206247000D01*
X313375000Y-206250000D01*
X313375000Y-209150000D01*
X313375000Y-209153000D01*
X313375000Y-209155000D01*
X313374000Y-209158000D01*
X313374000Y-209160000D01*
X313373000Y-209163000D01*
X313373000Y-209165000D01*
X313372000Y-209168000D01*
X313371000Y-209170000D01*
X313370000Y-209173000D01*
X313368000Y-209175000D01*
X313367000Y-209177000D01*
X313365000Y-209179000D01*
X313364000Y-209181000D01*
X313362000Y-209182999D01*
X313360000Y-209185000D01*
X313358000Y-209187000D01*
X313355999Y-209189000D01*
X313354000Y-209190000D01*
X313352000Y-209192000D01*
X313350000Y-209193000D01*
X313348000Y-209195000D01*
X313345000Y-209196000D01*
X313343000Y-209197000D01*
X313340000Y-209198000D01*
X313337999Y-209198000D01*
X313335000Y-209199000D01*
X313333000Y-209199000D01*
X313330000Y-209200000D01*
X313328000Y-209200000D01*
X313325000Y-209200000D01*
X312425000Y-209200000D01*
X312422000Y-209200000D01*
X312420000Y-209200000D01*
X312417000Y-209199000D01*
X312415000Y-209199000D01*
X312412001Y-209198000D01*
X312410000Y-209198000D01*
X312407000Y-209197000D01*
X312405000Y-209196000D01*
X312402000Y-209195000D01*
X312400000Y-209193000D01*
X312398000Y-209192000D01*
X312396000Y-209190000D01*
X312394001Y-209189000D01*
X312392000Y-209187000D01*
X312390000Y-209185000D01*
X312388000Y-209182999D01*
X312386000Y-209181000D01*
X312385000Y-209179000D01*
X312383000Y-209177000D01*
X312382000Y-209175000D01*
X312380000Y-209173000D01*
X312379000Y-209170000D01*
X312378000Y-209168000D01*
X312377000Y-209165000D01*
X312377000Y-209163000D01*
X312376000Y-209160000D01*
X312376000Y-209158000D01*
X312375000Y-209155000D01*
X312375000Y-209153000D01*
X312375000Y-209150000D01*
X312375000Y-206250000D01*
X312375000Y-206247000D01*
X312375000Y-206245000D01*
X312376000Y-206242000D01*
X312376000Y-206240000D01*
X312377000Y-206237000D01*
X312377000Y-206235000D01*
X312378000Y-206232000D01*
X312379000Y-206230000D01*
X312380000Y-206227000D01*
X312382000Y-206225000D01*
X312383000Y-206223000D01*
X312385000Y-206221000D01*
X312386000Y-206219000D01*
X312388000Y-206217001D01*
X312390000Y-206215000D01*
X312392000Y-206213000D01*
X312394001Y-206211000D01*
X312396000Y-206210000D01*
X312398000Y-206208000D01*
X312400000Y-206207000D01*
X312402000Y-206205000D01*
X312405000Y-206204000D01*
X312407000Y-206203000D01*
X312410000Y-206202000D01*
X312412001Y-206202000D01*
X312415000Y-206201000D01*
X312417000Y-206201000D01*
X312420000Y-206200000D01*
X312422000Y-206200000D01*
X312425000Y-206200000D01*
X313325000Y-206200000D01*
X313328000Y-206200000D01*
X313330000Y-206200000D01*
X313333000Y-206201000D01*
G37*
X314233000Y-206201000D02*
X314235000Y-206201000D01*
X314238001Y-206202000D01*
X314240000Y-206202000D01*
X314243000Y-206203000D01*
X314245000Y-206204000D01*
X314248000Y-206205000D01*
X314250000Y-206207000D01*
X314252000Y-206208000D01*
X314254000Y-206210000D01*
X314255999Y-206211000D01*
X314258000Y-206213000D01*
X314259999Y-206215000D01*
X314262000Y-206217001D01*
X314264000Y-206219000D01*
X314264999Y-206221000D01*
X314267000Y-206223000D01*
X314268000Y-206225000D01*
X314270000Y-206227000D01*
X314271000Y-206230000D01*
X314272000Y-206232000D01*
X314273000Y-206235000D01*
X314273000Y-206237000D01*
X314273999Y-206240000D01*
X314274000Y-206242000D01*
X314275000Y-206245000D01*
X314275000Y-206247000D01*
X314275000Y-206250000D01*
X314275000Y-206825000D01*
X314275000Y-206827999D01*
X314275000Y-206830001D01*
X314274000Y-206833000D01*
X314274000Y-206835000D01*
X314273000Y-206838000D01*
X314273000Y-206840000D01*
X314272000Y-206843000D01*
X314271000Y-206845000D01*
X314270000Y-206848000D01*
X314268000Y-206850000D01*
X314267000Y-206852000D01*
X314265000Y-206854000D01*
X314264000Y-206856000D01*
X314262000Y-206858000D01*
X314260000Y-206860000D01*
X314258000Y-206862000D01*
X314256000Y-206864000D01*
X314254000Y-206865000D01*
X314252000Y-206867000D01*
X314250000Y-206868000D01*
X314248000Y-206870000D01*
X314245000Y-206871000D01*
X314243000Y-206872001D01*
X314240000Y-206873000D01*
X314238000Y-206873000D01*
X314235000Y-206874000D01*
X314233000Y-206874000D01*
X314230000Y-206875000D01*
X314228000Y-206874999D01*
X314225000Y-206875000D01*
X313675000Y-206874999D01*
X313672000Y-206875000D01*
X313670000Y-206875000D01*
X313667000Y-206874000D01*
X313665000Y-206874000D01*
X313662000Y-206873000D01*
X313660000Y-206873000D01*
X313657000Y-206872000D01*
X313655000Y-206871000D01*
X313652000Y-206869999D01*
X313650000Y-206868000D01*
X313648000Y-206867001D01*
X313646000Y-206865000D01*
X313644000Y-206864000D01*
X313641999Y-206862000D01*
X313640000Y-206860000D01*
X313638000Y-206858001D01*
X313636000Y-206856000D01*
X313635000Y-206854000D01*
X313632999Y-206852000D01*
X313632000Y-206850000D01*
X313630001Y-206848000D01*
X313629000Y-206845000D01*
X313628000Y-206843000D01*
X313627000Y-206840000D01*
X313627000Y-206838000D01*
X313626000Y-206835000D01*
X313626000Y-206833000D01*
X313625000Y-206830000D01*
X313625000Y-206828000D01*
X313625001Y-206825000D01*
X313625000Y-206250000D01*
X313625000Y-206247000D01*
X313625000Y-206245001D01*
X313626000Y-206242000D01*
X313626000Y-206240000D01*
X313627000Y-206237000D01*
X313627000Y-206235000D01*
X313628000Y-206232000D01*
X313629000Y-206230001D01*
X313630000Y-206227000D01*
X313632000Y-206225000D01*
X313633000Y-206223000D01*
X313635000Y-206221000D01*
X313636000Y-206219000D01*
X313638000Y-206217000D01*
X313640000Y-206215000D01*
X313642000Y-206213000D01*
X313644000Y-206211000D01*
X313646000Y-206210000D01*
X313648000Y-206208000D01*
X313650000Y-206207000D01*
X313652000Y-206204999D01*
X313655000Y-206204000D01*
X313657000Y-206203000D01*
X313660000Y-206202000D01*
X313662000Y-206202000D01*
X313664999Y-206201000D01*
X313667001Y-206201000D01*
X313670000Y-206200000D01*
X313672000Y-206200000D01*
X313675000Y-206200000D01*
X314225000Y-206200000D01*
X314228000Y-206200000D01*
X314230000Y-206200000D01*
X314233000Y-206201000D01*
G36*
X314233000Y-206201000D02*
G01*
X314235000Y-206201000D01*
X314238001Y-206202000D01*
X314240000Y-206202000D01*
X314243000Y-206203000D01*
X314245000Y-206204000D01*
X314248000Y-206205000D01*
X314250000Y-206207000D01*
X314252000Y-206208000D01*
X314254000Y-206210000D01*
X314255999Y-206211000D01*
X314258000Y-206213000D01*
X314259999Y-206215000D01*
X314262000Y-206217001D01*
X314264000Y-206219000D01*
X314264999Y-206221000D01*
X314267000Y-206223000D01*
X314268000Y-206225000D01*
X314270000Y-206227000D01*
X314271000Y-206230000D01*
X314272000Y-206232000D01*
X314273000Y-206235000D01*
X314273000Y-206237000D01*
X314273999Y-206240000D01*
X314274000Y-206242000D01*
X314275000Y-206245000D01*
X314275000Y-206247000D01*
X314275000Y-206250000D01*
X314275000Y-206825000D01*
X314275000Y-206827999D01*
X314275000Y-206830001D01*
X314274000Y-206833000D01*
X314274000Y-206835000D01*
X314273000Y-206838000D01*
X314273000Y-206840000D01*
X314272000Y-206843000D01*
X314271000Y-206845000D01*
X314270000Y-206848000D01*
X314268000Y-206850000D01*
X314267000Y-206852000D01*
X314265000Y-206854000D01*
X314264000Y-206856000D01*
X314262000Y-206858000D01*
X314260000Y-206860000D01*
X314258000Y-206862000D01*
X314256000Y-206864000D01*
X314254000Y-206865000D01*
X314252000Y-206867000D01*
X314250000Y-206868000D01*
X314248000Y-206870000D01*
X314245000Y-206871000D01*
X314243000Y-206872001D01*
X314240000Y-206873000D01*
X314238000Y-206873000D01*
X314235000Y-206874000D01*
X314233000Y-206874000D01*
X314230000Y-206875000D01*
X314228000Y-206874999D01*
X314225000Y-206875000D01*
X313675000Y-206874999D01*
X313672000Y-206875000D01*
X313670000Y-206875000D01*
X313667000Y-206874000D01*
X313665000Y-206874000D01*
X313662000Y-206873000D01*
X313660000Y-206873000D01*
X313657000Y-206872000D01*
X313655000Y-206871000D01*
X313652000Y-206869999D01*
X313650000Y-206868000D01*
X313648000Y-206867001D01*
X313646000Y-206865000D01*
X313644000Y-206864000D01*
X313641999Y-206862000D01*
X313640000Y-206860000D01*
X313638000Y-206858001D01*
X313636000Y-206856000D01*
X313635000Y-206854000D01*
X313632999Y-206852000D01*
X313632000Y-206850000D01*
X313630001Y-206848000D01*
X313629000Y-206845000D01*
X313628000Y-206843000D01*
X313627000Y-206840000D01*
X313627000Y-206838000D01*
X313626000Y-206835000D01*
X313626000Y-206833000D01*
X313625000Y-206830000D01*
X313625000Y-206828000D01*
X313625001Y-206825000D01*
X313625000Y-206250000D01*
X313625000Y-206247000D01*
X313625000Y-206245001D01*
X313626000Y-206242000D01*
X313626000Y-206240000D01*
X313627000Y-206237000D01*
X313627000Y-206235000D01*
X313628000Y-206232000D01*
X313629000Y-206230001D01*
X313630000Y-206227000D01*
X313632000Y-206225000D01*
X313633000Y-206223000D01*
X313635000Y-206221000D01*
X313636000Y-206219000D01*
X313638000Y-206217000D01*
X313640000Y-206215000D01*
X313642000Y-206213000D01*
X313644000Y-206211000D01*
X313646000Y-206210000D01*
X313648000Y-206208000D01*
X313650000Y-206207000D01*
X313652000Y-206204999D01*
X313655000Y-206204000D01*
X313657000Y-206203000D01*
X313660000Y-206202000D01*
X313662000Y-206202000D01*
X313664999Y-206201000D01*
X313667001Y-206201000D01*
X313670000Y-206200000D01*
X313672000Y-206200000D01*
X313675000Y-206200000D01*
X314225000Y-206200000D01*
X314228000Y-206200000D01*
X314230000Y-206200000D01*
X314233000Y-206201000D01*
G37*
X314230000Y-207025000D02*
X314233000Y-207026000D01*
X314235000Y-207026000D01*
X314238000Y-207027001D01*
X314240000Y-207027000D01*
X314243000Y-207028000D01*
X314245000Y-207029000D01*
X314248000Y-207030000D01*
X314250000Y-207032000D01*
X314252000Y-207033000D01*
X314254000Y-207035000D01*
X314256000Y-207036001D01*
X314258000Y-207038000D01*
X314259999Y-207040000D01*
X314262000Y-207042000D01*
X314264000Y-207044000D01*
X314265000Y-207046000D01*
X314267000Y-207048000D01*
X314268000Y-207050000D01*
X314270000Y-207052000D01*
X314271000Y-207055000D01*
X314272000Y-207057000D01*
X314273000Y-207060000D01*
X314273000Y-207062000D01*
X314274000Y-207065000D01*
X314274000Y-207067000D01*
X314275000Y-207070000D01*
X314275000Y-207071999D01*
X314275000Y-207075000D01*
X314275000Y-207324999D01*
X314275000Y-207328000D01*
X314275000Y-207330000D01*
X314274000Y-207333000D01*
X314273999Y-207335000D01*
X314273000Y-207338000D01*
X314273000Y-207340000D01*
X314272000Y-207343000D01*
X314271000Y-207345000D01*
X314270000Y-207347999D01*
X314268000Y-207350000D01*
X314267000Y-207352000D01*
X314264999Y-207354000D01*
X314264000Y-207356000D01*
X314262001Y-207358000D01*
X314260000Y-207360000D01*
X314258000Y-207362000D01*
X314256000Y-207364001D01*
X314254000Y-207365000D01*
X314252000Y-207366999D01*
X314250000Y-207368000D01*
X314248000Y-207370000D01*
X314245000Y-207371000D01*
X314243000Y-207372000D01*
X314240000Y-207373000D01*
X314238000Y-207373001D01*
X314235000Y-207374000D01*
X314233000Y-207374000D01*
X314230000Y-207375000D01*
X314228000Y-207375000D01*
X314225000Y-207375000D01*
X313675000Y-207375000D01*
X313672000Y-207375000D01*
X313670000Y-207375000D01*
X313667000Y-207374000D01*
X313665000Y-207374000D01*
X313662000Y-207373000D01*
X313660000Y-207373000D01*
X313657000Y-207371999D01*
X313655000Y-207371000D01*
X313652000Y-207370000D01*
X313650000Y-207368000D01*
X313648000Y-207367000D01*
X313646000Y-207365000D01*
X313644000Y-207364000D01*
X313642000Y-207362000D01*
X313640000Y-207360000D01*
X313638000Y-207358000D01*
X313636000Y-207356000D01*
X313635000Y-207354000D01*
X313633000Y-207352000D01*
X313632000Y-207350000D01*
X313630000Y-207348000D01*
X313629000Y-207345001D01*
X313628000Y-207342999D01*
X313627000Y-207340000D01*
X313627000Y-207338000D01*
X313626000Y-207335000D01*
X313626000Y-207333000D01*
X313625001Y-207330000D01*
X313625000Y-207328000D01*
X313625000Y-207325000D01*
X313625000Y-207075000D01*
X313625000Y-207072000D01*
X313625000Y-207070000D01*
X313626000Y-207067000D01*
X313626000Y-207065000D01*
X313627000Y-207062000D01*
X313627000Y-207060000D01*
X313628000Y-207057000D01*
X313629000Y-207055001D01*
X313630000Y-207052000D01*
X313632000Y-207050000D01*
X313633000Y-207047999D01*
X313635000Y-207046000D01*
X313636000Y-207044000D01*
X313638000Y-207042000D01*
X313640000Y-207040000D01*
X313642000Y-207038000D01*
X313644000Y-207036000D01*
X313646000Y-207035000D01*
X313648000Y-207033000D01*
X313650000Y-207032000D01*
X313652000Y-207029999D01*
X313655000Y-207029000D01*
X313657000Y-207028000D01*
X313660000Y-207027000D01*
X313662000Y-207027000D01*
X313664999Y-207026000D01*
X313667001Y-207026000D01*
X313670000Y-207025000D01*
X313672000Y-207025000D01*
X313675000Y-207024999D01*
X314225000Y-207025000D01*
X314228000Y-207024999D01*
X314230000Y-207025000D01*
G36*
X314230000Y-207025000D02*
G01*
X314233000Y-207026000D01*
X314235000Y-207026000D01*
X314238000Y-207027001D01*
X314240000Y-207027000D01*
X314243000Y-207028000D01*
X314245000Y-207029000D01*
X314248000Y-207030000D01*
X314250000Y-207032000D01*
X314252000Y-207033000D01*
X314254000Y-207035000D01*
X314256000Y-207036001D01*
X314258000Y-207038000D01*
X314259999Y-207040000D01*
X314262000Y-207042000D01*
X314264000Y-207044000D01*
X314265000Y-207046000D01*
X314267000Y-207048000D01*
X314268000Y-207050000D01*
X314270000Y-207052000D01*
X314271000Y-207055000D01*
X314272000Y-207057000D01*
X314273000Y-207060000D01*
X314273000Y-207062000D01*
X314274000Y-207065000D01*
X314274000Y-207067000D01*
X314275000Y-207070000D01*
X314275000Y-207071999D01*
X314275000Y-207075000D01*
X314275000Y-207324999D01*
X314275000Y-207328000D01*
X314275000Y-207330000D01*
X314274000Y-207333000D01*
X314273999Y-207335000D01*
X314273000Y-207338000D01*
X314273000Y-207340000D01*
X314272000Y-207343000D01*
X314271000Y-207345000D01*
X314270000Y-207347999D01*
X314268000Y-207350000D01*
X314267000Y-207352000D01*
X314264999Y-207354000D01*
X314264000Y-207356000D01*
X314262001Y-207358000D01*
X314260000Y-207360000D01*
X314258000Y-207362000D01*
X314256000Y-207364001D01*
X314254000Y-207365000D01*
X314252000Y-207366999D01*
X314250000Y-207368000D01*
X314248000Y-207370000D01*
X314245000Y-207371000D01*
X314243000Y-207372000D01*
X314240000Y-207373000D01*
X314238000Y-207373001D01*
X314235000Y-207374000D01*
X314233000Y-207374000D01*
X314230000Y-207375000D01*
X314228000Y-207375000D01*
X314225000Y-207375000D01*
X313675000Y-207375000D01*
X313672000Y-207375000D01*
X313670000Y-207375000D01*
X313667000Y-207374000D01*
X313665000Y-207374000D01*
X313662000Y-207373000D01*
X313660000Y-207373000D01*
X313657000Y-207371999D01*
X313655000Y-207371000D01*
X313652000Y-207370000D01*
X313650000Y-207368000D01*
X313648000Y-207367000D01*
X313646000Y-207365000D01*
X313644000Y-207364000D01*
X313642000Y-207362000D01*
X313640000Y-207360000D01*
X313638000Y-207358000D01*
X313636000Y-207356000D01*
X313635000Y-207354000D01*
X313633000Y-207352000D01*
X313632000Y-207350000D01*
X313630000Y-207348000D01*
X313629000Y-207345001D01*
X313628000Y-207342999D01*
X313627000Y-207340000D01*
X313627000Y-207338000D01*
X313626000Y-207335000D01*
X313626000Y-207333000D01*
X313625001Y-207330000D01*
X313625000Y-207328000D01*
X313625000Y-207325000D01*
X313625000Y-207075000D01*
X313625000Y-207072000D01*
X313625000Y-207070000D01*
X313626000Y-207067000D01*
X313626000Y-207065000D01*
X313627000Y-207062000D01*
X313627000Y-207060000D01*
X313628000Y-207057000D01*
X313629000Y-207055001D01*
X313630000Y-207052000D01*
X313632000Y-207050000D01*
X313633000Y-207047999D01*
X313635000Y-207046000D01*
X313636000Y-207044000D01*
X313638000Y-207042000D01*
X313640000Y-207040000D01*
X313642000Y-207038000D01*
X313644000Y-207036000D01*
X313646000Y-207035000D01*
X313648000Y-207033000D01*
X313650000Y-207032000D01*
X313652000Y-207029999D01*
X313655000Y-207029000D01*
X313657000Y-207028000D01*
X313660000Y-207027000D01*
X313662000Y-207027000D01*
X313664999Y-207026000D01*
X313667001Y-207026000D01*
X313670000Y-207025000D01*
X313672000Y-207025000D01*
X313675000Y-207024999D01*
X314225000Y-207025000D01*
X314228000Y-207024999D01*
X314230000Y-207025000D01*
G37*
X314233000Y-207525999D02*
X314235000Y-207526000D01*
X314238000Y-207527000D01*
X314240000Y-207527000D01*
X314243000Y-207528001D01*
X314245000Y-207529000D01*
X314248000Y-207530000D01*
X314250000Y-207532000D01*
X314252000Y-207533000D01*
X314254000Y-207535000D01*
X314256000Y-207536000D01*
X314258000Y-207538000D01*
X314260000Y-207540000D01*
X314262000Y-207542000D01*
X314264000Y-207544000D01*
X314265000Y-207546000D01*
X314267000Y-207548000D01*
X314268000Y-207550000D01*
X314270000Y-207552000D01*
X314271001Y-207555000D01*
X314272000Y-207557000D01*
X314273000Y-207560000D01*
X314273000Y-207562000D01*
X314274000Y-207565000D01*
X314274000Y-207567000D01*
X314275000Y-207570001D01*
X314275000Y-207572000D01*
X314275000Y-207575000D01*
X314275000Y-207825000D01*
X314275000Y-207828000D01*
X314275000Y-207829999D01*
X314274000Y-207833000D01*
X314274000Y-207835000D01*
X314273000Y-207838000D01*
X314273000Y-207840000D01*
X314272000Y-207843000D01*
X314271001Y-207845000D01*
X314270000Y-207848000D01*
X314268000Y-207850000D01*
X314267000Y-207852000D01*
X314265000Y-207854000D01*
X314264000Y-207856000D01*
X314262000Y-207858000D01*
X314260000Y-207860000D01*
X314258000Y-207862000D01*
X314256000Y-207864000D01*
X314254000Y-207865000D01*
X314252000Y-207867000D01*
X314250000Y-207868000D01*
X314248000Y-207870000D01*
X314245000Y-207871000D01*
X314243000Y-207871999D01*
X314240000Y-207873000D01*
X314238000Y-207873000D01*
X314235000Y-207874000D01*
X314233000Y-207874001D01*
X314230000Y-207875000D01*
X314228000Y-207875000D01*
X314225000Y-207875000D01*
X313675000Y-207875000D01*
X313672000Y-207875000D01*
X313670000Y-207875000D01*
X313667000Y-207874000D01*
X313665000Y-207874000D01*
X313662001Y-207873000D01*
X313660000Y-207873000D01*
X313657000Y-207872000D01*
X313655000Y-207871000D01*
X313652000Y-207870000D01*
X313650000Y-207868000D01*
X313648000Y-207867000D01*
X313646000Y-207865000D01*
X313644001Y-207864000D01*
X313642000Y-207862000D01*
X313640000Y-207860000D01*
X313638000Y-207857999D01*
X313636000Y-207856000D01*
X313635000Y-207854000D01*
X313633000Y-207852000D01*
X313632000Y-207850000D01*
X313630000Y-207848000D01*
X313629000Y-207845000D01*
X313628000Y-207843000D01*
X313627000Y-207840000D01*
X313627000Y-207838000D01*
X313626000Y-207835000D01*
X313626000Y-207833000D01*
X313625000Y-207830000D01*
X313625000Y-207828000D01*
X313625000Y-207825000D01*
X313625000Y-207575000D01*
X313625000Y-207572000D01*
X313625000Y-207570000D01*
X313626000Y-207567000D01*
X313626000Y-207565000D01*
X313627000Y-207562000D01*
X313627000Y-207560000D01*
X313628000Y-207557000D01*
X313629000Y-207555000D01*
X313630000Y-207552000D01*
X313632000Y-207550000D01*
X313633000Y-207548000D01*
X313635000Y-207546000D01*
X313636000Y-207544000D01*
X313638000Y-207542001D01*
X313640000Y-207540000D01*
X313642000Y-207538000D01*
X313644001Y-207536000D01*
X313646000Y-207535000D01*
X313648000Y-207533000D01*
X313650000Y-207532000D01*
X313652000Y-207530000D01*
X313655000Y-207529000D01*
X313657000Y-207528000D01*
X313660000Y-207527000D01*
X313662001Y-207527000D01*
X313665000Y-207526000D01*
X313667000Y-207526000D01*
X313670000Y-207525000D01*
X313672000Y-207525000D01*
X313675000Y-207525000D01*
X314225000Y-207525000D01*
X314228000Y-207525000D01*
X314230000Y-207525000D01*
X314233000Y-207525999D01*
G36*
X314233000Y-207525999D02*
G01*
X314235000Y-207526000D01*
X314238000Y-207527000D01*
X314240000Y-207527000D01*
X314243000Y-207528001D01*
X314245000Y-207529000D01*
X314248000Y-207530000D01*
X314250000Y-207532000D01*
X314252000Y-207533000D01*
X314254000Y-207535000D01*
X314256000Y-207536000D01*
X314258000Y-207538000D01*
X314260000Y-207540000D01*
X314262000Y-207542000D01*
X314264000Y-207544000D01*
X314265000Y-207546000D01*
X314267000Y-207548000D01*
X314268000Y-207550000D01*
X314270000Y-207552000D01*
X314271001Y-207555000D01*
X314272000Y-207557000D01*
X314273000Y-207560000D01*
X314273000Y-207562000D01*
X314274000Y-207565000D01*
X314274000Y-207567000D01*
X314275000Y-207570001D01*
X314275000Y-207572000D01*
X314275000Y-207575000D01*
X314275000Y-207825000D01*
X314275000Y-207828000D01*
X314275000Y-207829999D01*
X314274000Y-207833000D01*
X314274000Y-207835000D01*
X314273000Y-207838000D01*
X314273000Y-207840000D01*
X314272000Y-207843000D01*
X314271001Y-207845000D01*
X314270000Y-207848000D01*
X314268000Y-207850000D01*
X314267000Y-207852000D01*
X314265000Y-207854000D01*
X314264000Y-207856000D01*
X314262000Y-207858000D01*
X314260000Y-207860000D01*
X314258000Y-207862000D01*
X314256000Y-207864000D01*
X314254000Y-207865000D01*
X314252000Y-207867000D01*
X314250000Y-207868000D01*
X314248000Y-207870000D01*
X314245000Y-207871000D01*
X314243000Y-207871999D01*
X314240000Y-207873000D01*
X314238000Y-207873000D01*
X314235000Y-207874000D01*
X314233000Y-207874001D01*
X314230000Y-207875000D01*
X314228000Y-207875000D01*
X314225000Y-207875000D01*
X313675000Y-207875000D01*
X313672000Y-207875000D01*
X313670000Y-207875000D01*
X313667000Y-207874000D01*
X313665000Y-207874000D01*
X313662001Y-207873000D01*
X313660000Y-207873000D01*
X313657000Y-207872000D01*
X313655000Y-207871000D01*
X313652000Y-207870000D01*
X313650000Y-207868000D01*
X313648000Y-207867000D01*
X313646000Y-207865000D01*
X313644001Y-207864000D01*
X313642000Y-207862000D01*
X313640000Y-207860000D01*
X313638000Y-207857999D01*
X313636000Y-207856000D01*
X313635000Y-207854000D01*
X313633000Y-207852000D01*
X313632000Y-207850000D01*
X313630000Y-207848000D01*
X313629000Y-207845000D01*
X313628000Y-207843000D01*
X313627000Y-207840000D01*
X313627000Y-207838000D01*
X313626000Y-207835000D01*
X313626000Y-207833000D01*
X313625000Y-207830000D01*
X313625000Y-207828000D01*
X313625000Y-207825000D01*
X313625000Y-207575000D01*
X313625000Y-207572000D01*
X313625000Y-207570000D01*
X313626000Y-207567000D01*
X313626000Y-207565000D01*
X313627000Y-207562000D01*
X313627000Y-207560000D01*
X313628000Y-207557000D01*
X313629000Y-207555000D01*
X313630000Y-207552000D01*
X313632000Y-207550000D01*
X313633000Y-207548000D01*
X313635000Y-207546000D01*
X313636000Y-207544000D01*
X313638000Y-207542001D01*
X313640000Y-207540000D01*
X313642000Y-207538000D01*
X313644001Y-207536000D01*
X313646000Y-207535000D01*
X313648000Y-207533000D01*
X313650000Y-207532000D01*
X313652000Y-207530000D01*
X313655000Y-207529000D01*
X313657000Y-207528000D01*
X313660000Y-207527000D01*
X313662001Y-207527000D01*
X313665000Y-207526000D01*
X313667000Y-207526000D01*
X313670000Y-207525000D01*
X313672000Y-207525000D01*
X313675000Y-207525000D01*
X314225000Y-207525000D01*
X314228000Y-207525000D01*
X314230000Y-207525000D01*
X314233000Y-207525999D01*
G37*
X314233000Y-208026000D02*
X314235000Y-208026000D01*
X314238000Y-208026999D01*
X314240000Y-208027000D01*
X314243000Y-208028000D01*
X314245000Y-208029000D01*
X314248000Y-208030000D01*
X314250000Y-208032000D01*
X314252000Y-208033001D01*
X314254000Y-208035000D01*
X314256000Y-208035999D01*
X314258000Y-208038000D01*
X314260000Y-208040000D01*
X314262001Y-208042000D01*
X314264000Y-208044000D01*
X314264999Y-208046000D01*
X314267000Y-208048000D01*
X314268000Y-208050000D01*
X314270000Y-208052001D01*
X314271000Y-208055000D01*
X314272000Y-208057000D01*
X314273000Y-208060000D01*
X314273000Y-208062000D01*
X314273999Y-208065000D01*
X314274000Y-208067000D01*
X314275000Y-208070000D01*
X314275000Y-208072000D01*
X314275000Y-208075001D01*
X314275000Y-208325000D01*
X314275000Y-208328001D01*
X314275000Y-208330000D01*
X314274000Y-208333000D01*
X314274000Y-208335000D01*
X314273000Y-208338000D01*
X314273000Y-208340000D01*
X314272000Y-208343000D01*
X314271000Y-208345000D01*
X314270000Y-208348000D01*
X314268000Y-208350000D01*
X314267000Y-208352000D01*
X314265000Y-208354000D01*
X314264000Y-208356000D01*
X314262000Y-208358000D01*
X314259999Y-208360000D01*
X314258000Y-208362000D01*
X314256000Y-208363999D01*
X314254000Y-208365000D01*
X314252000Y-208367000D01*
X314250000Y-208368000D01*
X314248000Y-208370000D01*
X314245000Y-208371000D01*
X314243000Y-208372000D01*
X314240000Y-208373000D01*
X314238000Y-208372999D01*
X314235000Y-208374000D01*
X314233000Y-208374000D01*
X314230000Y-208375000D01*
X314228000Y-208375001D01*
X314225000Y-208375000D01*
X313675000Y-208375001D01*
X313672000Y-208375000D01*
X313670000Y-208375000D01*
X313667001Y-208374000D01*
X313664999Y-208374000D01*
X313662000Y-208373000D01*
X313660000Y-208373000D01*
X313657000Y-208372000D01*
X313655000Y-208371000D01*
X313652000Y-208370001D01*
X313650000Y-208368000D01*
X313648000Y-208367000D01*
X313646000Y-208365000D01*
X313644000Y-208364000D01*
X313642000Y-208362000D01*
X313640000Y-208360000D01*
X313638000Y-208358000D01*
X313636000Y-208356000D01*
X313635000Y-208354000D01*
X313633000Y-208352001D01*
X313632000Y-208350000D01*
X313630000Y-208348000D01*
X313629000Y-208344999D01*
X313628000Y-208343000D01*
X313627000Y-208340000D01*
X313627000Y-208338000D01*
X313626000Y-208335000D01*
X313626000Y-208333000D01*
X313625000Y-208330000D01*
X313625000Y-208328000D01*
X313625000Y-208325000D01*
X313625000Y-208075000D01*
X313625000Y-208072000D01*
X313625001Y-208070000D01*
X313626000Y-208067000D01*
X313626000Y-208065000D01*
X313627000Y-208062000D01*
X313627000Y-208060000D01*
X313628000Y-208057001D01*
X313629000Y-208054999D01*
X313630000Y-208052000D01*
X313632000Y-208050000D01*
X313633000Y-208048000D01*
X313635000Y-208046000D01*
X313636000Y-208044000D01*
X313638000Y-208042000D01*
X313640000Y-208040000D01*
X313642000Y-208038000D01*
X313644000Y-208036000D01*
X313646000Y-208035000D01*
X313648000Y-208033000D01*
X313650000Y-208032000D01*
X313652000Y-208030000D01*
X313655000Y-208029000D01*
X313657000Y-208028001D01*
X313660000Y-208027000D01*
X313662000Y-208027000D01*
X313665000Y-208026000D01*
X313667000Y-208026000D01*
X313670000Y-208025000D01*
X313672000Y-208025000D01*
X313675000Y-208025000D01*
X314225000Y-208025000D01*
X314228000Y-208025000D01*
X314230000Y-208025000D01*
X314233000Y-208026000D01*
G36*
X314233000Y-208026000D02*
G01*
X314235000Y-208026000D01*
X314238000Y-208026999D01*
X314240000Y-208027000D01*
X314243000Y-208028000D01*
X314245000Y-208029000D01*
X314248000Y-208030000D01*
X314250000Y-208032000D01*
X314252000Y-208033001D01*
X314254000Y-208035000D01*
X314256000Y-208035999D01*
X314258000Y-208038000D01*
X314260000Y-208040000D01*
X314262001Y-208042000D01*
X314264000Y-208044000D01*
X314264999Y-208046000D01*
X314267000Y-208048000D01*
X314268000Y-208050000D01*
X314270000Y-208052001D01*
X314271000Y-208055000D01*
X314272000Y-208057000D01*
X314273000Y-208060000D01*
X314273000Y-208062000D01*
X314273999Y-208065000D01*
X314274000Y-208067000D01*
X314275000Y-208070000D01*
X314275000Y-208072000D01*
X314275000Y-208075001D01*
X314275000Y-208325000D01*
X314275000Y-208328001D01*
X314275000Y-208330000D01*
X314274000Y-208333000D01*
X314274000Y-208335000D01*
X314273000Y-208338000D01*
X314273000Y-208340000D01*
X314272000Y-208343000D01*
X314271000Y-208345000D01*
X314270000Y-208348000D01*
X314268000Y-208350000D01*
X314267000Y-208352000D01*
X314265000Y-208354000D01*
X314264000Y-208356000D01*
X314262000Y-208358000D01*
X314259999Y-208360000D01*
X314258000Y-208362000D01*
X314256000Y-208363999D01*
X314254000Y-208365000D01*
X314252000Y-208367000D01*
X314250000Y-208368000D01*
X314248000Y-208370000D01*
X314245000Y-208371000D01*
X314243000Y-208372000D01*
X314240000Y-208373000D01*
X314238000Y-208372999D01*
X314235000Y-208374000D01*
X314233000Y-208374000D01*
X314230000Y-208375000D01*
X314228000Y-208375001D01*
X314225000Y-208375000D01*
X313675000Y-208375001D01*
X313672000Y-208375000D01*
X313670000Y-208375000D01*
X313667001Y-208374000D01*
X313664999Y-208374000D01*
X313662000Y-208373000D01*
X313660000Y-208373000D01*
X313657000Y-208372000D01*
X313655000Y-208371000D01*
X313652000Y-208370001D01*
X313650000Y-208368000D01*
X313648000Y-208367000D01*
X313646000Y-208365000D01*
X313644000Y-208364000D01*
X313642000Y-208362000D01*
X313640000Y-208360000D01*
X313638000Y-208358000D01*
X313636000Y-208356000D01*
X313635000Y-208354000D01*
X313633000Y-208352001D01*
X313632000Y-208350000D01*
X313630000Y-208348000D01*
X313629000Y-208344999D01*
X313628000Y-208343000D01*
X313627000Y-208340000D01*
X313627000Y-208338000D01*
X313626000Y-208335000D01*
X313626000Y-208333000D01*
X313625000Y-208330000D01*
X313625000Y-208328000D01*
X313625000Y-208325000D01*
X313625000Y-208075000D01*
X313625000Y-208072000D01*
X313625001Y-208070000D01*
X313626000Y-208067000D01*
X313626000Y-208065000D01*
X313627000Y-208062000D01*
X313627000Y-208060000D01*
X313628000Y-208057001D01*
X313629000Y-208054999D01*
X313630000Y-208052000D01*
X313632000Y-208050000D01*
X313633000Y-208048000D01*
X313635000Y-208046000D01*
X313636000Y-208044000D01*
X313638000Y-208042000D01*
X313640000Y-208040000D01*
X313642000Y-208038000D01*
X313644000Y-208036000D01*
X313646000Y-208035000D01*
X313648000Y-208033000D01*
X313650000Y-208032000D01*
X313652000Y-208030000D01*
X313655000Y-208029000D01*
X313657000Y-208028001D01*
X313660000Y-208027000D01*
X313662000Y-208027000D01*
X313665000Y-208026000D01*
X313667000Y-208026000D01*
X313670000Y-208025000D01*
X313672000Y-208025000D01*
X313675000Y-208025000D01*
X314225000Y-208025000D01*
X314228000Y-208025000D01*
X314230000Y-208025000D01*
X314233000Y-208026000D01*
G37*
X313675000Y-208525001D02*
X314225000Y-208525000D01*
X314228000Y-208525001D01*
X314230000Y-208525000D01*
X314233000Y-208526000D01*
X314235000Y-208526000D01*
X314238000Y-208527000D01*
X314240000Y-208527000D01*
X314243000Y-208527999D01*
X314245000Y-208529000D01*
X314248000Y-208530000D01*
X314250000Y-208532000D01*
X314252000Y-208533000D01*
X314254000Y-208535000D01*
X314256000Y-208536000D01*
X314258000Y-208538000D01*
X314260000Y-208540000D01*
X314262000Y-208542000D01*
X314264000Y-208544000D01*
X314265000Y-208546000D01*
X314267000Y-208548000D01*
X314268000Y-208550000D01*
X314270000Y-208552000D01*
X314271000Y-208555000D01*
X314272000Y-208557000D01*
X314273000Y-208560000D01*
X314273000Y-208562000D01*
X314274000Y-208565000D01*
X314274000Y-208567000D01*
X314275000Y-208569999D01*
X314275000Y-208572001D01*
X314275000Y-208575000D01*
X314275000Y-209150000D01*
X314275000Y-209153000D01*
X314275000Y-209155000D01*
X314274000Y-209158000D01*
X314273999Y-209160000D01*
X314273000Y-209163000D01*
X314273000Y-209165000D01*
X314272000Y-209168000D01*
X314271000Y-209170000D01*
X314270000Y-209173000D01*
X314268000Y-209175000D01*
X314267000Y-209177000D01*
X314264999Y-209179000D01*
X314264000Y-209181000D01*
X314262000Y-209182999D01*
X314259999Y-209185000D01*
X314258000Y-209187000D01*
X314255999Y-209189000D01*
X314254000Y-209190000D01*
X314252000Y-209192000D01*
X314250000Y-209193000D01*
X314248000Y-209195000D01*
X314245000Y-209196000D01*
X314243000Y-209197000D01*
X314240000Y-209198000D01*
X314238001Y-209198000D01*
X314235000Y-209199000D01*
X314233000Y-209199000D01*
X314230000Y-209200000D01*
X314228000Y-209200000D01*
X314225000Y-209200000D01*
X313675000Y-209200000D01*
X313672000Y-209200000D01*
X313670000Y-209200000D01*
X313667001Y-209199000D01*
X313664999Y-209199000D01*
X313662000Y-209198000D01*
X313660000Y-209198000D01*
X313657000Y-209197000D01*
X313655000Y-209196000D01*
X313652000Y-209195001D01*
X313650000Y-209193000D01*
X313648000Y-209192000D01*
X313646000Y-209190000D01*
X313644000Y-209189000D01*
X313642000Y-209187000D01*
X313640000Y-209185000D01*
X313638000Y-209183000D01*
X313636000Y-209181000D01*
X313635000Y-209179000D01*
X313633000Y-209177000D01*
X313632000Y-209175000D01*
X313630000Y-209173000D01*
X313629000Y-209169999D01*
X313628000Y-209168000D01*
X313627000Y-209165000D01*
X313627000Y-209163000D01*
X313626000Y-209160000D01*
X313626000Y-209158000D01*
X313625000Y-209154999D01*
X313625000Y-209153000D01*
X313625000Y-209150000D01*
X313625001Y-208575000D01*
X313625000Y-208572000D01*
X313625000Y-208570000D01*
X313626000Y-208567000D01*
X313626000Y-208565000D01*
X313627000Y-208562000D01*
X313627000Y-208560000D01*
X313628000Y-208557000D01*
X313629000Y-208555000D01*
X313630001Y-208552000D01*
X313632000Y-208550000D01*
X313632999Y-208548000D01*
X313635000Y-208546000D01*
X313636000Y-208544000D01*
X313638000Y-208541999D01*
X313640000Y-208540000D01*
X313641999Y-208538000D01*
X313644000Y-208536000D01*
X313646000Y-208535000D01*
X313648000Y-208532999D01*
X313650000Y-208532000D01*
X313652000Y-208530001D01*
X313655000Y-208529000D01*
X313657000Y-208528000D01*
X313660000Y-208527000D01*
X313662000Y-208527000D01*
X313665000Y-208526000D01*
X313667000Y-208526000D01*
X313670000Y-208525000D01*
X313672000Y-208525000D01*
X313675000Y-208525001D01*
G36*
X313675000Y-208525001D02*
G01*
X314225000Y-208525000D01*
X314228000Y-208525001D01*
X314230000Y-208525000D01*
X314233000Y-208526000D01*
X314235000Y-208526000D01*
X314238000Y-208527000D01*
X314240000Y-208527000D01*
X314243000Y-208527999D01*
X314245000Y-208529000D01*
X314248000Y-208530000D01*
X314250000Y-208532000D01*
X314252000Y-208533000D01*
X314254000Y-208535000D01*
X314256000Y-208536000D01*
X314258000Y-208538000D01*
X314260000Y-208540000D01*
X314262000Y-208542000D01*
X314264000Y-208544000D01*
X314265000Y-208546000D01*
X314267000Y-208548000D01*
X314268000Y-208550000D01*
X314270000Y-208552000D01*
X314271000Y-208555000D01*
X314272000Y-208557000D01*
X314273000Y-208560000D01*
X314273000Y-208562000D01*
X314274000Y-208565000D01*
X314274000Y-208567000D01*
X314275000Y-208569999D01*
X314275000Y-208572001D01*
X314275000Y-208575000D01*
X314275000Y-209150000D01*
X314275000Y-209153000D01*
X314275000Y-209155000D01*
X314274000Y-209158000D01*
X314273999Y-209160000D01*
X314273000Y-209163000D01*
X314273000Y-209165000D01*
X314272000Y-209168000D01*
X314271000Y-209170000D01*
X314270000Y-209173000D01*
X314268000Y-209175000D01*
X314267000Y-209177000D01*
X314264999Y-209179000D01*
X314264000Y-209181000D01*
X314262000Y-209182999D01*
X314259999Y-209185000D01*
X314258000Y-209187000D01*
X314255999Y-209189000D01*
X314254000Y-209190000D01*
X314252000Y-209192000D01*
X314250000Y-209193000D01*
X314248000Y-209195000D01*
X314245000Y-209196000D01*
X314243000Y-209197000D01*
X314240000Y-209198000D01*
X314238001Y-209198000D01*
X314235000Y-209199000D01*
X314233000Y-209199000D01*
X314230000Y-209200000D01*
X314228000Y-209200000D01*
X314225000Y-209200000D01*
X313675000Y-209200000D01*
X313672000Y-209200000D01*
X313670000Y-209200000D01*
X313667001Y-209199000D01*
X313664999Y-209199000D01*
X313662000Y-209198000D01*
X313660000Y-209198000D01*
X313657000Y-209197000D01*
X313655000Y-209196000D01*
X313652000Y-209195001D01*
X313650000Y-209193000D01*
X313648000Y-209192000D01*
X313646000Y-209190000D01*
X313644000Y-209189000D01*
X313642000Y-209187000D01*
X313640000Y-209185000D01*
X313638000Y-209183000D01*
X313636000Y-209181000D01*
X313635000Y-209179000D01*
X313633000Y-209177000D01*
X313632000Y-209175000D01*
X313630000Y-209173000D01*
X313629000Y-209169999D01*
X313628000Y-209168000D01*
X313627000Y-209165000D01*
X313627000Y-209163000D01*
X313626000Y-209160000D01*
X313626000Y-209158000D01*
X313625000Y-209154999D01*
X313625000Y-209153000D01*
X313625000Y-209150000D01*
X313625001Y-208575000D01*
X313625000Y-208572000D01*
X313625000Y-208570000D01*
X313626000Y-208567000D01*
X313626000Y-208565000D01*
X313627000Y-208562000D01*
X313627000Y-208560000D01*
X313628000Y-208557000D01*
X313629000Y-208555000D01*
X313630001Y-208552000D01*
X313632000Y-208550000D01*
X313632999Y-208548000D01*
X313635000Y-208546000D01*
X313636000Y-208544000D01*
X313638000Y-208541999D01*
X313640000Y-208540000D01*
X313641999Y-208538000D01*
X313644000Y-208536000D01*
X313646000Y-208535000D01*
X313648000Y-208532999D01*
X313650000Y-208532000D01*
X313652000Y-208530001D01*
X313655000Y-208529000D01*
X313657000Y-208528000D01*
X313660000Y-208527000D01*
X313662000Y-208527000D01*
X313665000Y-208526000D01*
X313667000Y-208526000D01*
X313670000Y-208525000D01*
X313672000Y-208525000D01*
X313675000Y-208525001D01*
G37*
%TD*%
D11*
%TO.C,U9*%
X337890000Y-182300000D03*
X339160000Y-182300000D03*
X340430000Y-182300000D03*
X341700000Y-182300000D03*
X341700000Y-176760000D03*
X340430000Y-176760000D03*
X339160000Y-176760000D03*
X337890000Y-176760000D03*
D12*
X338850900Y-179031200D03*
X340750900Y-179031200D03*
%TD*%
D13*
%TO.C,R43*%
X322337500Y-200400000D03*
X324162500Y-200400000D03*
%TD*%
D14*
%TO.C,C29*%
X306000000Y-175150000D03*
X306000000Y-176000000D03*
X306050000Y-178500000D03*
X306100000Y-179400000D03*
X306250000Y-173650000D03*
X306500000Y-180800000D03*
X306700000Y-174550000D03*
X306950000Y-179900000D03*
X307150000Y-173650000D03*
X307400000Y-180800000D03*
X307550000Y-174550000D03*
X307850000Y-179900000D03*
X308050000Y-173650000D03*
D15*
X308150000Y-177250000D03*
D14*
X308300000Y-180800000D03*
X308500000Y-174550000D03*
X308800000Y-179900000D03*
X308950000Y-173650000D03*
X309200000Y-180800000D03*
X309400000Y-174550000D03*
X309650000Y-179900000D03*
X309850000Y-173650000D03*
X310100000Y-180800000D03*
X310250000Y-175050000D03*
X310300000Y-175950000D03*
X310350000Y-178450000D03*
X310350000Y-179300000D03*
%TD*%
D16*
%TO.C,SW1*%
X306425000Y-202650000D03*
X306425000Y-206650000D03*
%TD*%
D17*
%TO.C,J2*%
X342850000Y-213000000D03*
D18*
X340350000Y-213000000D03*
X337850000Y-213000000D03*
X335350000Y-213000000D03*
X332850000Y-213000000D03*
%TD*%
D19*
%TO.C,R34*%
X347562500Y-187850000D03*
X345737500Y-187850000D03*
%TD*%
D11*
%TO.C,U4*%
X322806934Y-176769234D03*
X321536934Y-176769234D03*
X320266934Y-176769234D03*
X318996934Y-176769234D03*
X318996935Y-182309234D03*
X320266934Y-182309234D03*
X321536934Y-182309234D03*
X322806933Y-182309234D03*
D20*
X321900000Y-180000000D03*
X319900000Y-180000000D03*
%TD*%
D21*
%TO.C,R46*%
X331325000Y-190512500D03*
X331325000Y-193437500D03*
%TD*%
D14*
%TO.C,C1*%
X341950000Y-166300000D03*
X341950000Y-168600000D03*
X341950000Y-169450000D03*
X341950000Y-170300000D03*
X341950000Y-171150000D03*
X341950000Y-173500000D03*
X342750000Y-169050000D03*
X342750000Y-169900000D03*
X342750000Y-170750000D03*
D22*
X342950000Y-167300000D03*
X342950000Y-172500000D03*
D14*
X344200000Y-166300000D03*
X344250000Y-173500000D03*
X344600000Y-167100000D03*
X344700000Y-172700000D03*
X345050000Y-166300000D03*
X345100000Y-173500000D03*
X345450000Y-167100000D03*
D23*
X345550000Y-169900000D03*
D14*
X345550000Y-172700000D03*
X345900000Y-166300000D03*
X345950000Y-173500000D03*
X346300000Y-167100000D03*
X346400000Y-172700000D03*
X346750000Y-166300000D03*
X346800000Y-173500000D03*
D22*
X348150000Y-167300000D03*
X348150000Y-172500000D03*
D14*
X348350000Y-169100000D03*
X348350000Y-169950000D03*
X348350000Y-170800000D03*
X349150000Y-166300000D03*
X349150000Y-168700000D03*
X349150000Y-169550000D03*
X349150000Y-170400000D03*
X349150000Y-171250000D03*
X349150000Y-173500000D03*
%TD*%
D24*
%TO.C,U14*%
X328700000Y-194305000D03*
X328700000Y-193035000D03*
X328700000Y-191765000D03*
X328700000Y-190495000D03*
X323400000Y-190495000D03*
X323400000Y-191765000D03*
X323400000Y-193035000D03*
D25*
X326050000Y-192425000D03*
D24*
X323400000Y-194305000D03*
%TD*%
D13*
%TO.C,R39*%
X320475000Y-198400000D03*
X322300000Y-198400000D03*
%TD*%
D14*
%TO.C,U11*%
X349700000Y-187750000D03*
X349700000Y-188600000D03*
X349750000Y-191100000D03*
X349800000Y-192000000D03*
X349950000Y-186250000D03*
X350200000Y-193400000D03*
X350400000Y-187150000D03*
X350650000Y-192500000D03*
X350850000Y-186250000D03*
X351100000Y-193400000D03*
X351250000Y-187150000D03*
X351550000Y-192500000D03*
X351750000Y-186250000D03*
D15*
X351850000Y-189850000D03*
D14*
X352000000Y-193400000D03*
X352200000Y-187150000D03*
X352500000Y-192500000D03*
X352650000Y-186250000D03*
X352900000Y-193400000D03*
X353100000Y-187150000D03*
X353350000Y-192500000D03*
X353550000Y-186250000D03*
X353800000Y-193400000D03*
X353950000Y-187650000D03*
X354000000Y-188550000D03*
X354050000Y-191050000D03*
X354050000Y-191900000D03*
%TD*%
D26*
%TO.C,C34*%
X315790003Y-204025002D03*
X312840001Y-204025002D03*
%TD*%
D27*
%TO.C,C41*%
X343725000Y-197925000D03*
X342175000Y-197925000D03*
%TD*%
D11*
%TO.C,U5*%
X335606934Y-176769234D03*
X334336934Y-176769234D03*
X333066934Y-176769234D03*
X331796934Y-176769234D03*
X331796935Y-182309234D03*
X333066934Y-182309234D03*
X334336934Y-182309234D03*
X335606933Y-182309234D03*
D20*
X334700000Y-180000000D03*
X332700000Y-180000000D03*
%TD*%
D28*
%TO.C,C19*%
X335174999Y-184650000D03*
X338125001Y-184650000D03*
%TD*%
D29*
%TO.C,H3*%
X307100000Y-213100000D03*
%TD*%
D11*
%TO.C,U8*%
X325190000Y-182300000D03*
X326460000Y-182300000D03*
X327730000Y-182300000D03*
X329000000Y-182300000D03*
X329000000Y-176760000D03*
X327730000Y-176760000D03*
X326460000Y-176760000D03*
X325190000Y-176760000D03*
D12*
X326150900Y-179031200D03*
X328050900Y-179031200D03*
%TD*%
D26*
%TO.C,C22*%
X344475002Y-184700000D03*
X341525000Y-184700000D03*
%TD*%
D28*
%TO.C,C31*%
X307750000Y-184700000D03*
X310700000Y-184700000D03*
%TD*%
D13*
%TO.C,R37*%
X307762500Y-199075000D03*
X309587500Y-199075000D03*
%TD*%
D21*
%TO.C,R47*%
X346350000Y-190537500D03*
X346350000Y-193462500D03*
%TD*%
D27*
%TO.C,C32*%
X313765000Y-196195000D03*
X312215000Y-196195000D03*
%TD*%
%TO.C,C40*%
X330010000Y-188810000D03*
X328460000Y-188810000D03*
%TD*%
D11*
%TO.C,U6*%
X348306934Y-176769234D03*
X347036934Y-176769234D03*
X345766934Y-176769234D03*
X344496934Y-176769234D03*
X344496935Y-182309234D03*
X345766934Y-182309234D03*
X347036934Y-182309234D03*
X348306933Y-182309234D03*
D20*
X347400000Y-180000000D03*
X345400000Y-180000000D03*
%TD*%
D24*
%TO.C,U15*%
X343800000Y-194304998D03*
X343800000Y-193034999D03*
X343800000Y-191764999D03*
X343799999Y-190494999D03*
X338499999Y-190494999D03*
X338500000Y-191764999D03*
X338500000Y-193034999D03*
D25*
X341150000Y-192425000D03*
D24*
X338500000Y-194304998D03*
%TD*%
D27*
%TO.C,C43*%
X344025000Y-188900000D03*
X342475000Y-188900000D03*
%TD*%
D28*
%TO.C,C15*%
X322474999Y-184675000D03*
X325425001Y-184675000D03*
%TD*%
D30*
%TO.C,C14*%
X310050000Y-206575000D03*
X310050000Y-204675000D03*
%TD*%
D29*
%TO.C,H1*%
X307100000Y-167300000D03*
%TD*%
D19*
%TO.C,R32*%
X333562500Y-188000000D03*
X331737500Y-188000000D03*
%TD*%
D31*
%TO.C,J8*%
X349173439Y-210826561D03*
D32*
X350969490Y-209030510D03*
%TD*%
D19*
%TO.C,R42*%
X311400000Y-201250000D03*
X309575000Y-201250000D03*
%TD*%
D27*
%TO.C,C35*%
X313740000Y-197850000D03*
X312190000Y-197850000D03*
%TD*%
%TO.C,C38*%
X329210000Y-197860000D03*
X327660000Y-197860000D03*
%TD*%
D33*
%TO.C,U2*%
X323670000Y-203590000D03*
X323670000Y-204240000D03*
X323670000Y-204890000D03*
X323670000Y-205540000D03*
X323670000Y-206190000D03*
X323670000Y-206840000D03*
X323670000Y-207490000D03*
X329470000Y-207490000D03*
X329470000Y-206840000D03*
X329470000Y-206190000D03*
X329470000Y-205540000D03*
X329470000Y-204890000D03*
X329470000Y-204240000D03*
X329470000Y-203590000D03*
%TD*%
D24*
%TO.C,U13*%
X313897500Y-194505000D03*
X313897500Y-193235000D03*
X313897500Y-191965000D03*
X313897500Y-190695000D03*
X308597500Y-190695000D03*
X308597500Y-191965000D03*
X308597500Y-193235000D03*
D25*
X311247500Y-192625000D03*
D24*
X308597500Y-194505000D03*
%TD*%
D14*
%TO.C,B1*%
X326600000Y-166200000D03*
X326600000Y-168500000D03*
X326600000Y-169350000D03*
X326600000Y-170200000D03*
X326600000Y-171050000D03*
X326600000Y-173400000D03*
X327400000Y-168950000D03*
X327400000Y-169800000D03*
X327400000Y-170650000D03*
D22*
X327600000Y-167200000D03*
X327600000Y-172400000D03*
D14*
X328850000Y-166200000D03*
X328900000Y-173400000D03*
X329250000Y-167000000D03*
X329350000Y-172600000D03*
X329700000Y-166200000D03*
X329750000Y-173400000D03*
X330100000Y-167000000D03*
D23*
X330200000Y-169800000D03*
D14*
X330200000Y-172600000D03*
X330550000Y-166200000D03*
X330600000Y-173400000D03*
X330950000Y-167000000D03*
X331050000Y-172600000D03*
X331400000Y-166200000D03*
X331450000Y-173400000D03*
D22*
X332800000Y-167200000D03*
X332800000Y-172400000D03*
D14*
X333000000Y-169000000D03*
X333000000Y-169850000D03*
X333000000Y-170700000D03*
X333800000Y-166200000D03*
X333800000Y-168600000D03*
X333800000Y-169450000D03*
X333800000Y-170300000D03*
X333800000Y-171150000D03*
X333800000Y-173400000D03*
%TD*%
D34*
%TO.C,R18*%
X315500000Y-208175000D03*
X315500000Y-209825000D03*
%TD*%
D11*
%TO.C,U7*%
X312290000Y-182300000D03*
X313560000Y-182300000D03*
X314830000Y-182300000D03*
X316100000Y-182300000D03*
X316100000Y-176760000D03*
X314830000Y-176760000D03*
X313560000Y-176760000D03*
X312290000Y-176760000D03*
D12*
X313250900Y-179031200D03*
X315150900Y-179031200D03*
%TD*%
D35*
%TO.C,J9*%
X353100000Y-204960000D03*
D32*
X353100000Y-202420000D03*
X353100000Y-199880001D03*
X353100000Y-197340000D03*
%TD*%
D19*
%TO.C,R41*%
X337237500Y-198925000D03*
X335412500Y-198925000D03*
%TD*%
D27*
%TO.C,C37*%
X314835000Y-189015000D03*
X313285000Y-189015000D03*
%TD*%
%TO.C,C39*%
X329210000Y-196135000D03*
X327660000Y-196135000D03*
%TD*%
D36*
%TO.C,R7*%
X349900000Y-201012500D03*
X349900000Y-199187500D03*
%TD*%
D19*
%TO.C,R30*%
X318662500Y-188350000D03*
X316837500Y-188350000D03*
%TD*%
D13*
%TO.C,R40*%
X335412500Y-196850000D03*
X337237500Y-196850000D03*
%TD*%
%TO.C,R44*%
X333562500Y-201075000D03*
X335387500Y-201075000D03*
%TD*%
D26*
%TO.C,C18*%
X331875001Y-184700000D03*
X328924999Y-184700000D03*
%TD*%
D14*
%TO.C,A1*%
X311800000Y-166175000D03*
X311800000Y-168475000D03*
X311800000Y-169325000D03*
X311800000Y-170175000D03*
X311800000Y-171025000D03*
X311800000Y-173375000D03*
X312600000Y-168925000D03*
X312600000Y-169775000D03*
X312600000Y-170625000D03*
D22*
X312800000Y-167175000D03*
X312800000Y-172375000D03*
D14*
X314050000Y-166175000D03*
X314100000Y-173375000D03*
X314450000Y-166975000D03*
X314550000Y-172575000D03*
X314900000Y-166175000D03*
X314950000Y-173375000D03*
X315300000Y-166975000D03*
D23*
X315400000Y-169775000D03*
D14*
X315400000Y-172575000D03*
X315750000Y-166175000D03*
X315800000Y-173375000D03*
X316150000Y-166975000D03*
X316250000Y-172575000D03*
X316600000Y-166175000D03*
X316650000Y-173375000D03*
D22*
X318000000Y-167175000D03*
X318000000Y-172375000D03*
D14*
X318200000Y-168975000D03*
X318200000Y-169825000D03*
X318200000Y-170675000D03*
X319000000Y-166175000D03*
X319000000Y-168575000D03*
X319000000Y-169425000D03*
X319000000Y-170275000D03*
X319000000Y-171125000D03*
X319000000Y-173375000D03*
%TD*%
D37*
%TO.C,J4*%
X322020000Y-212990000D03*
D38*
X319520000Y-212990000D03*
%TD*%
D21*
%TO.C,R45*%
X316475000Y-190727500D03*
X316475000Y-193652500D03*
%TD*%
D27*
%TO.C,C42*%
X343750000Y-196225000D03*
X342200000Y-196225000D03*
%TD*%
D39*
%TO.C,D7*%
X349925000Y-202812499D03*
X349925000Y-204687501D03*
%TD*%
D26*
%TO.C,C2*%
X318950000Y-184650000D03*
X315999998Y-184650000D03*
%TD*%
D13*
%TO.C,R31*%
X309397500Y-188250000D03*
X311222500Y-188250000D03*
%TD*%
D19*
%TO.C,R38*%
X322300000Y-196250000D03*
X320475000Y-196250000D03*
%TD*%
D29*
%TO.C,H4*%
X352850000Y-213100000D03*
%TD*%
D13*
%TO.C,R33*%
X324672500Y-188000000D03*
X326497500Y-188000000D03*
%TD*%
D19*
%TO.C,R36*%
X309587500Y-196975000D03*
X307762500Y-196975000D03*
%TD*%
D28*
%TO.C,C30*%
X350330000Y-183810000D03*
X353280000Y-183810000D03*
%TD*%
D13*
%TO.C,R35*%
X338787500Y-187750000D03*
X340612500Y-187750000D03*
%TD*%
D34*
%TO.C,R16*%
X308615001Y-208162893D03*
X308615001Y-209812893D03*
%TD*%
D29*
%TO.C,H2*%
X352850000Y-167300000D03*
%TD*%
D40*
%TO.C,C16*%
X310375001Y-209335000D03*
X310375001Y-210885000D03*
%TD*%
M02*
