%TF.GenerationSoftware,KiCad,Pcbnew,9.0.0*%
%TF.CreationDate,2025-10-27T18:32:49+02:00*%
%TF.ProjectId,6L_ESC,364c5f45-5343-42e6-9b69-6361645f7063,rev?*%
%TF.SameCoordinates,Original*%
%TF.FileFunction,Paste,Top*%
%TF.FilePolarity,Positive*%
%FSLAX46Y46*%
G04 Gerber Fmt 4.6, Leading zero omitted, Abs format (unit mm)*
G04 Created by KiCad (PCBNEW 9.0.0) date 2025-10-27 18:32:49*
%MOMM*%
%LPD*%
G01*
G04 APERTURE LIST*
G04 Aperture macros list*
%AMRoundRect*
0 Rectangle with rounded corners*
0 $1 Rounding radius*
0 $2 $3 $4 $5 $6 $7 $8 $9 X,Y pos of 4 corners*
0 Add a 4 corners polygon primitive as box body*
4,1,4,$2,$3,$4,$5,$6,$7,$8,$9,$2,$3,0*
0 Add four circle primitives for the rounded corners*
1,1,$1+$1,$2,$3*
1,1,$1+$1,$4,$5*
1,1,$1+$1,$6,$7*
1,1,$1+$1,$8,$9*
0 Add four rect primitives between the rounded corners*
20,1,$1+$1,$2,$3,$4,$5,0*
20,1,$1+$1,$4,$5,$6,$7,0*
20,1,$1+$1,$6,$7,$8,$9,0*
20,1,$1+$1,$8,$9,$2,$3,0*%
G04 Aperture macros list end*
%ADD10C,0.010000*%
%ADD11R,0.508000X0.711200*%
%ADD12R,1.150000X2.700000*%
%ADD13RoundRect,0.250000X-0.262500X-0.450000X0.262500X-0.450000X0.262500X0.450000X-0.262500X0.450000X0*%
%ADD14RoundRect,0.300000X-0.700000X0.700000X-0.700000X-0.700000X0.700000X-0.700000X0.700000X0.700000X0*%
%ADD15RoundRect,0.250000X0.262500X0.450000X-0.262500X0.450000X-0.262500X-0.450000X0.262500X-0.450000X0*%
%ADD16R,0.800000X2.700000*%
%ADD17RoundRect,0.250000X-0.625000X0.312500X-0.625000X-0.312500X0.625000X-0.312500X0.625000X0.312500X0*%
%ADD18RoundRect,0.242500X0.242500X0.422500X-0.242500X0.422500X-0.242500X-0.422500X0.242500X-0.422500X0*%
%ADD19RoundRect,0.190000X0.685000X0.190000X-0.685000X0.190000X-0.685000X-0.190000X0.685000X-0.190000X0*%
%ADD20RoundRect,0.250000X0.325000X1.100000X-0.325000X1.100000X-0.325000X-1.100000X0.325000X-1.100000X0*%
%ADD21RoundRect,0.225000X0.225000X0.250000X-0.225000X0.250000X-0.225000X-0.250000X0.225000X-0.250000X0*%
%ADD22RoundRect,0.250000X-0.325000X-1.100000X0.325000X-1.100000X0.325000X1.100000X-0.325000X1.100000X0*%
%ADD23RoundRect,0.082500X-0.192500X-0.205000X0.192500X-0.205000X0.192500X0.205000X-0.192500X0.205000X0*%
%ADD24RoundRect,0.037500X-0.237500X-0.087500X0.237500X-0.087500X0.237500X0.087500X-0.237500X0.087500X0*%
%ADD25RoundRect,0.250000X0.475000X-0.250000X0.475000X0.250000X-0.475000X0.250000X-0.475000X-0.250000X0*%
%ADD26RoundRect,0.112500X-0.625000X-0.112500X0.625000X-0.112500X0.625000X0.112500X-0.625000X0.112500X0*%
%ADD27RoundRect,0.200000X-0.275000X0.200000X-0.275000X-0.200000X0.275000X-0.200000X0.275000X0.200000X0*%
%ADD28RoundRect,0.250000X0.450000X-0.262500X0.450000X0.262500X-0.450000X0.262500X-0.450000X-0.262500X0*%
%ADD29RoundRect,0.243750X-0.456250X0.243750X-0.456250X-0.243750X0.456250X-0.243750X0.456250X0.243750X0*%
%ADD30RoundRect,0.225000X-0.250000X0.225000X-0.250000X-0.225000X0.250000X-0.225000X0.250000X0.225000X0*%
G04 APERTURE END LIST*
D10*
%TO.C,U12*%
X313233000Y-206301000D02*
X313235000Y-206301000D01*
X313238000Y-206302000D01*
X313240000Y-206302000D01*
X313243000Y-206303000D01*
X313245000Y-206303999D01*
X313248000Y-206305000D01*
X313250000Y-206307000D01*
X313252000Y-206308000D01*
X313254000Y-206310000D01*
X313256000Y-206311000D01*
X313258000Y-206313000D01*
X313260000Y-206315000D01*
X313262000Y-206317000D01*
X313264000Y-206319000D01*
X313265000Y-206321000D01*
X313267000Y-206323000D01*
X313268000Y-206325000D01*
X313270000Y-206327000D01*
X313271000Y-206330000D01*
X313271999Y-206332000D01*
X313273000Y-206335000D01*
X313273000Y-206337000D01*
X313274000Y-206340000D01*
X313274001Y-206342000D01*
X313275000Y-206345000D01*
X313275000Y-206347000D01*
X313275000Y-206350000D01*
X313275000Y-207550000D01*
X313275000Y-207553000D01*
X313275000Y-207555000D01*
X313274000Y-207558000D01*
X313274001Y-207560000D01*
X313273000Y-207563000D01*
X313273000Y-207565000D01*
X313271999Y-207568000D01*
X313271000Y-207570000D01*
X313270000Y-207573000D01*
X313268000Y-207575000D01*
X313267000Y-207577000D01*
X313265001Y-207579000D01*
X313264000Y-207581000D01*
X313262000Y-207583000D01*
X313260000Y-207585000D01*
X313258000Y-207587000D01*
X313256000Y-207589000D01*
X313254000Y-207590000D01*
X313252000Y-207592000D01*
X313250000Y-207593001D01*
X313248000Y-207595000D01*
X313245000Y-207595999D01*
X313243000Y-207597000D01*
X313240000Y-207598000D01*
X313238000Y-207598000D01*
X313235000Y-207599000D01*
X313233000Y-207599000D01*
X313230000Y-207600000D01*
X313228000Y-207600000D01*
X313225000Y-207600000D01*
X312525000Y-207600000D01*
X312522000Y-207600000D01*
X312520000Y-207600000D01*
X312517000Y-207599000D01*
X312515000Y-207599000D01*
X312512000Y-207598000D01*
X312510000Y-207598000D01*
X312507000Y-207597000D01*
X312505000Y-207595999D01*
X312502000Y-207595000D01*
X312500000Y-207593001D01*
X312498000Y-207592000D01*
X312496000Y-207590000D01*
X312494000Y-207589000D01*
X312492000Y-207587000D01*
X312490000Y-207585000D01*
X312488000Y-207583000D01*
X312486000Y-207581000D01*
X312484999Y-207579000D01*
X312483000Y-207577000D01*
X312482000Y-207575000D01*
X312480000Y-207573000D01*
X312479000Y-207570000D01*
X312478001Y-207568000D01*
X312477000Y-207565000D01*
X312477000Y-207563000D01*
X312475999Y-207560000D01*
X312476000Y-207558000D01*
X312475000Y-207555000D01*
X312475000Y-207553000D01*
X312475000Y-207550000D01*
X312475000Y-206350000D01*
X312475000Y-206347000D01*
X312475000Y-206345000D01*
X312475999Y-206342000D01*
X312476000Y-206340000D01*
X312477000Y-206337000D01*
X312477000Y-206335000D01*
X312478001Y-206332000D01*
X312479000Y-206330000D01*
X312480000Y-206327000D01*
X312482000Y-206325000D01*
X312483000Y-206323000D01*
X312485000Y-206321000D01*
X312486000Y-206319000D01*
X312488000Y-206317000D01*
X312490000Y-206315000D01*
X312492000Y-206313000D01*
X312494000Y-206311000D01*
X312496000Y-206310000D01*
X312498000Y-206308000D01*
X312500000Y-206307000D01*
X312502000Y-206305000D01*
X312505000Y-206303999D01*
X312507000Y-206303000D01*
X312510000Y-206302000D01*
X312512000Y-206302000D01*
X312515000Y-206301000D01*
X312517000Y-206301000D01*
X312520001Y-206300000D01*
X312522000Y-206300000D01*
X312525000Y-206300000D01*
X313225000Y-206300000D01*
X313228000Y-206300000D01*
X313229999Y-206300000D01*
X313233000Y-206301000D01*
G36*
X313233000Y-206301000D02*
G01*
X313235000Y-206301000D01*
X313238000Y-206302000D01*
X313240000Y-206302000D01*
X313243000Y-206303000D01*
X313245000Y-206303999D01*
X313248000Y-206305000D01*
X313250000Y-206307000D01*
X313252000Y-206308000D01*
X313254000Y-206310000D01*
X313256000Y-206311000D01*
X313258000Y-206313000D01*
X313260000Y-206315000D01*
X313262000Y-206317000D01*
X313264000Y-206319000D01*
X313265000Y-206321000D01*
X313267000Y-206323000D01*
X313268000Y-206325000D01*
X313270000Y-206327000D01*
X313271000Y-206330000D01*
X313271999Y-206332000D01*
X313273000Y-206335000D01*
X313273000Y-206337000D01*
X313274000Y-206340000D01*
X313274001Y-206342000D01*
X313275000Y-206345000D01*
X313275000Y-206347000D01*
X313275000Y-206350000D01*
X313275000Y-207550000D01*
X313275000Y-207553000D01*
X313275000Y-207555000D01*
X313274000Y-207558000D01*
X313274001Y-207560000D01*
X313273000Y-207563000D01*
X313273000Y-207565000D01*
X313271999Y-207568000D01*
X313271000Y-207570000D01*
X313270000Y-207573000D01*
X313268000Y-207575000D01*
X313267000Y-207577000D01*
X313265001Y-207579000D01*
X313264000Y-207581000D01*
X313262000Y-207583000D01*
X313260000Y-207585000D01*
X313258000Y-207587000D01*
X313256000Y-207589000D01*
X313254000Y-207590000D01*
X313252000Y-207592000D01*
X313250000Y-207593001D01*
X313248000Y-207595000D01*
X313245000Y-207595999D01*
X313243000Y-207597000D01*
X313240000Y-207598000D01*
X313238000Y-207598000D01*
X313235000Y-207599000D01*
X313233000Y-207599000D01*
X313230000Y-207600000D01*
X313228000Y-207600000D01*
X313225000Y-207600000D01*
X312525000Y-207600000D01*
X312522000Y-207600000D01*
X312520000Y-207600000D01*
X312517000Y-207599000D01*
X312515000Y-207599000D01*
X312512000Y-207598000D01*
X312510000Y-207598000D01*
X312507000Y-207597000D01*
X312505000Y-207595999D01*
X312502000Y-207595000D01*
X312500000Y-207593001D01*
X312498000Y-207592000D01*
X312496000Y-207590000D01*
X312494000Y-207589000D01*
X312492000Y-207587000D01*
X312490000Y-207585000D01*
X312488000Y-207583000D01*
X312486000Y-207581000D01*
X312484999Y-207579000D01*
X312483000Y-207577000D01*
X312482000Y-207575000D01*
X312480000Y-207573000D01*
X312479000Y-207570000D01*
X312478001Y-207568000D01*
X312477000Y-207565000D01*
X312477000Y-207563000D01*
X312475999Y-207560000D01*
X312476000Y-207558000D01*
X312475000Y-207555000D01*
X312475000Y-207553000D01*
X312475000Y-207550000D01*
X312475000Y-206350000D01*
X312475000Y-206347000D01*
X312475000Y-206345000D01*
X312475999Y-206342000D01*
X312476000Y-206340000D01*
X312477000Y-206337000D01*
X312477000Y-206335000D01*
X312478001Y-206332000D01*
X312479000Y-206330000D01*
X312480000Y-206327000D01*
X312482000Y-206325000D01*
X312483000Y-206323000D01*
X312485000Y-206321000D01*
X312486000Y-206319000D01*
X312488000Y-206317000D01*
X312490000Y-206315000D01*
X312492000Y-206313000D01*
X312494000Y-206311000D01*
X312496000Y-206310000D01*
X312498000Y-206308000D01*
X312500000Y-206307000D01*
X312502000Y-206305000D01*
X312505000Y-206303999D01*
X312507000Y-206303000D01*
X312510000Y-206302000D01*
X312512000Y-206302000D01*
X312515000Y-206301000D01*
X312517000Y-206301000D01*
X312520001Y-206300000D01*
X312522000Y-206300000D01*
X312525000Y-206300000D01*
X313225000Y-206300000D01*
X313228000Y-206300000D01*
X313229999Y-206300000D01*
X313233000Y-206301000D01*
G37*
X313233000Y-207801000D02*
X313235000Y-207801000D01*
X313238000Y-207802000D01*
X313240000Y-207802000D01*
X313243000Y-207803000D01*
X313245000Y-207804001D01*
X313248000Y-207805000D01*
X313250000Y-207806999D01*
X313252000Y-207808000D01*
X313254000Y-207810000D01*
X313256000Y-207811000D01*
X313258000Y-207813000D01*
X313260000Y-207815000D01*
X313262000Y-207817000D01*
X313264000Y-207819000D01*
X313265001Y-207821000D01*
X313267000Y-207823000D01*
X313268000Y-207825000D01*
X313270000Y-207827000D01*
X313271000Y-207830000D01*
X313271999Y-207832000D01*
X313273000Y-207835000D01*
X313273000Y-207837000D01*
X313274001Y-207840000D01*
X313274000Y-207842000D01*
X313275000Y-207845000D01*
X313275000Y-207847000D01*
X313275000Y-207850000D01*
X313275000Y-209050000D01*
X313275000Y-209053000D01*
X313275000Y-209055000D01*
X313274001Y-209058000D01*
X313274000Y-209060000D01*
X313273000Y-209063000D01*
X313273000Y-209065000D01*
X313271999Y-209068000D01*
X313271000Y-209070000D01*
X313270000Y-209073000D01*
X313268000Y-209075000D01*
X313267000Y-209077000D01*
X313265000Y-209079000D01*
X313264000Y-209081000D01*
X313262000Y-209083000D01*
X313260000Y-209085000D01*
X313258000Y-209087000D01*
X313256000Y-209089000D01*
X313254000Y-209090000D01*
X313252000Y-209092000D01*
X313250000Y-209093000D01*
X313248000Y-209095000D01*
X313245000Y-209096001D01*
X313243000Y-209097000D01*
X313240000Y-209098000D01*
X313238000Y-209098000D01*
X313235000Y-209099000D01*
X313233000Y-209099000D01*
X313229999Y-209100000D01*
X313228000Y-209100000D01*
X313225000Y-209100000D01*
X312525000Y-209100000D01*
X312522000Y-209100000D01*
X312520001Y-209100000D01*
X312517000Y-209099000D01*
X312515000Y-209099000D01*
X312512000Y-209098000D01*
X312510000Y-209098000D01*
X312507000Y-209097000D01*
X312505000Y-209096001D01*
X312502000Y-209095000D01*
X312500000Y-209093000D01*
X312498000Y-209092000D01*
X312496000Y-209090000D01*
X312494000Y-209089000D01*
X312492000Y-209087000D01*
X312490000Y-209085000D01*
X312488000Y-209083000D01*
X312486000Y-209081000D01*
X312485000Y-209079000D01*
X312483000Y-209077000D01*
X312482000Y-209075000D01*
X312480000Y-209073000D01*
X312479000Y-209070000D01*
X312478001Y-209068000D01*
X312477000Y-209065000D01*
X312477000Y-209063000D01*
X312476000Y-209060000D01*
X312475999Y-209058000D01*
X312475000Y-209055000D01*
X312475000Y-209053000D01*
X312475000Y-209050000D01*
X312475000Y-207850000D01*
X312475000Y-207847000D01*
X312475000Y-207845000D01*
X312476000Y-207842000D01*
X312475999Y-207840000D01*
X312477000Y-207837000D01*
X312477000Y-207835000D01*
X312478001Y-207832000D01*
X312479000Y-207830000D01*
X312480000Y-207827000D01*
X312482000Y-207825000D01*
X312483000Y-207823000D01*
X312484999Y-207821000D01*
X312486000Y-207819000D01*
X312488000Y-207817000D01*
X312490000Y-207815000D01*
X312492000Y-207813000D01*
X312494000Y-207811000D01*
X312496000Y-207810000D01*
X312498000Y-207808000D01*
X312500000Y-207806999D01*
X312502000Y-207805000D01*
X312505000Y-207804001D01*
X312507000Y-207803000D01*
X312510000Y-207802000D01*
X312512000Y-207802000D01*
X312515000Y-207801000D01*
X312517000Y-207801000D01*
X312520000Y-207800000D01*
X312522000Y-207800000D01*
X312525000Y-207800000D01*
X313225000Y-207800000D01*
X313228000Y-207800000D01*
X313230000Y-207800000D01*
X313233000Y-207801000D01*
G36*
X313233000Y-207801000D02*
G01*
X313235000Y-207801000D01*
X313238000Y-207802000D01*
X313240000Y-207802000D01*
X313243000Y-207803000D01*
X313245000Y-207804001D01*
X313248000Y-207805000D01*
X313250000Y-207806999D01*
X313252000Y-207808000D01*
X313254000Y-207810000D01*
X313256000Y-207811000D01*
X313258000Y-207813000D01*
X313260000Y-207815000D01*
X313262000Y-207817000D01*
X313264000Y-207819000D01*
X313265001Y-207821000D01*
X313267000Y-207823000D01*
X313268000Y-207825000D01*
X313270000Y-207827000D01*
X313271000Y-207830000D01*
X313271999Y-207832000D01*
X313273000Y-207835000D01*
X313273000Y-207837000D01*
X313274001Y-207840000D01*
X313274000Y-207842000D01*
X313275000Y-207845000D01*
X313275000Y-207847000D01*
X313275000Y-207850000D01*
X313275000Y-209050000D01*
X313275000Y-209053000D01*
X313275000Y-209055000D01*
X313274001Y-209058000D01*
X313274000Y-209060000D01*
X313273000Y-209063000D01*
X313273000Y-209065000D01*
X313271999Y-209068000D01*
X313271000Y-209070000D01*
X313270000Y-209073000D01*
X313268000Y-209075000D01*
X313267000Y-209077000D01*
X313265000Y-209079000D01*
X313264000Y-209081000D01*
X313262000Y-209083000D01*
X313260000Y-209085000D01*
X313258000Y-209087000D01*
X313256000Y-209089000D01*
X313254000Y-209090000D01*
X313252000Y-209092000D01*
X313250000Y-209093000D01*
X313248000Y-209095000D01*
X313245000Y-209096001D01*
X313243000Y-209097000D01*
X313240000Y-209098000D01*
X313238000Y-209098000D01*
X313235000Y-209099000D01*
X313233000Y-209099000D01*
X313229999Y-209100000D01*
X313228000Y-209100000D01*
X313225000Y-209100000D01*
X312525000Y-209100000D01*
X312522000Y-209100000D01*
X312520001Y-209100000D01*
X312517000Y-209099000D01*
X312515000Y-209099000D01*
X312512000Y-209098000D01*
X312510000Y-209098000D01*
X312507000Y-209097000D01*
X312505000Y-209096001D01*
X312502000Y-209095000D01*
X312500000Y-209093000D01*
X312498000Y-209092000D01*
X312496000Y-209090000D01*
X312494000Y-209089000D01*
X312492000Y-209087000D01*
X312490000Y-209085000D01*
X312488000Y-209083000D01*
X312486000Y-209081000D01*
X312485000Y-209079000D01*
X312483000Y-209077000D01*
X312482000Y-209075000D01*
X312480000Y-209073000D01*
X312479000Y-209070000D01*
X312478001Y-209068000D01*
X312477000Y-209065000D01*
X312477000Y-209063000D01*
X312476000Y-209060000D01*
X312475999Y-209058000D01*
X312475000Y-209055000D01*
X312475000Y-209053000D01*
X312475000Y-209050000D01*
X312475000Y-207850000D01*
X312475000Y-207847000D01*
X312475000Y-207845000D01*
X312476000Y-207842000D01*
X312475999Y-207840000D01*
X312477000Y-207837000D01*
X312477000Y-207835000D01*
X312478001Y-207832000D01*
X312479000Y-207830000D01*
X312480000Y-207827000D01*
X312482000Y-207825000D01*
X312483000Y-207823000D01*
X312484999Y-207821000D01*
X312486000Y-207819000D01*
X312488000Y-207817000D01*
X312490000Y-207815000D01*
X312492000Y-207813000D01*
X312494000Y-207811000D01*
X312496000Y-207810000D01*
X312498000Y-207808000D01*
X312500000Y-207806999D01*
X312502000Y-207805000D01*
X312505000Y-207804001D01*
X312507000Y-207803000D01*
X312510000Y-207802000D01*
X312512000Y-207802000D01*
X312515000Y-207801000D01*
X312517000Y-207801000D01*
X312520000Y-207800000D01*
X312522000Y-207800000D01*
X312525000Y-207800000D01*
X313225000Y-207800000D01*
X313228000Y-207800000D01*
X313230000Y-207800000D01*
X313233000Y-207801000D01*
G37*
%TD*%
D11*
%TO.C,U9*%
X337890000Y-182300000D03*
X339160000Y-182300000D03*
X340430000Y-182300000D03*
X341700000Y-182300000D03*
X341700000Y-176760000D03*
X340430000Y-176760000D03*
X339160000Y-176760000D03*
X337890000Y-176760000D03*
D12*
X338850900Y-179031200D03*
X340750900Y-179031200D03*
%TD*%
D13*
%TO.C,R43*%
X322337500Y-200400000D03*
X324162500Y-200400000D03*
%TD*%
D14*
%TO.C,SW1*%
X306425000Y-202650000D03*
X306425000Y-206650000D03*
%TD*%
D15*
%TO.C,R34*%
X347562500Y-187850000D03*
X345737500Y-187850000D03*
%TD*%
D11*
%TO.C,U4*%
X322806934Y-176769234D03*
X321536934Y-176769234D03*
X320266934Y-176769234D03*
X318996934Y-176769234D03*
X318996935Y-182309234D03*
X320266934Y-182309234D03*
X321536934Y-182309234D03*
X322806933Y-182309234D03*
D16*
X321900000Y-180000000D03*
X319900000Y-180000000D03*
%TD*%
D17*
%TO.C,R46*%
X331325000Y-190512500D03*
X331325000Y-193437500D03*
%TD*%
D18*
%TO.C,U14*%
X325450000Y-193250000D03*
X326650000Y-193250000D03*
X325450000Y-191600000D03*
X326650000Y-191600000D03*
D19*
X328700000Y-194305000D03*
X328700000Y-193035000D03*
X328700000Y-191765000D03*
X328700000Y-190495000D03*
X323400000Y-190495000D03*
X323400000Y-191765000D03*
X323400000Y-193035000D03*
X323400000Y-194305000D03*
%TD*%
D13*
%TO.C,R39*%
X320475000Y-198400000D03*
X322300000Y-198400000D03*
%TD*%
D20*
%TO.C,C34*%
X315790003Y-204025002D03*
X312840001Y-204025002D03*
%TD*%
D21*
%TO.C,C41*%
X343725000Y-197925000D03*
X342175000Y-197925000D03*
%TD*%
D11*
%TO.C,U5*%
X335606934Y-176769234D03*
X334336934Y-176769234D03*
X333066934Y-176769234D03*
X331796934Y-176769234D03*
X331796935Y-182309234D03*
X333066934Y-182309234D03*
X334336934Y-182309234D03*
X335606933Y-182309234D03*
D16*
X334700000Y-180000000D03*
X332700000Y-180000000D03*
%TD*%
D22*
%TO.C,C19*%
X335174999Y-184650000D03*
X338125001Y-184650000D03*
%TD*%
D11*
%TO.C,U8*%
X325190000Y-182300000D03*
X326460000Y-182300000D03*
X327730000Y-182300000D03*
X329000000Y-182300000D03*
X329000000Y-176760000D03*
X327730000Y-176760000D03*
X326460000Y-176760000D03*
X325190000Y-176760000D03*
D12*
X326150900Y-179031200D03*
X328050900Y-179031200D03*
%TD*%
D20*
%TO.C,C22*%
X344475002Y-184700000D03*
X341525000Y-184700000D03*
%TD*%
D22*
%TO.C,C31*%
X307750000Y-184700000D03*
X310700000Y-184700000D03*
%TD*%
D13*
%TO.C,R37*%
X307762500Y-199075000D03*
X309587500Y-199075000D03*
%TD*%
D17*
%TO.C,R47*%
X346350000Y-190537500D03*
X346350000Y-193462500D03*
%TD*%
D21*
%TO.C,C32*%
X313765000Y-196195000D03*
X312215000Y-196195000D03*
%TD*%
D23*
%TO.C,U12*%
X311800000Y-206537500D03*
D24*
X311800000Y-207200000D03*
X311800000Y-207700000D03*
X311800000Y-208200000D03*
D23*
X311800000Y-208862500D03*
X313950000Y-208862500D03*
D24*
X313950000Y-208200000D03*
X313950000Y-207700000D03*
X313950000Y-207200000D03*
D23*
X313950000Y-206537500D03*
%TD*%
D21*
%TO.C,C40*%
X330010000Y-188810000D03*
X328460000Y-188810000D03*
%TD*%
D11*
%TO.C,U6*%
X348306934Y-176769234D03*
X347036934Y-176769234D03*
X345766934Y-176769234D03*
X344496934Y-176769234D03*
X344496935Y-182309234D03*
X345766934Y-182309234D03*
X347036934Y-182309234D03*
X348306933Y-182309234D03*
D16*
X347400000Y-180000000D03*
X345400000Y-180000000D03*
%TD*%
D18*
%TO.C,U15*%
X340550000Y-193249999D03*
X341750000Y-193249999D03*
X341750000Y-191600000D03*
X340549999Y-191599999D03*
D19*
X343800000Y-194304998D03*
X343800000Y-193034999D03*
X343800000Y-191764999D03*
X343799999Y-190494999D03*
X338499999Y-190494999D03*
X338500000Y-191764999D03*
X338500000Y-193034999D03*
X338500000Y-194304998D03*
%TD*%
D21*
%TO.C,C43*%
X344025000Y-188900000D03*
X342475000Y-188900000D03*
%TD*%
D22*
%TO.C,C15*%
X322474999Y-184675000D03*
X325425001Y-184675000D03*
%TD*%
D25*
%TO.C,C14*%
X310050000Y-206575000D03*
X310050000Y-204675000D03*
%TD*%
D15*
%TO.C,R32*%
X333562500Y-188000000D03*
X331737500Y-188000000D03*
%TD*%
%TO.C,R42*%
X311400000Y-201250000D03*
X309575000Y-201250000D03*
%TD*%
D21*
%TO.C,C35*%
X313740000Y-197850000D03*
X312190000Y-197850000D03*
%TD*%
%TO.C,C38*%
X329210000Y-197860000D03*
X327660000Y-197860000D03*
%TD*%
D26*
%TO.C,U2*%
X323670000Y-203590000D03*
X323670000Y-204240000D03*
X323670000Y-204890000D03*
X323670000Y-205540000D03*
X323670000Y-206190000D03*
X323670000Y-206840000D03*
X323670000Y-207490000D03*
X329470000Y-207490000D03*
X329470000Y-206840000D03*
X329470000Y-206190000D03*
X329470000Y-205540000D03*
X329470000Y-204890000D03*
X329470000Y-204240000D03*
X329470000Y-203590000D03*
%TD*%
D18*
%TO.C,U13*%
X310647500Y-193450000D03*
X311847500Y-193450000D03*
X310647500Y-191800000D03*
X311847500Y-191800000D03*
D19*
X313897500Y-194505000D03*
X313897500Y-193235000D03*
X313897500Y-191965000D03*
X313897500Y-190695000D03*
X308597500Y-190695000D03*
X308597500Y-191965000D03*
X308597500Y-193235000D03*
X308597500Y-194505000D03*
%TD*%
D27*
%TO.C,R18*%
X315500000Y-208175000D03*
X315500000Y-209825000D03*
%TD*%
D11*
%TO.C,U7*%
X312290000Y-182300000D03*
X313560000Y-182300000D03*
X314830000Y-182300000D03*
X316100000Y-182300000D03*
X316100000Y-176760000D03*
X314830000Y-176760000D03*
X313560000Y-176760000D03*
X312290000Y-176760000D03*
D12*
X313250900Y-179031200D03*
X315150900Y-179031200D03*
%TD*%
D15*
%TO.C,R41*%
X337237500Y-198925000D03*
X335412500Y-198925000D03*
%TD*%
D21*
%TO.C,C37*%
X314835000Y-189015000D03*
X313285000Y-189015000D03*
%TD*%
%TO.C,C39*%
X329210000Y-196135000D03*
X327660000Y-196135000D03*
%TD*%
D28*
%TO.C,R7*%
X349900000Y-201012500D03*
X349900000Y-199187500D03*
%TD*%
D15*
%TO.C,R30*%
X318662500Y-188350000D03*
X316837500Y-188350000D03*
%TD*%
D13*
%TO.C,R40*%
X335412500Y-196850000D03*
X337237500Y-196850000D03*
%TD*%
%TO.C,R44*%
X333562500Y-201075000D03*
X335387500Y-201075000D03*
%TD*%
D20*
%TO.C,C18*%
X331875001Y-184700000D03*
X328924999Y-184700000D03*
%TD*%
D17*
%TO.C,R45*%
X316475000Y-190727500D03*
X316475000Y-193652500D03*
%TD*%
D21*
%TO.C,C42*%
X343750000Y-196225000D03*
X342200000Y-196225000D03*
%TD*%
D29*
%TO.C,D7*%
X349925000Y-202812499D03*
X349925000Y-204687501D03*
%TD*%
D20*
%TO.C,C2*%
X318950000Y-184650000D03*
X315999998Y-184650000D03*
%TD*%
D13*
%TO.C,R31*%
X309397500Y-188250000D03*
X311222500Y-188250000D03*
%TD*%
D15*
%TO.C,R38*%
X322300000Y-196250000D03*
X320475000Y-196250000D03*
%TD*%
D13*
%TO.C,R33*%
X324672500Y-188000000D03*
X326497500Y-188000000D03*
%TD*%
D15*
%TO.C,R36*%
X309587500Y-196975000D03*
X307762500Y-196975000D03*
%TD*%
D22*
%TO.C,C30*%
X350330000Y-183810000D03*
X353280000Y-183810000D03*
%TD*%
D13*
%TO.C,R35*%
X338787500Y-187750000D03*
X340612500Y-187750000D03*
%TD*%
D27*
%TO.C,R16*%
X308615001Y-208162893D03*
X308615001Y-209812893D03*
%TD*%
D30*
%TO.C,C16*%
X310375001Y-209335000D03*
X310375001Y-210885000D03*
%TD*%
M02*
