%TF.GenerationSoftware,KiCad,Pcbnew,9.0.0*%
%TF.CreationDate,2025-10-27T18:32:49+02:00*%
%TF.ProjectId,6L_ESC,364c5f45-5343-42e6-9b69-6361645f7063,rev?*%
%TF.SameCoordinates,Original*%
%TF.FileFunction,Legend,Top*%
%TF.FilePolarity,Positive*%
%FSLAX46Y46*%
G04 Gerber Fmt 4.6, Leading zero omitted, Abs format (unit mm)*
G04 Created by KiCad (PCBNEW 9.0.0) date 2025-10-27 18:32:49*
%MOMM*%
%LPD*%
G01*
G04 APERTURE LIST*
%ADD10C,0.100000*%
%ADD11C,0.200000*%
%ADD12C,0.250000*%
%ADD13C,0.350000*%
%ADD14C,0.150000*%
%ADD15C,0.152400*%
%ADD16C,0.120000*%
%ADD17C,0.000000*%
G04 APERTURE END LIST*
D10*
X323765001Y-182360000D02*
X324214999Y-182360000D01*
X349591420Y-175790901D02*
X349273223Y-176109098D01*
X310700002Y-182300000D02*
X311150000Y-182300000D01*
X336974999Y-182350000D02*
X336874999Y-182500000D01*
X311150000Y-182300000D02*
X311050000Y-182450000D01*
X336390901Y-176059098D02*
X336567678Y-176094453D01*
X336709098Y-175740901D02*
X336390901Y-176059098D01*
X323640901Y-176009098D02*
X323605546Y-175832321D01*
X349273223Y-176109098D02*
X349237868Y-175932321D01*
X323640901Y-176009098D02*
X323817678Y-176044453D01*
X311150000Y-182300000D02*
X311050000Y-182150000D01*
X323959098Y-175690901D02*
X323640901Y-176009098D01*
X349273223Y-176109098D02*
X349450000Y-176144453D01*
X324214999Y-182360000D02*
X324114999Y-182510000D01*
X336390901Y-176059098D02*
X336355546Y-175882321D01*
X336974999Y-182350000D02*
X336874999Y-182200000D01*
X324214999Y-182360000D02*
X324114999Y-182210000D01*
X336525000Y-182350000D02*
X336974999Y-182350000D01*
D11*
X339700625Y-209946457D02*
X339662530Y-209908361D01*
X339662530Y-209908361D02*
X339586339Y-209794076D01*
X339586339Y-209794076D02*
X339548244Y-209717885D01*
X339548244Y-209717885D02*
X339510149Y-209603600D01*
X339510149Y-209603600D02*
X339472054Y-209413123D01*
X339472054Y-209413123D02*
X339472054Y-209260742D01*
X339472054Y-209260742D02*
X339510149Y-209070266D01*
X339510149Y-209070266D02*
X339548244Y-208955980D01*
X339548244Y-208955980D02*
X339586339Y-208879790D01*
X339586339Y-208879790D02*
X339662530Y-208765504D01*
X339662530Y-208765504D02*
X339700625Y-208727409D01*
X340005387Y-209336933D02*
X340614911Y-209336933D01*
X340310149Y-209641695D02*
X340310149Y-209032171D01*
X340919672Y-209946457D02*
X340957767Y-209908361D01*
X340957767Y-209908361D02*
X341033958Y-209794076D01*
X341033958Y-209794076D02*
X341072053Y-209717885D01*
X341072053Y-209717885D02*
X341110148Y-209603600D01*
X341110148Y-209603600D02*
X341148244Y-209413123D01*
X341148244Y-209413123D02*
X341148244Y-209260742D01*
X341148244Y-209260742D02*
X341110148Y-209070266D01*
X341110148Y-209070266D02*
X341072053Y-208955980D01*
X341072053Y-208955980D02*
X341033958Y-208879790D01*
X341033958Y-208879790D02*
X340957767Y-208765504D01*
X340957767Y-208765504D02*
X340919672Y-208727409D01*
X318550625Y-210146457D02*
X318512530Y-210108361D01*
X318512530Y-210108361D02*
X318436339Y-209994076D01*
X318436339Y-209994076D02*
X318398244Y-209917885D01*
X318398244Y-209917885D02*
X318360149Y-209803600D01*
X318360149Y-209803600D02*
X318322054Y-209613123D01*
X318322054Y-209613123D02*
X318322054Y-209460742D01*
X318322054Y-209460742D02*
X318360149Y-209270266D01*
X318360149Y-209270266D02*
X318398244Y-209155980D01*
X318398244Y-209155980D02*
X318436339Y-209079790D01*
X318436339Y-209079790D02*
X318512530Y-208965504D01*
X318512530Y-208965504D02*
X318550625Y-208927409D01*
X318855387Y-209536933D02*
X319464911Y-209536933D01*
X319769672Y-210146457D02*
X319807767Y-210108361D01*
X319807767Y-210108361D02*
X319883958Y-209994076D01*
X319883958Y-209994076D02*
X319922053Y-209917885D01*
X319922053Y-209917885D02*
X319960148Y-209803600D01*
X319960148Y-209803600D02*
X319998244Y-209613123D01*
X319998244Y-209613123D02*
X319998244Y-209460742D01*
X319998244Y-209460742D02*
X319960148Y-209270266D01*
X319960148Y-209270266D02*
X319922053Y-209155980D01*
X319922053Y-209155980D02*
X319883958Y-209079790D01*
X319883958Y-209079790D02*
X319807767Y-208965504D01*
X319807767Y-208965504D02*
X319769672Y-208927409D01*
X331572054Y-209716695D02*
X331572054Y-208916695D01*
X331572054Y-208916695D02*
X331876816Y-208916695D01*
X331876816Y-208916695D02*
X331953006Y-208954790D01*
X331953006Y-208954790D02*
X331991101Y-208992885D01*
X331991101Y-208992885D02*
X332029197Y-209069076D01*
X332029197Y-209069076D02*
X332029197Y-209183361D01*
X332029197Y-209183361D02*
X331991101Y-209259552D01*
X331991101Y-209259552D02*
X331953006Y-209297647D01*
X331953006Y-209297647D02*
X331876816Y-209335742D01*
X331876816Y-209335742D02*
X331572054Y-209335742D01*
X332791101Y-208954790D02*
X332714911Y-208916695D01*
X332714911Y-208916695D02*
X332600625Y-208916695D01*
X332600625Y-208916695D02*
X332486339Y-208954790D01*
X332486339Y-208954790D02*
X332410149Y-209030980D01*
X332410149Y-209030980D02*
X332372054Y-209107171D01*
X332372054Y-209107171D02*
X332333958Y-209259552D01*
X332333958Y-209259552D02*
X332333958Y-209373838D01*
X332333958Y-209373838D02*
X332372054Y-209526219D01*
X332372054Y-209526219D02*
X332410149Y-209602409D01*
X332410149Y-209602409D02*
X332486339Y-209678600D01*
X332486339Y-209678600D02*
X332600625Y-209716695D01*
X332600625Y-209716695D02*
X332676816Y-209716695D01*
X332676816Y-209716695D02*
X332791101Y-209678600D01*
X332791101Y-209678600D02*
X332829197Y-209640504D01*
X332829197Y-209640504D02*
X332829197Y-209373838D01*
X332829197Y-209373838D02*
X332676816Y-209373838D01*
X333629197Y-209640504D02*
X333591101Y-209678600D01*
X333591101Y-209678600D02*
X333476816Y-209716695D01*
X333476816Y-209716695D02*
X333400625Y-209716695D01*
X333400625Y-209716695D02*
X333286339Y-209678600D01*
X333286339Y-209678600D02*
X333210149Y-209602409D01*
X333210149Y-209602409D02*
X333172054Y-209526219D01*
X333172054Y-209526219D02*
X333133958Y-209373838D01*
X333133958Y-209373838D02*
X333133958Y-209259552D01*
X333133958Y-209259552D02*
X333172054Y-209107171D01*
X333172054Y-209107171D02*
X333210149Y-209030980D01*
X333210149Y-209030980D02*
X333286339Y-208954790D01*
X333286339Y-208954790D02*
X333400625Y-208916695D01*
X333400625Y-208916695D02*
X333476816Y-208916695D01*
X333476816Y-208916695D02*
X333591101Y-208954790D01*
X333591101Y-208954790D02*
X333629197Y-208992885D01*
X323942054Y-209321695D02*
X323942054Y-208521695D01*
X323942054Y-208521695D02*
X324208720Y-209093123D01*
X324208720Y-209093123D02*
X324475387Y-208521695D01*
X324475387Y-208521695D02*
X324475387Y-209321695D01*
X325313483Y-209245504D02*
X325275387Y-209283600D01*
X325275387Y-209283600D02*
X325161102Y-209321695D01*
X325161102Y-209321695D02*
X325084911Y-209321695D01*
X325084911Y-209321695D02*
X324970625Y-209283600D01*
X324970625Y-209283600D02*
X324894435Y-209207409D01*
X324894435Y-209207409D02*
X324856340Y-209131219D01*
X324856340Y-209131219D02*
X324818244Y-208978838D01*
X324818244Y-208978838D02*
X324818244Y-208864552D01*
X324818244Y-208864552D02*
X324856340Y-208712171D01*
X324856340Y-208712171D02*
X324894435Y-208635980D01*
X324894435Y-208635980D02*
X324970625Y-208559790D01*
X324970625Y-208559790D02*
X325084911Y-208521695D01*
X325084911Y-208521695D02*
X325161102Y-208521695D01*
X325161102Y-208521695D02*
X325275387Y-208559790D01*
X325275387Y-208559790D02*
X325313483Y-208597885D01*
X325656340Y-209321695D02*
X325656340Y-208521695D01*
X325656340Y-208521695D02*
X325961102Y-208521695D01*
X325961102Y-208521695D02*
X326037292Y-208559790D01*
X326037292Y-208559790D02*
X326075387Y-208597885D01*
X326075387Y-208597885D02*
X326113483Y-208674076D01*
X326113483Y-208674076D02*
X326113483Y-208788361D01*
X326113483Y-208788361D02*
X326075387Y-208864552D01*
X326075387Y-208864552D02*
X326037292Y-208902647D01*
X326037292Y-208902647D02*
X325961102Y-208940742D01*
X325961102Y-208940742D02*
X325656340Y-208940742D01*
X326799197Y-208521695D02*
X326646816Y-208521695D01*
X326646816Y-208521695D02*
X326570625Y-208559790D01*
X326570625Y-208559790D02*
X326532530Y-208597885D01*
X326532530Y-208597885D02*
X326456340Y-208712171D01*
X326456340Y-208712171D02*
X326418244Y-208864552D01*
X326418244Y-208864552D02*
X326418244Y-209169314D01*
X326418244Y-209169314D02*
X326456340Y-209245504D01*
X326456340Y-209245504D02*
X326494435Y-209283600D01*
X326494435Y-209283600D02*
X326570625Y-209321695D01*
X326570625Y-209321695D02*
X326723006Y-209321695D01*
X326723006Y-209321695D02*
X326799197Y-209283600D01*
X326799197Y-209283600D02*
X326837292Y-209245504D01*
X326837292Y-209245504D02*
X326875387Y-209169314D01*
X326875387Y-209169314D02*
X326875387Y-208978838D01*
X326875387Y-208978838D02*
X326837292Y-208902647D01*
X326837292Y-208902647D02*
X326799197Y-208864552D01*
X326799197Y-208864552D02*
X326723006Y-208826457D01*
X326723006Y-208826457D02*
X326570625Y-208826457D01*
X326570625Y-208826457D02*
X326494435Y-208864552D01*
X326494435Y-208864552D02*
X326456340Y-208902647D01*
X326456340Y-208902647D02*
X326418244Y-208978838D01*
X327599197Y-208521695D02*
X327218245Y-208521695D01*
X327218245Y-208521695D02*
X327180149Y-208902647D01*
X327180149Y-208902647D02*
X327218245Y-208864552D01*
X327218245Y-208864552D02*
X327294435Y-208826457D01*
X327294435Y-208826457D02*
X327484911Y-208826457D01*
X327484911Y-208826457D02*
X327561102Y-208864552D01*
X327561102Y-208864552D02*
X327599197Y-208902647D01*
X327599197Y-208902647D02*
X327637292Y-208978838D01*
X327637292Y-208978838D02*
X327637292Y-209169314D01*
X327637292Y-209169314D02*
X327599197Y-209245504D01*
X327599197Y-209245504D02*
X327561102Y-209283600D01*
X327561102Y-209283600D02*
X327484911Y-209321695D01*
X327484911Y-209321695D02*
X327294435Y-209321695D01*
X327294435Y-209321695D02*
X327218245Y-209283600D01*
X327218245Y-209283600D02*
X327180149Y-209245504D01*
X328323007Y-208521695D02*
X328170626Y-208521695D01*
X328170626Y-208521695D02*
X328094435Y-208559790D01*
X328094435Y-208559790D02*
X328056340Y-208597885D01*
X328056340Y-208597885D02*
X327980150Y-208712171D01*
X327980150Y-208712171D02*
X327942054Y-208864552D01*
X327942054Y-208864552D02*
X327942054Y-209169314D01*
X327942054Y-209169314D02*
X327980150Y-209245504D01*
X327980150Y-209245504D02*
X328018245Y-209283600D01*
X328018245Y-209283600D02*
X328094435Y-209321695D01*
X328094435Y-209321695D02*
X328246816Y-209321695D01*
X328246816Y-209321695D02*
X328323007Y-209283600D01*
X328323007Y-209283600D02*
X328361102Y-209245504D01*
X328361102Y-209245504D02*
X328399197Y-209169314D01*
X328399197Y-209169314D02*
X328399197Y-208978838D01*
X328399197Y-208978838D02*
X328361102Y-208902647D01*
X328361102Y-208902647D02*
X328323007Y-208864552D01*
X328323007Y-208864552D02*
X328246816Y-208826457D01*
X328246816Y-208826457D02*
X328094435Y-208826457D01*
X328094435Y-208826457D02*
X328018245Y-208864552D01*
X328018245Y-208864552D02*
X327980150Y-208902647D01*
X327980150Y-208902647D02*
X327942054Y-208978838D01*
X329084912Y-208788361D02*
X329084912Y-209321695D01*
X328894436Y-208483600D02*
X328703959Y-209055028D01*
X328703959Y-209055028D02*
X329199198Y-209055028D01*
X348447209Y-203673156D02*
X348447209Y-204054108D01*
X348447209Y-204054108D02*
X347647209Y-204054108D01*
X348028161Y-203406489D02*
X348028161Y-203139823D01*
X348447209Y-203025537D02*
X348447209Y-203406489D01*
X348447209Y-203406489D02*
X347647209Y-203406489D01*
X347647209Y-203406489D02*
X347647209Y-203025537D01*
X348447209Y-202682679D02*
X347647209Y-202682679D01*
X347647209Y-202682679D02*
X347647209Y-202492203D01*
X347647209Y-202492203D02*
X347685304Y-202377917D01*
X347685304Y-202377917D02*
X347761494Y-202301727D01*
X347761494Y-202301727D02*
X347837685Y-202263632D01*
X347837685Y-202263632D02*
X347990066Y-202225536D01*
X347990066Y-202225536D02*
X348104352Y-202225536D01*
X348104352Y-202225536D02*
X348256733Y-202263632D01*
X348256733Y-202263632D02*
X348332923Y-202301727D01*
X348332923Y-202301727D02*
X348409114Y-202377917D01*
X348409114Y-202377917D02*
X348447209Y-202492203D01*
X348447209Y-202492203D02*
X348447209Y-202682679D01*
X321200625Y-210146457D02*
X321162530Y-210108361D01*
X321162530Y-210108361D02*
X321086339Y-209994076D01*
X321086339Y-209994076D02*
X321048244Y-209917885D01*
X321048244Y-209917885D02*
X321010149Y-209803600D01*
X321010149Y-209803600D02*
X320972054Y-209613123D01*
X320972054Y-209613123D02*
X320972054Y-209460742D01*
X320972054Y-209460742D02*
X321010149Y-209270266D01*
X321010149Y-209270266D02*
X321048244Y-209155980D01*
X321048244Y-209155980D02*
X321086339Y-209079790D01*
X321086339Y-209079790D02*
X321162530Y-208965504D01*
X321162530Y-208965504D02*
X321200625Y-208927409D01*
X321505387Y-209536933D02*
X322114911Y-209536933D01*
X321810149Y-209841695D02*
X321810149Y-209232171D01*
X322419672Y-210146457D02*
X322457767Y-210108361D01*
X322457767Y-210108361D02*
X322533958Y-209994076D01*
X322533958Y-209994076D02*
X322572053Y-209917885D01*
X322572053Y-209917885D02*
X322610148Y-209803600D01*
X322610148Y-209803600D02*
X322648244Y-209613123D01*
X322648244Y-209613123D02*
X322648244Y-209460742D01*
X322648244Y-209460742D02*
X322610148Y-209270266D01*
X322610148Y-209270266D02*
X322572053Y-209155980D01*
X322572053Y-209155980D02*
X322533958Y-209079790D01*
X322533958Y-209079790D02*
X322457767Y-208965504D01*
X322457767Y-208965504D02*
X322419672Y-208927409D01*
D12*
X350764619Y-196926003D02*
X350288428Y-197259336D01*
X350764619Y-197497431D02*
X349764619Y-197497431D01*
X349764619Y-197497431D02*
X349764619Y-197116479D01*
X349764619Y-197116479D02*
X349812238Y-197021241D01*
X349812238Y-197021241D02*
X349859857Y-196973622D01*
X349859857Y-196973622D02*
X349955095Y-196926003D01*
X349955095Y-196926003D02*
X350097952Y-196926003D01*
X350097952Y-196926003D02*
X350193190Y-196973622D01*
X350193190Y-196973622D02*
X350240809Y-197021241D01*
X350240809Y-197021241D02*
X350288428Y-197116479D01*
X350288428Y-197116479D02*
X350288428Y-197497431D01*
X349764619Y-196592669D02*
X350764619Y-195926003D01*
X349764619Y-195926003D02*
X350764619Y-196592669D01*
D11*
X319888720Y-208022647D02*
X319622054Y-208022647D01*
X319622054Y-208441695D02*
X319622054Y-207641695D01*
X319622054Y-207641695D02*
X320003006Y-207641695D01*
X320269672Y-208213123D02*
X320650625Y-208213123D01*
X320193482Y-208441695D02*
X320460149Y-207641695D01*
X320460149Y-207641695D02*
X320726815Y-208441695D01*
X320993482Y-208441695D02*
X320993482Y-207641695D01*
X320993482Y-207641695D02*
X321450625Y-208441695D01*
X321450625Y-208441695D02*
X321450625Y-207641695D01*
X337300625Y-209946457D02*
X337262530Y-209908361D01*
X337262530Y-209908361D02*
X337186339Y-209794076D01*
X337186339Y-209794076D02*
X337148244Y-209717885D01*
X337148244Y-209717885D02*
X337110149Y-209603600D01*
X337110149Y-209603600D02*
X337072054Y-209413123D01*
X337072054Y-209413123D02*
X337072054Y-209260742D01*
X337072054Y-209260742D02*
X337110149Y-209070266D01*
X337110149Y-209070266D02*
X337148244Y-208955980D01*
X337148244Y-208955980D02*
X337186339Y-208879790D01*
X337186339Y-208879790D02*
X337262530Y-208765504D01*
X337262530Y-208765504D02*
X337300625Y-208727409D01*
X337605387Y-209336933D02*
X338214911Y-209336933D01*
X338519672Y-209946457D02*
X338557767Y-209908361D01*
X338557767Y-209908361D02*
X338633958Y-209794076D01*
X338633958Y-209794076D02*
X338672053Y-209717885D01*
X338672053Y-209717885D02*
X338710148Y-209603600D01*
X338710148Y-209603600D02*
X338748244Y-209413123D01*
X338748244Y-209413123D02*
X338748244Y-209260742D01*
X338748244Y-209260742D02*
X338710148Y-209070266D01*
X338710148Y-209070266D02*
X338672053Y-208955980D01*
X338672053Y-208955980D02*
X338633958Y-208879790D01*
X338633958Y-208879790D02*
X338557767Y-208765504D01*
X338557767Y-208765504D02*
X338519672Y-208727409D01*
D13*
X317715977Y-175219657D02*
X318430263Y-175219657D01*
X317573120Y-175648228D02*
X318073120Y-174148228D01*
X318073120Y-174148228D02*
X318573120Y-175648228D01*
D11*
X319583304Y-203428006D02*
X319583304Y-203047054D01*
X319583304Y-203047054D02*
X319202352Y-203008958D01*
X319202352Y-203008958D02*
X319240447Y-203047054D01*
X319240447Y-203047054D02*
X319278542Y-203123244D01*
X319278542Y-203123244D02*
X319278542Y-203313720D01*
X319278542Y-203313720D02*
X319240447Y-203389911D01*
X319240447Y-203389911D02*
X319202352Y-203428006D01*
X319202352Y-203428006D02*
X319126161Y-203466101D01*
X319126161Y-203466101D02*
X318935685Y-203466101D01*
X318935685Y-203466101D02*
X318859495Y-203428006D01*
X318859495Y-203428006D02*
X318821400Y-203389911D01*
X318821400Y-203389911D02*
X318783304Y-203313720D01*
X318783304Y-203313720D02*
X318783304Y-203123244D01*
X318783304Y-203123244D02*
X318821400Y-203047054D01*
X318821400Y-203047054D02*
X318859495Y-203008958D01*
X319583304Y-203694673D02*
X318783304Y-203961340D01*
X318783304Y-203961340D02*
X319583304Y-204228006D01*
X319621400Y-205066101D02*
X318592828Y-204380387D01*
X319583304Y-205256577D02*
X319583304Y-205751815D01*
X319583304Y-205751815D02*
X319278542Y-205485149D01*
X319278542Y-205485149D02*
X319278542Y-205599434D01*
X319278542Y-205599434D02*
X319240447Y-205675625D01*
X319240447Y-205675625D02*
X319202352Y-205713720D01*
X319202352Y-205713720D02*
X319126161Y-205751815D01*
X319126161Y-205751815D02*
X318935685Y-205751815D01*
X318935685Y-205751815D02*
X318859495Y-205713720D01*
X318859495Y-205713720D02*
X318821400Y-205675625D01*
X318821400Y-205675625D02*
X318783304Y-205599434D01*
X318783304Y-205599434D02*
X318783304Y-205370863D01*
X318783304Y-205370863D02*
X318821400Y-205294672D01*
X318821400Y-205294672D02*
X318859495Y-205256577D01*
X319011876Y-206056577D02*
X319011876Y-206437530D01*
X318783304Y-205980387D02*
X319583304Y-206247054D01*
X319583304Y-206247054D02*
X318783304Y-206513720D01*
X334272054Y-209716695D02*
X334272054Y-208916695D01*
X334272054Y-208916695D02*
X334576816Y-208916695D01*
X334576816Y-208916695D02*
X334653006Y-208954790D01*
X334653006Y-208954790D02*
X334691101Y-208992885D01*
X334691101Y-208992885D02*
X334729197Y-209069076D01*
X334729197Y-209069076D02*
X334729197Y-209183361D01*
X334729197Y-209183361D02*
X334691101Y-209259552D01*
X334691101Y-209259552D02*
X334653006Y-209297647D01*
X334653006Y-209297647D02*
X334576816Y-209335742D01*
X334576816Y-209335742D02*
X334272054Y-209335742D01*
X335491101Y-208954790D02*
X335414911Y-208916695D01*
X335414911Y-208916695D02*
X335300625Y-208916695D01*
X335300625Y-208916695D02*
X335186339Y-208954790D01*
X335186339Y-208954790D02*
X335110149Y-209030980D01*
X335110149Y-209030980D02*
X335072054Y-209107171D01*
X335072054Y-209107171D02*
X335033958Y-209259552D01*
X335033958Y-209259552D02*
X335033958Y-209373838D01*
X335033958Y-209373838D02*
X335072054Y-209526219D01*
X335072054Y-209526219D02*
X335110149Y-209602409D01*
X335110149Y-209602409D02*
X335186339Y-209678600D01*
X335186339Y-209678600D02*
X335300625Y-209716695D01*
X335300625Y-209716695D02*
X335376816Y-209716695D01*
X335376816Y-209716695D02*
X335491101Y-209678600D01*
X335491101Y-209678600D02*
X335529197Y-209640504D01*
X335529197Y-209640504D02*
X335529197Y-209373838D01*
X335529197Y-209373838D02*
X335376816Y-209373838D01*
X335872054Y-209716695D02*
X335872054Y-208916695D01*
X335872054Y-208916695D02*
X336062530Y-208916695D01*
X336062530Y-208916695D02*
X336176816Y-208954790D01*
X336176816Y-208954790D02*
X336253006Y-209030980D01*
X336253006Y-209030980D02*
X336291101Y-209107171D01*
X336291101Y-209107171D02*
X336329197Y-209259552D01*
X336329197Y-209259552D02*
X336329197Y-209373838D01*
X336329197Y-209373838D02*
X336291101Y-209526219D01*
X336291101Y-209526219D02*
X336253006Y-209602409D01*
X336253006Y-209602409D02*
X336176816Y-209678600D01*
X336176816Y-209678600D02*
X336062530Y-209716695D01*
X336062530Y-209716695D02*
X335872054Y-209716695D01*
X308056398Y-202458957D02*
X308018302Y-202573243D01*
X308018302Y-202573243D02*
X308018302Y-202763719D01*
X308018302Y-202763719D02*
X308056398Y-202839910D01*
X308056398Y-202839910D02*
X308094493Y-202878005D01*
X308094493Y-202878005D02*
X308170683Y-202916100D01*
X308170683Y-202916100D02*
X308246874Y-202916100D01*
X308246874Y-202916100D02*
X308323064Y-202878005D01*
X308323064Y-202878005D02*
X308361159Y-202839910D01*
X308361159Y-202839910D02*
X308399255Y-202763719D01*
X308399255Y-202763719D02*
X308437350Y-202611338D01*
X308437350Y-202611338D02*
X308475445Y-202535148D01*
X308475445Y-202535148D02*
X308513540Y-202497053D01*
X308513540Y-202497053D02*
X308589731Y-202458957D01*
X308589731Y-202458957D02*
X308665921Y-202458957D01*
X308665921Y-202458957D02*
X308742112Y-202497053D01*
X308742112Y-202497053D02*
X308780207Y-202535148D01*
X308780207Y-202535148D02*
X308818302Y-202611338D01*
X308818302Y-202611338D02*
X308818302Y-202801815D01*
X308818302Y-202801815D02*
X308780207Y-202916100D01*
X308818302Y-203182767D02*
X308018302Y-203373243D01*
X308018302Y-203373243D02*
X308589731Y-203525624D01*
X308589731Y-203525624D02*
X308018302Y-203678005D01*
X308018302Y-203678005D02*
X308818302Y-203868482D01*
X308018302Y-204173244D02*
X308818302Y-204173244D01*
X308818302Y-204439910D02*
X308818302Y-204897053D01*
X308018302Y-204668481D02*
X308818302Y-204668481D01*
X308094493Y-205620863D02*
X308056398Y-205582767D01*
X308056398Y-205582767D02*
X308018302Y-205468482D01*
X308018302Y-205468482D02*
X308018302Y-205392291D01*
X308018302Y-205392291D02*
X308056398Y-205278005D01*
X308056398Y-205278005D02*
X308132588Y-205201815D01*
X308132588Y-205201815D02*
X308208778Y-205163720D01*
X308208778Y-205163720D02*
X308361159Y-205125624D01*
X308361159Y-205125624D02*
X308475445Y-205125624D01*
X308475445Y-205125624D02*
X308627826Y-205163720D01*
X308627826Y-205163720D02*
X308704017Y-205201815D01*
X308704017Y-205201815D02*
X308780207Y-205278005D01*
X308780207Y-205278005D02*
X308818302Y-205392291D01*
X308818302Y-205392291D02*
X308818302Y-205468482D01*
X308818302Y-205468482D02*
X308780207Y-205582767D01*
X308780207Y-205582767D02*
X308742112Y-205620863D01*
X308018302Y-205963720D02*
X308818302Y-205963720D01*
X308437350Y-205963720D02*
X308437350Y-206420863D01*
X308018302Y-206420863D02*
X308818302Y-206420863D01*
X347046732Y-208300434D02*
X347100607Y-208300434D01*
X347100607Y-208300434D02*
X347235294Y-208327372D01*
X347235294Y-208327372D02*
X347316106Y-208354309D01*
X347316106Y-208354309D02*
X347423856Y-208408184D01*
X347423856Y-208408184D02*
X347585480Y-208515934D01*
X347585480Y-208515934D02*
X347693230Y-208623683D01*
X347693230Y-208623683D02*
X347800979Y-208785308D01*
X347800979Y-208785308D02*
X347854854Y-208893057D01*
X347854854Y-208893057D02*
X347881792Y-208973869D01*
X347881792Y-208973869D02*
X347908729Y-209108556D01*
X347908729Y-209108556D02*
X347908729Y-209162431D01*
X347262232Y-208946932D02*
X346831233Y-209377930D01*
X346184736Y-209162431D02*
X346184736Y-209216306D01*
X346184736Y-209216306D02*
X346211673Y-209350993D01*
X346211673Y-209350993D02*
X346238611Y-209431805D01*
X346238611Y-209431805D02*
X346292485Y-209539555D01*
X346292485Y-209539555D02*
X346400235Y-209701179D01*
X346400235Y-209701179D02*
X346507985Y-209808929D01*
X346507985Y-209808929D02*
X346669609Y-209916678D01*
X346669609Y-209916678D02*
X346777359Y-209970553D01*
X346777359Y-209970553D02*
X346858171Y-209997490D01*
X346858171Y-209997490D02*
X346992858Y-210024428D01*
X346992858Y-210024428D02*
X347046733Y-210024428D01*
X345874392Y-208622441D02*
X345416456Y-208541629D01*
X345551143Y-208945690D02*
X344985458Y-208380004D01*
X344985458Y-208380004D02*
X345200957Y-208164505D01*
X345200957Y-208164505D02*
X345281769Y-208137568D01*
X345281769Y-208137568D02*
X345335644Y-208137568D01*
X345335644Y-208137568D02*
X345416456Y-208164505D01*
X345416456Y-208164505D02*
X345497268Y-208245317D01*
X345497268Y-208245317D02*
X345524206Y-208326130D01*
X345524206Y-208326130D02*
X345524206Y-208380004D01*
X345524206Y-208380004D02*
X345497268Y-208460817D01*
X345497268Y-208460817D02*
X345281769Y-208676316D01*
X345497268Y-207868194D02*
X346440077Y-208056756D01*
X345874392Y-207491070D02*
X346062954Y-208433879D01*
X347086575Y-207410258D02*
X346520890Y-206844572D01*
X346520890Y-206844572D02*
X346736389Y-206629073D01*
X346736389Y-206629073D02*
X346817201Y-206602136D01*
X346817201Y-206602136D02*
X346871076Y-206602136D01*
X346871076Y-206602136D02*
X346951888Y-206629073D01*
X346951888Y-206629073D02*
X347032701Y-206709885D01*
X347032701Y-206709885D02*
X347059638Y-206790697D01*
X347059638Y-206790697D02*
X347059638Y-206844572D01*
X347059638Y-206844572D02*
X347032701Y-206925384D01*
X347032701Y-206925384D02*
X346817201Y-207140884D01*
X347032701Y-206332762D02*
X347733073Y-206763760D01*
X347733073Y-206763760D02*
X347436762Y-206251949D01*
X347436762Y-206251949D02*
X347948572Y-206548261D01*
X347948572Y-206548261D02*
X347517574Y-205847888D01*
X348622007Y-205874826D02*
X348164072Y-205794013D01*
X348298759Y-206198074D02*
X347733073Y-205632389D01*
X347733073Y-205632389D02*
X347948572Y-205416890D01*
X347948572Y-205416890D02*
X348029385Y-205389952D01*
X348029385Y-205389952D02*
X348083259Y-205389952D01*
X348083259Y-205389952D02*
X348164072Y-205416890D01*
X348164072Y-205416890D02*
X348244884Y-205497702D01*
X348244884Y-205497702D02*
X348271821Y-205578514D01*
X348271821Y-205578514D02*
X348271821Y-205632389D01*
X348271821Y-205632389D02*
X348244884Y-205713201D01*
X348244884Y-205713201D02*
X348029385Y-205928700D01*
X305707768Y-171591695D02*
X305974435Y-172391695D01*
X305974435Y-172391695D02*
X306241101Y-171591695D01*
X306774434Y-171972647D02*
X306888720Y-172010742D01*
X306888720Y-172010742D02*
X306926815Y-172048838D01*
X306926815Y-172048838D02*
X306964911Y-172125028D01*
X306964911Y-172125028D02*
X306964911Y-172239314D01*
X306964911Y-172239314D02*
X306926815Y-172315504D01*
X306926815Y-172315504D02*
X306888720Y-172353600D01*
X306888720Y-172353600D02*
X306812530Y-172391695D01*
X306812530Y-172391695D02*
X306507768Y-172391695D01*
X306507768Y-172391695D02*
X306507768Y-171591695D01*
X306507768Y-171591695D02*
X306774434Y-171591695D01*
X306774434Y-171591695D02*
X306850625Y-171629790D01*
X306850625Y-171629790D02*
X306888720Y-171667885D01*
X306888720Y-171667885D02*
X306926815Y-171744076D01*
X306926815Y-171744076D02*
X306926815Y-171820266D01*
X306926815Y-171820266D02*
X306888720Y-171896457D01*
X306888720Y-171896457D02*
X306850625Y-171934552D01*
X306850625Y-171934552D02*
X306774434Y-171972647D01*
X306774434Y-171972647D02*
X306507768Y-171972647D01*
X307269672Y-172163123D02*
X307650625Y-172163123D01*
X307193482Y-172391695D02*
X307460149Y-171591695D01*
X307460149Y-171591695D02*
X307726815Y-172391695D01*
X307879196Y-171591695D02*
X308336339Y-171591695D01*
X308107767Y-172391695D02*
X308107767Y-171591695D01*
X308831577Y-172696457D02*
X308793482Y-172658361D01*
X308793482Y-172658361D02*
X308717291Y-172544076D01*
X308717291Y-172544076D02*
X308679196Y-172467885D01*
X308679196Y-172467885D02*
X308641101Y-172353600D01*
X308641101Y-172353600D02*
X308603006Y-172163123D01*
X308603006Y-172163123D02*
X308603006Y-172010742D01*
X308603006Y-172010742D02*
X308641101Y-171820266D01*
X308641101Y-171820266D02*
X308679196Y-171705980D01*
X308679196Y-171705980D02*
X308717291Y-171629790D01*
X308717291Y-171629790D02*
X308793482Y-171515504D01*
X308793482Y-171515504D02*
X308831577Y-171477409D01*
X309136339Y-172086933D02*
X309745863Y-172086933D01*
X309441101Y-172391695D02*
X309441101Y-171782171D01*
X310050624Y-172696457D02*
X310088719Y-172658361D01*
X310088719Y-172658361D02*
X310164910Y-172544076D01*
X310164910Y-172544076D02*
X310203005Y-172467885D01*
X310203005Y-172467885D02*
X310241100Y-172353600D01*
X310241100Y-172353600D02*
X310279196Y-172163123D01*
X310279196Y-172163123D02*
X310279196Y-172010742D01*
X310279196Y-172010742D02*
X310241100Y-171820266D01*
X310241100Y-171820266D02*
X310203005Y-171705980D01*
X310203005Y-171705980D02*
X310164910Y-171629790D01*
X310164910Y-171629790D02*
X310088719Y-171515504D01*
X310088719Y-171515504D02*
X310050624Y-171477409D01*
X349121732Y-206375434D02*
X349175607Y-206375434D01*
X349175607Y-206375434D02*
X349310294Y-206402372D01*
X349310294Y-206402372D02*
X349391106Y-206429309D01*
X349391106Y-206429309D02*
X349498856Y-206483184D01*
X349498856Y-206483184D02*
X349660480Y-206590934D01*
X349660480Y-206590934D02*
X349768230Y-206698683D01*
X349768230Y-206698683D02*
X349875979Y-206860308D01*
X349875979Y-206860308D02*
X349929854Y-206968057D01*
X349929854Y-206968057D02*
X349956792Y-207048869D01*
X349956792Y-207048869D02*
X349983729Y-207183556D01*
X349983729Y-207183556D02*
X349983729Y-207237431D01*
X349337232Y-207021932D02*
X348906233Y-207452930D01*
X348906233Y-207021932D02*
X349337232Y-207452930D01*
X348259736Y-207237431D02*
X348259736Y-207291306D01*
X348259736Y-207291306D02*
X348286673Y-207425993D01*
X348286673Y-207425993D02*
X348313611Y-207506805D01*
X348313611Y-207506805D02*
X348367485Y-207614555D01*
X348367485Y-207614555D02*
X348475235Y-207776179D01*
X348475235Y-207776179D02*
X348582985Y-207883929D01*
X348582985Y-207883929D02*
X348744609Y-207991678D01*
X348744609Y-207991678D02*
X348852359Y-208045553D01*
X348852359Y-208045553D02*
X348933171Y-208072490D01*
X348933171Y-208072490D02*
X349067858Y-208099428D01*
X349067858Y-208099428D02*
X349121733Y-208099428D01*
D12*
X351367000Y-181095050D02*
X351414619Y-180952193D01*
X351414619Y-180952193D02*
X351414619Y-180714098D01*
X351414619Y-180714098D02*
X351367000Y-180618860D01*
X351367000Y-180618860D02*
X351319380Y-180571241D01*
X351319380Y-180571241D02*
X351224142Y-180523622D01*
X351224142Y-180523622D02*
X351128904Y-180523622D01*
X351128904Y-180523622D02*
X351033666Y-180571241D01*
X351033666Y-180571241D02*
X350986047Y-180618860D01*
X350986047Y-180618860D02*
X350938428Y-180714098D01*
X350938428Y-180714098D02*
X350890809Y-180904574D01*
X350890809Y-180904574D02*
X350843190Y-180999812D01*
X350843190Y-180999812D02*
X350795571Y-181047431D01*
X350795571Y-181047431D02*
X350700333Y-181095050D01*
X350700333Y-181095050D02*
X350605095Y-181095050D01*
X350605095Y-181095050D02*
X350509857Y-181047431D01*
X350509857Y-181047431D02*
X350462238Y-180999812D01*
X350462238Y-180999812D02*
X350414619Y-180904574D01*
X350414619Y-180904574D02*
X350414619Y-180666479D01*
X350414619Y-180666479D02*
X350462238Y-180523622D01*
X350747952Y-180237907D02*
X350747952Y-179856955D01*
X350414619Y-180095050D02*
X351271761Y-180095050D01*
X351271761Y-180095050D02*
X351367000Y-180047431D01*
X351367000Y-180047431D02*
X351414619Y-179952193D01*
X351414619Y-179952193D02*
X351414619Y-179856955D01*
X351367000Y-179142669D02*
X351414619Y-179237907D01*
X351414619Y-179237907D02*
X351414619Y-179428383D01*
X351414619Y-179428383D02*
X351367000Y-179523621D01*
X351367000Y-179523621D02*
X351271761Y-179571240D01*
X351271761Y-179571240D02*
X350890809Y-179571240D01*
X350890809Y-179571240D02*
X350795571Y-179523621D01*
X350795571Y-179523621D02*
X350747952Y-179428383D01*
X350747952Y-179428383D02*
X350747952Y-179237907D01*
X350747952Y-179237907D02*
X350795571Y-179142669D01*
X350795571Y-179142669D02*
X350890809Y-179095050D01*
X350890809Y-179095050D02*
X350986047Y-179095050D01*
X350986047Y-179095050D02*
X351081285Y-179571240D01*
X350747952Y-178809335D02*
X350747952Y-178428383D01*
X351414619Y-178666478D02*
X350557476Y-178666478D01*
X350557476Y-178666478D02*
X350462238Y-178618859D01*
X350462238Y-178618859D02*
X350414619Y-178523621D01*
X350414619Y-178523621D02*
X350414619Y-178428383D01*
X351414619Y-177666478D02*
X350890809Y-177666478D01*
X350890809Y-177666478D02*
X350795571Y-177714097D01*
X350795571Y-177714097D02*
X350747952Y-177809335D01*
X350747952Y-177809335D02*
X350747952Y-177999811D01*
X350747952Y-177999811D02*
X350795571Y-178095049D01*
X351367000Y-177666478D02*
X351414619Y-177761716D01*
X351414619Y-177761716D02*
X351414619Y-177999811D01*
X351414619Y-177999811D02*
X351367000Y-178095049D01*
X351367000Y-178095049D02*
X351271761Y-178142668D01*
X351271761Y-178142668D02*
X351176523Y-178142668D01*
X351176523Y-178142668D02*
X351081285Y-178095049D01*
X351081285Y-178095049D02*
X351033666Y-177999811D01*
X351033666Y-177999811D02*
X351033666Y-177761716D01*
X351033666Y-177761716D02*
X350986047Y-177666478D01*
X350747952Y-177190287D02*
X351414619Y-177190287D01*
X350843190Y-177190287D02*
X350795571Y-177142668D01*
X350795571Y-177142668D02*
X350747952Y-177047430D01*
X350747952Y-177047430D02*
X350747952Y-176904573D01*
X350747952Y-176904573D02*
X350795571Y-176809335D01*
X350795571Y-176809335D02*
X350890809Y-176761716D01*
X350890809Y-176761716D02*
X351414619Y-176761716D01*
X351414619Y-175523620D02*
X350414619Y-175523620D01*
X350414619Y-175523620D02*
X350414619Y-175142668D01*
X350414619Y-175142668D02*
X350462238Y-175047430D01*
X350462238Y-175047430D02*
X350509857Y-174999811D01*
X350509857Y-174999811D02*
X350605095Y-174952192D01*
X350605095Y-174952192D02*
X350747952Y-174952192D01*
X350747952Y-174952192D02*
X350843190Y-174999811D01*
X350843190Y-174999811D02*
X350890809Y-175047430D01*
X350890809Y-175047430D02*
X350938428Y-175142668D01*
X350938428Y-175142668D02*
X350938428Y-175523620D01*
X351414619Y-174095049D02*
X350890809Y-174095049D01*
X350890809Y-174095049D02*
X350795571Y-174142668D01*
X350795571Y-174142668D02*
X350747952Y-174237906D01*
X350747952Y-174237906D02*
X350747952Y-174428382D01*
X350747952Y-174428382D02*
X350795571Y-174523620D01*
X351367000Y-174095049D02*
X351414619Y-174190287D01*
X351414619Y-174190287D02*
X351414619Y-174428382D01*
X351414619Y-174428382D02*
X351367000Y-174523620D01*
X351367000Y-174523620D02*
X351271761Y-174571239D01*
X351271761Y-174571239D02*
X351176523Y-174571239D01*
X351176523Y-174571239D02*
X351081285Y-174523620D01*
X351081285Y-174523620D02*
X351033666Y-174428382D01*
X351033666Y-174428382D02*
X351033666Y-174190287D01*
X351033666Y-174190287D02*
X350986047Y-174095049D01*
X351414619Y-173618858D02*
X350747952Y-173618858D01*
X350938428Y-173618858D02*
X350843190Y-173571239D01*
X350843190Y-173571239D02*
X350795571Y-173523620D01*
X350795571Y-173523620D02*
X350747952Y-173428382D01*
X350747952Y-173428382D02*
X350747952Y-173333144D01*
X351414619Y-172571239D02*
X350890809Y-172571239D01*
X350890809Y-172571239D02*
X350795571Y-172618858D01*
X350795571Y-172618858D02*
X350747952Y-172714096D01*
X350747952Y-172714096D02*
X350747952Y-172904572D01*
X350747952Y-172904572D02*
X350795571Y-172999810D01*
X351367000Y-172571239D02*
X351414619Y-172666477D01*
X351414619Y-172666477D02*
X351414619Y-172904572D01*
X351414619Y-172904572D02*
X351367000Y-172999810D01*
X351367000Y-172999810D02*
X351271761Y-173047429D01*
X351271761Y-173047429D02*
X351176523Y-173047429D01*
X351176523Y-173047429D02*
X351081285Y-172999810D01*
X351081285Y-172999810D02*
X351033666Y-172904572D01*
X351033666Y-172904572D02*
X351033666Y-172666477D01*
X351033666Y-172666477D02*
X350986047Y-172571239D01*
X351367000Y-172142667D02*
X351414619Y-172047429D01*
X351414619Y-172047429D02*
X351414619Y-171856953D01*
X351414619Y-171856953D02*
X351367000Y-171761715D01*
X351367000Y-171761715D02*
X351271761Y-171714096D01*
X351271761Y-171714096D02*
X351224142Y-171714096D01*
X351224142Y-171714096D02*
X351128904Y-171761715D01*
X351128904Y-171761715D02*
X351081285Y-171856953D01*
X351081285Y-171856953D02*
X351081285Y-171999810D01*
X351081285Y-171999810D02*
X351033666Y-172095048D01*
X351033666Y-172095048D02*
X350938428Y-172142667D01*
X350938428Y-172142667D02*
X350890809Y-172142667D01*
X350890809Y-172142667D02*
X350795571Y-172095048D01*
X350795571Y-172095048D02*
X350747952Y-171999810D01*
X350747952Y-171999810D02*
X350747952Y-171856953D01*
X350747952Y-171856953D02*
X350795571Y-171761715D01*
X351367000Y-170856953D02*
X351414619Y-170952191D01*
X351414619Y-170952191D02*
X351414619Y-171142667D01*
X351414619Y-171142667D02*
X351367000Y-171237905D01*
X351367000Y-171237905D02*
X351319380Y-171285524D01*
X351319380Y-171285524D02*
X351224142Y-171333143D01*
X351224142Y-171333143D02*
X350938428Y-171333143D01*
X350938428Y-171333143D02*
X350843190Y-171285524D01*
X350843190Y-171285524D02*
X350795571Y-171237905D01*
X350795571Y-171237905D02*
X350747952Y-171142667D01*
X350747952Y-171142667D02*
X350747952Y-170952191D01*
X350747952Y-170952191D02*
X350795571Y-170856953D01*
X351414619Y-170428381D02*
X350414619Y-170428381D01*
X351414619Y-169999810D02*
X350890809Y-169999810D01*
X350890809Y-169999810D02*
X350795571Y-170047429D01*
X350795571Y-170047429D02*
X350747952Y-170142667D01*
X350747952Y-170142667D02*
X350747952Y-170285524D01*
X350747952Y-170285524D02*
X350795571Y-170380762D01*
X350795571Y-170380762D02*
X350843190Y-170428381D01*
X351414619Y-169523619D02*
X350747952Y-169523619D01*
X350414619Y-169523619D02*
X350462238Y-169571238D01*
X350462238Y-169571238D02*
X350509857Y-169523619D01*
X350509857Y-169523619D02*
X350462238Y-169476000D01*
X350462238Y-169476000D02*
X350414619Y-169523619D01*
X350414619Y-169523619D02*
X350509857Y-169523619D01*
X350747952Y-169142667D02*
X351414619Y-168904572D01*
X351414619Y-168904572D02*
X350747952Y-168666477D01*
D11*
X332869673Y-208242219D02*
X332869673Y-207242219D01*
X332869673Y-207242219D02*
X333250625Y-207242219D01*
X333250625Y-207242219D02*
X333345863Y-207289838D01*
X333345863Y-207289838D02*
X333393482Y-207337457D01*
X333393482Y-207337457D02*
X333441101Y-207432695D01*
X333441101Y-207432695D02*
X333441101Y-207575552D01*
X333441101Y-207575552D02*
X333393482Y-207670790D01*
X333393482Y-207670790D02*
X333345863Y-207718409D01*
X333345863Y-207718409D02*
X333250625Y-207766028D01*
X333250625Y-207766028D02*
X332869673Y-207766028D01*
X333869673Y-208242219D02*
X333869673Y-207242219D01*
X334917291Y-208146980D02*
X334869672Y-208194600D01*
X334869672Y-208194600D02*
X334726815Y-208242219D01*
X334726815Y-208242219D02*
X334631577Y-208242219D01*
X334631577Y-208242219D02*
X334488720Y-208194600D01*
X334488720Y-208194600D02*
X334393482Y-208099361D01*
X334393482Y-208099361D02*
X334345863Y-208004123D01*
X334345863Y-208004123D02*
X334298244Y-207813647D01*
X334298244Y-207813647D02*
X334298244Y-207670790D01*
X334298244Y-207670790D02*
X334345863Y-207480314D01*
X334345863Y-207480314D02*
X334393482Y-207385076D01*
X334393482Y-207385076D02*
X334488720Y-207289838D01*
X334488720Y-207289838D02*
X334631577Y-207242219D01*
X334631577Y-207242219D02*
X334726815Y-207242219D01*
X334726815Y-207242219D02*
X334869672Y-207289838D01*
X334869672Y-207289838D02*
X334917291Y-207337457D01*
X335345863Y-208242219D02*
X335345863Y-207242219D01*
X335917291Y-208242219D02*
X335488720Y-207670790D01*
X335917291Y-207242219D02*
X335345863Y-207813647D01*
X336345863Y-208242219D02*
X336345863Y-207242219D01*
X336679196Y-207242219D02*
X337250624Y-207242219D01*
X336964910Y-208242219D02*
X336964910Y-207242219D01*
X346966695Y-214252945D02*
X346166695Y-214252945D01*
X346166695Y-214252945D02*
X346738123Y-213986279D01*
X346738123Y-213986279D02*
X346166695Y-213719612D01*
X346166695Y-213719612D02*
X346966695Y-213719612D01*
X346890504Y-212881516D02*
X346928600Y-212919612D01*
X346928600Y-212919612D02*
X346966695Y-213033897D01*
X346966695Y-213033897D02*
X346966695Y-213110088D01*
X346966695Y-213110088D02*
X346928600Y-213224374D01*
X346928600Y-213224374D02*
X346852409Y-213300564D01*
X346852409Y-213300564D02*
X346776219Y-213338659D01*
X346776219Y-213338659D02*
X346623838Y-213376755D01*
X346623838Y-213376755D02*
X346509552Y-213376755D01*
X346509552Y-213376755D02*
X346357171Y-213338659D01*
X346357171Y-213338659D02*
X346280980Y-213300564D01*
X346280980Y-213300564D02*
X346204790Y-213224374D01*
X346204790Y-213224374D02*
X346166695Y-213110088D01*
X346166695Y-213110088D02*
X346166695Y-213033897D01*
X346166695Y-213033897D02*
X346204790Y-212919612D01*
X346204790Y-212919612D02*
X346242885Y-212881516D01*
X346966695Y-212157707D02*
X346966695Y-212538659D01*
X346966695Y-212538659D02*
X346166695Y-212538659D01*
X346966695Y-211433897D02*
X346585742Y-211700564D01*
X346966695Y-211891040D02*
X346166695Y-211891040D01*
X346166695Y-211891040D02*
X346166695Y-211586278D01*
X346166695Y-211586278D02*
X346204790Y-211510088D01*
X346204790Y-211510088D02*
X346242885Y-211471993D01*
X346242885Y-211471993D02*
X346319076Y-211433897D01*
X346319076Y-211433897D02*
X346433361Y-211433897D01*
X346433361Y-211433897D02*
X346509552Y-211471993D01*
X346509552Y-211471993D02*
X346547647Y-211510088D01*
X346547647Y-211510088D02*
X346585742Y-211586278D01*
X346585742Y-211586278D02*
X346585742Y-211891040D01*
X313413720Y-201672647D02*
X313528006Y-201710742D01*
X313528006Y-201710742D02*
X313566101Y-201748838D01*
X313566101Y-201748838D02*
X313604197Y-201825028D01*
X313604197Y-201825028D02*
X313604197Y-201939314D01*
X313604197Y-201939314D02*
X313566101Y-202015504D01*
X313566101Y-202015504D02*
X313528006Y-202053600D01*
X313528006Y-202053600D02*
X313451816Y-202091695D01*
X313451816Y-202091695D02*
X313147054Y-202091695D01*
X313147054Y-202091695D02*
X313147054Y-201291695D01*
X313147054Y-201291695D02*
X313413720Y-201291695D01*
X313413720Y-201291695D02*
X313489911Y-201329790D01*
X313489911Y-201329790D02*
X313528006Y-201367885D01*
X313528006Y-201367885D02*
X313566101Y-201444076D01*
X313566101Y-201444076D02*
X313566101Y-201520266D01*
X313566101Y-201520266D02*
X313528006Y-201596457D01*
X313528006Y-201596457D02*
X313489911Y-201634552D01*
X313489911Y-201634552D02*
X313413720Y-201672647D01*
X313413720Y-201672647D02*
X313147054Y-201672647D01*
X313947054Y-201291695D02*
X313947054Y-201939314D01*
X313947054Y-201939314D02*
X313985149Y-202015504D01*
X313985149Y-202015504D02*
X314023244Y-202053600D01*
X314023244Y-202053600D02*
X314099435Y-202091695D01*
X314099435Y-202091695D02*
X314251816Y-202091695D01*
X314251816Y-202091695D02*
X314328006Y-202053600D01*
X314328006Y-202053600D02*
X314366101Y-202015504D01*
X314366101Y-202015504D02*
X314404197Y-201939314D01*
X314404197Y-201939314D02*
X314404197Y-201291695D01*
X315242292Y-202015504D02*
X315204196Y-202053600D01*
X315204196Y-202053600D02*
X315089911Y-202091695D01*
X315089911Y-202091695D02*
X315013720Y-202091695D01*
X315013720Y-202091695D02*
X314899434Y-202053600D01*
X314899434Y-202053600D02*
X314823244Y-201977409D01*
X314823244Y-201977409D02*
X314785149Y-201901219D01*
X314785149Y-201901219D02*
X314747053Y-201748838D01*
X314747053Y-201748838D02*
X314747053Y-201634552D01*
X314747053Y-201634552D02*
X314785149Y-201482171D01*
X314785149Y-201482171D02*
X314823244Y-201405980D01*
X314823244Y-201405980D02*
X314899434Y-201329790D01*
X314899434Y-201329790D02*
X315013720Y-201291695D01*
X315013720Y-201291695D02*
X315089911Y-201291695D01*
X315089911Y-201291695D02*
X315204196Y-201329790D01*
X315204196Y-201329790D02*
X315242292Y-201367885D01*
X315585149Y-202091695D02*
X315585149Y-201291695D01*
X316042292Y-202091695D02*
X315699434Y-201634552D01*
X316042292Y-201291695D02*
X315585149Y-201748838D01*
X349757768Y-194291695D02*
X350024435Y-195091695D01*
X350024435Y-195091695D02*
X350291101Y-194291695D01*
X350824434Y-194672647D02*
X350938720Y-194710742D01*
X350938720Y-194710742D02*
X350976815Y-194748838D01*
X350976815Y-194748838D02*
X351014911Y-194825028D01*
X351014911Y-194825028D02*
X351014911Y-194939314D01*
X351014911Y-194939314D02*
X350976815Y-195015504D01*
X350976815Y-195015504D02*
X350938720Y-195053600D01*
X350938720Y-195053600D02*
X350862530Y-195091695D01*
X350862530Y-195091695D02*
X350557768Y-195091695D01*
X350557768Y-195091695D02*
X350557768Y-194291695D01*
X350557768Y-194291695D02*
X350824434Y-194291695D01*
X350824434Y-194291695D02*
X350900625Y-194329790D01*
X350900625Y-194329790D02*
X350938720Y-194367885D01*
X350938720Y-194367885D02*
X350976815Y-194444076D01*
X350976815Y-194444076D02*
X350976815Y-194520266D01*
X350976815Y-194520266D02*
X350938720Y-194596457D01*
X350938720Y-194596457D02*
X350900625Y-194634552D01*
X350900625Y-194634552D02*
X350824434Y-194672647D01*
X350824434Y-194672647D02*
X350557768Y-194672647D01*
X351319672Y-194863123D02*
X351700625Y-194863123D01*
X351243482Y-195091695D02*
X351510149Y-194291695D01*
X351510149Y-194291695D02*
X351776815Y-195091695D01*
X351929196Y-194291695D02*
X352386339Y-194291695D01*
X352157767Y-195091695D02*
X352157767Y-194291695D01*
X352881577Y-195396457D02*
X352843482Y-195358361D01*
X352843482Y-195358361D02*
X352767291Y-195244076D01*
X352767291Y-195244076D02*
X352729196Y-195167885D01*
X352729196Y-195167885D02*
X352691101Y-195053600D01*
X352691101Y-195053600D02*
X352653006Y-194863123D01*
X352653006Y-194863123D02*
X352653006Y-194710742D01*
X352653006Y-194710742D02*
X352691101Y-194520266D01*
X352691101Y-194520266D02*
X352729196Y-194405980D01*
X352729196Y-194405980D02*
X352767291Y-194329790D01*
X352767291Y-194329790D02*
X352843482Y-194215504D01*
X352843482Y-194215504D02*
X352881577Y-194177409D01*
X353186339Y-194786933D02*
X353795863Y-194786933D01*
X354100624Y-195396457D02*
X354138719Y-195358361D01*
X354138719Y-195358361D02*
X354214910Y-195244076D01*
X354214910Y-195244076D02*
X354253005Y-195167885D01*
X354253005Y-195167885D02*
X354291100Y-195053600D01*
X354291100Y-195053600D02*
X354329196Y-194863123D01*
X354329196Y-194863123D02*
X354329196Y-194710742D01*
X354329196Y-194710742D02*
X354291100Y-194520266D01*
X354291100Y-194520266D02*
X354253005Y-194405980D01*
X354253005Y-194405980D02*
X354214910Y-194329790D01*
X354214910Y-194329790D02*
X354138719Y-194215504D01*
X354138719Y-194215504D02*
X354100624Y-194177409D01*
X352792457Y-179277945D02*
X352744838Y-179230326D01*
X352744838Y-179230326D02*
X352697219Y-179135088D01*
X352697219Y-179135088D02*
X352697219Y-178896993D01*
X352697219Y-178896993D02*
X352744838Y-178801755D01*
X352744838Y-178801755D02*
X352792457Y-178754136D01*
X352792457Y-178754136D02*
X352887695Y-178706517D01*
X352887695Y-178706517D02*
X352982933Y-178706517D01*
X352982933Y-178706517D02*
X353125790Y-178754136D01*
X353125790Y-178754136D02*
X353697219Y-179325564D01*
X353697219Y-179325564D02*
X353697219Y-178706517D01*
X352697219Y-178373183D02*
X352697219Y-177706517D01*
X352697219Y-177706517D02*
X353697219Y-178135088D01*
X353601980Y-177325564D02*
X353649600Y-177277945D01*
X353649600Y-177277945D02*
X353697219Y-177325564D01*
X353697219Y-177325564D02*
X353649600Y-177373183D01*
X353649600Y-177373183D02*
X353601980Y-177325564D01*
X353601980Y-177325564D02*
X353697219Y-177325564D01*
X353697219Y-176325565D02*
X353697219Y-176896993D01*
X353697219Y-176611279D02*
X352697219Y-176611279D01*
X352697219Y-176611279D02*
X352840076Y-176706517D01*
X352840076Y-176706517D02*
X352935314Y-176801755D01*
X352935314Y-176801755D02*
X352982933Y-176896993D01*
X352697219Y-175706517D02*
X352697219Y-175611279D01*
X352697219Y-175611279D02*
X352744838Y-175516041D01*
X352744838Y-175516041D02*
X352792457Y-175468422D01*
X352792457Y-175468422D02*
X352887695Y-175420803D01*
X352887695Y-175420803D02*
X353078171Y-175373184D01*
X353078171Y-175373184D02*
X353316266Y-175373184D01*
X353316266Y-175373184D02*
X353506742Y-175420803D01*
X353506742Y-175420803D02*
X353601980Y-175468422D01*
X353601980Y-175468422D02*
X353649600Y-175516041D01*
X353649600Y-175516041D02*
X353697219Y-175611279D01*
X353697219Y-175611279D02*
X353697219Y-175706517D01*
X353697219Y-175706517D02*
X353649600Y-175801755D01*
X353649600Y-175801755D02*
X353601980Y-175849374D01*
X353601980Y-175849374D02*
X353506742Y-175896993D01*
X353506742Y-175896993D02*
X353316266Y-175944612D01*
X353316266Y-175944612D02*
X353078171Y-175944612D01*
X353078171Y-175944612D02*
X352887695Y-175896993D01*
X352887695Y-175896993D02*
X352792457Y-175849374D01*
X352792457Y-175849374D02*
X352744838Y-175801755D01*
X352744838Y-175801755D02*
X352697219Y-175706517D01*
X353601980Y-174944612D02*
X353649600Y-174896993D01*
X353649600Y-174896993D02*
X353697219Y-174944612D01*
X353697219Y-174944612D02*
X353649600Y-174992231D01*
X353649600Y-174992231D02*
X353601980Y-174944612D01*
X353601980Y-174944612D02*
X353697219Y-174944612D01*
X352792457Y-174516041D02*
X352744838Y-174468422D01*
X352744838Y-174468422D02*
X352697219Y-174373184D01*
X352697219Y-174373184D02*
X352697219Y-174135089D01*
X352697219Y-174135089D02*
X352744838Y-174039851D01*
X352744838Y-174039851D02*
X352792457Y-173992232D01*
X352792457Y-173992232D02*
X352887695Y-173944613D01*
X352887695Y-173944613D02*
X352982933Y-173944613D01*
X352982933Y-173944613D02*
X353125790Y-173992232D01*
X353125790Y-173992232D02*
X353697219Y-174563660D01*
X353697219Y-174563660D02*
X353697219Y-173944613D01*
X352697219Y-173325565D02*
X352697219Y-173230327D01*
X352697219Y-173230327D02*
X352744838Y-173135089D01*
X352744838Y-173135089D02*
X352792457Y-173087470D01*
X352792457Y-173087470D02*
X352887695Y-173039851D01*
X352887695Y-173039851D02*
X353078171Y-172992232D01*
X353078171Y-172992232D02*
X353316266Y-172992232D01*
X353316266Y-172992232D02*
X353506742Y-173039851D01*
X353506742Y-173039851D02*
X353601980Y-173087470D01*
X353601980Y-173087470D02*
X353649600Y-173135089D01*
X353649600Y-173135089D02*
X353697219Y-173230327D01*
X353697219Y-173230327D02*
X353697219Y-173325565D01*
X353697219Y-173325565D02*
X353649600Y-173420803D01*
X353649600Y-173420803D02*
X353601980Y-173468422D01*
X353601980Y-173468422D02*
X353506742Y-173516041D01*
X353506742Y-173516041D02*
X353316266Y-173563660D01*
X353316266Y-173563660D02*
X353078171Y-173563660D01*
X353078171Y-173563660D02*
X352887695Y-173516041D01*
X352887695Y-173516041D02*
X352792457Y-173468422D01*
X352792457Y-173468422D02*
X352744838Y-173420803D01*
X352744838Y-173420803D02*
X352697219Y-173325565D01*
X352792457Y-172611279D02*
X352744838Y-172563660D01*
X352744838Y-172563660D02*
X352697219Y-172468422D01*
X352697219Y-172468422D02*
X352697219Y-172230327D01*
X352697219Y-172230327D02*
X352744838Y-172135089D01*
X352744838Y-172135089D02*
X352792457Y-172087470D01*
X352792457Y-172087470D02*
X352887695Y-172039851D01*
X352887695Y-172039851D02*
X352982933Y-172039851D01*
X352982933Y-172039851D02*
X353125790Y-172087470D01*
X353125790Y-172087470D02*
X353697219Y-172658898D01*
X353697219Y-172658898D02*
X353697219Y-172039851D01*
X352697219Y-171135089D02*
X352697219Y-171611279D01*
X352697219Y-171611279D02*
X353173409Y-171658898D01*
X353173409Y-171658898D02*
X353125790Y-171611279D01*
X353125790Y-171611279D02*
X353078171Y-171516041D01*
X353078171Y-171516041D02*
X353078171Y-171277946D01*
X353078171Y-171277946D02*
X353125790Y-171182708D01*
X353125790Y-171182708D02*
X353173409Y-171135089D01*
X353173409Y-171135089D02*
X353268647Y-171087470D01*
X353268647Y-171087470D02*
X353506742Y-171087470D01*
X353506742Y-171087470D02*
X353601980Y-171135089D01*
X353601980Y-171135089D02*
X353649600Y-171182708D01*
X353649600Y-171182708D02*
X353697219Y-171277946D01*
X353697219Y-171277946D02*
X353697219Y-171516041D01*
X353697219Y-171516041D02*
X353649600Y-171611279D01*
X353649600Y-171611279D02*
X353601980Y-171658898D01*
X348491695Y-201020802D02*
X348110742Y-201287469D01*
X348491695Y-201477945D02*
X347691695Y-201477945D01*
X347691695Y-201477945D02*
X347691695Y-201173183D01*
X347691695Y-201173183D02*
X347729790Y-201096993D01*
X347729790Y-201096993D02*
X347767885Y-201058898D01*
X347767885Y-201058898D02*
X347844076Y-201020802D01*
X347844076Y-201020802D02*
X347958361Y-201020802D01*
X347958361Y-201020802D02*
X348034552Y-201058898D01*
X348034552Y-201058898D02*
X348072647Y-201096993D01*
X348072647Y-201096993D02*
X348110742Y-201173183D01*
X348110742Y-201173183D02*
X348110742Y-201477945D01*
X347691695Y-200754136D02*
X348491695Y-200220802D01*
X347691695Y-200220802D02*
X348491695Y-200754136D01*
D13*
X343969548Y-175495371D02*
X343898120Y-175566800D01*
X343898120Y-175566800D02*
X343683834Y-175638228D01*
X343683834Y-175638228D02*
X343540977Y-175638228D01*
X343540977Y-175638228D02*
X343326691Y-175566800D01*
X343326691Y-175566800D02*
X343183834Y-175423942D01*
X343183834Y-175423942D02*
X343112405Y-175281085D01*
X343112405Y-175281085D02*
X343040977Y-174995371D01*
X343040977Y-174995371D02*
X343040977Y-174781085D01*
X343040977Y-174781085D02*
X343112405Y-174495371D01*
X343112405Y-174495371D02*
X343183834Y-174352514D01*
X343183834Y-174352514D02*
X343326691Y-174209657D01*
X343326691Y-174209657D02*
X343540977Y-174138228D01*
X343540977Y-174138228D02*
X343683834Y-174138228D01*
X343683834Y-174138228D02*
X343898120Y-174209657D01*
X343898120Y-174209657D02*
X343969548Y-174281085D01*
X330967405Y-174812514D02*
X331181691Y-174883942D01*
X331181691Y-174883942D02*
X331253120Y-174955371D01*
X331253120Y-174955371D02*
X331324548Y-175098228D01*
X331324548Y-175098228D02*
X331324548Y-175312514D01*
X331324548Y-175312514D02*
X331253120Y-175455371D01*
X331253120Y-175455371D02*
X331181691Y-175526800D01*
X331181691Y-175526800D02*
X331038834Y-175598228D01*
X331038834Y-175598228D02*
X330467405Y-175598228D01*
X330467405Y-175598228D02*
X330467405Y-174098228D01*
X330467405Y-174098228D02*
X330967405Y-174098228D01*
X330967405Y-174098228D02*
X331110263Y-174169657D01*
X331110263Y-174169657D02*
X331181691Y-174241085D01*
X331181691Y-174241085D02*
X331253120Y-174383942D01*
X331253120Y-174383942D02*
X331253120Y-174526800D01*
X331253120Y-174526800D02*
X331181691Y-174669657D01*
X331181691Y-174669657D02*
X331110263Y-174741085D01*
X331110263Y-174741085D02*
X330967405Y-174812514D01*
X330967405Y-174812514D02*
X330467405Y-174812514D01*
D11*
X320752219Y-194938094D02*
X321561742Y-194938094D01*
X321561742Y-194938094D02*
X321656980Y-194890475D01*
X321656980Y-194890475D02*
X321704600Y-194842856D01*
X321704600Y-194842856D02*
X321752219Y-194747618D01*
X321752219Y-194747618D02*
X321752219Y-194557142D01*
X321752219Y-194557142D02*
X321704600Y-194461904D01*
X321704600Y-194461904D02*
X321656980Y-194414285D01*
X321656980Y-194414285D02*
X321561742Y-194366666D01*
X321561742Y-194366666D02*
X320752219Y-194366666D01*
X321752219Y-193366666D02*
X321752219Y-193938094D01*
X321752219Y-193652380D02*
X320752219Y-193652380D01*
X320752219Y-193652380D02*
X320895076Y-193747618D01*
X320895076Y-193747618D02*
X320990314Y-193842856D01*
X320990314Y-193842856D02*
X321037933Y-193938094D01*
X321085552Y-192509523D02*
X321752219Y-192509523D01*
X320704600Y-192747618D02*
X321418885Y-192985713D01*
X321418885Y-192985713D02*
X321418885Y-192366666D01*
X336052219Y-195038094D02*
X336861742Y-195038094D01*
X336861742Y-195038094D02*
X336956980Y-194990475D01*
X336956980Y-194990475D02*
X337004600Y-194942856D01*
X337004600Y-194942856D02*
X337052219Y-194847618D01*
X337052219Y-194847618D02*
X337052219Y-194657142D01*
X337052219Y-194657142D02*
X337004600Y-194561904D01*
X337004600Y-194561904D02*
X336956980Y-194514285D01*
X336956980Y-194514285D02*
X336861742Y-194466666D01*
X336861742Y-194466666D02*
X336052219Y-194466666D01*
X337052219Y-193466666D02*
X337052219Y-194038094D01*
X337052219Y-193752380D02*
X336052219Y-193752380D01*
X336052219Y-193752380D02*
X336195076Y-193847618D01*
X336195076Y-193847618D02*
X336290314Y-193942856D01*
X336290314Y-193942856D02*
X336337933Y-194038094D01*
X336052219Y-192561904D02*
X336052219Y-193038094D01*
X336052219Y-193038094D02*
X336528409Y-193085713D01*
X336528409Y-193085713D02*
X336480790Y-193038094D01*
X336480790Y-193038094D02*
X336433171Y-192942856D01*
X336433171Y-192942856D02*
X336433171Y-192704761D01*
X336433171Y-192704761D02*
X336480790Y-192609523D01*
X336480790Y-192609523D02*
X336528409Y-192561904D01*
X336528409Y-192561904D02*
X336623647Y-192514285D01*
X336623647Y-192514285D02*
X336861742Y-192514285D01*
X336861742Y-192514285D02*
X336956980Y-192561904D01*
X336956980Y-192561904D02*
X337004600Y-192609523D01*
X337004600Y-192609523D02*
X337052219Y-192704761D01*
X337052219Y-192704761D02*
X337052219Y-192942856D01*
X337052219Y-192942856D02*
X337004600Y-193038094D01*
X337004600Y-193038094D02*
X336956980Y-193085713D01*
D14*
X328790476Y-201762295D02*
X328790476Y-202409914D01*
X328790476Y-202409914D02*
X328828571Y-202486104D01*
X328828571Y-202486104D02*
X328866666Y-202524200D01*
X328866666Y-202524200D02*
X328942857Y-202562295D01*
X328942857Y-202562295D02*
X329095238Y-202562295D01*
X329095238Y-202562295D02*
X329171428Y-202524200D01*
X329171428Y-202524200D02*
X329209523Y-202486104D01*
X329209523Y-202486104D02*
X329247619Y-202409914D01*
X329247619Y-202409914D02*
X329247619Y-201762295D01*
X329590475Y-201838485D02*
X329628571Y-201800390D01*
X329628571Y-201800390D02*
X329704761Y-201762295D01*
X329704761Y-201762295D02*
X329895237Y-201762295D01*
X329895237Y-201762295D02*
X329971428Y-201800390D01*
X329971428Y-201800390D02*
X330009523Y-201838485D01*
X330009523Y-201838485D02*
X330047618Y-201914676D01*
X330047618Y-201914676D02*
X330047618Y-201990866D01*
X330047618Y-201990866D02*
X330009523Y-202105152D01*
X330009523Y-202105152D02*
X329552380Y-202562295D01*
X329552380Y-202562295D02*
X330047618Y-202562295D01*
D11*
X306152219Y-195238094D02*
X306961742Y-195238094D01*
X306961742Y-195238094D02*
X307056980Y-195190475D01*
X307056980Y-195190475D02*
X307104600Y-195142856D01*
X307104600Y-195142856D02*
X307152219Y-195047618D01*
X307152219Y-195047618D02*
X307152219Y-194857142D01*
X307152219Y-194857142D02*
X307104600Y-194761904D01*
X307104600Y-194761904D02*
X307056980Y-194714285D01*
X307056980Y-194714285D02*
X306961742Y-194666666D01*
X306961742Y-194666666D02*
X306152219Y-194666666D01*
X307152219Y-193666666D02*
X307152219Y-194238094D01*
X307152219Y-193952380D02*
X306152219Y-193952380D01*
X306152219Y-193952380D02*
X306295076Y-194047618D01*
X306295076Y-194047618D02*
X306390314Y-194142856D01*
X306390314Y-194142856D02*
X306437933Y-194238094D01*
X306152219Y-193333332D02*
X306152219Y-192714285D01*
X306152219Y-192714285D02*
X306533171Y-193047618D01*
X306533171Y-193047618D02*
X306533171Y-192904761D01*
X306533171Y-192904761D02*
X306580790Y-192809523D01*
X306580790Y-192809523D02*
X306628409Y-192761904D01*
X306628409Y-192761904D02*
X306723647Y-192714285D01*
X306723647Y-192714285D02*
X306961742Y-192714285D01*
X306961742Y-192714285D02*
X307056980Y-192761904D01*
X307056980Y-192761904D02*
X307104600Y-192809523D01*
X307104600Y-192809523D02*
X307152219Y-192904761D01*
X307152219Y-192904761D02*
X307152219Y-193190475D01*
X307152219Y-193190475D02*
X307104600Y-193285713D01*
X307104600Y-193285713D02*
X307056980Y-193333332D01*
D15*
%TO.C,U9*%
X337166100Y-176405800D02*
X337166100Y-182654200D01*
X342423900Y-182654200D02*
X342423900Y-176405800D01*
D16*
%TO.C,R43*%
X323022936Y-199665000D02*
X323477064Y-199665000D01*
X323022936Y-201135000D02*
X323477064Y-201135000D01*
%TO.C,J2*%
X330240000Y-210690000D02*
X330240000Y-214710000D01*
X330240000Y-212190000D02*
X331240000Y-212190000D01*
X330240000Y-214710000D02*
X345460000Y-214710000D01*
X330740000Y-213000000D02*
X330239999Y-213000000D01*
X330740000Y-214210000D02*
X330740000Y-213000000D01*
X331240000Y-212190000D02*
X331240000Y-210690000D01*
X344459999Y-212190000D02*
X344460000Y-210690000D01*
X344960000Y-213000000D02*
X344960000Y-214210000D01*
X344960000Y-214210000D02*
X330740000Y-214210000D01*
X345460000Y-210690000D02*
X330240000Y-210690000D01*
X345460000Y-212190000D02*
X344459999Y-212190000D01*
X345460000Y-213000000D02*
X344960000Y-213000000D01*
X345460000Y-214710000D02*
X345460000Y-210690000D01*
X345760000Y-210390000D02*
X343260000Y-210390000D01*
X345760000Y-212890000D02*
X345760000Y-210390000D01*
%TO.C,R34*%
X346877064Y-187115000D02*
X346422936Y-187115000D01*
X346877064Y-188585000D02*
X346422936Y-188585000D01*
D15*
%TO.C,U4*%
X318273034Y-176415034D02*
X318273034Y-182663434D01*
X323530834Y-182663434D02*
X323530834Y-176415034D01*
D16*
%TO.C,R46*%
X330415000Y-191247936D02*
X330415000Y-192702064D01*
X332235000Y-191247936D02*
X332235000Y-192702064D01*
%TO.C,U14*%
X326225000Y-189840000D02*
X324275000Y-189840000D01*
X326225000Y-189840000D02*
X328175000Y-189840000D01*
X326225000Y-194960000D02*
X324275000Y-194960000D01*
X326225000Y-194960000D02*
X328175000Y-194960000D01*
X329165000Y-195195000D02*
X328685000Y-195195000D01*
X328925000Y-194865000D01*
X329165000Y-195195000D01*
G36*
X329165000Y-195195000D02*
G01*
X328685000Y-195195000D01*
X328925000Y-194865000D01*
X329165000Y-195195000D01*
G37*
%TO.C,R39*%
X321160436Y-197665000D02*
X321614564Y-197665000D01*
X321160436Y-199135000D02*
X321614564Y-199135000D01*
%TO.C,C34*%
X315026254Y-202665002D02*
X313603750Y-202665002D01*
X315026254Y-205385002D02*
X313603750Y-205385002D01*
%TO.C,C41*%
X343090581Y-197415000D02*
X342809419Y-197415000D01*
X343090581Y-198435000D02*
X342809419Y-198435000D01*
D15*
%TO.C,U5*%
X331073034Y-176415034D02*
X331073034Y-182663434D01*
X336330834Y-182663434D02*
X336330834Y-176415034D01*
D16*
%TO.C,C19*%
X335938748Y-183290000D02*
X337361252Y-183290000D01*
X335938748Y-186010000D02*
X337361252Y-186010000D01*
D15*
%TO.C,U8*%
X324466100Y-176405800D02*
X324466100Y-182654200D01*
X329723900Y-182654200D02*
X329723900Y-176405800D01*
D16*
%TO.C,C22*%
X343711253Y-183340000D02*
X342288749Y-183340000D01*
X343711253Y-186060000D02*
X342288749Y-186060000D01*
%TO.C,C31*%
X308513748Y-183340000D02*
X309936252Y-183340000D01*
X308513748Y-186060000D02*
X309936252Y-186060000D01*
%TO.C,R37*%
X308447936Y-198340000D02*
X308902064Y-198340000D01*
X308447936Y-199810000D02*
X308902064Y-199810000D01*
%TO.C,R47*%
X345440000Y-191272936D02*
X345440000Y-192727064D01*
X347260000Y-191272936D02*
X347260000Y-192727064D01*
%TO.C,C32*%
X313130580Y-195685000D02*
X312849420Y-195685000D01*
X313130580Y-196705000D02*
X312849420Y-196705000D01*
D11*
%TO.C,U12*%
X311875000Y-205600000D02*
G75*
G02*
X311675000Y-205600000I-100000J0D01*
G01*
X311675000Y-205600000D02*
G75*
G02*
X311875000Y-205600000I100000J0D01*
G01*
D16*
%TO.C,C40*%
X329375580Y-188300000D02*
X329094420Y-188300000D01*
X329375580Y-189320000D02*
X329094420Y-189320000D01*
D15*
%TO.C,U6*%
X343773034Y-176415034D02*
X343773034Y-182663434D01*
X349030834Y-182663434D02*
X349030834Y-176415034D01*
D16*
%TO.C,U15*%
X341325000Y-189839999D02*
X339375000Y-189839999D01*
X341325000Y-189839999D02*
X343275000Y-189839999D01*
X341325000Y-194959999D02*
X339375000Y-194959999D01*
X341325000Y-194959999D02*
X343275000Y-194959999D01*
X344265000Y-195194999D02*
X343785000Y-195194999D01*
X344025000Y-194864999D01*
X344265000Y-195194999D01*
G36*
X344265000Y-195194999D02*
G01*
X343785000Y-195194999D01*
X344025000Y-194864999D01*
X344265000Y-195194999D01*
G37*
%TO.C,C43*%
X343390581Y-188390000D02*
X343109419Y-188390000D01*
X343390581Y-189410000D02*
X343109419Y-189410000D01*
%TO.C,C15*%
X323238748Y-183315000D02*
X324661252Y-183315000D01*
X323238748Y-186035000D02*
X324661252Y-186035000D01*
%TO.C,C14*%
X309315000Y-205886252D02*
X309315000Y-205363748D01*
X310785000Y-205886252D02*
X310785000Y-205363748D01*
%TO.C,R32*%
X332877064Y-187265000D02*
X332422936Y-187265000D01*
X332877064Y-188735000D02*
X332422936Y-188735000D01*
%TO.C,J8*%
X349095657Y-208952728D02*
X350969490Y-207078895D01*
X349173439Y-212778176D02*
X348197632Y-211802368D01*
X350149246Y-211802368D02*
X349173439Y-212778176D01*
X351047272Y-210904343D02*
X349095657Y-208952728D01*
X351047272Y-210904343D02*
X352921105Y-209030510D01*
X352921105Y-209030510D02*
X350969490Y-207078895D01*
%TO.C,R42*%
X310714564Y-200515000D02*
X310260436Y-200515000D01*
X310714564Y-201985000D02*
X310260436Y-201985000D01*
%TO.C,C35*%
X313105580Y-197340000D02*
X312824420Y-197340000D01*
X313105580Y-198360000D02*
X312824420Y-198360000D01*
%TO.C,C38*%
X328575580Y-197350000D02*
X328294420Y-197350000D01*
X328575580Y-198370000D02*
X328294420Y-198370000D01*
%TO.C,U2*%
X326532500Y-208150000D02*
X324332500Y-208150000D01*
X326532500Y-208150000D02*
X328732500Y-208150000D01*
X326745000Y-202930000D02*
X324545000Y-202930000D01*
X326745000Y-202930000D02*
X328945000Y-202930000D01*
X323632500Y-203130000D02*
X323392500Y-202800000D01*
X323872500Y-202800000D01*
X323632500Y-203130000D01*
G36*
X323632500Y-203130000D02*
G01*
X323392500Y-202800000D01*
X323872500Y-202800000D01*
X323632500Y-203130000D01*
G37*
%TO.C,U13*%
X311422500Y-190040000D02*
X309472500Y-190040000D01*
X311422500Y-190040000D02*
X313372500Y-190040000D01*
X311422500Y-195160000D02*
X309472500Y-195160000D01*
X311422500Y-195160000D02*
X313372500Y-195160000D01*
X314362500Y-195395000D02*
X313882500Y-195395000D01*
X314122500Y-195065000D01*
X314362500Y-195395000D01*
G36*
X314362500Y-195395000D02*
G01*
X313882500Y-195395000D01*
X314122500Y-195065000D01*
X314362500Y-195395000D01*
G37*
%TO.C,R18*%
X314977500Y-208762742D02*
X314977500Y-209237258D01*
X316022500Y-208762742D02*
X316022500Y-209237258D01*
D15*
%TO.C,U7*%
X311566100Y-176405800D02*
X311566100Y-182654200D01*
X316823900Y-182654200D02*
X316823900Y-176405800D01*
D16*
%TO.C,J9*%
X351720000Y-203690000D02*
X351720001Y-195960000D01*
X354479999Y-195960000D02*
X351720001Y-195960000D01*
X354479999Y-204960000D02*
X354480000Y-206340000D01*
X354480000Y-203690000D02*
X351720000Y-203690000D01*
X354480000Y-203690000D02*
X354479999Y-195960000D01*
X354480000Y-206340000D02*
X353100000Y-206339999D01*
%TO.C,R41*%
X336552064Y-198190000D02*
X336097936Y-198190000D01*
X336552064Y-199660000D02*
X336097936Y-199660000D01*
%TO.C,C37*%
X314200580Y-188505000D02*
X313919420Y-188505000D01*
X314200580Y-189525000D02*
X313919420Y-189525000D01*
%TO.C,C39*%
X328575580Y-195625000D02*
X328294420Y-195625000D01*
X328575580Y-196645000D02*
X328294420Y-196645000D01*
D17*
%TO.C,G\u002A\u002A\u002A*%
G36*
X341782815Y-202700985D02*
G01*
X341782815Y-202813331D01*
X341643603Y-202813327D01*
X341504392Y-202813324D01*
X341507126Y-203248058D01*
X341509861Y-203682793D01*
X341382569Y-203682793D01*
X341255276Y-203682793D01*
X341255276Y-203248062D01*
X341255276Y-202813331D01*
X341118507Y-202813331D01*
X340981738Y-202813331D01*
X340981738Y-202700985D01*
X340981738Y-202588639D01*
X341382276Y-202588639D01*
X341782815Y-202588639D01*
X341782815Y-202700985D01*
G37*
G36*
X338260283Y-203213870D02*
G01*
X338262022Y-203237853D01*
X338259938Y-203267518D01*
X338253490Y-203306515D01*
X338242136Y-203358492D01*
X338233439Y-203394600D01*
X338220157Y-203450237D01*
X338209382Y-203500063D01*
X338200208Y-203549298D01*
X338191729Y-203603165D01*
X338183038Y-203666884D01*
X338174936Y-203731639D01*
X338172866Y-203733659D01*
X338169747Y-203719068D01*
X338166086Y-203690732D01*
X338163942Y-203669438D01*
X338160320Y-203554242D01*
X338169978Y-203439368D01*
X338192158Y-203329961D01*
X338226106Y-203231166D01*
X338229414Y-203223639D01*
X338253463Y-203169908D01*
X338260283Y-203213870D01*
G37*
G36*
X340874276Y-202700985D02*
G01*
X340874276Y-202813331D01*
X340737507Y-202813331D01*
X340600738Y-202813331D01*
X340599517Y-203233408D01*
X340599231Y-203322431D01*
X340598913Y-203405584D01*
X340598573Y-203480793D01*
X340598225Y-203545985D01*
X340597878Y-203599089D01*
X340597546Y-203638032D01*
X340597239Y-203660740D01*
X340597074Y-203665697D01*
X340590269Y-203671411D01*
X340569873Y-203675631D01*
X340533953Y-203678597D01*
X340480576Y-203680547D01*
X340476180Y-203680651D01*
X340356507Y-203683394D01*
X340356507Y-203248363D01*
X340356507Y-202813331D01*
X340219738Y-202813331D01*
X340082969Y-202813331D01*
X340082969Y-202700985D01*
X340082969Y-202588639D01*
X340478622Y-202588639D01*
X340874276Y-202588639D01*
X340874276Y-202700985D01*
G37*
G36*
X339916892Y-202700985D02*
G01*
X339916892Y-202813331D01*
X339711738Y-202813331D01*
X339506584Y-202813331D01*
X339506584Y-202930562D01*
X339506584Y-203047793D01*
X339689757Y-203047793D01*
X339872930Y-203047793D01*
X339872930Y-203150370D01*
X339872930Y-203252947D01*
X339689757Y-203252947D01*
X339506584Y-203252947D01*
X339506584Y-203355524D01*
X339506584Y-203458100D01*
X339706853Y-203458100D01*
X339907122Y-203458100D01*
X339907122Y-203570447D01*
X339907122Y-203682793D01*
X339578278Y-203682793D01*
X339249433Y-203682793D01*
X339255893Y-203388124D01*
X339257678Y-203296822D01*
X339259275Y-203196283D01*
X339260610Y-203092572D01*
X339261613Y-202991755D01*
X339262212Y-202899897D01*
X339262353Y-202841048D01*
X339262353Y-202588639D01*
X339589622Y-202588639D01*
X339916892Y-202588639D01*
X339916892Y-202700985D01*
G37*
G36*
X343427147Y-201653928D02*
G01*
X343453129Y-201662316D01*
X343488166Y-201674431D01*
X343505823Y-201680753D01*
X343588621Y-201710713D01*
X343570968Y-201761349D01*
X343532600Y-201863775D01*
X343484906Y-201978738D01*
X343429666Y-202102697D01*
X343368660Y-202232115D01*
X343303666Y-202363451D01*
X343236464Y-202493166D01*
X343168834Y-202617721D01*
X343102555Y-202733578D01*
X343039408Y-202837195D01*
X342998649Y-202899620D01*
X342976645Y-202932178D01*
X342903666Y-202846653D01*
X342830688Y-202761128D01*
X342872226Y-202696864D01*
X342907171Y-202640191D01*
X342948391Y-202569022D01*
X342994153Y-202486683D01*
X343042724Y-202396499D01*
X343092371Y-202301798D01*
X343141363Y-202205905D01*
X343187965Y-202112145D01*
X343230446Y-202023846D01*
X343267073Y-201944332D01*
X343282318Y-201909677D01*
X343309397Y-201848512D01*
X343336038Y-201791232D01*
X343360921Y-201740422D01*
X343382721Y-201698662D01*
X343400118Y-201668536D01*
X343411789Y-201652626D01*
X343414854Y-201650793D01*
X343427147Y-201653928D01*
G37*
G36*
X340029238Y-201576761D02*
G01*
X340085991Y-201579394D01*
X340142309Y-201582465D01*
X340192050Y-201585611D01*
X340229073Y-201588470D01*
X340232072Y-201588748D01*
X340298138Y-201595026D01*
X340163688Y-201654937D01*
X339945087Y-201758672D01*
X339741742Y-201868785D01*
X339549753Y-201987805D01*
X339365222Y-202118256D01*
X339184249Y-202262666D01*
X339064618Y-202367069D01*
X339028738Y-202399180D01*
X339005289Y-202419219D01*
X338992325Y-202428347D01*
X338987902Y-202427723D01*
X338990073Y-202418507D01*
X338993730Y-202409341D01*
X339009995Y-202374442D01*
X339034280Y-202327412D01*
X339064137Y-202272616D01*
X339097116Y-202214421D01*
X339130770Y-202157192D01*
X339162650Y-202105296D01*
X339175323Y-202085524D01*
X339207227Y-202039059D01*
X339236515Y-202003528D01*
X339269307Y-201972386D01*
X339311727Y-201939090D01*
X339313684Y-201937640D01*
X339384414Y-201887090D01*
X339467149Y-201830854D01*
X339556610Y-201772358D01*
X339647516Y-201715026D01*
X339734587Y-201662284D01*
X339770683Y-201641206D01*
X339892469Y-201571051D01*
X340029238Y-201576761D01*
G37*
G36*
X340580599Y-205292274D02*
G01*
X340558687Y-205311406D01*
X340524466Y-205341985D01*
X340479948Y-205382166D01*
X340427147Y-205430105D01*
X340368075Y-205483960D01*
X340304747Y-205541887D01*
X340239174Y-205602041D01*
X340173370Y-205662580D01*
X340109348Y-205721660D01*
X340049121Y-205777437D01*
X339994702Y-205828067D01*
X339955969Y-205864316D01*
X339814315Y-205997346D01*
X339525383Y-205997723D01*
X339236451Y-205998100D01*
X339212768Y-206023783D01*
X339174068Y-206053208D01*
X339126192Y-206071232D01*
X339075212Y-206076864D01*
X339027202Y-206069111D01*
X339003052Y-206058055D01*
X338957410Y-206020433D01*
X338927826Y-205974946D01*
X338914792Y-205924772D01*
X338918797Y-205873087D01*
X338940331Y-205823070D01*
X338962416Y-205794594D01*
X339003890Y-205762564D01*
X339051990Y-205745013D01*
X339102311Y-205741853D01*
X339150451Y-205752992D01*
X339192007Y-205778340D01*
X339211496Y-205799707D01*
X339231052Y-205826553D01*
X339473471Y-205823452D01*
X339715890Y-205820352D01*
X339779756Y-205759373D01*
X339949408Y-205601090D01*
X340123806Y-205446049D01*
X340125067Y-205444953D01*
X340166804Y-205408419D01*
X340204334Y-205375047D01*
X340234699Y-205347509D01*
X340254938Y-205328474D01*
X340260905Y-205322346D01*
X340286645Y-205303729D01*
X340327658Y-205286765D01*
X340379688Y-205272519D01*
X340438479Y-205262058D01*
X340499774Y-205256445D01*
X340526785Y-205255785D01*
X340623793Y-205255639D01*
X340580599Y-205292274D01*
G37*
G36*
X339239256Y-201392873D02*
G01*
X339222984Y-201410795D01*
X339197692Y-201440362D01*
X339166470Y-201477891D01*
X339132412Y-201519696D01*
X339122025Y-201532617D01*
X339085632Y-201577437D01*
X339057737Y-201609721D01*
X339035043Y-201632511D01*
X339014255Y-201648846D01*
X338992075Y-201661768D01*
X338971392Y-201671566D01*
X338854793Y-201734400D01*
X338747623Y-201813202D01*
X338651286Y-201906130D01*
X338567185Y-202011338D01*
X338496726Y-202126980D01*
X338441312Y-202251212D01*
X338402349Y-202382188D01*
X338392324Y-202432331D01*
X338386122Y-202483771D01*
X338382520Y-202547326D01*
X338381513Y-202616446D01*
X338383099Y-202684577D01*
X338387273Y-202745169D01*
X338392513Y-202784024D01*
X338395770Y-202804492D01*
X338396871Y-202823342D01*
X338395156Y-202844058D01*
X338389961Y-202870122D01*
X338380626Y-202905019D01*
X338366488Y-202952233D01*
X338351224Y-203001378D01*
X338334387Y-203054330D01*
X338319273Y-203100141D01*
X338306913Y-203135822D01*
X338298338Y-203158383D01*
X338294774Y-203165013D01*
X338290031Y-203156320D01*
X338283141Y-203133762D01*
X338277106Y-203108850D01*
X338245935Y-202933735D01*
X338230088Y-202762741D01*
X338229581Y-202597906D01*
X338244431Y-202441266D01*
X338270447Y-202310917D01*
X338292148Y-202238471D01*
X338321153Y-202159797D01*
X338354412Y-202082297D01*
X338388874Y-202013371D01*
X338403818Y-201987360D01*
X338489259Y-201864020D01*
X338590133Y-201749048D01*
X338703455Y-201645202D01*
X338826243Y-201555241D01*
X338944853Y-201487186D01*
X338990218Y-201465830D01*
X339044072Y-201442529D01*
X339101145Y-201419360D01*
X339156168Y-201398400D01*
X339203870Y-201381727D01*
X339237930Y-201371670D01*
X339267238Y-201364531D01*
X339239256Y-201392873D01*
G37*
G36*
X341260161Y-205275552D02*
G01*
X341167353Y-205360804D01*
X341120222Y-205404473D01*
X341059977Y-205460918D01*
X340987506Y-205529294D01*
X340903702Y-205608753D01*
X340809454Y-205698449D01*
X340705653Y-205797536D01*
X340593189Y-205905167D01*
X340472953Y-206020494D01*
X340414907Y-206076254D01*
X340283852Y-206202130D01*
X340166323Y-206314852D01*
X340061833Y-206414881D01*
X339969897Y-206502680D01*
X339890028Y-206578712D01*
X339821741Y-206643439D01*
X339764548Y-206697322D01*
X339717964Y-206740825D01*
X339681503Y-206774410D01*
X339666467Y-206788031D01*
X339628810Y-206823105D01*
X339605016Y-206848514D01*
X339593347Y-206866358D01*
X339591865Y-206878052D01*
X339592783Y-206916661D01*
X339579099Y-206958879D01*
X339553692Y-206999586D01*
X339519442Y-207033662D01*
X339495850Y-207048792D01*
X339461448Y-207059043D01*
X339417899Y-207062038D01*
X339374206Y-207057753D01*
X339345392Y-207049156D01*
X339303855Y-207020771D01*
X339270754Y-206978869D01*
X339249360Y-206928776D01*
X339242815Y-206882140D01*
X339251463Y-206835585D01*
X339275036Y-206789273D01*
X339309980Y-206749789D01*
X339317653Y-206743570D01*
X339340692Y-206728251D01*
X339364021Y-206719585D01*
X339394935Y-206715532D01*
X339421761Y-206714422D01*
X339489926Y-206712706D01*
X339710736Y-206494301D01*
X339790154Y-206415973D01*
X339874516Y-206333178D01*
X339962662Y-206247030D01*
X340053432Y-206158639D01*
X340145666Y-206069117D01*
X340238204Y-205979577D01*
X340329887Y-205891128D01*
X340419554Y-205804884D01*
X340506045Y-205721955D01*
X340588202Y-205643453D01*
X340664862Y-205570489D01*
X340734868Y-205504176D01*
X340797058Y-205445625D01*
X340850273Y-205395947D01*
X340893354Y-205356254D01*
X340925139Y-205327658D01*
X340944470Y-205311270D01*
X340947719Y-205308864D01*
X340967576Y-205301269D01*
X341002360Y-205293676D01*
X341047468Y-205286692D01*
X341098300Y-205280921D01*
X341150253Y-205276970D01*
X341198725Y-205275446D01*
X341201545Y-205275445D01*
X341260161Y-205275552D01*
G37*
G36*
X342740178Y-204610918D02*
G01*
X342818503Y-204611121D01*
X342881069Y-204611565D01*
X342929767Y-204612336D01*
X342966487Y-204613519D01*
X342993118Y-204615201D01*
X343011551Y-204617467D01*
X343023675Y-204620405D01*
X343031380Y-204624099D01*
X343036557Y-204628636D01*
X343036647Y-204628735D01*
X343040771Y-204634903D01*
X343044137Y-204644638D01*
X343046820Y-204659801D01*
X343048895Y-204682255D01*
X343050438Y-204713860D01*
X343051523Y-204756478D01*
X343052228Y-204811969D01*
X343052626Y-204882196D01*
X343052793Y-204969019D01*
X343052815Y-205027759D01*
X343052767Y-205124406D01*
X343052568Y-205203391D01*
X343052133Y-205266591D01*
X343051377Y-205315883D01*
X343050217Y-205353145D01*
X343048568Y-205380252D01*
X343046345Y-205399083D01*
X343043465Y-205411513D01*
X343039842Y-205419419D01*
X343035392Y-205424679D01*
X343034949Y-205425086D01*
X343028745Y-205429235D01*
X343018957Y-205432617D01*
X343003712Y-205435307D01*
X342981135Y-205437382D01*
X342949352Y-205438921D01*
X342906489Y-205439998D01*
X342850671Y-205440693D01*
X342780024Y-205441080D01*
X342692674Y-205441238D01*
X342640810Y-205441254D01*
X342544836Y-205441206D01*
X342466511Y-205441002D01*
X342403945Y-205440559D01*
X342355246Y-205439788D01*
X342318527Y-205438605D01*
X342291896Y-205436923D01*
X342273463Y-205434657D01*
X342261339Y-205431719D01*
X342253634Y-205428025D01*
X342248457Y-205423488D01*
X342248367Y-205423389D01*
X342244243Y-205417221D01*
X342240877Y-205407486D01*
X342238194Y-205392323D01*
X342236119Y-205369869D01*
X342234576Y-205338264D01*
X342233491Y-205295646D01*
X342232786Y-205240155D01*
X342232388Y-205169928D01*
X342232221Y-205083105D01*
X342232199Y-205024365D01*
X342232247Y-204927718D01*
X342232446Y-204848733D01*
X342232881Y-204785533D01*
X342233637Y-204736241D01*
X342234797Y-204698979D01*
X342236446Y-204671871D01*
X342238669Y-204653041D01*
X342241549Y-204640611D01*
X342245172Y-204632705D01*
X342249621Y-204627445D01*
X342250065Y-204627038D01*
X342256269Y-204622888D01*
X342266057Y-204619507D01*
X342281302Y-204616817D01*
X342303879Y-204614742D01*
X342335662Y-204613203D01*
X342378525Y-204612126D01*
X342434343Y-204611431D01*
X342504990Y-204611044D01*
X342592340Y-204610886D01*
X342644204Y-204610870D01*
X342740178Y-204610918D01*
G37*
G36*
X340075247Y-201278058D02*
G01*
X340265359Y-201302412D01*
X340462077Y-201342195D01*
X340663673Y-201396747D01*
X340868422Y-201465406D01*
X341074596Y-201547513D01*
X341280469Y-201642406D01*
X341484314Y-201749426D01*
X341684403Y-201867911D01*
X341879011Y-201997201D01*
X341973315Y-202065390D01*
X342215068Y-202255688D01*
X342444536Y-202458067D01*
X342662610Y-202673531D01*
X342870184Y-202903083D01*
X343068152Y-203147723D01*
X343257408Y-203408456D01*
X343438844Y-203686282D01*
X343484548Y-203760947D01*
X343516528Y-203814946D01*
X343550799Y-203874664D01*
X343586017Y-203937570D01*
X343620843Y-204001138D01*
X343653934Y-204062838D01*
X343683949Y-204120142D01*
X343709547Y-204170521D01*
X343729386Y-204211448D01*
X343742125Y-204240393D01*
X343746430Y-204254576D01*
X343738286Y-204260634D01*
X343716682Y-204272846D01*
X343685858Y-204289096D01*
X343650056Y-204307267D01*
X343613516Y-204325244D01*
X343580480Y-204340909D01*
X343555188Y-204352147D01*
X343541882Y-204356840D01*
X343541454Y-204356870D01*
X343532420Y-204349054D01*
X343531507Y-204343456D01*
X343527016Y-204328067D01*
X343514552Y-204298600D01*
X343495633Y-204258056D01*
X343471774Y-204209437D01*
X343444491Y-204155746D01*
X343415301Y-204099983D01*
X343385719Y-204045151D01*
X343357262Y-203994251D01*
X343340917Y-203966100D01*
X343301466Y-203901132D01*
X343253234Y-203824504D01*
X343198952Y-203740344D01*
X343141350Y-203652782D01*
X343083157Y-203565944D01*
X343027104Y-203483960D01*
X342975922Y-203410958D01*
X342950056Y-203375062D01*
X342835345Y-203225796D01*
X342706121Y-203071666D01*
X342565628Y-202915963D01*
X342417110Y-202761977D01*
X342263810Y-202612997D01*
X342108971Y-202472314D01*
X341955837Y-202343218D01*
X341854815Y-202264093D01*
X341674879Y-202135089D01*
X341487185Y-202014212D01*
X341294863Y-201903125D01*
X341101039Y-201803491D01*
X340908843Y-201716972D01*
X340721402Y-201645230D01*
X340639447Y-201618213D01*
X340517380Y-201582397D01*
X340402951Y-201554061D01*
X340291417Y-201532513D01*
X340178036Y-201517064D01*
X340058064Y-201507020D01*
X339926759Y-201501691D01*
X339831465Y-201500420D01*
X339767197Y-201499900D01*
X339709981Y-201499011D01*
X339662530Y-201497829D01*
X339627558Y-201496433D01*
X339607777Y-201494900D01*
X339604330Y-201493944D01*
X339610255Y-201483756D01*
X339626181Y-201462380D01*
X339649231Y-201433321D01*
X339676526Y-201400085D01*
X339705191Y-201366178D01*
X339732348Y-201335104D01*
X339754217Y-201311312D01*
X339793960Y-201269793D01*
X339893467Y-201269793D01*
X340075247Y-201278058D01*
G37*
G36*
X342644645Y-199347864D02*
G01*
X342793164Y-199361283D01*
X342932617Y-199387356D01*
X343060005Y-199425942D01*
X343062584Y-199426906D01*
X343187133Y-199483904D01*
X343301880Y-199557274D01*
X343406139Y-199646105D01*
X343499221Y-199749487D01*
X343580440Y-199866510D01*
X343649109Y-199996263D01*
X343704540Y-200137835D01*
X343746047Y-200290317D01*
X343757428Y-200347593D01*
X343765096Y-200394065D01*
X343770733Y-200438904D01*
X343774625Y-200486497D01*
X343777058Y-200541230D01*
X343778316Y-200607489D01*
X343778673Y-200673870D01*
X343776796Y-200799441D01*
X343770222Y-200913060D01*
X343758135Y-201021925D01*
X343739720Y-201133233D01*
X343714161Y-201254181D01*
X343711686Y-201264908D01*
X343697793Y-201324622D01*
X343688059Y-201368077D01*
X343682515Y-201398113D01*
X343681196Y-201417569D01*
X343684133Y-201429285D01*
X343691361Y-201436100D01*
X343702912Y-201440853D01*
X343713773Y-201444540D01*
X343736751Y-201453558D01*
X343772813Y-201468767D01*
X343817308Y-201488166D01*
X343865585Y-201509749D01*
X343873430Y-201513308D01*
X344060210Y-201606157D01*
X344232568Y-201708109D01*
X344389924Y-201818589D01*
X344531696Y-201937023D01*
X344657304Y-202062835D01*
X344766168Y-202195451D01*
X344857707Y-202334296D01*
X344931340Y-202478795D01*
X344980731Y-202609753D01*
X345003852Y-202686435D01*
X345020234Y-202751701D01*
X345030929Y-202812055D01*
X345036988Y-202874000D01*
X345039461Y-202944039D01*
X345039681Y-202974524D01*
X345037459Y-203068301D01*
X345029656Y-203150857D01*
X345015060Y-203230016D01*
X344992458Y-203313599D01*
X344982057Y-203346495D01*
X344925149Y-203491350D01*
X344849805Y-203633118D01*
X344755915Y-203771904D01*
X344643369Y-203907813D01*
X344512055Y-204040948D01*
X344361863Y-204171416D01*
X344192683Y-204299320D01*
X344004402Y-204424765D01*
X343796912Y-204547856D01*
X343597326Y-204654831D01*
X343482898Y-204713447D01*
X343482779Y-204754966D01*
X343482661Y-204796485D01*
X343380084Y-204796485D01*
X343277507Y-204796485D01*
X343277507Y-204874639D01*
X343277507Y-204952793D01*
X343380084Y-204952793D01*
X343482661Y-204952793D01*
X343482661Y-205021177D01*
X343482661Y-205089562D01*
X343380084Y-205089562D01*
X343277507Y-205089562D01*
X343277507Y-205177485D01*
X343277507Y-205265408D01*
X343380084Y-205265408D01*
X343482661Y-205265408D01*
X343482661Y-205343562D01*
X343482661Y-205421716D01*
X343380084Y-205421716D01*
X343334024Y-205422043D01*
X343304112Y-205423401D01*
X343286963Y-205426354D01*
X343279191Y-205431464D01*
X343277412Y-205438812D01*
X343270842Y-205468227D01*
X343253631Y-205505522D01*
X343229130Y-205544937D01*
X343200692Y-205580717D01*
X343186430Y-205595090D01*
X343144218Y-205626982D01*
X343101904Y-205646985D01*
X343097026Y-205648405D01*
X343052815Y-205660230D01*
X343052815Y-205760780D01*
X343052815Y-205861331D01*
X342974661Y-205861331D01*
X342896507Y-205861331D01*
X342896507Y-205758754D01*
X342896507Y-205656177D01*
X342814409Y-205656177D01*
X342732310Y-205656177D01*
X342725319Y-205758754D01*
X342718327Y-205861331D01*
X342641340Y-205861331D01*
X342564353Y-205861331D01*
X342564353Y-205758754D01*
X342564353Y-205656177D01*
X342481315Y-205656177D01*
X342398276Y-205656177D01*
X342398276Y-205758754D01*
X342398276Y-205861331D01*
X342320122Y-205861331D01*
X342241969Y-205861331D01*
X342241969Y-205761066D01*
X342241969Y-205660801D01*
X342193077Y-205649187D01*
X342144185Y-205637573D01*
X342102018Y-205683510D01*
X342040021Y-205751180D01*
X341980642Y-205816241D01*
X341925260Y-205877163D01*
X341875255Y-205932415D01*
X341832005Y-205980466D01*
X341796890Y-206019784D01*
X341771289Y-206048839D01*
X341756582Y-206066100D01*
X341753507Y-206070333D01*
X341762360Y-206076348D01*
X341787015Y-206087178D01*
X341824620Y-206101834D01*
X341872321Y-206119324D01*
X341927265Y-206138660D01*
X341986598Y-206158851D01*
X342047468Y-206178908D01*
X342107020Y-206197841D01*
X342162401Y-206214660D01*
X342202892Y-206226232D01*
X342377806Y-206267693D01*
X342549754Y-206295378D01*
X342716744Y-206309229D01*
X342876783Y-206309187D01*
X343027881Y-206295193D01*
X343168045Y-206267190D01*
X343208819Y-206255699D01*
X343334940Y-206208433D01*
X343448354Y-206146611D01*
X343550253Y-206069413D01*
X343641826Y-205976016D01*
X343676467Y-205933107D01*
X343726340Y-205852853D01*
X343765125Y-205757867D01*
X343792672Y-205649607D01*
X343808832Y-205529529D01*
X343813455Y-205399093D01*
X343806390Y-205259755D01*
X343787488Y-205112974D01*
X343770243Y-205021177D01*
X343758049Y-204966743D01*
X343743758Y-204908867D01*
X343728402Y-204851150D01*
X343713017Y-204797187D01*
X343698639Y-204750578D01*
X343686302Y-204714919D01*
X343677040Y-204693809D01*
X343675330Y-204691230D01*
X343670484Y-204685520D01*
X343668579Y-204680963D01*
X343672157Y-204675666D01*
X343683762Y-204667736D01*
X343705937Y-204655280D01*
X343741228Y-204636405D01*
X343768556Y-204621851D01*
X343814705Y-204598208D01*
X343845867Y-204584663D01*
X343863449Y-204580678D01*
X343868548Y-204583584D01*
X343914622Y-204730816D01*
X343950668Y-204889721D01*
X343975734Y-205054667D01*
X343988866Y-205220025D01*
X343990661Y-205304485D01*
X343985380Y-205458429D01*
X343969226Y-205597593D01*
X343941734Y-205723732D01*
X343902441Y-205838603D01*
X343850880Y-205943961D01*
X343800511Y-206022543D01*
X343722989Y-206115182D01*
X343629286Y-206199567D01*
X343521490Y-206274378D01*
X343401686Y-206338296D01*
X343271961Y-206390000D01*
X343174064Y-206418804D01*
X343022408Y-206448423D01*
X342862279Y-206462682D01*
X342693019Y-206461546D01*
X342513972Y-206444976D01*
X342324479Y-206412937D01*
X342123885Y-206365392D01*
X342100382Y-206359013D01*
X342051603Y-206344988D01*
X341994350Y-206327529D01*
X341931971Y-206307762D01*
X341867819Y-206286814D01*
X341805245Y-206265811D01*
X341747598Y-206245880D01*
X341698231Y-206228146D01*
X341660494Y-206213737D01*
X341637738Y-206203778D01*
X341636335Y-206203025D01*
X341626421Y-206203646D01*
X341609589Y-206214157D01*
X341584232Y-206235890D01*
X341548743Y-206270178D01*
X341519104Y-206300215D01*
X341476222Y-206343573D01*
X341424102Y-206395290D01*
X341367799Y-206450406D01*
X341312370Y-206503960D01*
X341280184Y-206534654D01*
X341143899Y-206663804D01*
X341116073Y-206898978D01*
X341088246Y-207134152D01*
X341112030Y-207159607D01*
X341147205Y-207207402D01*
X341163984Y-207256970D01*
X341164953Y-207299411D01*
X341150743Y-207350750D01*
X341120563Y-207396528D01*
X341077976Y-207431652D01*
X341068966Y-207436604D01*
X341031939Y-207448210D01*
X340986058Y-207452760D01*
X340940830Y-207449881D01*
X340913358Y-207442741D01*
X340869433Y-207415513D01*
X340835945Y-207375601D01*
X340814734Y-207327604D01*
X340807641Y-207276124D01*
X340816506Y-207225761D01*
X340821630Y-207213463D01*
X340838208Y-207187578D01*
X340862419Y-207159510D01*
X340888417Y-207135281D01*
X340910359Y-207120912D01*
X340912105Y-207120249D01*
X340916104Y-207109856D01*
X340921745Y-207082277D01*
X340928683Y-207039764D01*
X340936572Y-206984570D01*
X340945067Y-206918946D01*
X340952374Y-206857793D01*
X340982227Y-206598908D01*
X341218605Y-206362211D01*
X341282410Y-206297808D01*
X341337060Y-206241600D01*
X341381628Y-206194584D01*
X341415193Y-206157761D01*
X341436828Y-206132128D01*
X341445609Y-206118685D01*
X341445495Y-206117061D01*
X341431890Y-206109312D01*
X341405905Y-206097548D01*
X341377392Y-206085981D01*
X341339395Y-206070303D01*
X341293199Y-206049802D01*
X341247990Y-206028572D01*
X341242399Y-206025842D01*
X341206585Y-206008906D01*
X341176818Y-205996030D01*
X341157868Y-205989230D01*
X341154476Y-205988660D01*
X341145456Y-205995396D01*
X341123946Y-206014602D01*
X341091313Y-206044970D01*
X341048922Y-206085195D01*
X340998140Y-206133971D01*
X340940333Y-206189989D01*
X340876867Y-206251945D01*
X340809107Y-206318531D01*
X340794414Y-206333025D01*
X340445898Y-206677062D01*
X340431229Y-206896187D01*
X340416560Y-207115312D01*
X340454683Y-207158623D01*
X340487628Y-207208362D01*
X340502138Y-207260346D01*
X340498094Y-207312288D01*
X340475379Y-207361903D01*
X340465863Y-207374811D01*
X340422888Y-207414126D01*
X340372736Y-207436736D01*
X340318839Y-207442342D01*
X340264628Y-207430646D01*
X340213535Y-207401351D01*
X340208392Y-207397159D01*
X340174499Y-207356914D01*
X340155844Y-207309038D01*
X340152192Y-207257830D01*
X340163310Y-207207590D01*
X340188964Y-207162618D01*
X340222895Y-207131143D01*
X340235298Y-207121861D01*
X340245091Y-207111398D01*
X340252682Y-207097366D01*
X340258479Y-207077380D01*
X340262892Y-207049051D01*
X340266329Y-207009994D01*
X340269200Y-206957820D01*
X340271912Y-206890144D01*
X340273898Y-206833370D01*
X340276343Y-206758523D01*
X340278478Y-206700271D01*
X340281116Y-206655705D01*
X340285070Y-206621913D01*
X340291150Y-206595985D01*
X340300168Y-206575011D01*
X340312938Y-206556079D01*
X340330269Y-206536279D01*
X340352975Y-206512700D01*
X340367566Y-206497572D01*
X340386959Y-206477563D01*
X340418930Y-206444923D01*
X340462275Y-206400871D01*
X340515789Y-206346625D01*
X340578267Y-206283402D01*
X340648504Y-206212421D01*
X340725295Y-206134899D01*
X340807436Y-206052055D01*
X340893722Y-205965106D01*
X340982947Y-205875271D01*
X340999460Y-205858656D01*
X341273239Y-205858656D01*
X341413239Y-205927977D01*
X341461506Y-205951573D01*
X341503998Y-205971773D01*
X341537484Y-205987085D01*
X341558730Y-205996019D01*
X341564311Y-205997699D01*
X341574496Y-205991121D01*
X341595571Y-205972673D01*
X341625032Y-205944710D01*
X341660374Y-205909586D01*
X341686426Y-205882879D01*
X341723984Y-205843347D01*
X341767441Y-205796697D01*
X341814212Y-205745798D01*
X341861708Y-205693520D01*
X341907344Y-205642732D01*
X341948532Y-205596306D01*
X341982687Y-205557109D01*
X342007220Y-205528013D01*
X342014394Y-205519028D01*
X342020915Y-205502157D01*
X342018603Y-205475959D01*
X342015573Y-205462855D01*
X342005130Y-205421716D01*
X341930607Y-205421474D01*
X341880062Y-205420982D01*
X341823509Y-205419945D01*
X341780495Y-205418806D01*
X341704907Y-205416381D01*
X341541030Y-205582683D01*
X341491378Y-205633161D01*
X341443090Y-205682417D01*
X341398933Y-205727617D01*
X341361674Y-205765928D01*
X341334077Y-205794514D01*
X341325197Y-205803821D01*
X341273239Y-205858656D01*
X340999460Y-205858656D01*
X341025107Y-205832850D01*
X341602084Y-205252406D01*
X341804795Y-205248031D01*
X342007507Y-205243655D01*
X342007507Y-205185088D01*
X342007028Y-205152781D01*
X342004453Y-205135856D01*
X341998071Y-205130161D01*
X341986173Y-205131542D01*
X341985526Y-205131693D01*
X341958976Y-205136811D01*
X341916672Y-205143625D01*
X341862278Y-205151648D01*
X341799458Y-205160391D01*
X341731872Y-205169365D01*
X341663186Y-205178084D01*
X341597061Y-205186057D01*
X341537160Y-205192798D01*
X341494622Y-205197124D01*
X341394304Y-205204923D01*
X341279721Y-205210932D01*
X341154790Y-205215149D01*
X341023427Y-205217571D01*
X340889551Y-205218196D01*
X340757078Y-205217021D01*
X340629926Y-205214045D01*
X340512010Y-205209265D01*
X340407250Y-205202679D01*
X340351622Y-205197788D01*
X340103267Y-205167316D01*
X339867448Y-205127010D01*
X339645042Y-205077114D01*
X339450017Y-205021598D01*
X342149161Y-205021598D01*
X342149215Y-205123376D01*
X342149426Y-205207443D01*
X342149864Y-205275626D01*
X342150599Y-205329754D01*
X342151703Y-205371652D01*
X342153245Y-205403149D01*
X342155298Y-205426073D01*
X342157931Y-205442250D01*
X342161216Y-205453508D01*
X342165222Y-205461674D01*
X342166257Y-205463312D01*
X342174672Y-205475689D01*
X342183430Y-205485899D01*
X342194405Y-205494178D01*
X342209469Y-205500759D01*
X342230497Y-205505879D01*
X342259363Y-205509772D01*
X342297938Y-205512675D01*
X342348098Y-205514821D01*
X342411716Y-205516446D01*
X342490665Y-205517785D01*
X342586818Y-205519073D01*
X342613199Y-205519408D01*
X342716525Y-205520680D01*
X342802151Y-205521600D01*
X342871912Y-205522105D01*
X342927644Y-205522132D01*
X342971183Y-205521617D01*
X343004364Y-205520500D01*
X343029025Y-205518716D01*
X343047000Y-205516203D01*
X343060125Y-205512898D01*
X343070236Y-205508739D01*
X343079169Y-205503663D01*
X343079477Y-205503472D01*
X343099143Y-205485513D01*
X343117453Y-205460223D01*
X343118554Y-205458258D01*
X343122863Y-205449010D01*
X343126397Y-205437288D01*
X343129232Y-205421197D01*
X343131442Y-205398844D01*
X343133105Y-205368334D01*
X343134296Y-205327775D01*
X343135090Y-205275272D01*
X343135564Y-205208931D01*
X343135793Y-205126859D01*
X343135853Y-205027161D01*
X343135853Y-205026062D01*
X343135826Y-204922181D01*
X343135586Y-204835996D01*
X343134894Y-204765666D01*
X343133509Y-204709348D01*
X343131192Y-204665200D01*
X343127704Y-204631380D01*
X343122806Y-204606047D01*
X343116258Y-204587357D01*
X343107820Y-204573470D01*
X343097253Y-204562542D01*
X343084317Y-204552732D01*
X343073351Y-204545292D01*
X343040156Y-204522947D01*
X342638620Y-204522983D01*
X342539174Y-204523033D01*
X342457368Y-204523220D01*
X342391301Y-204523627D01*
X342339074Y-204524336D01*
X342298788Y-204525433D01*
X342268543Y-204527000D01*
X342246440Y-204529121D01*
X342230580Y-204531879D01*
X342219063Y-204535358D01*
X342209989Y-204539641D01*
X342205957Y-204541999D01*
X342192598Y-204550251D01*
X342181517Y-204558441D01*
X342172501Y-204568364D01*
X342165337Y-204581818D01*
X342159812Y-204600600D01*
X342155713Y-204626506D01*
X342152828Y-204661335D01*
X342150944Y-204706882D01*
X342149848Y-204764946D01*
X342149328Y-204837322D01*
X342149169Y-204925809D01*
X342149161Y-205021598D01*
X339450017Y-205021598D01*
X339436928Y-205017872D01*
X339243986Y-204949531D01*
X339067092Y-204872333D01*
X338937168Y-204804046D01*
X338810169Y-204726952D01*
X338701346Y-204651077D01*
X338609450Y-204575544D01*
X338602988Y-204569669D01*
X338576053Y-204544313D01*
X338556865Y-204523153D01*
X338542411Y-204501127D01*
X338529678Y-204473174D01*
X338515654Y-204434233D01*
X338506988Y-204408372D01*
X338485638Y-204337627D01*
X338467361Y-204264534D01*
X338453240Y-204194389D01*
X338444359Y-204132487D01*
X338441738Y-204089523D01*
X338441738Y-204049428D01*
X338462500Y-204088360D01*
X338532349Y-204199198D01*
X338620085Y-204303986D01*
X338724827Y-204402120D01*
X338845697Y-204492993D01*
X338981817Y-204576001D01*
X339132307Y-204650539D01*
X339296289Y-204716000D01*
X339441925Y-204762982D01*
X339486546Y-204775594D01*
X339523864Y-204785472D01*
X339550177Y-204791685D01*
X339561787Y-204793299D01*
X339561976Y-204793196D01*
X339556700Y-204786328D01*
X339539257Y-204772644D01*
X339523879Y-204762060D01*
X339481955Y-204731884D01*
X339428932Y-204689725D01*
X339367196Y-204637740D01*
X339299132Y-204578083D01*
X339227129Y-204512911D01*
X339153570Y-204444378D01*
X339080844Y-204374641D01*
X339011336Y-204305855D01*
X338955494Y-204248623D01*
X338804051Y-204079895D01*
X338670500Y-203908552D01*
X338553200Y-203732460D01*
X338534006Y-203700634D01*
X338472075Y-203596361D01*
X338510637Y-203468572D01*
X338524737Y-203421360D01*
X338536539Y-203380919D01*
X338544999Y-203350893D01*
X338549076Y-203334927D01*
X338549289Y-203333499D01*
X338553807Y-203338948D01*
X338566211Y-203358751D01*
X338584880Y-203390198D01*
X338608190Y-203430576D01*
X338622761Y-203456249D01*
X338686868Y-203565166D01*
X338756312Y-203674844D01*
X338827286Y-203779525D01*
X338895980Y-203873454D01*
X338914818Y-203897716D01*
X339058685Y-204067929D01*
X339219494Y-204235783D01*
X339394645Y-204398927D01*
X339581540Y-204555010D01*
X339777583Y-204701680D01*
X339882699Y-204773728D01*
X339945844Y-204815522D01*
X339996093Y-204847898D01*
X340036812Y-204872262D01*
X340071371Y-204890024D01*
X340103138Y-204902590D01*
X340135480Y-204911368D01*
X340171765Y-204917766D01*
X340215362Y-204923192D01*
X340249045Y-204926846D01*
X340329601Y-204935522D01*
X340393255Y-204942273D01*
X340442556Y-204946998D01*
X340480055Y-204949599D01*
X340508303Y-204949978D01*
X340529849Y-204948034D01*
X340547245Y-204943670D01*
X340563040Y-204936785D01*
X340579785Y-204927281D01*
X340600030Y-204915059D01*
X340603356Y-204913086D01*
X340689444Y-204860412D01*
X340786780Y-204797705D01*
X340891692Y-204727542D01*
X341000504Y-204652502D01*
X341109542Y-204575165D01*
X341215135Y-204498109D01*
X341313606Y-204423913D01*
X341401283Y-204355155D01*
X341421353Y-204338900D01*
X341499693Y-204273421D01*
X341587216Y-204197626D01*
X341679663Y-204115377D01*
X341772778Y-204030540D01*
X341862303Y-203946979D01*
X341943981Y-203868558D01*
X341992722Y-203820285D01*
X342129361Y-203682793D01*
X342024472Y-203682793D01*
X341919584Y-203682793D01*
X341919584Y-203135716D01*
X341919584Y-202588639D01*
X342041614Y-202588639D01*
X342163645Y-202588639D01*
X342166172Y-203112706D01*
X342168699Y-203636774D01*
X342256910Y-203535226D01*
X342351489Y-203423774D01*
X342449050Y-203304120D01*
X342542608Y-203184869D01*
X342563719Y-203157226D01*
X342589152Y-203123314D01*
X342607837Y-203100677D01*
X342623130Y-203089734D01*
X342638387Y-203090905D01*
X342656963Y-203104607D01*
X342682213Y-203131259D01*
X342717493Y-203171282D01*
X342722612Y-203177061D01*
X342780980Y-203242829D01*
X342715084Y-203328484D01*
X342511616Y-203581857D01*
X342304149Y-203818020D01*
X342124738Y-204005355D01*
X341960337Y-204165944D01*
X341799729Y-204313589D01*
X341638125Y-204452303D01*
X341470736Y-204586097D01*
X341292773Y-204718982D01*
X341162369Y-204811503D01*
X341109330Y-204848546D01*
X341060413Y-204882908D01*
X341018360Y-204912649D01*
X340985915Y-204935824D01*
X340965820Y-204950493D01*
X340962199Y-204953267D01*
X340937776Y-204972641D01*
X341103853Y-204967117D01*
X341269573Y-204959743D01*
X341435111Y-204948820D01*
X341596063Y-204934754D01*
X341748022Y-204917946D01*
X341886584Y-204898801D01*
X341934238Y-204891093D01*
X342002622Y-204879524D01*
X342005626Y-204838004D01*
X342008630Y-204796485D01*
X341900607Y-204796485D01*
X341792584Y-204796485D01*
X341792584Y-204713447D01*
X341792584Y-204630408D01*
X341894001Y-204630408D01*
X341995418Y-204630408D01*
X342005933Y-204588889D01*
X342031596Y-204523755D01*
X342071787Y-204468297D01*
X342123736Y-204425402D01*
X342184672Y-204397958D01*
X342190680Y-204396298D01*
X342232199Y-204385424D01*
X342232199Y-204288108D01*
X342232199Y-204190793D01*
X342310353Y-204190793D01*
X342388507Y-204190793D01*
X342388507Y-204287459D01*
X342388507Y-204384125D01*
X342425440Y-204387647D01*
X342458039Y-204389070D01*
X342497331Y-204388563D01*
X342513363Y-204387731D01*
X342564353Y-204384292D01*
X342564353Y-204287542D01*
X342564353Y-204190793D01*
X342642507Y-204190793D01*
X342720661Y-204190793D01*
X342720661Y-204286857D01*
X342721045Y-204328057D01*
X342722078Y-204361301D01*
X342723583Y-204382179D01*
X342724687Y-204386991D01*
X342735646Y-204388515D01*
X342761210Y-204388964D01*
X342796472Y-204388287D01*
X342807726Y-204387876D01*
X342886738Y-204384690D01*
X342886738Y-204287741D01*
X342886738Y-204190793D01*
X342964892Y-204190793D01*
X343043045Y-204190793D01*
X343043045Y-204288485D01*
X343043401Y-204333253D01*
X343044869Y-204361951D01*
X343048057Y-204378040D01*
X343053569Y-204384980D01*
X343060142Y-204386273D01*
X343088056Y-204392443D01*
X343123876Y-204408327D01*
X343161185Y-204430346D01*
X343193567Y-204454925D01*
X343206751Y-204468008D01*
X343225183Y-204490278D01*
X343236682Y-204506625D01*
X343238580Y-204511075D01*
X343243367Y-204524720D01*
X343246876Y-204530909D01*
X343253951Y-204533960D01*
X343269558Y-204531627D01*
X343295750Y-204523209D01*
X343334581Y-204508005D01*
X343388105Y-204485315D01*
X343415246Y-204473479D01*
X343639345Y-204369849D01*
X343844486Y-204263878D01*
X344030595Y-204155616D01*
X344197600Y-204045114D01*
X344345429Y-203932421D01*
X344474007Y-203817587D01*
X344583263Y-203700661D01*
X344633909Y-203637060D01*
X344715549Y-203513868D01*
X344778901Y-203387300D01*
X344823839Y-203258362D01*
X344850239Y-203128057D01*
X344857975Y-202997391D01*
X344846922Y-202867371D01*
X344816955Y-202739000D01*
X344767948Y-202613285D01*
X344762847Y-202602644D01*
X344712336Y-202509836D01*
X344652345Y-202420844D01*
X344580103Y-202331968D01*
X344492839Y-202239510D01*
X344485256Y-202231976D01*
X344344722Y-202105355D01*
X344187168Y-201986240D01*
X344013809Y-201875128D01*
X343825860Y-201772511D01*
X343624538Y-201678886D01*
X343411059Y-201594746D01*
X343186639Y-201520586D01*
X342952493Y-201456901D01*
X342709838Y-201404186D01*
X342459889Y-201362935D01*
X342300584Y-201343203D01*
X342150725Y-201330485D01*
X341988697Y-201323049D01*
X341818708Y-201320745D01*
X341644970Y-201323426D01*
X341471693Y-201330942D01*
X341303087Y-201343145D01*
X341143362Y-201359886D01*
X340996730Y-201381017D01*
X340939574Y-201391258D01*
X340865108Y-201405506D01*
X340740250Y-201368078D01*
X340687751Y-201352682D01*
X340636332Y-201338200D01*
X340591796Y-201326228D01*
X340559946Y-201318367D01*
X340559219Y-201318205D01*
X340529282Y-201310636D01*
X340508905Y-201303692D01*
X340503045Y-201299712D01*
X340511697Y-201293388D01*
X340535100Y-201282478D01*
X340569427Y-201268444D01*
X340610847Y-201252744D01*
X340655533Y-201236840D01*
X340699656Y-201222190D01*
X340732622Y-201212169D01*
X340869422Y-201176859D01*
X341012780Y-201147895D01*
X341164858Y-201125038D01*
X341327813Y-201108051D01*
X341503806Y-201096695D01*
X341694995Y-201090731D01*
X341841430Y-201089639D01*
X341942316Y-201089999D01*
X342027351Y-201090914D01*
X342100217Y-201092538D01*
X342164599Y-201095024D01*
X342224179Y-201098525D01*
X342282640Y-201103193D01*
X342343666Y-201109183D01*
X342364084Y-201111376D01*
X342614014Y-201143543D01*
X342850039Y-201184176D01*
X343076231Y-201234093D01*
X343296664Y-201294111D01*
X343339058Y-201306978D01*
X343390851Y-201322611D01*
X343427278Y-201332536D01*
X343451473Y-201337321D01*
X343466574Y-201337533D01*
X343475717Y-201333740D01*
X343477629Y-201332044D01*
X343483085Y-201326484D01*
X343487621Y-201320406D01*
X343492081Y-201311127D01*
X343497305Y-201295965D01*
X343504136Y-201272237D01*
X343513415Y-201237259D01*
X343525986Y-201188350D01*
X343540090Y-201133024D01*
X343563889Y-201036307D01*
X343582161Y-200952914D01*
X343595581Y-200877639D01*
X343604825Y-200805280D01*
X343610568Y-200730631D01*
X343613485Y-200648489D01*
X343614253Y-200561524D01*
X343614069Y-200490129D01*
X343613269Y-200434443D01*
X343611555Y-200390640D01*
X343608630Y-200354893D01*
X343604195Y-200323376D01*
X343597954Y-200292261D01*
X343591078Y-200263562D01*
X343550317Y-200132487D01*
X343496708Y-200015067D01*
X343429184Y-199909371D01*
X343346679Y-199813467D01*
X343337338Y-199804119D01*
X343255094Y-199732354D01*
X343165688Y-199673445D01*
X343065728Y-199625564D01*
X342951819Y-199586880D01*
X342916809Y-199577407D01*
X342888321Y-199570517D01*
X342861128Y-199565252D01*
X342832009Y-199561396D01*
X342797743Y-199558734D01*
X342755108Y-199557048D01*
X342700882Y-199556122D01*
X342631843Y-199555739D01*
X342593661Y-199555685D01*
X342498429Y-199556259D01*
X342418200Y-199558500D01*
X342348468Y-199562995D01*
X342284728Y-199570330D01*
X342222473Y-199581089D01*
X342157198Y-199595858D01*
X342084397Y-199615224D01*
X342041699Y-199627412D01*
X341804831Y-199705766D01*
X341567438Y-199803502D01*
X341329750Y-199920480D01*
X341091999Y-200056559D01*
X340854414Y-200211597D01*
X340617228Y-200385455D01*
X340380669Y-200577990D01*
X340151704Y-200782762D01*
X340002462Y-200928734D01*
X339850180Y-201090070D01*
X339697531Y-201263450D01*
X339547185Y-201445552D01*
X339401815Y-201633055D01*
X339264091Y-201822639D01*
X339136685Y-202010982D01*
X339040874Y-202163677D01*
X338960126Y-202302679D01*
X338879951Y-202450675D01*
X338801675Y-202604684D01*
X338726621Y-202761725D01*
X338656115Y-202918820D01*
X338591481Y-203072987D01*
X338534043Y-203221245D01*
X338485126Y-203360616D01*
X338446054Y-203488119D01*
X338436422Y-203523717D01*
X338406406Y-203665534D01*
X338388377Y-203812469D01*
X338382331Y-203960440D01*
X338388264Y-204105365D01*
X338406170Y-204243161D01*
X338436046Y-204369746D01*
X338437406Y-204374245D01*
X338489564Y-204513501D01*
X338557365Y-204641270D01*
X338640364Y-204757149D01*
X338738113Y-204860734D01*
X338850165Y-204951620D01*
X338976075Y-205029406D01*
X339115394Y-205093687D01*
X339267677Y-205144059D01*
X339298506Y-205152141D01*
X339367074Y-205168155D01*
X339431392Y-205180153D01*
X339495943Y-205188554D01*
X339565210Y-205193783D01*
X339643678Y-205196260D01*
X339735831Y-205196407D01*
X339765469Y-205196078D01*
X339850535Y-205195519D01*
X339922356Y-205196539D01*
X339987185Y-205199448D01*
X340051273Y-205204552D01*
X340120873Y-205212162D01*
X340140630Y-205214587D01*
X340195988Y-205221697D01*
X340244282Y-205228272D01*
X340282309Y-205233846D01*
X340306866Y-205237952D01*
X340314758Y-205239942D01*
X340308819Y-205244909D01*
X340286841Y-205253062D01*
X340251912Y-205263613D01*
X340207124Y-205275773D01*
X340155566Y-205288755D01*
X340100329Y-205301769D01*
X340044502Y-205314028D01*
X339991176Y-205324742D01*
X339960793Y-205330252D01*
X339893180Y-205338900D01*
X339811671Y-205344590D01*
X339721682Y-205347323D01*
X339628631Y-205347100D01*
X339537934Y-205343921D01*
X339455008Y-205337788D01*
X339394238Y-205330181D01*
X339219088Y-205294451D01*
X339057099Y-205245021D01*
X338908553Y-205182107D01*
X338773728Y-205105923D01*
X338652904Y-205016684D01*
X338546362Y-204914606D01*
X338454381Y-204799901D01*
X338377240Y-204672787D01*
X338315220Y-204533476D01*
X338299857Y-204490092D01*
X338274976Y-204411027D01*
X338255788Y-204337824D01*
X338241653Y-204265987D01*
X338231935Y-204191017D01*
X338225994Y-204108419D01*
X338223194Y-204013695D01*
X338222755Y-203946562D01*
X338223065Y-203867618D01*
X338224191Y-203803873D01*
X338226410Y-203750996D01*
X338229997Y-203704654D01*
X338235228Y-203660517D01*
X338242380Y-203614253D01*
X338244864Y-203599754D01*
X338281069Y-203424695D01*
X338329982Y-203239722D01*
X338390309Y-203048547D01*
X338460753Y-202854880D01*
X338540019Y-202662432D01*
X338626809Y-202474914D01*
X338662877Y-202403024D01*
X338809341Y-202133842D01*
X338967694Y-201874194D01*
X339139310Y-201622222D01*
X339325564Y-201376067D01*
X339527830Y-201133871D01*
X339747482Y-200893776D01*
X339877258Y-200760885D01*
X340103927Y-200543519D01*
X340332944Y-200343039D01*
X340563830Y-200159729D01*
X340796105Y-199993877D01*
X341029293Y-199845769D01*
X341262913Y-199715693D01*
X341496486Y-199603935D01*
X341729535Y-199510782D01*
X341961579Y-199436521D01*
X342174661Y-199384949D01*
X342332395Y-199359555D01*
X342490056Y-199347241D01*
X342644645Y-199347864D01*
G37*
D16*
%TO.C,R7*%
X349165000Y-200327064D02*
X349165000Y-199872936D01*
X350635000Y-200327064D02*
X350635000Y-199872936D01*
%TO.C,R30*%
X317977064Y-187615000D02*
X317522936Y-187615000D01*
X317977064Y-189085000D02*
X317522936Y-189085000D01*
%TO.C,R40*%
X336097936Y-196115000D02*
X336552064Y-196115000D01*
X336097936Y-197585000D02*
X336552064Y-197585000D01*
%TO.C,R44*%
X334247936Y-200340000D02*
X334702064Y-200340000D01*
X334247936Y-201810000D02*
X334702064Y-201810000D01*
%TO.C,C18*%
X331111252Y-183340000D02*
X329688748Y-183340000D01*
X331111252Y-186060000D02*
X329688748Y-186060000D01*
%TO.C,J4*%
X316910000Y-210680000D02*
X316910000Y-214700000D01*
X316910000Y-212180000D02*
X317910001Y-212180000D01*
X316910000Y-214700000D02*
X324630000Y-214700000D01*
X317410000Y-212990000D02*
X316910000Y-212990000D01*
X317410000Y-214200000D02*
X317410000Y-212990000D01*
X317910001Y-212180000D02*
X317910000Y-210680000D01*
X323629999Y-212180000D02*
X323630000Y-210680000D01*
X324130000Y-212990000D02*
X324130000Y-214200000D01*
X324130000Y-214200000D02*
X317410000Y-214200000D01*
X324630000Y-210680000D02*
X316910000Y-210680000D01*
X324630000Y-212180000D02*
X323629999Y-212180000D01*
X324630000Y-212990000D02*
X324130000Y-212990000D01*
X324630000Y-214700000D02*
X324630000Y-210680000D01*
X324930000Y-210380000D02*
X322430000Y-210380000D01*
X324930000Y-212880000D02*
X324930000Y-210380000D01*
%TO.C,R45*%
X315565000Y-191462936D02*
X315565000Y-192917064D01*
X317385000Y-191462936D02*
X317385000Y-192917064D01*
%TO.C,C42*%
X343115581Y-195715000D02*
X342834419Y-195715000D01*
X343115581Y-196735000D02*
X342834419Y-196735000D01*
%TO.C,D7*%
X348965000Y-202065001D02*
X348965000Y-204750000D01*
X350885000Y-202065001D02*
X348965000Y-202065001D01*
X350885000Y-204750000D02*
X350885000Y-202065001D01*
%TO.C,C2*%
X318186251Y-183290000D02*
X316763747Y-183290000D01*
X318186251Y-186010000D02*
X316763747Y-186010000D01*
%TO.C,R31*%
X310082936Y-187515000D02*
X310537064Y-187515000D01*
X310082936Y-188985000D02*
X310537064Y-188985000D01*
%TO.C,R38*%
X321614564Y-195515000D02*
X321160436Y-195515000D01*
X321614564Y-196985000D02*
X321160436Y-196985000D01*
%TO.C,R33*%
X325357936Y-187265000D02*
X325812064Y-187265000D01*
X325357936Y-188735000D02*
X325812064Y-188735000D01*
%TO.C,R36*%
X308902064Y-196240000D02*
X308447936Y-196240000D01*
X308902064Y-197710000D02*
X308447936Y-197710000D01*
%TO.C,C30*%
X351093748Y-182450000D02*
X352516252Y-182450000D01*
X351093748Y-185170000D02*
X352516252Y-185170000D01*
%TO.C,R35*%
X339472936Y-187015000D02*
X339927064Y-187015000D01*
X339472936Y-188485000D02*
X339927064Y-188485000D01*
%TO.C,R16*%
X308092501Y-208750635D02*
X308092501Y-209225151D01*
X309137501Y-208750635D02*
X309137501Y-209225151D01*
%TO.C,C16*%
X309865001Y-209969419D02*
X309865001Y-210250581D01*
X310885001Y-209969419D02*
X310885001Y-210250581D01*
%TD*%
M02*
