M48
; DRILL file {KiCad 9.0.0} date 2025-10-27T18:32:44+0200
; FORMAT={-:-/ absolute / metric / decimal}
; #@! TF.CreationDate,2025-10-27T18:32:44+02:00
; #@! TF.GenerationSoftware,Kicad,Pcbnew,9.0.0
; #@! TF.FileFunction,MixedPlating,1,6
FMAT,2
METRIC
; #@! TA.AperFunction,Plated,PTH,ViaDrill
T1C0.300
; #@! TA.AperFunction,Plated,PTH,ComponentDrill
T2C0.300
; #@! TA.AperFunction,Plated,PTH,ViaDrill
T3C0.400
; #@! TA.AperFunction,Plated,PTH,ComponentDrill
T4C0.400
; #@! TA.AperFunction,Plated,PTH,ViaDrill
T5C0.500
; #@! TA.AperFunction,Plated,PTH,ComponentDrill
T6C0.500
; #@! TA.AperFunction,Plated,PTH,ViaDrill
T7C0.600
; #@! TA.AperFunction,Plated,PTH,ComponentDrill
T8C0.950
; #@! TA.AperFunction,Plated,PTH,ComponentDrill
T9C1.000
; #@! TA.AperFunction,Plated,PTH,ComponentDrill
T10C1.350
; #@! TA.AperFunction,Plated,PTH,ComponentDrill
T11C3.500
; #@! TA.AperFunction,Plated,PTH,ComponentDrill
T12C4.300
; #@! TA.AperFunction,NonPlated,NPTH,ComponentDrill
T13C2.100
%
G90
G05
T1
X307.325Y-200.19
X308.2Y-200.2
X309.625Y-203.725
X310.5Y-203.75
X310.575Y-194.575
X310.65Y-190.765
X311.2Y-190.215
X311.25Y-195.0
X311.6Y-210.425
X311.6Y-211.325
X311.75Y-190.75
X311.75Y-203.2
X311.75Y-204.05
X311.75Y-204.95
X311.9Y-194.6
X312.85Y-209.85
X314.4Y-209.9
X315.5Y-210.8
X319.507Y-198.795
X319.532Y-198.045
X321.0Y-200.0
X322.085Y-190.485
X322.135Y-191.735
X322.38Y-205.53
X323.55Y-202.55
X324.35Y-201.75
X324.93Y-203.58
X324.96Y-207.49
X325.4Y-190.45
X325.4Y-194.45
X326.0Y-195.05
X326.05Y-190.05
X326.6Y-194.45
X326.7Y-190.45
X328.36Y-205.49
X329.613Y-209.312
X330.75Y-205.55
X330.82Y-207.59
X331.113Y-211.762
X331.29Y-204.58
X331.675Y-199.65
X332.253Y-200.203
X332.355Y-204.625
X332.65Y-210.225
X332.89Y-205.22
X334.025Y-199.525
X337.151Y-190.5
X337.151Y-191.75
X338.215Y-199.34
X338.24Y-198.49
X338.495Y-200.495
X338.825Y-207.525
X339.275Y-202.2
X340.312Y-207.362
X340.45Y-194.425
X340.475Y-190.5
X341.125Y-189.975
X341.125Y-195.025
X341.725Y-190.5
X341.85Y-194.425
X342.412Y-209.3
X342.715Y-203.06
X344.7Y-203.05
X344.7Y-204.325
X348.825Y-199.188
X349.9Y-198.25
T2
X312.875Y-206.5
X312.875Y-207.7
X312.875Y-208.9
T3
X305.7Y-185.025
X305.78Y-183.16
X305.78Y-184.08
X305.91Y-181.97
X306.575Y-183.625
X306.575Y-184.525
X306.575Y-185.425
X306.625Y-182.675
X307.1Y-181.91
X307.248Y-190.695
X307.248Y-191.945
X307.6Y-182.65
X308.05Y-181.91
X308.95Y-181.9
X311.925Y-183.4
X311.925Y-184.9
X312.4Y-185.65
X312.425Y-184.15
X312.7Y-174.35
X312.725Y-175.875
X312.9Y-184.9
X312.925Y-183.425
X313.25Y-175.1
X313.375Y-184.15
X313.375Y-185.65
X313.75Y-174.35
X313.775Y-175.875
X313.825Y-184.9
X313.875Y-183.425
X314.3Y-175.1
X314.3Y-185.65
X314.35Y-184.175
X314.8Y-174.35
X314.825Y-175.875
X314.85Y-183.45
X314.875Y-184.9
X314.973Y-206.1
X315.35Y-175.1
X315.448Y-206.875
X315.85Y-174.35
X315.875Y-175.875
X315.973Y-206.1
X316.448Y-206.9
X316.998Y-206.075
X316.998Y-203.225
X316.998Y-204.175
X316.998Y-205.125
X317.848Y-204.625
X317.848Y-203.7
X317.873Y-205.625
X319.825Y-186.125
X320.25Y-183.55
X320.25Y-185.07
X320.4Y-174.35
X320.425Y-175.875
X320.76Y-184.31
X320.77Y-185.85
X320.95Y-175.1
X321.24Y-185.07
X321.25Y-183.55
X321.45Y-174.35
X321.475Y-175.875
X321.625Y-186.125
X322.0Y-175.1
X322.5Y-174.35
X322.525Y-175.875
X325.6Y-174.35
X325.625Y-175.875
X326.15Y-175.1
X326.35Y-186.175
X326.55Y-183.53
X326.55Y-185.05
X326.65Y-174.35
X326.675Y-175.875
X327.15Y-184.3
X327.15Y-185.84
X327.2Y-175.1
X327.675Y-185.06
X327.685Y-183.54
X327.7Y-174.35
X327.725Y-175.875
X327.975Y-186.15
X328.25Y-175.1
X328.75Y-174.35
X328.775Y-175.875
X332.75Y-186.4
X333.01Y-183.48
X333.01Y-185.0
X333.1Y-174.4
X333.125Y-175.925
X333.52Y-184.24
X333.53Y-185.78
X333.65Y-175.15
X334.0Y-185.0
X334.01Y-183.48
X334.15Y-174.4
X334.175Y-175.925
X334.25Y-186.35
X334.7Y-175.15
X335.2Y-174.4
X335.225Y-175.925
X338.175Y-174.4
X338.2Y-175.925
X338.725Y-175.15
X339.025Y-186.275
X339.225Y-174.4
X339.25Y-175.925
X339.28Y-183.54
X339.28Y-185.06
X339.775Y-175.15
X339.875Y-185.8
X339.88Y-184.31
X340.275Y-174.4
X340.3Y-175.925
X340.405Y-185.07
X340.415Y-183.55
X340.65Y-186.275
X340.825Y-175.15
X341.325Y-174.4
X341.35Y-175.925
X345.65Y-183.65
X345.65Y-185.45
X345.925Y-174.4
X345.95Y-175.925
X346.0Y-186.25
X346.05Y-184.55
X346.475Y-175.15
X346.55Y-183.65
X346.55Y-185.45
X346.975Y-174.4
X347.0Y-175.925
X347.0Y-184.55
X347.0Y-186.25
X347.45Y-183.65
X347.45Y-185.45
X347.525Y-175.15
X347.9Y-186.2
X347.95Y-184.55
X348.025Y-174.4
X348.05Y-175.925
X348.4Y-183.65
X348.4Y-185.45
X348.9Y-184.55
T4
X306.0Y-175.15
X306.0Y-176.0
X306.05Y-178.5
X306.1Y-179.4
X306.25Y-173.65
X306.5Y-180.8
X306.7Y-174.55
X306.95Y-179.9
X307.15Y-173.65
X307.4Y-180.8
X307.55Y-174.55
X307.85Y-179.9
X308.05Y-173.65
X308.3Y-180.8
X308.5Y-174.55
X308.8Y-179.9
X308.95Y-173.65
X309.2Y-180.8
X309.4Y-174.55
X309.65Y-179.9
X309.85Y-173.65
X310.1Y-180.8
X310.25Y-175.05
X310.3Y-175.95
X310.35Y-178.45
X310.35Y-179.3
X311.8Y-166.175
X311.8Y-168.475
X311.8Y-169.325
X311.8Y-170.175
X311.8Y-171.025
X311.8Y-173.375
X312.6Y-168.925
X312.6Y-169.775
X312.6Y-170.625
X314.05Y-166.175
X314.1Y-173.375
X314.45Y-166.975
X314.55Y-172.575
X314.9Y-166.175
X314.95Y-173.375
X315.3Y-166.975
X315.4Y-172.575
X315.75Y-166.175
X315.8Y-173.375
X316.15Y-166.975
X316.25Y-172.575
X316.6Y-166.175
X316.65Y-173.375
X318.2Y-168.975
X318.2Y-169.825
X318.2Y-170.675
X319.0Y-166.175
X319.0Y-168.575
X319.0Y-169.425
X319.0Y-170.275
X319.0Y-171.125
X319.0Y-173.375
X326.6Y-166.2
X326.6Y-168.5
X326.6Y-169.35
X326.6Y-170.2
X326.6Y-171.05
X326.6Y-173.4
X327.4Y-168.95
X327.4Y-169.8
X327.4Y-170.65
X328.85Y-166.2
X328.9Y-173.4
X329.25Y-167.0
X329.35Y-172.6
X329.7Y-166.2
X329.75Y-173.4
X330.1Y-167.0
X330.2Y-172.6
X330.55Y-166.2
X330.6Y-173.4
X330.95Y-167.0
X331.05Y-172.6
X331.4Y-166.2
X331.45Y-173.4
X333.0Y-169.0
X333.0Y-169.85
X333.0Y-170.7
X333.8Y-166.2
X333.8Y-168.6
X333.8Y-169.45
X333.8Y-170.3
X333.8Y-171.15
X333.8Y-173.4
X341.95Y-166.3
X341.95Y-168.6
X341.95Y-169.45
X341.95Y-170.3
X341.95Y-171.15
X341.95Y-173.5
X342.75Y-169.05
X342.75Y-169.9
X342.75Y-170.75
X344.2Y-166.3
X344.25Y-173.5
X344.6Y-167.1
X344.7Y-172.7
X345.05Y-166.3
X345.1Y-173.5
X345.45Y-167.1
X345.55Y-172.7
X345.9Y-166.3
X345.95Y-173.5
X346.3Y-167.1
X346.4Y-172.7
X346.75Y-166.3
X346.8Y-173.5
X348.35Y-169.1
X348.35Y-169.95
X348.35Y-170.8
X349.15Y-166.3
X349.15Y-168.7
X349.15Y-169.55
X349.15Y-170.4
X349.15Y-171.25
X349.15Y-173.5
X349.7Y-187.75
X349.7Y-188.6
X349.75Y-191.1
X349.8Y-192.0
X349.95Y-186.25
X350.2Y-193.4
X350.4Y-187.15
X350.65Y-192.5
X350.85Y-186.25
X351.1Y-193.4
X351.25Y-187.15
X351.55Y-192.5
X351.75Y-186.25
X352.0Y-193.4
X352.2Y-187.15
X352.5Y-192.5
X352.65Y-186.25
X352.9Y-193.4
X353.1Y-187.15
X353.35Y-192.5
X353.55Y-186.25
X353.8Y-193.4
X353.95Y-187.65
X354.0Y-188.55
X354.05Y-191.05
X354.05Y-191.9
T5
X308.625Y-210.825
T6
X318.95Y-178.5
X318.95Y-179.45
X318.95Y-180.4
X318.95Y-181.35
X320.95Y-178.5
X320.95Y-179.45
X320.95Y-180.4
X322.925Y-178.5
X322.925Y-179.45
X322.925Y-180.4
X322.925Y-181.35
X331.75Y-178.5
X331.75Y-179.45
X331.75Y-180.4
X331.75Y-181.35
X333.75Y-178.5
X333.75Y-179.45
X333.75Y-180.4
X335.725Y-178.5
X335.725Y-179.45
X335.725Y-180.4
X335.725Y-181.35
X344.45Y-178.5
X344.45Y-179.45
X344.45Y-180.4
X344.45Y-181.35
X346.45Y-178.5
X346.45Y-179.45
X346.45Y-180.4
X348.425Y-178.5
X348.425Y-179.45
X348.425Y-180.4
X348.425Y-181.35
T7
X306.425Y-202.65
T8
X332.85Y-213.0
X335.35Y-213.0
X337.85Y-213.0
X340.35Y-213.0
X342.85Y-213.0
T9
X319.52Y-212.99
X322.02Y-212.99
X349.173Y-210.827
X350.969Y-209.031
X353.1Y-197.34
X353.1Y-199.88
X353.1Y-202.42
X353.1Y-204.96
T10
X312.8Y-167.175
X312.8Y-172.375
X318.0Y-167.175
X318.0Y-172.375
X327.6Y-167.2
X327.6Y-172.4
X332.8Y-167.2
X332.8Y-172.4
X342.95Y-167.3
X342.95Y-172.5
X348.15Y-167.3
X348.15Y-172.5
T11
X308.15Y-177.25
X351.85Y-189.85
T12
X315.4Y-169.775
X330.2Y-169.8
X345.55Y-169.9
T13
X307.1Y-167.3
X307.1Y-213.1
X352.85Y-167.3
X352.85Y-213.1
M30
