%TF.GenerationSoftware,KiCad,Pcbnew,9.0.0*%
%TF.CreationDate,2025-10-27T18:32:49+02:00*%
%TF.ProjectId,6L_ESC,364c5f45-5343-42e6-9b69-6361645f7063,rev?*%
%TF.SameCoordinates,Original*%
%TF.FileFunction,Copper,L4,Inr*%
%TF.FilePolarity,Positive*%
%FSLAX46Y46*%
G04 Gerber Fmt 4.6, Leading zero omitted, Abs format (unit mm)*
G04 Created by KiCad (PCBNEW 9.0.0) date 2025-10-27 18:32:49*
%MOMM*%
%LPD*%
G01*
G04 APERTURE LIST*
G04 Aperture macros list*
%AMRoundRect*
0 Rectangle with rounded corners*
0 $1 Rounding radius*
0 $2 $3 $4 $5 $6 $7 $8 $9 X,Y pos of 4 corners*
0 Add a 4 corners polygon primitive as box body*
4,1,4,$2,$3,$4,$5,$6,$7,$8,$9,$2,$3,0*
0 Add four circle primitives for the rounded corners*
1,1,$1+$1,$2,$3*
1,1,$1+$1,$4,$5*
1,1,$1+$1,$6,$7*
1,1,$1+$1,$8,$9*
0 Add four rect primitives between the rounded corners*
20,1,$1+$1,$2,$3,$4,$5,0*
20,1,$1+$1,$4,$5,$6,$7,0*
20,1,$1+$1,$6,$7,$8,$9,0*
20,1,$1+$1,$8,$9,$2,$3,0*%
%AMRotRect*
0 Rectangle, with rotation*
0 The origin of the aperture is its center*
0 $1 length*
0 $2 width*
0 $3 Rotation angle, in degrees counterclockwise*
0 Add horizontal line*
21,1,$1,$2,0,0,$3*%
G04 Aperture macros list end*
%TA.AperFunction,ComponentPad*%
%ADD10C,0.700000*%
%TD*%
%TA.AperFunction,ComponentPad*%
%ADD11RoundRect,0.780000X1.820000X-3.220000X1.820000X3.220000X-1.820000X3.220000X-1.820000X-3.220000X0*%
%TD*%
%TA.AperFunction,ComponentPad*%
%ADD12RoundRect,0.250000X0.600000X0.725000X-0.600000X0.725000X-0.600000X-0.725000X0.600000X-0.725000X0*%
%TD*%
%TA.AperFunction,ComponentPad*%
%ADD13O,1.700000X1.950000*%
%TD*%
%TA.AperFunction,ComponentPad*%
%ADD14C,0.800000*%
%TD*%
%TA.AperFunction,ComponentPad*%
%ADD15C,2.000000*%
%TD*%
%TA.AperFunction,ComponentPad*%
%ADD16RoundRect,0.333333X-3.666667X-3.666667X3.666667X-3.666667X3.666667X3.666667X-3.666667X3.666667X0*%
%TD*%
%TA.AperFunction,ComponentPad*%
%ADD17C,0.500000*%
%TD*%
%TA.AperFunction,ComponentPad*%
%ADD18RotRect,1.700000X1.700000X135.000000*%
%TD*%
%TA.AperFunction,ComponentPad*%
%ADD19C,1.700000*%
%TD*%
%TA.AperFunction,ComponentPad*%
%ADD20R,1.700000X1.700000*%
%TD*%
%TA.AperFunction,ComponentPad*%
%ADD21RoundRect,0.250000X0.600000X0.750000X-0.600000X0.750000X-0.600000X-0.750000X0.600000X-0.750000X0*%
%TD*%
%TA.AperFunction,ComponentPad*%
%ADD22O,1.700000X2.000000*%
%TD*%
%TA.AperFunction,ViaPad*%
%ADD23C,0.700000*%
%TD*%
%TA.AperFunction,ViaPad*%
%ADD24C,0.600000*%
%TD*%
%TA.AperFunction,ViaPad*%
%ADD25C,0.900000*%
%TD*%
%TA.AperFunction,ViaPad*%
%ADD26C,1.000000*%
%TD*%
G04 APERTURE END LIST*
D10*
%TO.N,/VBAT*%
%TO.C,C29*%
X306000000Y-175150000D03*
X306000000Y-176000000D03*
X306050000Y-178500000D03*
X306100000Y-179400000D03*
X306250000Y-173650000D03*
X306500000Y-180800000D03*
X306700000Y-174550000D03*
X306950000Y-179900000D03*
X307150000Y-173650000D03*
X307400000Y-180800000D03*
X307550000Y-174550000D03*
X307850000Y-179900000D03*
X308050000Y-173650000D03*
D11*
X308150000Y-177250000D03*
D10*
X308300000Y-180800000D03*
X308500000Y-174550000D03*
X308800000Y-179900000D03*
X308950000Y-173650000D03*
X309200000Y-180800000D03*
X309400000Y-174550000D03*
X309650000Y-179900000D03*
X309850000Y-173650000D03*
X310100000Y-180800000D03*
X310250000Y-175050000D03*
X310300000Y-175950000D03*
X310350000Y-178450000D03*
X310350000Y-179300000D03*
%TD*%
D12*
%TO.N,/MCLR*%
%TO.C,J2*%
X342850000Y-213000000D03*
D13*
%TO.N,/VDD*%
X340350000Y-213000000D03*
%TO.N,GND*%
X337850000Y-213000000D03*
%TO.N,/PGD*%
X335350000Y-213000000D03*
%TO.N,/PGC*%
X332850000Y-213000000D03*
%TD*%
D14*
%TO.N,/VBAT*%
%TO.C,U4*%
X322925000Y-181350000D03*
X322925000Y-180400000D03*
X322925000Y-179450000D03*
X322925000Y-178500000D03*
X320950000Y-180400000D03*
X320950000Y-179450000D03*
X320950000Y-178500000D03*
X318950000Y-181350000D03*
X318950000Y-180400000D03*
X318950000Y-179450000D03*
X318950000Y-178500000D03*
%TD*%
D10*
%TO.N,/C_motor*%
%TO.C,C1*%
X341950000Y-166300000D03*
X341950000Y-168600000D03*
X341950000Y-169450000D03*
X341950000Y-170300000D03*
X341950000Y-171150000D03*
X341950000Y-173500000D03*
X342750000Y-169050000D03*
X342750000Y-169900000D03*
X342750000Y-170750000D03*
D15*
X342950000Y-167300000D03*
X342950000Y-172500000D03*
D10*
X344200000Y-166300000D03*
X344250000Y-173500000D03*
X344600000Y-167100000D03*
X344700000Y-172700000D03*
X345050000Y-166300000D03*
X345100000Y-173500000D03*
X345450000Y-167100000D03*
D16*
X345550000Y-169900000D03*
D10*
X345550000Y-172700000D03*
X345900000Y-166300000D03*
X345950000Y-173500000D03*
X346300000Y-167100000D03*
X346400000Y-172700000D03*
X346750000Y-166300000D03*
X346800000Y-173500000D03*
D15*
X348150000Y-167300000D03*
X348150000Y-172500000D03*
D10*
X348350000Y-169100000D03*
X348350000Y-169950000D03*
X348350000Y-170800000D03*
X349150000Y-166300000D03*
X349150000Y-168700000D03*
X349150000Y-169550000D03*
X349150000Y-170400000D03*
X349150000Y-171250000D03*
X349150000Y-173500000D03*
%TD*%
%TO.N,GND*%
%TO.C,U11*%
X349700000Y-187750000D03*
X349700000Y-188600000D03*
X349750000Y-191100000D03*
X349800000Y-192000000D03*
X349950000Y-186250000D03*
X350200000Y-193400000D03*
X350400000Y-187150000D03*
X350650000Y-192500000D03*
X350850000Y-186250000D03*
X351100000Y-193400000D03*
X351250000Y-187150000D03*
X351550000Y-192500000D03*
X351750000Y-186250000D03*
D11*
X351850000Y-189850000D03*
D10*
X352000000Y-193400000D03*
X352200000Y-187150000D03*
X352500000Y-192500000D03*
X352650000Y-186250000D03*
X352900000Y-193400000D03*
X353100000Y-187150000D03*
X353350000Y-192500000D03*
X353550000Y-186250000D03*
X353800000Y-193400000D03*
X353950000Y-187650000D03*
X354000000Y-188550000D03*
X354050000Y-191050000D03*
X354050000Y-191900000D03*
%TD*%
D14*
%TO.N,/VBAT*%
%TO.C,U5*%
X335725000Y-181350000D03*
X335725000Y-180400000D03*
X335725000Y-179450000D03*
X335725000Y-178500000D03*
X333750000Y-180400000D03*
X333750000Y-179450000D03*
X333750000Y-178500000D03*
X331750000Y-181350000D03*
X331750000Y-180400000D03*
X331750000Y-179450000D03*
X331750000Y-178500000D03*
%TD*%
D17*
%TO.N,GND*%
%TO.C,U12*%
X312875000Y-206500000D03*
X312875000Y-207700000D03*
X312875000Y-208900000D03*
%TD*%
D14*
%TO.N,/VBAT*%
%TO.C,U6*%
X348425000Y-181350000D03*
X348425000Y-180400000D03*
X348425000Y-179450000D03*
X348425000Y-178500000D03*
X346450000Y-180400000D03*
X346450000Y-179450000D03*
X346450000Y-178500000D03*
X344450000Y-181350000D03*
X344450000Y-180400000D03*
X344450000Y-179450000D03*
X344450000Y-178500000D03*
%TD*%
D18*
%TO.N,GND*%
%TO.C,J8*%
X349173439Y-210826561D03*
D19*
%TO.N,/VDD*%
X350969490Y-209030510D03*
%TD*%
D10*
%TO.N,/B_motor*%
%TO.C,B1*%
X326600000Y-166200000D03*
X326600000Y-168500000D03*
X326600000Y-169350000D03*
X326600000Y-170200000D03*
X326600000Y-171050000D03*
X326600000Y-173400000D03*
X327400000Y-168950000D03*
X327400000Y-169800000D03*
X327400000Y-170650000D03*
D15*
X327600000Y-167200000D03*
X327600000Y-172400000D03*
D10*
X328850000Y-166200000D03*
X328900000Y-173400000D03*
X329250000Y-167000000D03*
X329350000Y-172600000D03*
X329700000Y-166200000D03*
X329750000Y-173400000D03*
X330100000Y-167000000D03*
D16*
X330200000Y-169800000D03*
D10*
X330200000Y-172600000D03*
X330550000Y-166200000D03*
X330600000Y-173400000D03*
X330950000Y-167000000D03*
X331050000Y-172600000D03*
X331400000Y-166200000D03*
X331450000Y-173400000D03*
D15*
X332800000Y-167200000D03*
X332800000Y-172400000D03*
D10*
X333000000Y-169000000D03*
X333000000Y-169850000D03*
X333000000Y-170700000D03*
X333800000Y-166200000D03*
X333800000Y-168600000D03*
X333800000Y-169450000D03*
X333800000Y-170300000D03*
X333800000Y-171150000D03*
X333800000Y-173400000D03*
%TD*%
D20*
%TO.N,/R_LED*%
%TO.C,J9*%
X353100000Y-204960000D03*
D19*
%TO.N,/CS*%
X353100000Y-202420000D03*
%TO.N,/U{slash}D*%
X353100000Y-199880001D03*
%TO.N,/INC*%
X353100000Y-197340000D03*
%TD*%
D10*
%TO.N,/A_motor*%
%TO.C,A1*%
X311800000Y-166175000D03*
X311800000Y-168475000D03*
X311800000Y-169325000D03*
X311800000Y-170175000D03*
X311800000Y-171025000D03*
X311800000Y-173375000D03*
X312600000Y-168925000D03*
X312600000Y-169775000D03*
X312600000Y-170625000D03*
D15*
X312800000Y-167175000D03*
X312800000Y-172375000D03*
D10*
X314050000Y-166175000D03*
X314100000Y-173375000D03*
X314450000Y-166975000D03*
X314550000Y-172575000D03*
X314900000Y-166175000D03*
X314950000Y-173375000D03*
X315300000Y-166975000D03*
D16*
X315400000Y-169775000D03*
D10*
X315400000Y-172575000D03*
X315750000Y-166175000D03*
X315800000Y-173375000D03*
X316150000Y-166975000D03*
X316250000Y-172575000D03*
X316600000Y-166175000D03*
X316650000Y-173375000D03*
D15*
X318000000Y-167175000D03*
X318000000Y-172375000D03*
D10*
X318200000Y-168975000D03*
X318200000Y-169825000D03*
X318200000Y-170675000D03*
X319000000Y-166175000D03*
X319000000Y-168575000D03*
X319000000Y-169425000D03*
X319000000Y-170275000D03*
X319000000Y-171125000D03*
X319000000Y-173375000D03*
%TD*%
D21*
%TO.N,/VDD*%
%TO.C,J4*%
X322020000Y-212990000D03*
D22*
%TO.N,GND*%
X319520000Y-212990000D03*
%TD*%
D23*
%TO.N,/A_motor*%
X321450000Y-174350000D03*
X315850000Y-174350000D03*
X313775000Y-175875000D03*
X320425000Y-175875000D03*
X313250000Y-175100000D03*
X312725000Y-175875000D03*
X314800000Y-174350000D03*
X314300000Y-175100000D03*
X313750000Y-174350000D03*
X315350000Y-175100000D03*
X315875000Y-175875000D03*
X314825000Y-175875000D03*
X322525000Y-175875000D03*
X322500000Y-174350000D03*
X321475000Y-175875000D03*
X322000000Y-175100000D03*
X320950000Y-175100000D03*
X320400000Y-174350000D03*
X312700000Y-174350000D03*
%TO.N,/B_motor*%
X328250000Y-175100000D03*
X335225000Y-175925000D03*
X333125000Y-175925000D03*
X325625000Y-175875000D03*
X333650000Y-175150000D03*
X335200000Y-174400000D03*
X326150000Y-175100000D03*
X327200000Y-175100000D03*
X328775000Y-175875000D03*
X327725000Y-175875000D03*
X334175000Y-175925000D03*
X328750000Y-174350000D03*
X325600000Y-174350000D03*
X326650000Y-174350000D03*
X327700000Y-174350000D03*
X333100000Y-174400000D03*
X334150000Y-174400000D03*
X334700000Y-175150000D03*
X326675000Y-175875000D03*
D24*
%TO.N,GND*%
X310650000Y-190765000D03*
D23*
X339875000Y-185800000D03*
X313875000Y-183425000D03*
D24*
X329612500Y-209312500D03*
X311750000Y-204950000D03*
X311600000Y-211325000D03*
X341850000Y-194425000D03*
X314400000Y-209900000D03*
D23*
X340650000Y-186275000D03*
D24*
X321000000Y-200000000D03*
X342715000Y-203060000D03*
D23*
X327150000Y-184300000D03*
D25*
X308625000Y-210825000D03*
D24*
X338825000Y-207525000D03*
X319532500Y-198045436D03*
X311750000Y-203200000D03*
X341725000Y-190500000D03*
D23*
X339280000Y-185060000D03*
D24*
X309625000Y-203725000D03*
X311600000Y-210425000D03*
X325400000Y-194450000D03*
D23*
X311925000Y-183400000D03*
X314850000Y-183450000D03*
D24*
X319507500Y-198795436D03*
D23*
X313375000Y-185650000D03*
X326550000Y-183530000D03*
D24*
X323550000Y-202550000D03*
X330750000Y-205550000D03*
D23*
X312400000Y-185650000D03*
D24*
X307325000Y-200190000D03*
D23*
X312425000Y-184150000D03*
D24*
X340475000Y-190500000D03*
D23*
X327150000Y-185840000D03*
X326350000Y-186175000D03*
D24*
X331112500Y-211762500D03*
X338240000Y-198490000D03*
X308200000Y-200200000D03*
X312850000Y-209850000D03*
D23*
X314350000Y-184175000D03*
X312925000Y-183425000D03*
D24*
X348825000Y-199187500D03*
D23*
X327674999Y-185060000D03*
D24*
X349900000Y-198250000D03*
D23*
X339280000Y-183540000D03*
D24*
X341125000Y-189975000D03*
X328360000Y-205490000D03*
D23*
X339025000Y-186275000D03*
X312900000Y-184900000D03*
D24*
X338214999Y-199339999D03*
X326600000Y-194450000D03*
D23*
X326550000Y-185050000D03*
X340414999Y-183550000D03*
X313375000Y-184150000D03*
X311925000Y-184900000D03*
D24*
X311750000Y-190750000D03*
X310575000Y-194575000D03*
D23*
X327684999Y-183540000D03*
D24*
X340312500Y-207362500D03*
D23*
X327975000Y-186150000D03*
D24*
X325400000Y-190450000D03*
X326700000Y-190450000D03*
D23*
X340404999Y-185070000D03*
D24*
X311250000Y-195000000D03*
D23*
X313825000Y-184900000D03*
D24*
X326000000Y-195050000D03*
X311900000Y-194600000D03*
X344700000Y-204325000D03*
X340450000Y-194425000D03*
X315500000Y-210800000D03*
X311750000Y-204050001D03*
X341125000Y-195025000D03*
D23*
X314875000Y-184900000D03*
X339880000Y-184310000D03*
D24*
X311200000Y-190215000D03*
D23*
X314300000Y-185650000D03*
D24*
X339275000Y-202200000D03*
X310500000Y-203750000D03*
X326050000Y-190050000D03*
D23*
%TO.N,/VBAT*%
X348400000Y-183650000D03*
X305700000Y-185025000D03*
X348900000Y-184550000D03*
X334010000Y-183480000D03*
X321250000Y-183550000D03*
X306575000Y-184525000D03*
X307100000Y-181910000D03*
X320250000Y-185070000D03*
X346550000Y-185450000D03*
X306625000Y-182675000D03*
X346000000Y-186250000D03*
X333010000Y-185000000D03*
X305780000Y-183160000D03*
X332750000Y-186400000D03*
X347450000Y-185450000D03*
X345650000Y-185450000D03*
X320760000Y-184310000D03*
D26*
X306425000Y-202650000D03*
D23*
X333520000Y-184240000D03*
X320250000Y-183550000D03*
X305910000Y-181970000D03*
X334250000Y-186350000D03*
X347000000Y-184550000D03*
X333530000Y-185780000D03*
X348400000Y-185450000D03*
X346550000Y-183650000D03*
X346050000Y-184550000D03*
X319825000Y-186125000D03*
X321240000Y-185070000D03*
X308050000Y-181910000D03*
X347900000Y-186200000D03*
X347450000Y-183650000D03*
X347950000Y-184550000D03*
X321625000Y-186125000D03*
X305780000Y-184080000D03*
X306575000Y-185425000D03*
X306575000Y-183625000D03*
X333010000Y-183480000D03*
X345650000Y-183650000D03*
X308950000Y-181900000D03*
X334000000Y-185000000D03*
X307600000Y-182650000D03*
X347000000Y-186250000D03*
X320770000Y-185850000D03*
%TO.N,/C_motor*%
X340825000Y-175150000D03*
X345950000Y-175925000D03*
X346975000Y-174400000D03*
X348050000Y-175925000D03*
X347525000Y-175150000D03*
X338725000Y-175150000D03*
X341325000Y-174400000D03*
X338200000Y-175925000D03*
X348025000Y-174400000D03*
X339250000Y-175925000D03*
X339225000Y-174400000D03*
X345925000Y-174400000D03*
X340275000Y-174400000D03*
X341350000Y-175925000D03*
X338175000Y-174400000D03*
X346475000Y-175150000D03*
X340300000Y-175925000D03*
X339775000Y-175150000D03*
X347000000Y-175925000D03*
D24*
%TO.N,/VDD*%
X344700000Y-203050000D03*
X322380000Y-205530000D03*
X332650000Y-210225000D03*
D23*
X317873334Y-205625000D03*
X316448333Y-206900001D03*
X317848334Y-203700000D03*
X315973333Y-206100001D03*
X316998334Y-205125001D03*
X317848333Y-204625000D03*
D24*
X338495000Y-200495000D03*
D23*
X316998333Y-206075000D03*
X315448333Y-206875000D03*
X314973334Y-206100001D03*
D24*
X324350000Y-201750000D03*
D23*
X316998334Y-203225001D03*
X316998334Y-204175003D03*
D24*
%TO.N,/PGD*%
X332253115Y-200202980D03*
%TO.N,/PGC*%
X331675000Y-199650000D03*
%TO.N,/MCLR*%
X334025000Y-199525000D03*
X342412500Y-209300000D03*
%TO.N,/C *%
X332890000Y-205220000D03*
X330820000Y-207590000D03*
%TO.N,/B*%
X332355384Y-204624862D03*
X324930000Y-203580000D03*
D23*
%TO.N,/LIN(0)*%
X307247500Y-191945000D03*
D24*
%TO.N,/HIN(2)*%
X337151000Y-190500000D03*
%TO.N,/LIN(1)*%
X322135000Y-191735000D03*
%TO.N,/HIN(1)*%
X322085000Y-190485000D03*
D23*
%TO.N,/HIN(0)*%
X307247500Y-190695000D03*
D24*
%TO.N,/LIN(2)*%
X337151000Y-191750000D03*
%TO.N,/A*%
X324960000Y-207490000D03*
X331290000Y-204580000D03*
%TD*%
%TA.AperFunction,Conductor*%
%TO.N,/B_motor*%
G36*
X334315677Y-165819685D02*
G01*
X334336319Y-165836319D01*
X336063681Y-167563681D01*
X336097166Y-167625004D01*
X336100000Y-167651362D01*
X336100000Y-175648638D01*
X336080315Y-175715677D01*
X336063681Y-175736319D01*
X335568719Y-176231281D01*
X335507396Y-176264766D01*
X335481038Y-176267600D01*
X325093962Y-176267600D01*
X325026923Y-176247915D01*
X325006281Y-176231281D01*
X324561319Y-175786319D01*
X324527834Y-175724996D01*
X324525000Y-175698638D01*
X324525000Y-167401362D01*
X324544685Y-167334323D01*
X324561319Y-167313681D01*
X326038681Y-165836319D01*
X326100004Y-165802834D01*
X326126362Y-165800000D01*
X334248638Y-165800000D01*
X334315677Y-165819685D01*
G37*
%TD.AperFunction*%
%TD*%
%TA.AperFunction,Conductor*%
%TO.N,/A_motor*%
G36*
X321865677Y-165819685D02*
G01*
X321886319Y-165836319D01*
X323338681Y-167288681D01*
X323372166Y-167350004D01*
X323375000Y-167376362D01*
X323375000Y-175723638D01*
X323355315Y-175790677D01*
X323338681Y-175811319D01*
X322920919Y-176229081D01*
X322859596Y-176262566D01*
X322833238Y-176265400D01*
X311916762Y-176265400D01*
X311849723Y-176245715D01*
X311829081Y-176229081D01*
X311436319Y-175836319D01*
X311402834Y-175774996D01*
X311400000Y-175748638D01*
X311400000Y-166251362D01*
X311419685Y-166184323D01*
X311436319Y-166163681D01*
X311763681Y-165836319D01*
X311825004Y-165802834D01*
X311851362Y-165800000D01*
X321798638Y-165800000D01*
X321865677Y-165819685D01*
G37*
%TD.AperFunction*%
%TD*%
%TA.AperFunction,Conductor*%
%TO.N,/VBAT*%
G36*
X310171525Y-173219712D02*
G01*
X310232049Y-173235827D01*
X310523817Y-173401163D01*
X310572438Y-173451341D01*
X310572619Y-173451688D01*
X310835936Y-173956377D01*
X310850000Y-174013735D01*
X310850000Y-175849800D01*
X310905419Y-175905219D01*
X310933919Y-175949565D01*
X310959164Y-176017248D01*
X310959166Y-176017251D01*
X310959168Y-176017257D01*
X310992653Y-176078580D01*
X311078877Y-176193761D01*
X311078881Y-176193765D01*
X311078886Y-176193771D01*
X311471623Y-176586507D01*
X311471639Y-176586523D01*
X311471655Y-176586537D01*
X311471662Y-176586544D01*
X311511880Y-176622671D01*
X311511892Y-176622681D01*
X311511900Y-176622688D01*
X311532542Y-176639322D01*
X311576426Y-176670967D01*
X311707303Y-176730738D01*
X311710396Y-176731646D01*
X311763142Y-176762942D01*
X311818920Y-176818720D01*
X347586333Y-176794785D01*
X347653385Y-176814425D01*
X347668781Y-176826093D01*
X349208366Y-178194164D01*
X349245404Y-178253409D01*
X349250000Y-178286856D01*
X349250000Y-185387300D01*
X349230315Y-185454339D01*
X349197666Y-185488493D01*
X349086798Y-185567011D01*
X348403876Y-186214819D01*
X348394287Y-186224161D01*
X348389616Y-186228834D01*
X348380303Y-186238405D01*
X348346793Y-186273761D01*
X348061648Y-186574614D01*
X348032090Y-186605800D01*
X347971686Y-186640916D01*
X347942091Y-186644500D01*
X344210978Y-186644500D01*
X344143939Y-186624815D01*
X344099409Y-186574614D01*
X344018011Y-186406794D01*
X341940867Y-182124285D01*
X341940867Y-182124284D01*
X341864205Y-182009442D01*
X341819674Y-181959240D01*
X341819670Y-181959236D01*
X341714810Y-181869433D01*
X341583935Y-181809663D01*
X341516890Y-181789976D01*
X341469417Y-181783150D01*
X341374473Y-181769500D01*
X338195084Y-181769500D01*
X338190292Y-181769535D01*
X338187617Y-181769555D01*
X338183887Y-181769610D01*
X338176449Y-181769775D01*
X338176446Y-181769775D01*
X338051442Y-181791544D01*
X338034697Y-181794460D01*
X338034695Y-181794460D01*
X338034693Y-181794461D01*
X337968272Y-181816119D01*
X337839230Y-181879733D01*
X337839229Y-181879734D01*
X337752781Y-181959240D01*
X337733323Y-181977135D01*
X337689157Y-182031262D01*
X337689148Y-182031275D01*
X337614983Y-182154556D01*
X337614979Y-182154563D01*
X336310948Y-185249323D01*
X335691466Y-186719496D01*
X335681288Y-186743650D01*
X335637116Y-186797785D01*
X335570689Y-186819446D01*
X335567018Y-186819500D01*
X331716384Y-186819500D01*
X331649345Y-186799815D01*
X331603650Y-186747144D01*
X329499785Y-182154563D01*
X329457302Y-182061825D01*
X329379562Y-181941095D01*
X329333867Y-181888424D01*
X329225331Y-181794433D01*
X329225329Y-181794432D01*
X329225328Y-181794431D01*
X329094460Y-181734664D01*
X329094455Y-181734662D01*
X329094454Y-181734662D01*
X329049761Y-181721538D01*
X329027412Y-181714976D01*
X328979939Y-181708150D01*
X328884995Y-181694500D01*
X325420070Y-181694500D01*
X325417928Y-181694505D01*
X325417829Y-181694505D01*
X325416899Y-181694509D01*
X325415278Y-181694519D01*
X325329927Y-181707454D01*
X325273025Y-181716078D01*
X325273020Y-181716079D01*
X325273008Y-181716082D01*
X325210607Y-181734921D01*
X325207023Y-181735858D01*
X325206134Y-181736272D01*
X325187807Y-181744811D01*
X325075715Y-181797037D01*
X324967699Y-181892082D01*
X324967697Y-181892084D01*
X324948370Y-181914734D01*
X324937026Y-181928030D01*
X324929170Y-181934435D01*
X324845483Y-182066860D01*
X324845481Y-182066864D01*
X324806238Y-182154556D01*
X322798531Y-186640916D01*
X322796188Y-186646151D01*
X322750837Y-186699302D01*
X322683949Y-186719496D01*
X322683005Y-186719500D01*
X318874687Y-186719500D01*
X318807648Y-186699815D01*
X318763060Y-186649494D01*
X318760644Y-186644500D01*
X316562438Y-182099894D01*
X316485721Y-181984765D01*
X316441134Y-181934445D01*
X316441131Y-181934442D01*
X316441129Y-181934440D01*
X316336087Y-181844434D01*
X316336086Y-181844433D01*
X316232306Y-181797037D01*
X316205212Y-181784663D01*
X316138167Y-181764976D01*
X316090694Y-181758150D01*
X315995750Y-181744500D01*
X310608753Y-181744500D01*
X310608738Y-181744500D01*
X310600876Y-181744561D01*
X310597608Y-181744612D01*
X310596947Y-181744623D01*
X310588949Y-181744811D01*
X310588942Y-181744811D01*
X310447248Y-181769757D01*
X310380854Y-181791544D01*
X310251935Y-181855395D01*
X310251932Y-181855397D01*
X310146219Y-181952983D01*
X310146211Y-181952992D01*
X310106167Y-182002254D01*
X310104961Y-182003590D01*
X310102143Y-182007202D01*
X310028195Y-182130640D01*
X310028194Y-182130642D01*
X308314630Y-186218438D01*
X308270558Y-186272655D01*
X308204171Y-186294439D01*
X308200271Y-186294500D01*
X306240196Y-186294500D01*
X306173157Y-186274815D01*
X306171543Y-186273761D01*
X306169879Y-186272655D01*
X305865754Y-186070458D01*
X305318347Y-185706516D01*
X305273419Y-185653007D01*
X305263000Y-185603255D01*
X305263000Y-174504910D01*
X305273579Y-174454794D01*
X305717340Y-173450492D01*
X305762438Y-173397130D01*
X305770310Y-173392343D01*
X306086748Y-173215728D01*
X306147783Y-173200007D01*
X310171525Y-173219712D01*
G37*
%TD.AperFunction*%
%TD*%
%TA.AperFunction,Conductor*%
%TO.N,/C_motor*%
G36*
X349365677Y-165919685D02*
G01*
X349386319Y-165936319D01*
X349513681Y-166063681D01*
X349547166Y-166125004D01*
X349550000Y-166151362D01*
X349550000Y-175298638D01*
X349530315Y-175365677D01*
X349513681Y-175386319D01*
X348661319Y-176238681D01*
X348599996Y-176272166D01*
X348573638Y-176275000D01*
X337676362Y-176275000D01*
X337609323Y-176255315D01*
X337588681Y-176238681D01*
X337261319Y-175911319D01*
X337227834Y-175849996D01*
X337225000Y-175823638D01*
X337225000Y-167601362D01*
X337244685Y-167534323D01*
X337261319Y-167513681D01*
X338838681Y-165936319D01*
X338900004Y-165902834D01*
X338926362Y-165900000D01*
X349298638Y-165900000D01*
X349365677Y-165919685D01*
G37*
%TD.AperFunction*%
%TD*%
%TA.AperFunction,Conductor*%
%TO.N,GND*%
G36*
X328952034Y-182219685D02*
G01*
X328997729Y-182272356D01*
X328998965Y-182275054D01*
X331312349Y-187325000D01*
X335984868Y-187325000D01*
X335984869Y-187325000D01*
X338080814Y-182350849D01*
X338124986Y-182296715D01*
X338191413Y-182275054D01*
X338195084Y-182275000D01*
X341374473Y-182275000D01*
X341441512Y-182294685D01*
X341486042Y-182344886D01*
X343816665Y-187149999D01*
X343816666Y-187150000D01*
X348212775Y-187150000D01*
X348212776Y-187150000D01*
X348212775Y-187149999D01*
X348747203Y-186586133D01*
X348751807Y-186581526D01*
X349434686Y-185933759D01*
X349496869Y-185901906D01*
X349519331Y-185899727D01*
X353928882Y-185875188D01*
X353992049Y-185892076D01*
X354228200Y-186029831D01*
X354242659Y-186045132D01*
X354260254Y-186056694D01*
X354273489Y-186077757D01*
X354276188Y-186080613D01*
X354279032Y-186086578D01*
X354358383Y-186265119D01*
X354365390Y-186285494D01*
X354446320Y-186610232D01*
X354450000Y-186640218D01*
X354450000Y-193112593D01*
X354447542Y-193137160D01*
X354209475Y-194314956D01*
X354176899Y-194376767D01*
X354176780Y-194376889D01*
X353031607Y-195553133D01*
X352970737Y-195587436D01*
X352942858Y-195590633D01*
X305387098Y-195628326D01*
X305320043Y-195608695D01*
X305274246Y-195555927D01*
X305263000Y-195504326D01*
X305263000Y-190611228D01*
X306397000Y-190611228D01*
X306397000Y-190778771D01*
X306429682Y-190943074D01*
X306429684Y-190943082D01*
X306493795Y-191097860D01*
X306586873Y-191237161D01*
X306590300Y-191241337D01*
X306617612Y-191305647D01*
X306605819Y-191374515D01*
X306590300Y-191398663D01*
X306586873Y-191402838D01*
X306493795Y-191542139D01*
X306429684Y-191696917D01*
X306429682Y-191696925D01*
X306397000Y-191861228D01*
X306397000Y-192028771D01*
X306429682Y-192193074D01*
X306429684Y-192193082D01*
X306493795Y-192347860D01*
X306586873Y-192487162D01*
X306705337Y-192605626D01*
X306797994Y-192667537D01*
X306844637Y-192698703D01*
X306999418Y-192762816D01*
X307163728Y-192795499D01*
X307163732Y-192795500D01*
X307163733Y-192795500D01*
X307331268Y-192795500D01*
X307331269Y-192795499D01*
X307495582Y-192762816D01*
X307650363Y-192698703D01*
X307789662Y-192605626D01*
X307908126Y-192487162D01*
X308001203Y-192347863D01*
X308065316Y-192193082D01*
X308098000Y-192028767D01*
X308098000Y-191861233D01*
X308065316Y-191696918D01*
X308001203Y-191542137D01*
X307908126Y-191402838D01*
X307908124Y-191402835D01*
X307904705Y-191398669D01*
X307877388Y-191334361D01*
X307889176Y-191265493D01*
X307904705Y-191241331D01*
X307908124Y-191237164D01*
X307908126Y-191237162D01*
X308001203Y-191097863D01*
X308065316Y-190943082D01*
X308098000Y-190778767D01*
X308098000Y-190611233D01*
X308065316Y-190446918D01*
X308048430Y-190406153D01*
X321284500Y-190406153D01*
X321284500Y-190563846D01*
X321315261Y-190718489D01*
X321315264Y-190718501D01*
X321375602Y-190864172D01*
X321375609Y-190864185D01*
X321463210Y-190995288D01*
X321463213Y-190995292D01*
X321515240Y-191047319D01*
X321548725Y-191108642D01*
X321543741Y-191178334D01*
X321516999Y-191219947D01*
X321517072Y-191220007D01*
X321516559Y-191220630D01*
X321515247Y-191222674D01*
X321513215Y-191224706D01*
X321513208Y-191224714D01*
X321425609Y-191355814D01*
X321425602Y-191355827D01*
X321365264Y-191501498D01*
X321365261Y-191501510D01*
X321334500Y-191656153D01*
X321334500Y-191813846D01*
X321365261Y-191968489D01*
X321365264Y-191968501D01*
X321425602Y-192114172D01*
X321425609Y-192114185D01*
X321513210Y-192245288D01*
X321513213Y-192245292D01*
X321624707Y-192356786D01*
X321624711Y-192356789D01*
X321755814Y-192444390D01*
X321755827Y-192444397D01*
X321901498Y-192504735D01*
X321901503Y-192504737D01*
X322056153Y-192535499D01*
X322056156Y-192535500D01*
X322056158Y-192535500D01*
X322213844Y-192535500D01*
X322213845Y-192535499D01*
X322368497Y-192504737D01*
X322514179Y-192444394D01*
X322645289Y-192356789D01*
X322756789Y-192245289D01*
X322844394Y-192114179D01*
X322904737Y-191968497D01*
X322935500Y-191813842D01*
X322935500Y-191656158D01*
X322935500Y-191656155D01*
X322935499Y-191656153D01*
X322912820Y-191542139D01*
X322904737Y-191501503D01*
X322862140Y-191398663D01*
X322844397Y-191355827D01*
X322844390Y-191355814D01*
X322756789Y-191224711D01*
X322756786Y-191224707D01*
X322704759Y-191172680D01*
X322671274Y-191111357D01*
X322676258Y-191041665D01*
X322703002Y-191000054D01*
X322702928Y-190999993D01*
X322703454Y-190999351D01*
X322704764Y-190997313D01*
X322706789Y-190995289D01*
X322794394Y-190864179D01*
X322854737Y-190718497D01*
X322885500Y-190563842D01*
X322885500Y-190421153D01*
X336350500Y-190421153D01*
X336350500Y-190578846D01*
X336381261Y-190733489D01*
X336381264Y-190733501D01*
X336441602Y-190879172D01*
X336441609Y-190879185D01*
X336529210Y-191010288D01*
X336529213Y-191010292D01*
X336556240Y-191037319D01*
X336589725Y-191098642D01*
X336584741Y-191168334D01*
X336556240Y-191212681D01*
X336529213Y-191239707D01*
X336529210Y-191239711D01*
X336441609Y-191370814D01*
X336441602Y-191370827D01*
X336381264Y-191516498D01*
X336381261Y-191516510D01*
X336350500Y-191671153D01*
X336350500Y-191828846D01*
X336381261Y-191983489D01*
X336381264Y-191983501D01*
X336441602Y-192129172D01*
X336441609Y-192129185D01*
X336529210Y-192260288D01*
X336529213Y-192260292D01*
X336640707Y-192371786D01*
X336640711Y-192371789D01*
X336771814Y-192459390D01*
X336771827Y-192459397D01*
X336917498Y-192519735D01*
X336917503Y-192519737D01*
X337072153Y-192550499D01*
X337072156Y-192550500D01*
X337072158Y-192550500D01*
X337229844Y-192550500D01*
X337229845Y-192550499D01*
X337384497Y-192519737D01*
X337530179Y-192459394D01*
X337661289Y-192371789D01*
X337772789Y-192260289D01*
X337860394Y-192129179D01*
X337920737Y-191983497D01*
X337951500Y-191828842D01*
X337951500Y-191671158D01*
X337951500Y-191671155D01*
X337951499Y-191671153D01*
X337920738Y-191516510D01*
X337920737Y-191516503D01*
X337871929Y-191398669D01*
X337860397Y-191370827D01*
X337860390Y-191370814D01*
X337772789Y-191239711D01*
X337772786Y-191239707D01*
X337745760Y-191212681D01*
X337712275Y-191151358D01*
X337717259Y-191081666D01*
X337745760Y-191037319D01*
X337772786Y-191010292D01*
X337772789Y-191010289D01*
X337860394Y-190879179D01*
X337920737Y-190733497D01*
X337951500Y-190578842D01*
X337951500Y-190421158D01*
X337951500Y-190421155D01*
X337951499Y-190421153D01*
X337920738Y-190266510D01*
X337920737Y-190266503D01*
X337873656Y-190152838D01*
X337860397Y-190120827D01*
X337860390Y-190120814D01*
X337772789Y-189989711D01*
X337772786Y-189989707D01*
X337661292Y-189878213D01*
X337661288Y-189878210D01*
X337530185Y-189790609D01*
X337530172Y-189790602D01*
X337384501Y-189730264D01*
X337384489Y-189730261D01*
X337229845Y-189699500D01*
X337229842Y-189699500D01*
X337072158Y-189699500D01*
X337072155Y-189699500D01*
X336917510Y-189730261D01*
X336917498Y-189730264D01*
X336771827Y-189790602D01*
X336771814Y-189790609D01*
X336640711Y-189878210D01*
X336640707Y-189878213D01*
X336529213Y-189989707D01*
X336529210Y-189989711D01*
X336441609Y-190120814D01*
X336441602Y-190120827D01*
X336381264Y-190266498D01*
X336381261Y-190266510D01*
X336350500Y-190421153D01*
X322885500Y-190421153D01*
X322885500Y-190406158D01*
X322885500Y-190406155D01*
X322885499Y-190406153D01*
X322862820Y-190292139D01*
X322854737Y-190251503D01*
X322800610Y-190120827D01*
X322794397Y-190105827D01*
X322794390Y-190105814D01*
X322706789Y-189974711D01*
X322706786Y-189974707D01*
X322595292Y-189863213D01*
X322595288Y-189863210D01*
X322464185Y-189775609D01*
X322464172Y-189775602D01*
X322318501Y-189715264D01*
X322318489Y-189715261D01*
X322163845Y-189684500D01*
X322163842Y-189684500D01*
X322006158Y-189684500D01*
X322006155Y-189684500D01*
X321851510Y-189715261D01*
X321851498Y-189715264D01*
X321705827Y-189775602D01*
X321705814Y-189775609D01*
X321574711Y-189863210D01*
X321574707Y-189863213D01*
X321463213Y-189974707D01*
X321463210Y-189974711D01*
X321375609Y-190105814D01*
X321375602Y-190105827D01*
X321315264Y-190251498D01*
X321315261Y-190251510D01*
X321284500Y-190406153D01*
X308048430Y-190406153D01*
X308001203Y-190292137D01*
X307970037Y-190245494D01*
X307908126Y-190152837D01*
X307789662Y-190034373D01*
X307650360Y-189941295D01*
X307495582Y-189877184D01*
X307495574Y-189877182D01*
X307331271Y-189844500D01*
X307331267Y-189844500D01*
X307163733Y-189844500D01*
X307163728Y-189844500D01*
X306999425Y-189877182D01*
X306999417Y-189877184D01*
X306844639Y-189941295D01*
X306705337Y-190034373D01*
X306586873Y-190152837D01*
X306493795Y-190292139D01*
X306429684Y-190446917D01*
X306429682Y-190446925D01*
X306397000Y-190611228D01*
X305263000Y-190611228D01*
X305263000Y-186924000D01*
X305282685Y-186856961D01*
X305335489Y-186811206D01*
X305387000Y-186800000D01*
X308618962Y-186800000D01*
X308618963Y-186800000D01*
X310494394Y-182326062D01*
X310538466Y-182271845D01*
X310604853Y-182250061D01*
X310608753Y-182250000D01*
X315995750Y-182250000D01*
X316062789Y-182269685D01*
X316107376Y-182320005D01*
X318479901Y-187225000D01*
X323090954Y-187225000D01*
X323090955Y-187225000D01*
X325306887Y-182273348D01*
X325352238Y-182220198D01*
X325419126Y-182200004D01*
X325420070Y-182200000D01*
X328884995Y-182200000D01*
X328952034Y-182219685D01*
G37*
%TD.AperFunction*%
%TD*%
%TA.AperFunction,Conductor*%
%TO.N,/VDD*%
G36*
X320401971Y-200019685D02*
G01*
X320447726Y-200072489D01*
X320454705Y-200091901D01*
X320466977Y-200137699D01*
X320487017Y-200212488D01*
X320559488Y-200338011D01*
X320559490Y-200338013D01*
X320559491Y-200338015D01*
X320661985Y-200440509D01*
X320661986Y-200440510D01*
X320661988Y-200440511D01*
X320787511Y-200512982D01*
X320787512Y-200512982D01*
X320787515Y-200512984D01*
X320927525Y-200550500D01*
X320927528Y-200550500D01*
X321072472Y-200550500D01*
X321072475Y-200550500D01*
X321212485Y-200512984D01*
X321338015Y-200440509D01*
X321440509Y-200338015D01*
X321512984Y-200212485D01*
X321545293Y-200091904D01*
X321581658Y-200032246D01*
X321644506Y-200001717D01*
X321665068Y-200000000D01*
X331195114Y-200000000D01*
X331262153Y-200019685D01*
X331282795Y-200036319D01*
X331336985Y-200090509D01*
X331336986Y-200090510D01*
X331336988Y-200090511D01*
X331462511Y-200162982D01*
X331462512Y-200162982D01*
X331462515Y-200162984D01*
X331602525Y-200200500D01*
X331602538Y-200200500D01*
X331603307Y-200200602D01*
X331603919Y-200200873D01*
X331610376Y-200202603D01*
X331610106Y-200203609D01*
X331667204Y-200228866D01*
X331705678Y-200287189D01*
X331706891Y-200291414D01*
X331719379Y-200338017D01*
X331740132Y-200415468D01*
X331812603Y-200540991D01*
X331812605Y-200540993D01*
X331812606Y-200540995D01*
X331915100Y-200643489D01*
X331915101Y-200643490D01*
X331915103Y-200643491D01*
X332040626Y-200715962D01*
X332040627Y-200715962D01*
X332040630Y-200715964D01*
X332180640Y-200753480D01*
X332180643Y-200753480D01*
X332325587Y-200753480D01*
X332325590Y-200753480D01*
X332465600Y-200715964D01*
X332591130Y-200643489D01*
X332693624Y-200540995D01*
X332766099Y-200415465D01*
X332803615Y-200275455D01*
X332803615Y-200130505D01*
X332803615Y-200124000D01*
X332823300Y-200056961D01*
X332876104Y-200011206D01*
X332927615Y-200000000D01*
X333713499Y-200000000D01*
X333775498Y-200016612D01*
X333812515Y-200037984D01*
X333952525Y-200075500D01*
X333952528Y-200075500D01*
X334097472Y-200075500D01*
X334097475Y-200075500D01*
X334237485Y-200037984D01*
X334274501Y-200016612D01*
X334336501Y-200000000D01*
X351898882Y-200000000D01*
X351965921Y-200019685D01*
X352011676Y-200072489D01*
X352021355Y-200104601D01*
X352026597Y-200137699D01*
X352026598Y-200137702D01*
X352080127Y-200302446D01*
X352158768Y-200456789D01*
X352260586Y-200596929D01*
X352383072Y-200719415D01*
X352523212Y-200821233D01*
X352677555Y-200899874D01*
X352842299Y-200953403D01*
X353013389Y-200980501D01*
X353013390Y-200980501D01*
X353186610Y-200980501D01*
X353186611Y-200980501D01*
X353357701Y-200953403D01*
X353522445Y-200899874D01*
X353676788Y-200821233D01*
X353816928Y-200719415D01*
X353939414Y-200596929D01*
X354041232Y-200456789D01*
X354119873Y-200302446D01*
X354173402Y-200137702D01*
X354178645Y-200104601D01*
X354208575Y-200041467D01*
X354267887Y-200004536D01*
X354301118Y-200000000D01*
X354563000Y-200000000D01*
X354630039Y-200019685D01*
X354675794Y-200072489D01*
X354687000Y-200124000D01*
X354687000Y-213632624D01*
X354686618Y-213642353D01*
X354672382Y-213823235D01*
X354669338Y-213842454D01*
X354628122Y-214014129D01*
X354622109Y-214032634D01*
X354554546Y-214195746D01*
X354545712Y-214213083D01*
X354453466Y-214363615D01*
X354442029Y-214379357D01*
X354327367Y-214513609D01*
X354313609Y-214527367D01*
X354179357Y-214642029D01*
X354163615Y-214653466D01*
X354013083Y-214745712D01*
X353995746Y-214754546D01*
X353832634Y-214822109D01*
X353814129Y-214828122D01*
X353642454Y-214869338D01*
X353623235Y-214872382D01*
X353442354Y-214886618D01*
X353432625Y-214887000D01*
X313269453Y-214887000D01*
X313202414Y-214867315D01*
X313156659Y-214814511D01*
X313145456Y-214763924D01*
X313130514Y-212753389D01*
X318419500Y-212753389D01*
X318419500Y-213226610D01*
X318444221Y-213382697D01*
X318446598Y-213397701D01*
X318500127Y-213562445D01*
X318578768Y-213716788D01*
X318680586Y-213856928D01*
X318803072Y-213979414D01*
X318943212Y-214081232D01*
X319097555Y-214159873D01*
X319262299Y-214213402D01*
X319433389Y-214240500D01*
X319433390Y-214240500D01*
X319606610Y-214240500D01*
X319606611Y-214240500D01*
X319777701Y-214213402D01*
X319942445Y-214159873D01*
X320096788Y-214081232D01*
X320236928Y-213979414D01*
X320359414Y-213856928D01*
X320447006Y-213736367D01*
X320502336Y-213693702D01*
X320571949Y-213687723D01*
X320633744Y-213720329D01*
X320668101Y-213781167D01*
X320670682Y-213796651D01*
X320680494Y-213892697D01*
X320735641Y-214059119D01*
X320735643Y-214059124D01*
X320827684Y-214208345D01*
X320951654Y-214332315D01*
X321100875Y-214424356D01*
X321100880Y-214424358D01*
X321267302Y-214479505D01*
X321267309Y-214479506D01*
X321370019Y-214489999D01*
X321619999Y-214489999D01*
X322420000Y-214489999D01*
X322669972Y-214489999D01*
X322669986Y-214489998D01*
X322772697Y-214479505D01*
X322939119Y-214424358D01*
X322939124Y-214424356D01*
X323088345Y-214332315D01*
X323212315Y-214208345D01*
X323304356Y-214059124D01*
X323304358Y-214059119D01*
X323359505Y-213892697D01*
X323359506Y-213892690D01*
X323369999Y-213789986D01*
X323370000Y-213789973D01*
X323370000Y-213390000D01*
X322420000Y-213390000D01*
X322420000Y-214489999D01*
X321619999Y-214489999D01*
X321620000Y-214489998D01*
X321620000Y-213297106D01*
X321712993Y-213390099D01*
X321827007Y-213455925D01*
X321954174Y-213490000D01*
X322085826Y-213490000D01*
X322212993Y-213455925D01*
X322327007Y-213390099D01*
X322420099Y-213297007D01*
X322485925Y-213182993D01*
X322520000Y-213055826D01*
X322520000Y-212924174D01*
X322485925Y-212797007D01*
X322480949Y-212788389D01*
X331749500Y-212788389D01*
X331749500Y-213211611D01*
X331776598Y-213382701D01*
X331830127Y-213547445D01*
X331908768Y-213701788D01*
X332010586Y-213841928D01*
X332133072Y-213964414D01*
X332273212Y-214066232D01*
X332427555Y-214144873D01*
X332592299Y-214198402D01*
X332763389Y-214225500D01*
X332763390Y-214225500D01*
X332936610Y-214225500D01*
X332936611Y-214225500D01*
X333107701Y-214198402D01*
X333272445Y-214144873D01*
X333426788Y-214066232D01*
X333566928Y-213964414D01*
X333689414Y-213841928D01*
X333791232Y-213701788D01*
X333869873Y-213547445D01*
X333923402Y-213382701D01*
X333950500Y-213211611D01*
X333950500Y-212788389D01*
X334249500Y-212788389D01*
X334249500Y-213211611D01*
X334276598Y-213382701D01*
X334330127Y-213547445D01*
X334408768Y-213701788D01*
X334510586Y-213841928D01*
X334633072Y-213964414D01*
X334773212Y-214066232D01*
X334927555Y-214144873D01*
X335092299Y-214198402D01*
X335263389Y-214225500D01*
X335263390Y-214225500D01*
X335436610Y-214225500D01*
X335436611Y-214225500D01*
X335607701Y-214198402D01*
X335772445Y-214144873D01*
X335926788Y-214066232D01*
X336066928Y-213964414D01*
X336189414Y-213841928D01*
X336291232Y-213701788D01*
X336369873Y-213547445D01*
X336423402Y-213382701D01*
X336450500Y-213211611D01*
X336450500Y-212788389D01*
X336749500Y-212788389D01*
X336749500Y-213211611D01*
X336776598Y-213382701D01*
X336830127Y-213547445D01*
X336908768Y-213701788D01*
X337010586Y-213841928D01*
X337133072Y-213964414D01*
X337273212Y-214066232D01*
X337427555Y-214144873D01*
X337592299Y-214198402D01*
X337763389Y-214225500D01*
X337763390Y-214225500D01*
X337936610Y-214225500D01*
X337936611Y-214225500D01*
X338107701Y-214198402D01*
X338272445Y-214144873D01*
X338426788Y-214066232D01*
X338566928Y-213964414D01*
X338689414Y-213841928D01*
X338791232Y-213701788D01*
X338854814Y-213576999D01*
X338902788Y-213526204D01*
X338970609Y-213509408D01*
X339036744Y-213531945D01*
X339080196Y-213586660D01*
X339083230Y-213594976D01*
X339098904Y-213643217D01*
X339195379Y-213832557D01*
X339320272Y-214004459D01*
X339320276Y-214004464D01*
X339470535Y-214154723D01*
X339470540Y-214154727D01*
X339642442Y-214279620D01*
X339831779Y-214376094D01*
X339831785Y-214376096D01*
X339949999Y-214414505D01*
X339950000Y-214414505D01*
X339950000Y-213257180D01*
X339969905Y-213291657D01*
X340058343Y-213380095D01*
X340166657Y-213442630D01*
X340287465Y-213475000D01*
X340412535Y-213475000D01*
X340533343Y-213442630D01*
X340641657Y-213380095D01*
X340730095Y-213291657D01*
X340750000Y-213257180D01*
X340750000Y-214414505D01*
X340868214Y-214376096D01*
X340868220Y-214376094D01*
X341057557Y-214279620D01*
X341229459Y-214154727D01*
X341229464Y-214154723D01*
X341379723Y-214004464D01*
X341379727Y-214004459D01*
X341504622Y-213832555D01*
X341522910Y-213796664D01*
X341570884Y-213745867D01*
X341638705Y-213729072D01*
X341704840Y-213751609D01*
X341748292Y-213806324D01*
X341753039Y-213825188D01*
X341754124Y-213824932D01*
X341755907Y-213832479D01*
X341806202Y-213967328D01*
X341806206Y-213967335D01*
X341892452Y-214082544D01*
X341892455Y-214082547D01*
X342007664Y-214168793D01*
X342007671Y-214168797D01*
X342142517Y-214219091D01*
X342142516Y-214219091D01*
X342149444Y-214219835D01*
X342202127Y-214225500D01*
X343497872Y-214225499D01*
X343557483Y-214219091D01*
X343692331Y-214168796D01*
X343807546Y-214082546D01*
X343893796Y-213967331D01*
X343944091Y-213832483D01*
X343950500Y-213772873D01*
X343950499Y-212997648D01*
X351549500Y-212997648D01*
X351549500Y-213202351D01*
X351581522Y-213404534D01*
X351644781Y-213599223D01*
X351704684Y-213716788D01*
X351737487Y-213781167D01*
X351737715Y-213781613D01*
X351858028Y-213947213D01*
X352002786Y-214091971D01*
X352145623Y-214195746D01*
X352168390Y-214212287D01*
X352284607Y-214271503D01*
X352350776Y-214305218D01*
X352350778Y-214305218D01*
X352350781Y-214305220D01*
X352434171Y-214332315D01*
X352545465Y-214368477D01*
X352646557Y-214384488D01*
X352747648Y-214400500D01*
X352747649Y-214400500D01*
X352952351Y-214400500D01*
X352952352Y-214400500D01*
X353154534Y-214368477D01*
X353349219Y-214305220D01*
X353531610Y-214212287D01*
X353624590Y-214144732D01*
X353697213Y-214091971D01*
X353697215Y-214091968D01*
X353697219Y-214091966D01*
X353841966Y-213947219D01*
X353841968Y-213947215D01*
X353841971Y-213947213D01*
X353907566Y-213856928D01*
X353962287Y-213781610D01*
X354055220Y-213599219D01*
X354118477Y-213404534D01*
X354150500Y-213202352D01*
X354150500Y-212997648D01*
X354138863Y-212924174D01*
X354118477Y-212795465D01*
X354081932Y-212682993D01*
X354055220Y-212600781D01*
X354055218Y-212600778D01*
X354055218Y-212600776D01*
X353998774Y-212490000D01*
X353962287Y-212418390D01*
X353917526Y-212356781D01*
X353841971Y-212252786D01*
X353697213Y-212108028D01*
X353531613Y-211987715D01*
X353531612Y-211987714D01*
X353531610Y-211987713D01*
X353474653Y-211958691D01*
X353349223Y-211894781D01*
X353154534Y-211831522D01*
X352965598Y-211801598D01*
X352952352Y-211799500D01*
X352747648Y-211799500D01*
X352734402Y-211801598D01*
X352545465Y-211831522D01*
X352350776Y-211894781D01*
X352168386Y-211987715D01*
X352002786Y-212108028D01*
X351858028Y-212252786D01*
X351737715Y-212418386D01*
X351644781Y-212600776D01*
X351581522Y-212795465D01*
X351549500Y-212997648D01*
X343950499Y-212997648D01*
X343950499Y-212227128D01*
X343944091Y-212167517D01*
X343940568Y-212158072D01*
X343893797Y-212032671D01*
X343893793Y-212032664D01*
X343807547Y-211917455D01*
X343807544Y-211917452D01*
X343692335Y-211831206D01*
X343692328Y-211831202D01*
X343557482Y-211780908D01*
X343557483Y-211780908D01*
X343497883Y-211774501D01*
X343497881Y-211774500D01*
X343497873Y-211774500D01*
X343497864Y-211774500D01*
X342202129Y-211774500D01*
X342202123Y-211774501D01*
X342142516Y-211780908D01*
X342007671Y-211831202D01*
X342007664Y-211831206D01*
X341892455Y-211917452D01*
X341892452Y-211917455D01*
X341806206Y-212032664D01*
X341806202Y-212032671D01*
X341755908Y-212167517D01*
X341754126Y-212175062D01*
X341750925Y-212174305D01*
X341729791Y-212225041D01*
X341672319Y-212264774D01*
X341602489Y-212267129D01*
X341542471Y-212231356D01*
X341522910Y-212203336D01*
X341504622Y-212167444D01*
X341379727Y-211995540D01*
X341379723Y-211995535D01*
X341229464Y-211845276D01*
X341229459Y-211845272D01*
X341057557Y-211720379D01*
X340868222Y-211623907D01*
X340750000Y-211585494D01*
X340750000Y-212742819D01*
X340730095Y-212708343D01*
X340641657Y-212619905D01*
X340533343Y-212557370D01*
X340412535Y-212525000D01*
X340287465Y-212525000D01*
X340166657Y-212557370D01*
X340058343Y-212619905D01*
X339969905Y-212708343D01*
X339950000Y-212742819D01*
X339950000Y-211585494D01*
X339949999Y-211585494D01*
X339831777Y-211623907D01*
X339642442Y-211720379D01*
X339470540Y-211845272D01*
X339470535Y-211845276D01*
X339320276Y-211995535D01*
X339320272Y-211995540D01*
X339195379Y-212167442D01*
X339098905Y-212356781D01*
X339083230Y-212405024D01*
X339043792Y-212462699D01*
X338979433Y-212489897D01*
X338910587Y-212477982D01*
X338859111Y-212430738D01*
X338854814Y-212422999D01*
X338791233Y-212298213D01*
X338758224Y-212252781D01*
X338689414Y-212158072D01*
X338566928Y-212035586D01*
X338426788Y-211933768D01*
X338272445Y-211855127D01*
X338107701Y-211801598D01*
X338107699Y-211801597D01*
X338107698Y-211801597D01*
X337976271Y-211780781D01*
X337936611Y-211774500D01*
X337763389Y-211774500D01*
X337723728Y-211780781D01*
X337592302Y-211801597D01*
X337427552Y-211855128D01*
X337273211Y-211933768D01*
X337193256Y-211991859D01*
X337133072Y-212035586D01*
X337133070Y-212035588D01*
X337133069Y-212035588D01*
X337010588Y-212158069D01*
X337010588Y-212158070D01*
X337010586Y-212158072D01*
X336977937Y-212203009D01*
X336908768Y-212298211D01*
X336830128Y-212452552D01*
X336776597Y-212617302D01*
X336776185Y-212619905D01*
X336749500Y-212788389D01*
X336450500Y-212788389D01*
X336423402Y-212617299D01*
X336369873Y-212452555D01*
X336291232Y-212298212D01*
X336189414Y-212158072D01*
X336066928Y-212035586D01*
X335926788Y-211933768D01*
X335772445Y-211855127D01*
X335607701Y-211801598D01*
X335607699Y-211801597D01*
X335607698Y-211801597D01*
X335476271Y-211780781D01*
X335436611Y-211774500D01*
X335263389Y-211774500D01*
X335223728Y-211780781D01*
X335092302Y-211801597D01*
X334927552Y-211855128D01*
X334773211Y-211933768D01*
X334693256Y-211991859D01*
X334633072Y-212035586D01*
X334633070Y-212035588D01*
X334633069Y-212035588D01*
X334510588Y-212158069D01*
X334510588Y-212158070D01*
X334510586Y-212158072D01*
X334477937Y-212203009D01*
X334408768Y-212298211D01*
X334330128Y-212452552D01*
X334276597Y-212617302D01*
X334276185Y-212619905D01*
X334249500Y-212788389D01*
X333950500Y-212788389D01*
X333923402Y-212617299D01*
X333869873Y-212452555D01*
X333791232Y-212298212D01*
X333689414Y-212158072D01*
X333566928Y-212035586D01*
X333426788Y-211933768D01*
X333272445Y-211855127D01*
X333107701Y-211801598D01*
X333107699Y-211801597D01*
X333107698Y-211801597D01*
X332976271Y-211780781D01*
X332936611Y-211774500D01*
X332763389Y-211774500D01*
X332723728Y-211780781D01*
X332592302Y-211801597D01*
X332427552Y-211855128D01*
X332273211Y-211933768D01*
X332193256Y-211991859D01*
X332133072Y-212035586D01*
X332133070Y-212035588D01*
X332133069Y-212035588D01*
X332010588Y-212158069D01*
X332010588Y-212158070D01*
X332010586Y-212158072D01*
X331977937Y-212203009D01*
X331908768Y-212298211D01*
X331830128Y-212452552D01*
X331776597Y-212617302D01*
X331776185Y-212619905D01*
X331749500Y-212788389D01*
X322480949Y-212788389D01*
X322420099Y-212682993D01*
X322327106Y-212590000D01*
X322420000Y-212590000D01*
X323369999Y-212590000D01*
X323369999Y-212190028D01*
X323369998Y-212190013D01*
X323359505Y-212087302D01*
X323304358Y-211920880D01*
X323304356Y-211920875D01*
X323212315Y-211771654D01*
X323130686Y-211690025D01*
X330562000Y-211690025D01*
X330562000Y-211834975D01*
X330588472Y-211933768D01*
X330599517Y-211974988D01*
X330671988Y-212100511D01*
X330671990Y-212100513D01*
X330671991Y-212100515D01*
X330774485Y-212203009D01*
X330774486Y-212203010D01*
X330774488Y-212203011D01*
X330900011Y-212275482D01*
X330900012Y-212275482D01*
X330900015Y-212275484D01*
X331040025Y-212313000D01*
X331040028Y-212313000D01*
X331184972Y-212313000D01*
X331184975Y-212313000D01*
X331324985Y-212275484D01*
X331450515Y-212203009D01*
X331553009Y-212100515D01*
X331625484Y-211974985D01*
X331663000Y-211834975D01*
X331663000Y-211690025D01*
X331625484Y-211550015D01*
X331596892Y-211500493D01*
X331553011Y-211424488D01*
X331553006Y-211424482D01*
X331450517Y-211321993D01*
X331450511Y-211321988D01*
X331324988Y-211249517D01*
X331324989Y-211249517D01*
X331291378Y-211240511D01*
X331184975Y-211212000D01*
X331040025Y-211212000D01*
X330933622Y-211240511D01*
X330900011Y-211249517D01*
X330774488Y-211321988D01*
X330774482Y-211321993D01*
X330671993Y-211424482D01*
X330671988Y-211424488D01*
X330599517Y-211550011D01*
X330598008Y-211555643D01*
X330562000Y-211690025D01*
X323130686Y-211690025D01*
X323088345Y-211647684D01*
X322939124Y-211555643D01*
X322939119Y-211555641D01*
X322772697Y-211500494D01*
X322772690Y-211500493D01*
X322669986Y-211490000D01*
X322420000Y-211490000D01*
X322420000Y-212590000D01*
X322327106Y-212590000D01*
X322327007Y-212589901D01*
X322212993Y-212524075D01*
X322085826Y-212490000D01*
X321954174Y-212490000D01*
X321827007Y-212524075D01*
X321712993Y-212589901D01*
X321620000Y-212682894D01*
X321620000Y-211490000D01*
X321370029Y-211490000D01*
X321370012Y-211490001D01*
X321267302Y-211500494D01*
X321100880Y-211555641D01*
X321100875Y-211555643D01*
X320951654Y-211647684D01*
X320827684Y-211771654D01*
X320735643Y-211920875D01*
X320735641Y-211920880D01*
X320680494Y-212087302D01*
X320680493Y-212087309D01*
X320670681Y-212183349D01*
X320644284Y-212248040D01*
X320587103Y-212288191D01*
X320517292Y-212291054D01*
X320457016Y-212255719D01*
X320447009Y-212243636D01*
X320359414Y-212123072D01*
X320236928Y-212000586D01*
X320096788Y-211898768D01*
X319942445Y-211820127D01*
X319777701Y-211766598D01*
X319777699Y-211766597D01*
X319777698Y-211766597D01*
X319646271Y-211745781D01*
X319606611Y-211739500D01*
X319433389Y-211739500D01*
X319393728Y-211745781D01*
X319262302Y-211766597D01*
X319097552Y-211820128D01*
X318943211Y-211898768D01*
X318863256Y-211956859D01*
X318803072Y-212000586D01*
X318803070Y-212000588D01*
X318803069Y-212000588D01*
X318680588Y-212123069D01*
X318680588Y-212123070D01*
X318680586Y-212123072D01*
X318648295Y-212167517D01*
X318578768Y-212263211D01*
X318500128Y-212417552D01*
X318446597Y-212582302D01*
X318419500Y-212753389D01*
X313130514Y-212753389D01*
X313115458Y-210727525D01*
X314949500Y-210727525D01*
X314949500Y-210872475D01*
X314987016Y-211012485D01*
X314987017Y-211012488D01*
X315059488Y-211138011D01*
X315059490Y-211138013D01*
X315059491Y-211138015D01*
X315161985Y-211240509D01*
X315161986Y-211240510D01*
X315161988Y-211240511D01*
X315287511Y-211312982D01*
X315287512Y-211312982D01*
X315287515Y-211312984D01*
X315427525Y-211350500D01*
X315427528Y-211350500D01*
X315572472Y-211350500D01*
X315572475Y-211350500D01*
X315712485Y-211312984D01*
X315838015Y-211240509D01*
X315940509Y-211138015D01*
X316012984Y-211012485D01*
X316050500Y-210872475D01*
X316050500Y-210826561D01*
X347715949Y-210826561D01*
X347735392Y-210924302D01*
X347762922Y-210965504D01*
X347776781Y-210986246D01*
X349013753Y-212223218D01*
X349013756Y-212223220D01*
X349075698Y-212264608D01*
X349173439Y-212284051D01*
X349271180Y-212264608D01*
X349333122Y-212223220D01*
X350570098Y-210986244D01*
X350611486Y-210924302D01*
X350630929Y-210826561D01*
X350611486Y-210728820D01*
X350570098Y-210666878D01*
X350570096Y-210666875D01*
X350421800Y-210518579D01*
X350388315Y-210457256D01*
X350393299Y-210387564D01*
X350435171Y-210331631D01*
X350466314Y-210320015D01*
X351369490Y-210320015D01*
X351487704Y-210281606D01*
X351487710Y-210281604D01*
X351677047Y-210185130D01*
X351848949Y-210060237D01*
X351848954Y-210060233D01*
X351999213Y-209909974D01*
X351999217Y-209909969D01*
X352124110Y-209738067D01*
X352220582Y-209548732D01*
X352258996Y-209430510D01*
X351369490Y-209430510D01*
X351369490Y-210320015D01*
X350466314Y-210320015D01*
X350500635Y-210307214D01*
X350547799Y-210312967D01*
X350569490Y-210320014D01*
X350569490Y-209430510D01*
X349679984Y-209430510D01*
X349687031Y-209452199D01*
X349689026Y-209522040D01*
X349652945Y-209581873D01*
X349590244Y-209612701D01*
X349520830Y-209604736D01*
X349481419Y-209578198D01*
X349333124Y-209429903D01*
X349312382Y-209416044D01*
X349271180Y-209388514D01*
X349173439Y-209369071D01*
X349075698Y-209388514D01*
X349013753Y-209429903D01*
X347776781Y-210666875D01*
X347736257Y-210727525D01*
X347735392Y-210728820D01*
X347715949Y-210826561D01*
X316050500Y-210826561D01*
X316050500Y-210727525D01*
X316012984Y-210587515D01*
X315940509Y-210461985D01*
X315838015Y-210359491D01*
X315838013Y-210359490D01*
X315838011Y-210359488D01*
X315712488Y-210287017D01*
X315712489Y-210287017D01*
X315692287Y-210281604D01*
X315572475Y-210249500D01*
X315427525Y-210249500D01*
X315307713Y-210281604D01*
X315287511Y-210287017D01*
X315161988Y-210359488D01*
X315161982Y-210359493D01*
X315059493Y-210461982D01*
X315059488Y-210461988D01*
X314987017Y-210587511D01*
X314987016Y-210587515D01*
X314949500Y-210727525D01*
X313115458Y-210727525D01*
X313113071Y-210406288D01*
X313132256Y-210339109D01*
X313175071Y-210297982D01*
X313188015Y-210290509D01*
X313290509Y-210188015D01*
X313362984Y-210062485D01*
X313400500Y-209922475D01*
X313400500Y-209827525D01*
X313849500Y-209827525D01*
X313849500Y-209972475D01*
X313887016Y-210112485D01*
X313887017Y-210112488D01*
X313959488Y-210238011D01*
X313959490Y-210238013D01*
X313959491Y-210238015D01*
X314061985Y-210340509D01*
X314061986Y-210340510D01*
X314061988Y-210340511D01*
X314187511Y-210412982D01*
X314187512Y-210412982D01*
X314187515Y-210412984D01*
X314327525Y-210450500D01*
X314327528Y-210450500D01*
X314472472Y-210450500D01*
X314472475Y-210450500D01*
X314612485Y-210412984D01*
X314738015Y-210340509D01*
X314840509Y-210238015D01*
X314912984Y-210112485D01*
X314950500Y-209972475D01*
X314950500Y-209827525D01*
X314912984Y-209687515D01*
X314884406Y-209638017D01*
X314840511Y-209561988D01*
X314840506Y-209561982D01*
X314738017Y-209459493D01*
X314738011Y-209459488D01*
X314612488Y-209387017D01*
X314612489Y-209387017D01*
X314580707Y-209378501D01*
X314472475Y-209349500D01*
X314327525Y-209349500D01*
X314198993Y-209383940D01*
X314187511Y-209387017D01*
X314061988Y-209459488D01*
X314061982Y-209459493D01*
X313959493Y-209561982D01*
X313959488Y-209561988D01*
X313887017Y-209687511D01*
X313887016Y-209687515D01*
X313849500Y-209827525D01*
X313400500Y-209827525D01*
X313400500Y-209777525D01*
X313362984Y-209637515D01*
X313319378Y-209561988D01*
X313290511Y-209511988D01*
X313290510Y-209511987D01*
X313290509Y-209511985D01*
X313218349Y-209439825D01*
X313184865Y-209378501D01*
X313189850Y-209308810D01*
X313218346Y-209264467D01*
X313242788Y-209240025D01*
X329062000Y-209240025D01*
X329062000Y-209384975D01*
X329098727Y-209522040D01*
X329099517Y-209524988D01*
X329171988Y-209650511D01*
X329171990Y-209650513D01*
X329171991Y-209650515D01*
X329274485Y-209753009D01*
X329274486Y-209753010D01*
X329274488Y-209753011D01*
X329400011Y-209825482D01*
X329400012Y-209825482D01*
X329400015Y-209825484D01*
X329540025Y-209863000D01*
X329540028Y-209863000D01*
X329684972Y-209863000D01*
X329684975Y-209863000D01*
X329824985Y-209825484D01*
X329950515Y-209753009D01*
X330053009Y-209650515D01*
X330125484Y-209524985D01*
X330163000Y-209384975D01*
X330163000Y-209240025D01*
X330159651Y-209227525D01*
X341862000Y-209227525D01*
X341862000Y-209372475D01*
X341899382Y-209511985D01*
X341899517Y-209512488D01*
X341971988Y-209638011D01*
X341971990Y-209638013D01*
X341971991Y-209638015D01*
X342074485Y-209740509D01*
X342074486Y-209740510D01*
X342074488Y-209740511D01*
X342200011Y-209812982D01*
X342200012Y-209812982D01*
X342200015Y-209812984D01*
X342340025Y-209850500D01*
X342340028Y-209850500D01*
X342484972Y-209850500D01*
X342484975Y-209850500D01*
X342624985Y-209812984D01*
X342750515Y-209740509D01*
X342853009Y-209638015D01*
X342925484Y-209512485D01*
X342963000Y-209372475D01*
X342963000Y-209227525D01*
X342925484Y-209087515D01*
X342854567Y-208964684D01*
X350469490Y-208964684D01*
X350469490Y-209096336D01*
X350503565Y-209223503D01*
X350569391Y-209337517D01*
X350662483Y-209430609D01*
X350776497Y-209496435D01*
X350903664Y-209530510D01*
X351035316Y-209530510D01*
X351162483Y-209496435D01*
X351276497Y-209430609D01*
X351369589Y-209337517D01*
X351435415Y-209223503D01*
X351469490Y-209096336D01*
X351469490Y-208964684D01*
X351435415Y-208837517D01*
X351369589Y-208723503D01*
X351276596Y-208630510D01*
X351369490Y-208630510D01*
X352258996Y-208630510D01*
X352258995Y-208630509D01*
X352220582Y-208512287D01*
X352124110Y-208322952D01*
X351999217Y-208151050D01*
X351999213Y-208151045D01*
X351848954Y-208000786D01*
X351848949Y-208000782D01*
X351677047Y-207875889D01*
X351487712Y-207779417D01*
X351369490Y-207741004D01*
X351369490Y-208630510D01*
X351276596Y-208630510D01*
X351276497Y-208630411D01*
X351162483Y-208564585D01*
X351035316Y-208530510D01*
X350903664Y-208530510D01*
X350776497Y-208564585D01*
X350662483Y-208630411D01*
X350569391Y-208723503D01*
X350503565Y-208837517D01*
X350469490Y-208964684D01*
X342854567Y-208964684D01*
X342853011Y-208961988D01*
X342853006Y-208961982D01*
X342750517Y-208859493D01*
X342750511Y-208859488D01*
X342624988Y-208787017D01*
X342624989Y-208787017D01*
X342618838Y-208785369D01*
X342484975Y-208749500D01*
X342340025Y-208749500D01*
X342211493Y-208783940D01*
X342200011Y-208787017D01*
X342074488Y-208859488D01*
X342074482Y-208859493D01*
X341971993Y-208961982D01*
X341971988Y-208961988D01*
X341899517Y-209087511D01*
X341899516Y-209087515D01*
X341862000Y-209227525D01*
X330159651Y-209227525D01*
X330125484Y-209100015D01*
X330121541Y-209093186D01*
X330053011Y-208974488D01*
X330053006Y-208974482D01*
X329950517Y-208871993D01*
X329950511Y-208871988D01*
X329824988Y-208799517D01*
X329824989Y-208799517D01*
X329813506Y-208796440D01*
X329684975Y-208762000D01*
X329540025Y-208762000D01*
X329411493Y-208796440D01*
X329400011Y-208799517D01*
X329274488Y-208871988D01*
X329274482Y-208871993D01*
X329171993Y-208974482D01*
X329171988Y-208974488D01*
X329099517Y-209100011D01*
X329099516Y-209100015D01*
X329062000Y-209240025D01*
X313242788Y-209240025D01*
X313275500Y-209207314D01*
X313341392Y-209093186D01*
X313375500Y-208965892D01*
X313375500Y-208834108D01*
X313341392Y-208706814D01*
X313297337Y-208630509D01*
X349679984Y-208630509D01*
X349679984Y-208630510D01*
X350569490Y-208630510D01*
X350569490Y-207741004D01*
X350569489Y-207741004D01*
X350451267Y-207779417D01*
X350261932Y-207875889D01*
X350090030Y-208000782D01*
X350090025Y-208000786D01*
X349939766Y-208151045D01*
X349939762Y-208151050D01*
X349814869Y-208322952D01*
X349718397Y-208512287D01*
X349679984Y-208630509D01*
X313297337Y-208630509D01*
X313275500Y-208592686D01*
X313182314Y-208499500D01*
X313160007Y-208486621D01*
X313152041Y-208478266D01*
X313141505Y-208473549D01*
X313128368Y-208453438D01*
X313111793Y-208436054D01*
X313108628Y-208423217D01*
X313103295Y-208415053D01*
X313098013Y-208380165D01*
X313096840Y-208222357D01*
X313116025Y-208155179D01*
X313158838Y-208114053D01*
X313182314Y-208100500D01*
X313275500Y-208007314D01*
X313341392Y-207893186D01*
X313375500Y-207765892D01*
X313375500Y-207634108D01*
X313341392Y-207506814D01*
X313289841Y-207417525D01*
X324409500Y-207417525D01*
X324409500Y-207562475D01*
X324446487Y-207700511D01*
X324447017Y-207702488D01*
X324519488Y-207828011D01*
X324519490Y-207828013D01*
X324519491Y-207828015D01*
X324621985Y-207930509D01*
X324621986Y-207930510D01*
X324621988Y-207930511D01*
X324747511Y-208002982D01*
X324747512Y-208002982D01*
X324747515Y-208002984D01*
X324887525Y-208040500D01*
X324887528Y-208040500D01*
X325032472Y-208040500D01*
X325032475Y-208040500D01*
X325172485Y-208002984D01*
X325298015Y-207930509D01*
X325400509Y-207828015D01*
X325472984Y-207702485D01*
X325510500Y-207562475D01*
X325510500Y-207517525D01*
X330269500Y-207517525D01*
X330269500Y-207662475D01*
X330297211Y-207765891D01*
X330307017Y-207802488D01*
X330379488Y-207928011D01*
X330379490Y-207928013D01*
X330379491Y-207928015D01*
X330481985Y-208030509D01*
X330481986Y-208030510D01*
X330481988Y-208030511D01*
X330607511Y-208102982D01*
X330607512Y-208102982D01*
X330607515Y-208102984D01*
X330747525Y-208140500D01*
X330747528Y-208140500D01*
X330892472Y-208140500D01*
X330892475Y-208140500D01*
X331032485Y-208102984D01*
X331158015Y-208030509D01*
X331260509Y-207928015D01*
X331332984Y-207802485D01*
X331370500Y-207662475D01*
X331370500Y-207517525D01*
X331353083Y-207452525D01*
X338274500Y-207452525D01*
X338274500Y-207597475D01*
X338312016Y-207737485D01*
X338312017Y-207737488D01*
X338384488Y-207863011D01*
X338384490Y-207863013D01*
X338384491Y-207863015D01*
X338486985Y-207965509D01*
X338486986Y-207965510D01*
X338486988Y-207965511D01*
X338612511Y-208037982D01*
X338612512Y-208037982D01*
X338612515Y-208037984D01*
X338752525Y-208075500D01*
X338752528Y-208075500D01*
X338897472Y-208075500D01*
X338897475Y-208075500D01*
X339037485Y-208037984D01*
X339163015Y-207965509D01*
X339265509Y-207863015D01*
X339337984Y-207737485D01*
X339375500Y-207597475D01*
X339375500Y-207452525D01*
X339337984Y-207312515D01*
X339324999Y-207290025D01*
X339762000Y-207290025D01*
X339762000Y-207434975D01*
X339784120Y-207517527D01*
X339799517Y-207574988D01*
X339871988Y-207700511D01*
X339871990Y-207700513D01*
X339871991Y-207700515D01*
X339974485Y-207803009D01*
X339974486Y-207803010D01*
X339974488Y-207803011D01*
X340100011Y-207875482D01*
X340100012Y-207875482D01*
X340100015Y-207875484D01*
X340240025Y-207913000D01*
X340240028Y-207913000D01*
X340384972Y-207913000D01*
X340384975Y-207913000D01*
X340524985Y-207875484D01*
X340650515Y-207803009D01*
X340753009Y-207700515D01*
X340825484Y-207574985D01*
X340863000Y-207434975D01*
X340863000Y-207290025D01*
X340825484Y-207150015D01*
X340825181Y-207149491D01*
X340753011Y-207024488D01*
X340753006Y-207024482D01*
X340650517Y-206921993D01*
X340650511Y-206921988D01*
X340524988Y-206849517D01*
X340524989Y-206849517D01*
X340513506Y-206846440D01*
X340384975Y-206812000D01*
X340240025Y-206812000D01*
X340111493Y-206846440D01*
X340100011Y-206849517D01*
X339974488Y-206921988D01*
X339974482Y-206921993D01*
X339871993Y-207024482D01*
X339871988Y-207024488D01*
X339799517Y-207150011D01*
X339799516Y-207150015D01*
X339762000Y-207290025D01*
X339324999Y-207290025D01*
X339265511Y-207186988D01*
X339265506Y-207186982D01*
X339163017Y-207084493D01*
X339163011Y-207084488D01*
X339037488Y-207012017D01*
X339037489Y-207012017D01*
X339026006Y-207008940D01*
X338897475Y-206974500D01*
X338752525Y-206974500D01*
X338623993Y-207008940D01*
X338612511Y-207012017D01*
X338486988Y-207084488D01*
X338486982Y-207084493D01*
X338384493Y-207186982D01*
X338384488Y-207186988D01*
X338312017Y-207312511D01*
X338312016Y-207312515D01*
X338274500Y-207452525D01*
X331353083Y-207452525D01*
X331332984Y-207377515D01*
X331282471Y-207290025D01*
X331260511Y-207251988D01*
X331260506Y-207251982D01*
X331158017Y-207149493D01*
X331158011Y-207149488D01*
X331032488Y-207077017D01*
X331032489Y-207077017D01*
X331021006Y-207073940D01*
X330892475Y-207039500D01*
X330747525Y-207039500D01*
X330618993Y-207073940D01*
X330607511Y-207077017D01*
X330481988Y-207149488D01*
X330481982Y-207149493D01*
X330379493Y-207251982D01*
X330379488Y-207251988D01*
X330307017Y-207377511D01*
X330307016Y-207377515D01*
X330269500Y-207517525D01*
X325510500Y-207517525D01*
X325510500Y-207417525D01*
X325472984Y-207277515D01*
X325458244Y-207251985D01*
X325400511Y-207151988D01*
X325400506Y-207151982D01*
X325298017Y-207049493D01*
X325298011Y-207049488D01*
X325172488Y-206977017D01*
X325172489Y-206977017D01*
X325161006Y-206973940D01*
X325032475Y-206939500D01*
X324887525Y-206939500D01*
X324758993Y-206973940D01*
X324747511Y-206977017D01*
X324621988Y-207049488D01*
X324621982Y-207049493D01*
X324519493Y-207151982D01*
X324519488Y-207151988D01*
X324447017Y-207277511D01*
X324447016Y-207277515D01*
X324409500Y-207417525D01*
X313289841Y-207417525D01*
X313275500Y-207392686D01*
X313182314Y-207299500D01*
X313151051Y-207281450D01*
X313143085Y-207273095D01*
X313132549Y-207268378D01*
X313119412Y-207248267D01*
X313102837Y-207230883D01*
X313099672Y-207218048D01*
X313094339Y-207209883D01*
X313089056Y-207174990D01*
X313087960Y-207027485D01*
X313107145Y-206960306D01*
X313149955Y-206919182D01*
X313182314Y-206900500D01*
X313275500Y-206807314D01*
X313341392Y-206693186D01*
X313375500Y-206565892D01*
X313375500Y-206434108D01*
X313341392Y-206306814D01*
X313275500Y-206192686D01*
X313182314Y-206099500D01*
X313142096Y-206076280D01*
X313093880Y-206025713D01*
X313080099Y-205969818D01*
X313075995Y-205417525D01*
X327809500Y-205417525D01*
X327809500Y-205562475D01*
X327835769Y-205660511D01*
X327847017Y-205702488D01*
X327919488Y-205828011D01*
X327919490Y-205828013D01*
X327919491Y-205828015D01*
X328021985Y-205930509D01*
X328021986Y-205930510D01*
X328021988Y-205930511D01*
X328147511Y-206002982D01*
X328147512Y-206002982D01*
X328147515Y-206002984D01*
X328287525Y-206040500D01*
X328287528Y-206040500D01*
X328432472Y-206040500D01*
X328432475Y-206040500D01*
X328572485Y-206002984D01*
X328698015Y-205930509D01*
X328800509Y-205828015D01*
X328872984Y-205702485D01*
X328910500Y-205562475D01*
X328910500Y-205477525D01*
X330199500Y-205477525D01*
X330199500Y-205622475D01*
X330209692Y-205660511D01*
X330237017Y-205762488D01*
X330309488Y-205888011D01*
X330309490Y-205888013D01*
X330309491Y-205888015D01*
X330411985Y-205990509D01*
X330411986Y-205990510D01*
X330411988Y-205990511D01*
X330537511Y-206062982D01*
X330537512Y-206062982D01*
X330537515Y-206062984D01*
X330677525Y-206100500D01*
X330677528Y-206100500D01*
X330822472Y-206100500D01*
X330822475Y-206100500D01*
X330962485Y-206062984D01*
X331088015Y-205990509D01*
X331190509Y-205888015D01*
X331262984Y-205762485D01*
X331300500Y-205622475D01*
X331300500Y-205477525D01*
X331262984Y-205337515D01*
X331250851Y-205316501D01*
X331234378Y-205248602D01*
X331257229Y-205182575D01*
X331312150Y-205139383D01*
X331358238Y-205130500D01*
X331362472Y-205130500D01*
X331362475Y-205130500D01*
X331502485Y-205092984D01*
X331628015Y-205020509D01*
X331716706Y-204931817D01*
X331778025Y-204898335D01*
X331847717Y-204903319D01*
X331903651Y-204945190D01*
X331911770Y-204957500D01*
X331914870Y-204962870D01*
X331914873Y-204962874D01*
X331914875Y-204962877D01*
X332017369Y-205065371D01*
X332017370Y-205065372D01*
X332017372Y-205065373D01*
X332065196Y-205092984D01*
X332142899Y-205137846D01*
X332247595Y-205165899D01*
X332307254Y-205202263D01*
X332337783Y-205265110D01*
X332339500Y-205285673D01*
X332339500Y-205292475D01*
X332373008Y-205417527D01*
X332377017Y-205432488D01*
X332449488Y-205558011D01*
X332449490Y-205558013D01*
X332449491Y-205558015D01*
X332551985Y-205660509D01*
X332551986Y-205660510D01*
X332551988Y-205660511D01*
X332677511Y-205732982D01*
X332677512Y-205732982D01*
X332677515Y-205732984D01*
X332817525Y-205770500D01*
X332817528Y-205770500D01*
X332962472Y-205770500D01*
X332962475Y-205770500D01*
X333102485Y-205732984D01*
X333228015Y-205660509D01*
X333330509Y-205558015D01*
X333402984Y-205432485D01*
X333440500Y-205292475D01*
X333440500Y-205147525D01*
X333402984Y-205007515D01*
X333385375Y-204977016D01*
X333330511Y-204881988D01*
X333330506Y-204881982D01*
X333228017Y-204779493D01*
X333228011Y-204779488D01*
X333102488Y-204707017D01*
X333102489Y-204707017D01*
X333080160Y-204701034D01*
X332997789Y-204678962D01*
X332938130Y-204642597D01*
X332907601Y-204579750D01*
X332905884Y-204559188D01*
X332905884Y-204552389D01*
X332905884Y-204552387D01*
X332868368Y-204412377D01*
X332859764Y-204397475D01*
X332807182Y-204306400D01*
X332807181Y-204306399D01*
X332804377Y-204301542D01*
X332795893Y-204286847D01*
X332761571Y-204252525D01*
X344149500Y-204252525D01*
X344149500Y-204397475D01*
X344178988Y-204507525D01*
X344187017Y-204537488D01*
X344259488Y-204663011D01*
X344259490Y-204663013D01*
X344259491Y-204663015D01*
X344361985Y-204765509D01*
X344361986Y-204765510D01*
X344361988Y-204765511D01*
X344487511Y-204837982D01*
X344487512Y-204837982D01*
X344487515Y-204837984D01*
X344627525Y-204875500D01*
X344627528Y-204875500D01*
X344772472Y-204875500D01*
X344772475Y-204875500D01*
X344912485Y-204837984D01*
X345038015Y-204765509D01*
X345140509Y-204663015D01*
X345212984Y-204537485D01*
X345250500Y-204397475D01*
X345250500Y-204252525D01*
X345212984Y-204112515D01*
X345197283Y-204085321D01*
X351999500Y-204085321D01*
X351999500Y-205834678D01*
X352014032Y-205907735D01*
X352014033Y-205907739D01*
X352014034Y-205907740D01*
X352069399Y-205990601D01*
X352152260Y-206045966D01*
X352152264Y-206045967D01*
X352225321Y-206060499D01*
X352225324Y-206060500D01*
X352225326Y-206060500D01*
X353974676Y-206060500D01*
X353974677Y-206060499D01*
X354047740Y-206045966D01*
X354130601Y-205990601D01*
X354185966Y-205907740D01*
X354200500Y-205834674D01*
X354200500Y-204085326D01*
X354200500Y-204085323D01*
X354200499Y-204085321D01*
X354185967Y-204012264D01*
X354185966Y-204012260D01*
X354169076Y-203986982D01*
X354130601Y-203929399D01*
X354047740Y-203874034D01*
X354047739Y-203874033D01*
X354047735Y-203874032D01*
X353974677Y-203859500D01*
X353974674Y-203859500D01*
X352225326Y-203859500D01*
X352225323Y-203859500D01*
X352152264Y-203874032D01*
X352152260Y-203874033D01*
X352069399Y-203929399D01*
X352014033Y-204012260D01*
X352014032Y-204012264D01*
X351999500Y-204085321D01*
X345197283Y-204085321D01*
X345159864Y-204020509D01*
X345140511Y-203986988D01*
X345140506Y-203986982D01*
X345038017Y-203884493D01*
X345038011Y-203884488D01*
X344912488Y-203812017D01*
X344912489Y-203812017D01*
X344901006Y-203808940D01*
X344772475Y-203774500D01*
X344627525Y-203774500D01*
X344498993Y-203808940D01*
X344487511Y-203812017D01*
X344361988Y-203884488D01*
X344361982Y-203884493D01*
X344259493Y-203986982D01*
X344259488Y-203986988D01*
X344187017Y-204112511D01*
X344187016Y-204112515D01*
X344149500Y-204252525D01*
X332761571Y-204252525D01*
X332693399Y-204184353D01*
X332693397Y-204184352D01*
X332693395Y-204184350D01*
X332567872Y-204111879D01*
X332567873Y-204111879D01*
X332556390Y-204108802D01*
X332427859Y-204074362D01*
X332282909Y-204074362D01*
X332154377Y-204108802D01*
X332142895Y-204111879D01*
X332017372Y-204184350D01*
X331928680Y-204273042D01*
X331867356Y-204306526D01*
X331797665Y-204301542D01*
X331741731Y-204259670D01*
X331733616Y-204247367D01*
X331730509Y-204241985D01*
X331628015Y-204139491D01*
X331628013Y-204139490D01*
X331628011Y-204139488D01*
X331502488Y-204067017D01*
X331502489Y-204067017D01*
X331491006Y-204063940D01*
X331362475Y-204029500D01*
X331217525Y-204029500D01*
X331088993Y-204063940D01*
X331077511Y-204067017D01*
X330951988Y-204139488D01*
X330951982Y-204139493D01*
X330849493Y-204241982D01*
X330849488Y-204241988D01*
X330777017Y-204367511D01*
X330777016Y-204367515D01*
X330739500Y-204507525D01*
X330739500Y-204652475D01*
X330773535Y-204779493D01*
X330777017Y-204792487D01*
X330789148Y-204813498D01*
X330805622Y-204881398D01*
X330782771Y-204947425D01*
X330727850Y-204990617D01*
X330681762Y-204999500D01*
X330677525Y-204999500D01*
X330548993Y-205033940D01*
X330537511Y-205037017D01*
X330411988Y-205109488D01*
X330411982Y-205109493D01*
X330309493Y-205211982D01*
X330309488Y-205211988D01*
X330237017Y-205337511D01*
X330237016Y-205337515D01*
X330199500Y-205477525D01*
X328910500Y-205477525D01*
X328910500Y-205417525D01*
X328872984Y-205277515D01*
X328835148Y-205211982D01*
X328800511Y-205151988D01*
X328800506Y-205151982D01*
X328698017Y-205049493D01*
X328698011Y-205049488D01*
X328572488Y-204977017D01*
X328572489Y-204977017D01*
X328561006Y-204973940D01*
X328432475Y-204939500D01*
X328287525Y-204939500D01*
X328158993Y-204973940D01*
X328147511Y-204977017D01*
X328021988Y-205049488D01*
X328021982Y-205049493D01*
X327919493Y-205151982D01*
X327919488Y-205151988D01*
X327847017Y-205277511D01*
X327847016Y-205277515D01*
X327809500Y-205417525D01*
X313075995Y-205417525D01*
X313061800Y-203507525D01*
X324379500Y-203507525D01*
X324379500Y-203652475D01*
X324412197Y-203774500D01*
X324417017Y-203792488D01*
X324489488Y-203918011D01*
X324489490Y-203918013D01*
X324489491Y-203918015D01*
X324591985Y-204020509D01*
X324591986Y-204020510D01*
X324591988Y-204020511D01*
X324717511Y-204092982D01*
X324717512Y-204092982D01*
X324717515Y-204092984D01*
X324857525Y-204130500D01*
X324857528Y-204130500D01*
X325002472Y-204130500D01*
X325002475Y-204130500D01*
X325142485Y-204092984D01*
X325268015Y-204020509D01*
X325370509Y-203918015D01*
X325442984Y-203792485D01*
X325480500Y-203652475D01*
X325480500Y-203507525D01*
X325442984Y-203367515D01*
X325439356Y-203361232D01*
X325370511Y-203241988D01*
X325370506Y-203241982D01*
X325268017Y-203139493D01*
X325268015Y-203139491D01*
X325176726Y-203086785D01*
X325176724Y-203086783D01*
X325142488Y-203067017D01*
X325142489Y-203067017D01*
X325131006Y-203063940D01*
X325002475Y-203029500D01*
X324857525Y-203029500D01*
X324728993Y-203063940D01*
X324717511Y-203067017D01*
X324591988Y-203139488D01*
X324591982Y-203139493D01*
X324489493Y-203241982D01*
X324489488Y-203241988D01*
X324417017Y-203367511D01*
X324417016Y-203367515D01*
X324379500Y-203507525D01*
X313061800Y-203507525D01*
X313054145Y-202477525D01*
X322999500Y-202477525D01*
X322999500Y-202622475D01*
X323026164Y-202721985D01*
X323037017Y-202762488D01*
X323109488Y-202888011D01*
X323109490Y-202888013D01*
X323109491Y-202888015D01*
X323211985Y-202990509D01*
X323211986Y-202990510D01*
X323211988Y-202990511D01*
X323337511Y-203062982D01*
X323337512Y-203062982D01*
X323337515Y-203062984D01*
X323477525Y-203100500D01*
X323477528Y-203100500D01*
X323622472Y-203100500D01*
X323622475Y-203100500D01*
X323762485Y-203062984D01*
X323888015Y-202990509D01*
X323890999Y-202987525D01*
X342164500Y-202987525D01*
X342164500Y-203132475D01*
X342198513Y-203259411D01*
X342202017Y-203272488D01*
X342274488Y-203398011D01*
X342274490Y-203398013D01*
X342274491Y-203398015D01*
X342376985Y-203500509D01*
X342376986Y-203500510D01*
X342376988Y-203500511D01*
X342502511Y-203572982D01*
X342502512Y-203572982D01*
X342502515Y-203572984D01*
X342642525Y-203610500D01*
X342642528Y-203610500D01*
X342787472Y-203610500D01*
X342787475Y-203610500D01*
X342927485Y-203572984D01*
X343053015Y-203500509D01*
X343155509Y-203398015D01*
X343227984Y-203272485D01*
X343265500Y-203132475D01*
X343265500Y-202987525D01*
X343227984Y-202847515D01*
X343178893Y-202762488D01*
X343155511Y-202721988D01*
X343155506Y-202721982D01*
X343053017Y-202619493D01*
X343053011Y-202619488D01*
X342927488Y-202547017D01*
X342927489Y-202547017D01*
X342916006Y-202543940D01*
X342787475Y-202509500D01*
X342642525Y-202509500D01*
X342513993Y-202543940D01*
X342502511Y-202547017D01*
X342376988Y-202619488D01*
X342376982Y-202619493D01*
X342274493Y-202721982D01*
X342274488Y-202721988D01*
X342202017Y-202847511D01*
X342202016Y-202847515D01*
X342164500Y-202987525D01*
X323890999Y-202987525D01*
X323990509Y-202888015D01*
X324062984Y-202762485D01*
X324100500Y-202622475D01*
X324100500Y-202477525D01*
X324062984Y-202337515D01*
X324025431Y-202272472D01*
X323990511Y-202211988D01*
X323990506Y-202211982D01*
X323906049Y-202127525D01*
X338724500Y-202127525D01*
X338724500Y-202272475D01*
X338741927Y-202337511D01*
X338762017Y-202412488D01*
X338834488Y-202538011D01*
X338834490Y-202538013D01*
X338834491Y-202538015D01*
X338936985Y-202640509D01*
X338936986Y-202640510D01*
X338936988Y-202640511D01*
X339062511Y-202712982D01*
X339062512Y-202712982D01*
X339062515Y-202712984D01*
X339202525Y-202750500D01*
X339202528Y-202750500D01*
X339347472Y-202750500D01*
X339347475Y-202750500D01*
X339487485Y-202712984D01*
X339613015Y-202640509D01*
X339715509Y-202538015D01*
X339787984Y-202412485D01*
X339809178Y-202333389D01*
X351999500Y-202333389D01*
X351999500Y-202506610D01*
X352020707Y-202640511D01*
X352026598Y-202677701D01*
X352080127Y-202842445D01*
X352158768Y-202996788D01*
X352260586Y-203136928D01*
X352383072Y-203259414D01*
X352523212Y-203361232D01*
X352677555Y-203439873D01*
X352842299Y-203493402D01*
X353013389Y-203520500D01*
X353013390Y-203520500D01*
X353186610Y-203520500D01*
X353186611Y-203520500D01*
X353357701Y-203493402D01*
X353522445Y-203439873D01*
X353676788Y-203361232D01*
X353816928Y-203259414D01*
X353939414Y-203136928D01*
X354041232Y-202996788D01*
X354119873Y-202842445D01*
X354173402Y-202677701D01*
X354200500Y-202506611D01*
X354200500Y-202333389D01*
X354173402Y-202162299D01*
X354119873Y-201997555D01*
X354041232Y-201843212D01*
X353939414Y-201703072D01*
X353816928Y-201580586D01*
X353676788Y-201478768D01*
X353522445Y-201400127D01*
X353357701Y-201346598D01*
X353357699Y-201346597D01*
X353357698Y-201346597D01*
X353226271Y-201325781D01*
X353186611Y-201319500D01*
X353013389Y-201319500D01*
X352973728Y-201325781D01*
X352842302Y-201346597D01*
X352677552Y-201400128D01*
X352523211Y-201478768D01*
X352443256Y-201536859D01*
X352383072Y-201580586D01*
X352383070Y-201580588D01*
X352383069Y-201580588D01*
X352260588Y-201703069D01*
X352260588Y-201703070D01*
X352260586Y-201703072D01*
X352219597Y-201759488D01*
X352158768Y-201843211D01*
X352080128Y-201997552D01*
X352026597Y-202162302D01*
X351999500Y-202333389D01*
X339809178Y-202333389D01*
X339825500Y-202272475D01*
X339825500Y-202127525D01*
X339787984Y-201987515D01*
X339715509Y-201861985D01*
X339613015Y-201759491D01*
X339613013Y-201759490D01*
X339613011Y-201759488D01*
X339487488Y-201687017D01*
X339487489Y-201687017D01*
X339476006Y-201683940D01*
X339347475Y-201649500D01*
X339202525Y-201649500D01*
X339073993Y-201683940D01*
X339062511Y-201687017D01*
X338936988Y-201759488D01*
X338936982Y-201759493D01*
X338834493Y-201861982D01*
X338834488Y-201861988D01*
X338762017Y-201987511D01*
X338762016Y-201987515D01*
X338724500Y-202127525D01*
X323906049Y-202127525D01*
X323888017Y-202109493D01*
X323888011Y-202109488D01*
X323762488Y-202037017D01*
X323762489Y-202037017D01*
X323751006Y-202033940D01*
X323622475Y-201999500D01*
X323477525Y-201999500D01*
X323348993Y-202033940D01*
X323337511Y-202037017D01*
X323211988Y-202109488D01*
X323211982Y-202109493D01*
X323109493Y-202211982D01*
X323109488Y-202211988D01*
X323037017Y-202337511D01*
X323037016Y-202337515D01*
X322999500Y-202477525D01*
X313054145Y-202477525D01*
X313036661Y-200124919D01*
X313055847Y-200057738D01*
X313108310Y-200011592D01*
X313160658Y-200000000D01*
X320334932Y-200000000D01*
X320401971Y-200019685D01*
G37*
%TD.AperFunction*%
%TD*%
M02*
