%TF.GenerationSoftware,KiCad,Pcbnew,9.0.0*%
%TF.CreationDate,2025-10-27T18:32:49+02:00*%
%TF.ProjectId,6L_ESC,364c5f45-5343-42e6-9b69-6361645f7063,rev?*%
%TF.SameCoordinates,Original*%
%TF.FileFunction,Paste,Bot*%
%TF.FilePolarity,Positive*%
%FSLAX46Y46*%
G04 Gerber Fmt 4.6, Leading zero omitted, Abs format (unit mm)*
G04 Created by KiCad (PCBNEW 9.0.0) date 2025-10-27 18:32:49*
%MOMM*%
%LPD*%
G01*
G04 APERTURE LIST*
G04 Aperture macros list*
%AMRoundRect*
0 Rectangle with rounded corners*
0 $1 Rounding radius*
0 $2 $3 $4 $5 $6 $7 $8 $9 X,Y pos of 4 corners*
0 Add a 4 corners polygon primitive as box body*
4,1,4,$2,$3,$4,$5,$6,$7,$8,$9,$2,$3,0*
0 Add four circle primitives for the rounded corners*
1,1,$1+$1,$2,$3*
1,1,$1+$1,$4,$5*
1,1,$1+$1,$6,$7*
1,1,$1+$1,$8,$9*
0 Add four rect primitives between the rounded corners*
20,1,$1+$1,$2,$3,$4,$5,0*
20,1,$1+$1,$4,$5,$6,$7,0*
20,1,$1+$1,$6,$7,$8,$9,0*
20,1,$1+$1,$8,$9,$2,$3,0*%
G04 Aperture macros list end*
%ADD10RoundRect,0.250000X-0.325000X-1.100000X0.325000X-1.100000X0.325000X1.100000X-0.325000X1.100000X0*%
%ADD11RoundRect,0.243750X-0.150260X0.494975X-0.494975X0.150260X0.150260X-0.494975X0.494975X-0.150260X0*%
%ADD12RoundRect,0.137500X-0.521491X0.327037X0.327037X-0.521491X0.521491X-0.327037X-0.327037X0.521491X0*%
%ADD13RoundRect,0.137500X-0.521491X-0.327037X-0.327037X-0.521491X0.521491X0.327037X0.327037X0.521491X0*%
%ADD14RoundRect,0.150000X0.825000X0.150000X-0.825000X0.150000X-0.825000X-0.150000X0.825000X-0.150000X0*%
%ADD15RoundRect,0.250000X0.325000X1.100000X-0.325000X1.100000X-0.325000X-1.100000X0.325000X-1.100000X0*%
%ADD16RoundRect,0.140000X-0.021213X0.219203X-0.219203X0.021213X0.021213X-0.219203X0.219203X-0.021213X0*%
%ADD17RoundRect,0.250000X-0.262500X-0.450000X0.262500X-0.450000X0.262500X0.450000X-0.262500X0.450000X0*%
%ADD18RoundRect,0.140000X-0.170000X0.140000X-0.170000X-0.140000X0.170000X-0.140000X0.170000X0.140000X0*%
%ADD19RoundRect,0.250000X-0.503814X-0.132583X-0.132583X-0.503814X0.503814X0.132583X0.132583X0.503814X0*%
G04 APERTURE END LIST*
D10*
%TO.C,C33*%
X350330000Y-183810000D03*
X353280000Y-183810000D03*
%TD*%
D11*
%TO.C,D11*%
X336912913Y-206937087D03*
X335587087Y-208262913D03*
%TD*%
D12*
%TO.C,U1*%
X320116533Y-204324435D03*
X320682218Y-203758750D03*
X321247904Y-203193064D03*
X321813589Y-202627379D03*
X322379274Y-202061693D03*
X322944960Y-201496008D03*
X323510645Y-200930322D03*
X324076331Y-200364637D03*
X324642016Y-199798952D03*
X325207702Y-199233266D03*
X325773387Y-198667581D03*
D13*
X328124517Y-198667581D03*
X328690202Y-199233266D03*
X329255888Y-199798952D03*
X329821573Y-200364637D03*
X330387259Y-200930322D03*
X330952944Y-201496008D03*
X331518630Y-202061693D03*
X332084315Y-202627379D03*
X332650000Y-203193064D03*
X333215686Y-203758750D03*
X333781371Y-204324435D03*
D12*
X333781371Y-206675565D03*
X333215686Y-207241250D03*
X332650000Y-207806936D03*
X332084315Y-208372621D03*
X331518630Y-208938307D03*
X330952944Y-209503992D03*
X330387259Y-210069678D03*
X329821573Y-210635363D03*
X329255888Y-211201048D03*
X328690202Y-211766734D03*
X328124517Y-212332419D03*
D13*
X325773387Y-212332419D03*
X325207702Y-211766734D03*
X324642016Y-211201048D03*
X324076331Y-210635363D03*
X323510645Y-210069678D03*
X322944960Y-209503992D03*
X322379274Y-208938307D03*
X321813589Y-208372621D03*
X321247904Y-207806936D03*
X320682218Y-207241250D03*
X320116533Y-206675565D03*
%TD*%
D14*
%TO.C,U3*%
X346175000Y-200520000D03*
X346175000Y-201790000D03*
X346175000Y-203060000D03*
X346175000Y-204330000D03*
X341225000Y-204330000D03*
X341225000Y-203060000D03*
X341225000Y-201790000D03*
X341225000Y-200520000D03*
%TD*%
D15*
%TO.C,C28*%
X344460000Y-184710000D03*
X341509998Y-184710000D03*
%TD*%
D10*
%TO.C,C27*%
X335174999Y-184710000D03*
X338125001Y-184710000D03*
%TD*%
D16*
%TO.C,C50*%
X332214411Y-210635589D03*
X331535589Y-211314411D03*
%TD*%
D15*
%TO.C,C26*%
X331800000Y-184710000D03*
X328849998Y-184710000D03*
%TD*%
D16*
%TO.C,C51*%
X322164411Y-199785589D03*
X321485589Y-200464411D03*
%TD*%
D15*
%TO.C,C24*%
X318940000Y-184600000D03*
X315989998Y-184600000D03*
%TD*%
D10*
%TO.C,C25*%
X322424999Y-184600000D03*
X325375001Y-184600000D03*
%TD*%
D17*
%TO.C,R70*%
X340587500Y-210500000D03*
X342412500Y-210500000D03*
%TD*%
D10*
%TO.C,C23*%
X307770000Y-184620000D03*
X310720000Y-184620000D03*
%TD*%
D18*
%TO.C,C17*%
X339275000Y-200495000D03*
X339275000Y-201455000D03*
%TD*%
D19*
%TO.C,R19*%
X338304765Y-205479765D03*
X339595235Y-206770235D03*
%TD*%
M02*
