%TF.GenerationSoftware,KiCad,Pcbnew,9.0.0*%
%TF.CreationDate,2025-10-27T18:32:49+02:00*%
%TF.ProjectId,6L_ESC,364c5f45-5343-42e6-9b69-6361645f7063,rev?*%
%TF.SameCoordinates,Original*%
%TF.FileFunction,Copper,L6,Bot*%
%TF.FilePolarity,Positive*%
%FSLAX46Y46*%
G04 Gerber Fmt 4.6, Leading zero omitted, Abs format (unit mm)*
G04 Created by KiCad (PCBNEW 9.0.0) date 2025-10-27 18:32:49*
%MOMM*%
%LPD*%
G01*
G04 APERTURE LIST*
G04 Aperture macros list*
%AMRoundRect*
0 Rectangle with rounded corners*
0 $1 Rounding radius*
0 $2 $3 $4 $5 $6 $7 $8 $9 X,Y pos of 4 corners*
0 Add a 4 corners polygon primitive as box body*
4,1,4,$2,$3,$4,$5,$6,$7,$8,$9,$2,$3,0*
0 Add four circle primitives for the rounded corners*
1,1,$1+$1,$2,$3*
1,1,$1+$1,$4,$5*
1,1,$1+$1,$6,$7*
1,1,$1+$1,$8,$9*
0 Add four rect primitives between the rounded corners*
20,1,$1+$1,$2,$3,$4,$5,0*
20,1,$1+$1,$4,$5,$6,$7,0*
20,1,$1+$1,$6,$7,$8,$9,0*
20,1,$1+$1,$8,$9,$2,$3,0*%
%AMRotRect*
0 Rectangle, with rotation*
0 The origin of the aperture is its center*
0 $1 length*
0 $2 width*
0 $3 Rotation angle, in degrees counterclockwise*
0 Add horizontal line*
21,1,$1,$2,0,0,$3*%
G04 Aperture macros list end*
%TA.AperFunction,ComponentPad*%
%ADD10C,0.700000*%
%TD*%
%TA.AperFunction,ComponentPad*%
%ADD11RoundRect,0.780000X1.820000X-3.220000X1.820000X3.220000X-1.820000X3.220000X-1.820000X-3.220000X0*%
%TD*%
%TA.AperFunction,ComponentPad*%
%ADD12RoundRect,0.250000X0.600000X0.725000X-0.600000X0.725000X-0.600000X-0.725000X0.600000X-0.725000X0*%
%TD*%
%TA.AperFunction,ComponentPad*%
%ADD13O,1.700000X1.950000*%
%TD*%
%TA.AperFunction,ComponentPad*%
%ADD14C,0.800000*%
%TD*%
%TA.AperFunction,ComponentPad*%
%ADD15C,2.000000*%
%TD*%
%TA.AperFunction,ComponentPad*%
%ADD16RoundRect,0.333333X-3.666667X-3.666667X3.666667X-3.666667X3.666667X3.666667X-3.666667X3.666667X0*%
%TD*%
%TA.AperFunction,ComponentPad*%
%ADD17C,0.500000*%
%TD*%
%TA.AperFunction,ComponentPad*%
%ADD18RotRect,1.700000X1.700000X135.000000*%
%TD*%
%TA.AperFunction,ComponentPad*%
%ADD19C,1.700000*%
%TD*%
%TA.AperFunction,ComponentPad*%
%ADD20R,1.700000X1.700000*%
%TD*%
%TA.AperFunction,ComponentPad*%
%ADD21RoundRect,0.250000X0.600000X0.750000X-0.600000X0.750000X-0.600000X-0.750000X0.600000X-0.750000X0*%
%TD*%
%TA.AperFunction,ComponentPad*%
%ADD22O,1.700000X2.000000*%
%TD*%
%TA.AperFunction,SMDPad,CuDef*%
%ADD23RoundRect,0.250000X-0.325000X-1.100000X0.325000X-1.100000X0.325000X1.100000X-0.325000X1.100000X0*%
%TD*%
%TA.AperFunction,SMDPad,CuDef*%
%ADD24RoundRect,0.243750X-0.150260X0.494975X-0.494975X0.150260X0.150260X-0.494975X0.494975X-0.150260X0*%
%TD*%
%TA.AperFunction,SMDPad,CuDef*%
%ADD25RoundRect,0.137500X-0.521491X0.327037X0.327037X-0.521491X0.521491X-0.327037X-0.327037X0.521491X0*%
%TD*%
%TA.AperFunction,SMDPad,CuDef*%
%ADD26RoundRect,0.137500X-0.521491X-0.327037X-0.327037X-0.521491X0.521491X0.327037X0.327037X0.521491X0*%
%TD*%
%TA.AperFunction,SMDPad,CuDef*%
%ADD27RoundRect,0.150000X0.825000X0.150000X-0.825000X0.150000X-0.825000X-0.150000X0.825000X-0.150000X0*%
%TD*%
%TA.AperFunction,SMDPad,CuDef*%
%ADD28RoundRect,0.250000X0.325000X1.100000X-0.325000X1.100000X-0.325000X-1.100000X0.325000X-1.100000X0*%
%TD*%
%TA.AperFunction,SMDPad,CuDef*%
%ADD29RoundRect,0.140000X-0.021213X0.219203X-0.219203X0.021213X0.021213X-0.219203X0.219203X-0.021213X0*%
%TD*%
%TA.AperFunction,SMDPad,CuDef*%
%ADD30RoundRect,0.250000X-0.262500X-0.450000X0.262500X-0.450000X0.262500X0.450000X-0.262500X0.450000X0*%
%TD*%
%TA.AperFunction,SMDPad,CuDef*%
%ADD31RoundRect,0.140000X-0.170000X0.140000X-0.170000X-0.140000X0.170000X-0.140000X0.170000X0.140000X0*%
%TD*%
%TA.AperFunction,SMDPad,CuDef*%
%ADD32RoundRect,0.250000X-0.503814X-0.132583X-0.132583X-0.503814X0.503814X0.132583X0.132583X0.503814X0*%
%TD*%
%TA.AperFunction,ViaPad*%
%ADD33C,0.700000*%
%TD*%
%TA.AperFunction,ViaPad*%
%ADD34C,0.600000*%
%TD*%
%TA.AperFunction,ViaPad*%
%ADD35C,0.900000*%
%TD*%
%TA.AperFunction,ViaPad*%
%ADD36C,1.000000*%
%TD*%
%TA.AperFunction,Conductor*%
%ADD37C,0.500000*%
%TD*%
%TA.AperFunction,Conductor*%
%ADD38C,0.750000*%
%TD*%
%TA.AperFunction,Conductor*%
%ADD39C,0.300000*%
%TD*%
G04 APERTURE END LIST*
D10*
%TO.P,C29,1,Pin_1*%
%TO.N,/VBAT*%
X306000000Y-175150000D03*
X306000000Y-176000000D03*
X306050000Y-178500000D03*
X306100000Y-179400000D03*
X306250000Y-173650000D03*
X306500000Y-180800000D03*
X306700000Y-174550000D03*
X306950000Y-179900000D03*
X307150000Y-173650000D03*
X307400000Y-180800000D03*
X307550000Y-174550000D03*
X307850000Y-179900000D03*
X308050000Y-173650000D03*
D11*
X308150000Y-177250000D03*
D10*
X308300000Y-180800000D03*
X308500000Y-174550000D03*
X308800000Y-179900000D03*
X308950000Y-173650000D03*
X309200000Y-180800000D03*
X309400000Y-174550000D03*
X309650000Y-179900000D03*
X309850000Y-173650000D03*
X310100000Y-180800000D03*
X310250000Y-175050000D03*
X310300000Y-175950000D03*
X310350000Y-178450000D03*
X310350000Y-179300000D03*
%TD*%
D12*
%TO.P,J2,1,Pin_1*%
%TO.N,/MCLR*%
X342850000Y-213000000D03*
D13*
%TO.P,J2,2,Pin_2*%
%TO.N,/VDD*%
X340350000Y-213000000D03*
%TO.P,J2,3,Pin_3*%
%TO.N,GND*%
X337850000Y-213000000D03*
%TO.P,J2,4,Pin_4*%
%TO.N,/PGD*%
X335350000Y-213000000D03*
%TO.P,J2,5,Pin_5*%
%TO.N,/PGC*%
X332850000Y-213000000D03*
%TD*%
D14*
%TO.P,U4,8,D*%
%TO.N,/VBAT*%
X322925000Y-181350000D03*
X322925000Y-180400000D03*
X322925000Y-179450000D03*
X322925000Y-178500000D03*
X320950000Y-180400000D03*
X320950000Y-179450000D03*
X320950000Y-178500000D03*
X318950000Y-181350000D03*
X318950000Y-180400000D03*
X318950000Y-179450000D03*
X318950000Y-178500000D03*
%TD*%
D10*
%TO.P,C1,1,Pin_1*%
%TO.N,/C_motor*%
X341950000Y-166300000D03*
X341950000Y-168600000D03*
X341950000Y-169450000D03*
X341950000Y-170300000D03*
X341950000Y-171150000D03*
X341950000Y-173500000D03*
X342750000Y-169050000D03*
X342750000Y-169900000D03*
X342750000Y-170750000D03*
D15*
X342950000Y-167300000D03*
X342950000Y-172500000D03*
D10*
X344200000Y-166300000D03*
X344250000Y-173500000D03*
X344600000Y-167100000D03*
X344700000Y-172700000D03*
X345050000Y-166300000D03*
X345100000Y-173500000D03*
X345450000Y-167100000D03*
D16*
X345550000Y-169900000D03*
D10*
X345550000Y-172700000D03*
X345900000Y-166300000D03*
X345950000Y-173500000D03*
X346300000Y-167100000D03*
X346400000Y-172700000D03*
X346750000Y-166300000D03*
X346800000Y-173500000D03*
D15*
X348150000Y-167300000D03*
X348150000Y-172500000D03*
D10*
X348350000Y-169100000D03*
X348350000Y-169950000D03*
X348350000Y-170800000D03*
X349150000Y-166300000D03*
X349150000Y-168700000D03*
X349150000Y-169550000D03*
X349150000Y-170400000D03*
X349150000Y-171250000D03*
X349150000Y-173500000D03*
%TD*%
%TO.P,U11,2,Pin_1*%
%TO.N,GND*%
X349700000Y-187750000D03*
X349700000Y-188600000D03*
X349750000Y-191100000D03*
X349800000Y-192000000D03*
X349950000Y-186250000D03*
X350200000Y-193400000D03*
X350400000Y-187150000D03*
X350650000Y-192500000D03*
X350850000Y-186250000D03*
X351100000Y-193400000D03*
X351250000Y-187150000D03*
X351550000Y-192500000D03*
X351750000Y-186250000D03*
D11*
X351850000Y-189850000D03*
D10*
X352000000Y-193400000D03*
X352200000Y-187150000D03*
X352500000Y-192500000D03*
X352650000Y-186250000D03*
X352900000Y-193400000D03*
X353100000Y-187150000D03*
X353350000Y-192500000D03*
X353550000Y-186250000D03*
X353800000Y-193400000D03*
X353950000Y-187650000D03*
X354000000Y-188550000D03*
X354050000Y-191050000D03*
X354050000Y-191900000D03*
%TD*%
D14*
%TO.P,U5,8,D*%
%TO.N,/VBAT*%
X335725000Y-181350000D03*
X335725000Y-180400000D03*
X335725000Y-179450000D03*
X335725000Y-178500000D03*
X333750000Y-180400000D03*
X333750000Y-179450000D03*
X333750000Y-178500000D03*
X331750000Y-181350000D03*
X331750000Y-180400000D03*
X331750000Y-179450000D03*
X331750000Y-178500000D03*
%TD*%
D17*
%TO.P,U12,11,GND*%
%TO.N,GND*%
X312875000Y-206500000D03*
X312875000Y-207700000D03*
X312875000Y-208900000D03*
%TD*%
D14*
%TO.P,U6,8,D*%
%TO.N,/VBAT*%
X348425000Y-181350000D03*
X348425000Y-180400000D03*
X348425000Y-179450000D03*
X348425000Y-178500000D03*
X346450000Y-180400000D03*
X346450000Y-179450000D03*
X346450000Y-178500000D03*
X344450000Y-181350000D03*
X344450000Y-180400000D03*
X344450000Y-179450000D03*
X344450000Y-178500000D03*
%TD*%
D18*
%TO.P,J8,1,Pin_1*%
%TO.N,GND*%
X349173439Y-210826561D03*
D19*
%TO.P,J8,2,Pin_2*%
%TO.N,/VDD*%
X350969490Y-209030510D03*
%TD*%
D10*
%TO.P,B1,1,Pin_1*%
%TO.N,/B_motor*%
X326600000Y-166200000D03*
X326600000Y-168500000D03*
X326600000Y-169350000D03*
X326600000Y-170200000D03*
X326600000Y-171050000D03*
X326600000Y-173400000D03*
X327400000Y-168950000D03*
X327400000Y-169800000D03*
X327400000Y-170650000D03*
D15*
X327600000Y-167200000D03*
X327600000Y-172400000D03*
D10*
X328850000Y-166200000D03*
X328900000Y-173400000D03*
X329250000Y-167000000D03*
X329350000Y-172600000D03*
X329700000Y-166200000D03*
X329750000Y-173400000D03*
X330100000Y-167000000D03*
D16*
X330200000Y-169800000D03*
D10*
X330200000Y-172600000D03*
X330550000Y-166200000D03*
X330600000Y-173400000D03*
X330950000Y-167000000D03*
X331050000Y-172600000D03*
X331400000Y-166200000D03*
X331450000Y-173400000D03*
D15*
X332800000Y-167200000D03*
X332800000Y-172400000D03*
D10*
X333000000Y-169000000D03*
X333000000Y-169850000D03*
X333000000Y-170700000D03*
X333800000Y-166200000D03*
X333800000Y-168600000D03*
X333800000Y-169450000D03*
X333800000Y-170300000D03*
X333800000Y-171150000D03*
X333800000Y-173400000D03*
%TD*%
D20*
%TO.P,J9,1,Pin_1*%
%TO.N,/R_LED*%
X353100000Y-204960000D03*
D19*
%TO.P,J9,2,Pin_2*%
%TO.N,/CS*%
X353100000Y-202420000D03*
%TO.P,J9,3,Pin_3*%
%TO.N,/U{slash}D*%
X353100000Y-199880001D03*
%TO.P,J9,4,Pin_4*%
%TO.N,/INC*%
X353100000Y-197340000D03*
%TD*%
D10*
%TO.P,A1,1,Pin_1*%
%TO.N,/A_motor*%
X311800000Y-166175000D03*
X311800000Y-168475000D03*
X311800000Y-169325000D03*
X311800000Y-170175000D03*
X311800000Y-171025000D03*
X311800000Y-173375000D03*
X312600000Y-168925000D03*
X312600000Y-169775000D03*
X312600000Y-170625000D03*
D15*
X312800000Y-167175000D03*
X312800000Y-172375000D03*
D10*
X314050000Y-166175000D03*
X314100000Y-173375000D03*
X314450000Y-166975000D03*
X314550000Y-172575000D03*
X314900000Y-166175000D03*
X314950000Y-173375000D03*
X315300000Y-166975000D03*
D16*
X315400000Y-169775000D03*
D10*
X315400000Y-172575000D03*
X315750000Y-166175000D03*
X315800000Y-173375000D03*
X316150000Y-166975000D03*
X316250000Y-172575000D03*
X316600000Y-166175000D03*
X316650000Y-173375000D03*
D15*
X318000000Y-167175000D03*
X318000000Y-172375000D03*
D10*
X318200000Y-168975000D03*
X318200000Y-169825000D03*
X318200000Y-170675000D03*
X319000000Y-166175000D03*
X319000000Y-168575000D03*
X319000000Y-169425000D03*
X319000000Y-170275000D03*
X319000000Y-171125000D03*
X319000000Y-173375000D03*
%TD*%
D21*
%TO.P,J4,1,Pin_1*%
%TO.N,/VDD*%
X322020000Y-212990000D03*
D22*
%TO.P,J4,2,Pin_2*%
%TO.N,GND*%
X319520000Y-212990000D03*
%TD*%
D23*
%TO.P,C33,1*%
%TO.N,/VBAT*%
X350330000Y-183810000D03*
%TO.P,C33,2*%
%TO.N,GND*%
X353280000Y-183810000D03*
%TD*%
D24*
%TO.P,D11,1,K*%
%TO.N,Net-(D11-K)*%
X336912913Y-206937087D03*
%TO.P,D11,2,A*%
%TO.N,/LED*%
X335587087Y-208262913D03*
%TD*%
D25*
%TO.P,U1,1,RX/SDO/DT/RC7*%
%TO.N,unconnected-(U1-RX{slash}SDO{slash}DT{slash}RC7-Pad1)*%
X320116533Y-204324435D03*
%TO.P,U1,2,~{FLTA}/RD4*%
%TO.N,unconnected-(U1-~{FLTA}{slash}RD4-Pad2)*%
X320682218Y-203758750D03*
%TO.P,U1,3,PWM4/RD5*%
%TO.N,unconnected-(U1-PWM4{slash}RD5-Pad3)*%
X321247904Y-203193064D03*
%TO.P,U1,4,PWM6/RD6*%
%TO.N,unconnected-(U1-PWM6{slash}RD6-Pad4)*%
X321813589Y-202627379D03*
%TO.P,U1,5,PWM7/RD7*%
%TO.N,unconnected-(U1-PWM7{slash}RD7-Pad5)*%
X322379274Y-202061693D03*
%TO.P,U1,6,VSS*%
%TO.N,GND*%
X322944960Y-201496008D03*
%TO.P,U1,7,VDD*%
%TO.N,/VDD*%
X323510645Y-200930322D03*
%TO.P,U1,8,RB0/PWM0*%
%TO.N,/HIN(0)*%
X324076331Y-200364637D03*
%TO.P,U1,9,RB1/PWM1*%
%TO.N,/LIN(0)*%
X324642016Y-199798952D03*
%TO.P,U1,10,RB2/PWM2*%
%TO.N,/HIN(1)*%
X325207702Y-199233266D03*
%TO.P,U1,11,RB3/PWM3*%
%TO.N,/LIN(1)*%
X325773387Y-198667581D03*
D26*
%TO.P,U1,12,NC*%
%TO.N,unconnected-(U1-NC-Pad12)*%
X328124517Y-198667581D03*
%TO.P,U1,13,NC*%
%TO.N,unconnected-(U1-NC-Pad13)*%
X328690202Y-199233266D03*
%TO.P,U1,14,RB4/KBI0/PWM5*%
%TO.N,/LIN(2)*%
X329255888Y-199798952D03*
%TO.P,U1,15,RB5/KBI1/PWM4/PGM*%
%TO.N,/HIN(2)*%
X329821573Y-200364637D03*
%TO.P,U1,16,RB6/KBI2/PGC*%
%TO.N,/PGC*%
X330387259Y-200930322D03*
%TO.P,U1,17,RB7/KBI3/PGD*%
%TO.N,/PGD*%
X330952944Y-201496008D03*
%TO.P,U1,18,Vpp/~{MCLR}/RE3*%
%TO.N,/MCLR*%
X331518630Y-202061693D03*
%TO.P,U1,19,RA0/AN0*%
%TO.N,/POT_OUT*%
X332084315Y-202627379D03*
%TO.P,U1,20,RA1/AN1*%
%TO.N,/A*%
X332650000Y-203193064D03*
%TO.P,U1,21,RA2/AN2/Vref-/CAP1/INDX*%
%TO.N,/B*%
X333215686Y-203758750D03*
%TO.P,U1,22,RA3/AN3/Vref+/CAP2/QEA*%
%TO.N,/C *%
X333781371Y-204324435D03*
D25*
%TO.P,U1,23,RA4/AN4/CAP3/QEB*%
%TO.N,/LED*%
X333781371Y-206675565D03*
%TO.P,U1,24,RA5/AN5/LVDIN*%
%TO.N,unconnected-(U1-RA5{slash}AN5{slash}LVDIN-Pad24)*%
X333215686Y-207241250D03*
%TO.P,U1,25,AN6/RE0*%
%TO.N,unconnected-(U1-AN6{slash}RE0-Pad25)*%
X332650000Y-207806936D03*
%TO.P,U1,26,AN7/RE1*%
%TO.N,unconnected-(U1-AN7{slash}RE1-Pad26)*%
X332084315Y-208372621D03*
%TO.P,U1,27,AN8/RE2*%
%TO.N,unconnected-(U1-AN8{slash}RE2-Pad27)*%
X331518630Y-208938307D03*
%TO.P,U1,28,AVDD*%
%TO.N,/VDD*%
X330952944Y-209503992D03*
%TO.P,U1,29,AVSS*%
%TO.N,GND*%
X330387259Y-210069678D03*
%TO.P,U1,30,RA7/OSC1/CLKI*%
%TO.N,unconnected-(U1-RA7{slash}OSC1{slash}CLKI-Pad30)*%
X329821573Y-210635363D03*
%TO.P,U1,31,RA6/OSC2/CLKO*%
%TO.N,unconnected-(U1-RA6{slash}OSC2{slash}CLKO-Pad31)*%
X329255888Y-211201048D03*
%TO.P,U1,32,T1OSO/T1CKI/RC0*%
%TO.N,unconnected-(U1-T1OSO{slash}T1CKI{slash}RC0-Pad32)*%
X328690202Y-211766734D03*
%TO.P,U1,33,NC*%
%TO.N,unconnected-(U1-NC-Pad33)*%
X328124517Y-212332419D03*
D26*
%TO.P,U1,34,NC*%
%TO.N,unconnected-(U1-NC-Pad34)*%
X325773387Y-212332419D03*
%TO.P,U1,35,~{FLTA}/T1OSI/CCP2/RC1*%
%TO.N,unconnected-(U1-~{FLTA}{slash}T1OSI{slash}CCP2{slash}RC1-Pad35)*%
X325207702Y-211766734D03*
%TO.P,U1,36,~{FLTB}/CCP1/RC2*%
%TO.N,unconnected-(U1-~{FLTB}{slash}CCP1{slash}RC2-Pad36)*%
X324642016Y-211201048D03*
%TO.P,U1,37,INT0/T5CKI/T0CKI/RC3*%
%TO.N,unconnected-(U1-INT0{slash}T5CKI{slash}T0CKI{slash}RC3-Pad37)*%
X324076331Y-210635363D03*
%TO.P,U1,38,T5CKI/T0CKI/RD0*%
%TO.N,unconnected-(U1-T5CKI{slash}T0CKI{slash}RD0-Pad38)*%
X323510645Y-210069678D03*
%TO.P,U1,39,SDO/RD1*%
%TO.N,unconnected-(U1-SDO{slash}RD1-Pad39)*%
X322944960Y-209503992D03*
%TO.P,U1,40,SDA/SDI/RD2*%
%TO.N,unconnected-(U1-SDA{slash}SDI{slash}RD2-Pad40)*%
X322379274Y-208938307D03*
%TO.P,U1,41,SCL/SCK/RD3*%
%TO.N,unconnected-(U1-SCL{slash}SCK{slash}RD3-Pad41)*%
X321813589Y-208372621D03*
%TO.P,U1,42,INT1/SDI/SDA/RC4*%
%TO.N,unconnected-(U1-INT1{slash}SDI{slash}SDA{slash}RC4-Pad42)*%
X321247904Y-207806936D03*
%TO.P,U1,43,INT2/SCK/SCL/RC5*%
%TO.N,unconnected-(U1-INT2{slash}SCK{slash}SCL{slash}RC5-Pad43)*%
X320682218Y-207241250D03*
%TO.P,U1,44,TX/~{SS}/CK/RC6*%
%TO.N,unconnected-(U1-TX{slash}~{SS}{slash}CK{slash}RC6-Pad44)*%
X320116533Y-206675565D03*
%TD*%
D27*
%TO.P,U3,1,INC*%
%TO.N,/INC*%
X346175000Y-200520000D03*
%TO.P,U3,2,U/D*%
%TO.N,/U{slash}D*%
X346175000Y-201790000D03*
%TO.P,U3,3,Vh/Rh*%
%TO.N,/VDD*%
X346175000Y-203060000D03*
%TO.P,U3,4,VSS*%
%TO.N,GND*%
X346175000Y-204330000D03*
%TO.P,U3,5,Vw/Rw*%
%TO.N,/POT_OUT*%
X341225000Y-204330000D03*
%TO.P,U3,6,Vl/Rl*%
%TO.N,GND*%
X341225000Y-203060000D03*
%TO.P,U3,7,CS*%
%TO.N,/CS*%
X341225000Y-201790000D03*
%TO.P,U3,8,VCC*%
%TO.N,/VDD*%
X341225000Y-200520000D03*
%TD*%
D28*
%TO.P,C28,1*%
%TO.N,/VBAT*%
X344460000Y-184710000D03*
%TO.P,C28,2*%
%TO.N,GND*%
X341509998Y-184710000D03*
%TD*%
D23*
%TO.P,C27,1*%
%TO.N,/VBAT*%
X335174999Y-184710000D03*
%TO.P,C27,2*%
%TO.N,GND*%
X338125001Y-184710000D03*
%TD*%
D29*
%TO.P,C50,1*%
%TO.N,/VDD*%
X332214411Y-210635589D03*
%TO.P,C50,2*%
%TO.N,GND*%
X331535589Y-211314411D03*
%TD*%
D28*
%TO.P,C26,1*%
%TO.N,/VBAT*%
X331800000Y-184710000D03*
%TO.P,C26,2*%
%TO.N,GND*%
X328849998Y-184710000D03*
%TD*%
D29*
%TO.P,C51,1*%
%TO.N,/VDD*%
X322164411Y-199785589D03*
%TO.P,C51,2*%
%TO.N,GND*%
X321485589Y-200464411D03*
%TD*%
D28*
%TO.P,C24,1*%
%TO.N,/VBAT*%
X318940000Y-184600000D03*
%TO.P,C24,2*%
%TO.N,GND*%
X315989998Y-184600000D03*
%TD*%
D23*
%TO.P,C25,1*%
%TO.N,/VBAT*%
X322424999Y-184600000D03*
%TO.P,C25,2*%
%TO.N,GND*%
X325375001Y-184600000D03*
%TD*%
D30*
%TO.P,R70,1*%
%TO.N,/VDD*%
X340587500Y-210500000D03*
%TO.P,R70,2*%
%TO.N,/MCLR*%
X342412500Y-210500000D03*
%TD*%
D23*
%TO.P,C23,1*%
%TO.N,/VBAT*%
X307770000Y-184620000D03*
%TO.P,C23,2*%
%TO.N,GND*%
X310720000Y-184620000D03*
%TD*%
D31*
%TO.P,C17,1*%
%TO.N,/VDD*%
X339275000Y-200495000D03*
%TO.P,C17,2*%
%TO.N,GND*%
X339275000Y-201455000D03*
%TD*%
D32*
%TO.P,R19,1*%
%TO.N,Net-(D11-K)*%
X338304765Y-205479765D03*
%TO.P,R19,2*%
%TO.N,GND*%
X339595235Y-206770235D03*
%TD*%
D33*
%TO.N,/A_motor*%
X321450000Y-174350000D03*
X315850000Y-174350000D03*
X313775000Y-175875000D03*
X320425000Y-175875000D03*
X313250000Y-175100000D03*
X312725000Y-175875000D03*
X314800000Y-174350000D03*
X314300000Y-175100000D03*
X313750000Y-174350000D03*
X315350000Y-175100000D03*
X315875000Y-175875000D03*
X314825000Y-175875000D03*
X322525000Y-175875000D03*
X322500000Y-174350000D03*
X321475000Y-175875000D03*
X322000000Y-175100000D03*
X320950000Y-175100000D03*
X320400000Y-174350000D03*
X312700000Y-174350000D03*
%TO.N,/B_motor*%
X328250000Y-175100000D03*
X335225000Y-175925000D03*
X333125000Y-175925000D03*
X325625000Y-175875000D03*
X333650000Y-175150000D03*
X335200000Y-174400000D03*
X326150000Y-175100000D03*
X327200000Y-175100000D03*
X328775000Y-175875000D03*
X327725000Y-175875000D03*
X334175000Y-175925000D03*
X328750000Y-174350000D03*
X325600000Y-174350000D03*
X326650000Y-174350000D03*
X327700000Y-174350000D03*
X333100000Y-174400000D03*
X334150000Y-174400000D03*
X334700000Y-175150000D03*
X326675000Y-175875000D03*
D34*
%TO.N,GND*%
X310650000Y-190765000D03*
D33*
X339875000Y-185800000D03*
X313875000Y-183425000D03*
D34*
X329612500Y-209312500D03*
X311750000Y-204950000D03*
X311600000Y-211325000D03*
X341850000Y-194425000D03*
X314400000Y-209900000D03*
D33*
X340650000Y-186275000D03*
D34*
X321000000Y-200000000D03*
X342715000Y-203060000D03*
D33*
X327150000Y-184300000D03*
D35*
X308625000Y-210825000D03*
D34*
X338825000Y-207525000D03*
X319532500Y-198045436D03*
X311750000Y-203200000D03*
X341725000Y-190500000D03*
D33*
X339280000Y-185060000D03*
D34*
X309625000Y-203725000D03*
X311600000Y-210425000D03*
X325400000Y-194450000D03*
D33*
X311925000Y-183400000D03*
X314850000Y-183450000D03*
D34*
X319507500Y-198795436D03*
D33*
X313375000Y-185650000D03*
X326550000Y-183530000D03*
D34*
X323550000Y-202550000D03*
X330750000Y-205550000D03*
D33*
X312400000Y-185650000D03*
D34*
X307325000Y-200190000D03*
D33*
X312425000Y-184150000D03*
D34*
X340475000Y-190500000D03*
D33*
X327150000Y-185840000D03*
X326350000Y-186175000D03*
D34*
X331112500Y-211762500D03*
X338240000Y-198490000D03*
X308200000Y-200200000D03*
X312850000Y-209850000D03*
D33*
X314350000Y-184175000D03*
X312925000Y-183425000D03*
D34*
X348825000Y-199187500D03*
D33*
X327674999Y-185060000D03*
D34*
X349900000Y-198250000D03*
D33*
X339280000Y-183540000D03*
D34*
X341125000Y-189975000D03*
X328360000Y-205490000D03*
D33*
X339025000Y-186275000D03*
X312900000Y-184900000D03*
D34*
X338214999Y-199339999D03*
X326600000Y-194450000D03*
D33*
X326550000Y-185050000D03*
X340414999Y-183550000D03*
X313375000Y-184150000D03*
X311925000Y-184900000D03*
D34*
X311750000Y-190750000D03*
X310575000Y-194575000D03*
D33*
X327684999Y-183540000D03*
D34*
X340312500Y-207362500D03*
D33*
X327975000Y-186150000D03*
D34*
X325400000Y-190450000D03*
X326700000Y-190450000D03*
D33*
X340404999Y-185070000D03*
D34*
X311250000Y-195000000D03*
D33*
X313825000Y-184900000D03*
D34*
X326000000Y-195050000D03*
X311900000Y-194600000D03*
X344700000Y-204325000D03*
X340450000Y-194425000D03*
X315500000Y-210800000D03*
X311750000Y-204050001D03*
X341125000Y-195025000D03*
D33*
X314875000Y-184900000D03*
X339880000Y-184310000D03*
D34*
X311200000Y-190215000D03*
D33*
X314300000Y-185650000D03*
D34*
X339275000Y-202200000D03*
X310500000Y-203750000D03*
X326050000Y-190050000D03*
D33*
%TO.N,/VBAT*%
X348400000Y-183650000D03*
X305700000Y-185025000D03*
X348900000Y-184550000D03*
X334010000Y-183480000D03*
X321250000Y-183550000D03*
X306575000Y-184525000D03*
X307100000Y-181910000D03*
X320250000Y-185070000D03*
X346550000Y-185450000D03*
X306625000Y-182675000D03*
X346000000Y-186250000D03*
X333010000Y-185000000D03*
X305780000Y-183160000D03*
X332750000Y-186400000D03*
X347450000Y-185450000D03*
X345650000Y-185450000D03*
X320760000Y-184310000D03*
D36*
X306425000Y-202650000D03*
D33*
X333520000Y-184240000D03*
X320250000Y-183550000D03*
X305910000Y-181970000D03*
X334250000Y-186350000D03*
X347000000Y-184550000D03*
X333530000Y-185780000D03*
X348400000Y-185450000D03*
X346550000Y-183650000D03*
X346050000Y-184550000D03*
X319825000Y-186125000D03*
X321240000Y-185070000D03*
X308050000Y-181910000D03*
X347900000Y-186200000D03*
X347450000Y-183650000D03*
X347950000Y-184550000D03*
X321625000Y-186125000D03*
X305780000Y-184080000D03*
X306575000Y-185425000D03*
X306575000Y-183625000D03*
X333010000Y-183480000D03*
X345650000Y-183650000D03*
X308950000Y-181900000D03*
X334000000Y-185000000D03*
X307600000Y-182650000D03*
X347000000Y-186250000D03*
X320770000Y-185850000D03*
%TO.N,/C_motor*%
X340825000Y-175150000D03*
X345950000Y-175925000D03*
X346975000Y-174400000D03*
X348050000Y-175925000D03*
X347525000Y-175150000D03*
X338725000Y-175150000D03*
X341325000Y-174400000D03*
X338200000Y-175925000D03*
X348025000Y-174400000D03*
X339250000Y-175925000D03*
X339225000Y-174400000D03*
X345925000Y-174400000D03*
X340275000Y-174400000D03*
X341350000Y-175925000D03*
X338175000Y-174400000D03*
X346475000Y-175150000D03*
X340300000Y-175925000D03*
X339775000Y-175150000D03*
X347000000Y-175925000D03*
D34*
%TO.N,/VDD*%
X344700000Y-203050000D03*
X322380000Y-205530000D03*
X332650000Y-210225000D03*
D33*
X317873334Y-205625000D03*
X316448333Y-206900001D03*
X317848334Y-203700000D03*
X315973333Y-206100001D03*
X316998334Y-205125001D03*
X317848333Y-204625000D03*
D34*
X338495000Y-200495000D03*
D33*
X316998333Y-206075000D03*
X315448333Y-206875000D03*
X314973334Y-206100001D03*
D34*
X324350000Y-201750000D03*
D33*
X316998334Y-203225001D03*
X316998334Y-204175003D03*
D34*
%TO.N,/PGD*%
X332253115Y-200202980D03*
%TO.N,/PGC*%
X331675000Y-199650000D03*
%TO.N,/MCLR*%
X334025000Y-199525000D03*
X342412500Y-209300000D03*
%TO.N,/C *%
X332890000Y-205220000D03*
X330820000Y-207590000D03*
%TO.N,/B*%
X332355384Y-204624862D03*
X324930000Y-203580000D03*
D33*
%TO.N,/LIN(0)*%
X307247500Y-191945000D03*
D34*
%TO.N,/HIN(2)*%
X337151000Y-190500000D03*
%TO.N,/LIN(1)*%
X322135000Y-191735000D03*
%TO.N,/HIN(1)*%
X322085000Y-190485000D03*
D33*
%TO.N,/HIN(0)*%
X307247500Y-190695000D03*
D34*
%TO.N,/LIN(2)*%
X337151000Y-191750000D03*
%TO.N,/A*%
X324960000Y-207490000D03*
X331290000Y-204580000D03*
%TD*%
D37*
%TO.N,GND*%
X321000000Y-200000000D02*
X321464411Y-200464411D01*
X322399008Y-200949008D02*
X321970186Y-200949008D01*
X339720235Y-206770235D02*
X339595235Y-206770235D01*
X323570000Y-202515309D02*
X323570000Y-202170000D01*
X330388307Y-210167129D02*
X331535589Y-211314411D01*
X342715000Y-203060000D02*
X341225000Y-203060000D01*
X323570000Y-202170000D02*
X322946008Y-201546008D01*
X340312500Y-207362500D02*
X339720235Y-206770235D01*
X330388307Y-210069678D02*
X330388307Y-210167129D01*
X322946008Y-201496008D02*
X322399008Y-200949008D01*
X331535589Y-211339411D02*
X331535589Y-211314411D01*
X330369678Y-210069678D02*
X330388307Y-210069678D01*
X339275000Y-202200000D02*
X339275000Y-201455000D01*
X338825000Y-207525000D02*
X339579765Y-206770235D01*
X339354765Y-206770235D02*
X339595235Y-206770235D01*
X346175000Y-204330000D02*
X344705000Y-204330000D01*
X329612500Y-209312500D02*
X330369678Y-210069678D01*
X323550000Y-202550000D02*
X323550000Y-202535309D01*
X321464411Y-200464411D02*
X321485589Y-200464411D01*
X321970186Y-200949008D02*
X321485589Y-200464411D01*
X339579765Y-206770235D02*
X339595235Y-206770235D01*
X331112500Y-211762500D02*
X331535589Y-211339411D01*
X344705000Y-204330000D02*
X344700000Y-204325000D01*
X322946008Y-201546008D02*
X322946008Y-201496008D01*
X323550000Y-202535309D02*
X323570000Y-202515309D01*
%TO.N,/VDD*%
X346175000Y-203060000D02*
X344710000Y-203060000D01*
X323511693Y-200930322D02*
X322366960Y-199785589D01*
X323511693Y-200930322D02*
X323530322Y-200930322D01*
D38*
X340350000Y-211525000D02*
X340587500Y-211287500D01*
D37*
X344710000Y-203060000D02*
X344700000Y-203050000D01*
X341180000Y-200475000D02*
X341225000Y-200520000D01*
X330953992Y-209503992D02*
X332085589Y-210635589D01*
D38*
X340350000Y-213000000D02*
X340350000Y-211525000D01*
D37*
X339275000Y-200495000D02*
X339295000Y-200475000D01*
X332650000Y-210225000D02*
X332239411Y-210635589D01*
X323530322Y-200930322D02*
X324350000Y-201750000D01*
X332085589Y-210635589D02*
X332214411Y-210635589D01*
X322366960Y-199785589D02*
X322164411Y-199785589D01*
X332239411Y-210635589D02*
X332214411Y-210635589D01*
X322164411Y-199785589D02*
X322135589Y-199785589D01*
D38*
X340587500Y-211287500D02*
X340587500Y-210500000D01*
D37*
X339295000Y-200475000D02*
X341180000Y-200475000D01*
X338495000Y-200495000D02*
X339275000Y-200495000D01*
%TO.N,/LED*%
X333999739Y-206675565D02*
X335587087Y-208262913D01*
X333782419Y-206675565D02*
X333999739Y-206675565D01*
%TO.N,Net-(D11-K)*%
X336912913Y-206937087D02*
X336912913Y-206871617D01*
X336912913Y-206871617D02*
X338304765Y-205479765D01*
%TO.N,/PGD*%
X332250135Y-200200000D02*
X332250000Y-200200000D01*
X332250000Y-200200000D02*
X330953992Y-201496008D01*
X332253115Y-200202980D02*
X332250135Y-200200000D01*
%TO.N,/PGC*%
X331668629Y-199650000D02*
X331675000Y-199650000D01*
X332850000Y-213000000D02*
X332850000Y-212150000D01*
X330388307Y-200930322D02*
X331668629Y-199650000D01*
%TO.N,/MCLR*%
X342412500Y-209300000D02*
X342412500Y-210750000D01*
D38*
X342412500Y-210500000D02*
X342412500Y-211287500D01*
X342850000Y-211725000D02*
X342850000Y-213000000D01*
X342412500Y-210750000D02*
X342412500Y-210500000D01*
D37*
X331519678Y-202030322D02*
X334025000Y-199525000D01*
X342412500Y-210750000D02*
X342437500Y-210775000D01*
X331519678Y-202061693D02*
X331519678Y-202030322D01*
D38*
X342412500Y-211287500D02*
X342850000Y-211725000D01*
D37*
%TO.N,/INC*%
X353100000Y-197340000D02*
X353085000Y-197340000D01*
X353085000Y-197340000D02*
X349905000Y-200520000D01*
X349905000Y-200520000D02*
X346175000Y-200520000D01*
%TO.N,/CS*%
X348300000Y-205925000D02*
X351805000Y-202420000D01*
X343750000Y-205150000D02*
X344525000Y-205925000D01*
X344525000Y-205925000D02*
X348300000Y-205925000D01*
X351805000Y-202420000D02*
X353100000Y-202420000D01*
X342915000Y-201790000D02*
X343750000Y-202625000D01*
X343750000Y-202625000D02*
X343750000Y-205150000D01*
X341225000Y-201790000D02*
X342915000Y-201790000D01*
%TO.N,/U{slash}D*%
X353100000Y-199880001D02*
X352619999Y-199880001D01*
X350710000Y-201790000D02*
X346175000Y-201790000D01*
X352619999Y-199880001D02*
X350710000Y-201790000D01*
%TO.N,/C *%
X333782419Y-204392581D02*
X333782419Y-204324435D01*
X333781371Y-204328629D02*
X332890000Y-205220000D01*
X333781371Y-204324435D02*
X333781371Y-204328629D01*
%TO.N,/B*%
X333215686Y-203758750D02*
X333215686Y-203764560D01*
X333215686Y-203764560D02*
X332355384Y-204624862D01*
%TO.N,/LIN(0)*%
X324642016Y-199798952D02*
X320893064Y-196050000D01*
X320893064Y-196050000D02*
X308300000Y-196050000D01*
X306600000Y-194350000D02*
X306600000Y-192250000D01*
X308300000Y-196050000D02*
X306600000Y-194350000D01*
X306600000Y-192250000D02*
X306905000Y-191945000D01*
X306905000Y-191945000D02*
X307247500Y-191945000D01*
%TO.N,/HIN(2)*%
X329839907Y-200364637D02*
X329822621Y-200364637D01*
X331954544Y-198250000D02*
X329839907Y-200364637D01*
X338750000Y-191725000D02*
X338750000Y-196350000D01*
X337151000Y-190500000D02*
X337525000Y-190500000D01*
X336850000Y-198250000D02*
X331954544Y-198250000D01*
X337525000Y-190500000D02*
X338750000Y-191725000D01*
X338750000Y-196350000D02*
X336850000Y-198250000D01*
%TO.N,/POT_OUT*%
X336450000Y-201375000D02*
X333337742Y-201375000D01*
X341225000Y-204330000D02*
X339405000Y-204330000D01*
X333337742Y-201375000D02*
X332085363Y-202627379D01*
D39*
X332085363Y-202627379D02*
X332532363Y-202180379D01*
D37*
X339405000Y-204330000D02*
X336450000Y-201375000D01*
%TO.N,/LIN(1)*%
X321650000Y-192220000D02*
X321650000Y-194543146D01*
X322135000Y-191735000D02*
X321650000Y-192220000D01*
X321650000Y-194543146D02*
X325774435Y-198667581D01*
%TO.N,/HIN(1)*%
X320500000Y-191650000D02*
X321665000Y-190485000D01*
X325133266Y-199233266D02*
X320500000Y-194600000D01*
X320500000Y-194600000D02*
X320500000Y-191650000D01*
X322075000Y-190475000D02*
X322085000Y-190485000D01*
X321665000Y-190485000D02*
X322085000Y-190485000D01*
X325208750Y-199233266D02*
X325133266Y-199233266D01*
%TO.N,/HIN(0)*%
X324076331Y-200364637D02*
X320661694Y-196950000D01*
X324077379Y-200364637D02*
X324064637Y-200364637D01*
X305650000Y-191400000D02*
X306350000Y-190700000D01*
X307242500Y-190700000D02*
X307247500Y-190695000D01*
X307850000Y-196950000D02*
X305650000Y-194750000D01*
X324025054Y-200416962D02*
X324077379Y-200364637D01*
X306350000Y-190700000D02*
X307242500Y-190700000D01*
X305650000Y-194750000D02*
X305650000Y-191400000D01*
X320661694Y-196950000D02*
X307850000Y-196950000D01*
%TO.N,/LIN(2)*%
X337151000Y-191750000D02*
X337151000Y-191776000D01*
X337725000Y-192350000D02*
X337725000Y-196100000D01*
X336500000Y-197325000D02*
X331730888Y-197325000D01*
X337151000Y-191776000D02*
X337725000Y-192350000D01*
X331730888Y-197325000D02*
X329256936Y-199798952D01*
X337725000Y-196100000D02*
X336500000Y-197325000D01*
%TO.N,/A*%
X332650000Y-203220000D02*
X331290000Y-204580000D01*
X332650000Y-203193064D02*
X332650000Y-203220000D01*
%TD*%
%TA.AperFunction,Conductor*%
%TO.N,GND*%
G36*
X353940677Y-182444685D02*
G01*
X353961319Y-182461319D01*
X354418681Y-182918681D01*
X354452166Y-182980004D01*
X354455000Y-183006362D01*
X354455000Y-186916977D01*
X354450000Y-186938158D01*
X354450000Y-186956250D01*
X353925000Y-187350000D01*
X349675000Y-187350000D01*
X349250000Y-187000000D01*
X349275000Y-186175000D01*
X349778823Y-185854385D01*
X349845395Y-185835000D01*
X351219997Y-185835000D01*
X351219998Y-185835000D01*
X352000000Y-185141664D01*
X352000000Y-183270440D01*
X352019685Y-183203401D01*
X352032247Y-183187029D01*
X352220452Y-182980004D01*
X352688101Y-182465589D01*
X352747762Y-182429225D01*
X352779854Y-182425000D01*
X353873638Y-182425000D01*
X353940677Y-182444685D01*
G37*
%TD.AperFunction*%
%TD*%
%TA.AperFunction,Conductor*%
%TO.N,/VBAT*%
G36*
X350783635Y-182429685D02*
G01*
X350784919Y-182430520D01*
X351033071Y-182594363D01*
X351078170Y-182647728D01*
X351088748Y-182697843D01*
X351088748Y-184997047D01*
X351069063Y-185064086D01*
X351016259Y-185109841D01*
X350985608Y-185119280D01*
X349250000Y-185415480D01*
X349250000Y-185415481D01*
X349159975Y-185430845D01*
X348000000Y-186625000D01*
X345363334Y-186625000D01*
X345125000Y-186350000D01*
X345125000Y-183475000D01*
X345425000Y-183125000D01*
X349175000Y-183125000D01*
X349767168Y-182452082D01*
X349826233Y-182414759D01*
X349860256Y-182410000D01*
X350716596Y-182410000D01*
X350783635Y-182429685D01*
G37*
%TD.AperFunction*%
%TD*%
%TA.AperFunction,Conductor*%
%TO.N,/B_motor*%
G36*
X334315677Y-165819685D02*
G01*
X334336319Y-165836319D01*
X336063681Y-167563681D01*
X336097166Y-167625004D01*
X336100000Y-167651362D01*
X336100000Y-175648638D01*
X336080315Y-175715677D01*
X336063681Y-175736319D01*
X335568719Y-176231281D01*
X335507396Y-176264766D01*
X335481038Y-176267600D01*
X325093962Y-176267600D01*
X325026923Y-176247915D01*
X325006281Y-176231281D01*
X324561319Y-175786319D01*
X324527834Y-175724996D01*
X324525000Y-175698638D01*
X324525000Y-167401362D01*
X324544685Y-167334323D01*
X324561319Y-167313681D01*
X326038681Y-165836319D01*
X326100004Y-165802834D01*
X326126362Y-165800000D01*
X334248638Y-165800000D01*
X334315677Y-165819685D01*
G37*
%TD.AperFunction*%
%TD*%
%TA.AperFunction,Conductor*%
%TO.N,/A_motor*%
G36*
X321865677Y-165819685D02*
G01*
X321886319Y-165836319D01*
X323338681Y-167288681D01*
X323372166Y-167350004D01*
X323375000Y-167376362D01*
X323375000Y-175723638D01*
X323355315Y-175790677D01*
X323338681Y-175811319D01*
X322920919Y-176229081D01*
X322859596Y-176262566D01*
X322833238Y-176265400D01*
X311916762Y-176265400D01*
X311849723Y-176245715D01*
X311829081Y-176229081D01*
X311436319Y-175836319D01*
X311402834Y-175774996D01*
X311400000Y-175748638D01*
X311400000Y-166251362D01*
X311419685Y-166184323D01*
X311436319Y-166163681D01*
X311763681Y-165836319D01*
X311825004Y-165802834D01*
X311851362Y-165800000D01*
X321798638Y-165800000D01*
X321865677Y-165819685D01*
G37*
%TD.AperFunction*%
%TD*%
%TA.AperFunction,Conductor*%
%TO.N,/VBAT*%
G36*
X310171525Y-173219712D02*
G01*
X310232049Y-173235827D01*
X310523817Y-173401163D01*
X310572438Y-173451341D01*
X310572619Y-173451688D01*
X310835936Y-173956377D01*
X310850000Y-174013735D01*
X310850000Y-175849800D01*
X310905419Y-175905219D01*
X310933919Y-175949565D01*
X310959164Y-176017248D01*
X310959166Y-176017251D01*
X310959168Y-176017257D01*
X310992653Y-176078580D01*
X311078877Y-176193761D01*
X311078881Y-176193765D01*
X311078886Y-176193771D01*
X311471623Y-176586507D01*
X311471639Y-176586523D01*
X311471655Y-176586537D01*
X311471662Y-176586544D01*
X311511880Y-176622671D01*
X311511892Y-176622681D01*
X311511900Y-176622688D01*
X311532542Y-176639322D01*
X311576426Y-176670967D01*
X311707303Y-176730738D01*
X311710396Y-176731646D01*
X311763142Y-176762942D01*
X311818920Y-176818720D01*
X347586333Y-176794785D01*
X347653385Y-176814425D01*
X347668781Y-176826093D01*
X349208366Y-178194164D01*
X349245404Y-178253409D01*
X349250000Y-178286856D01*
X349250000Y-183039771D01*
X349250000Y-183039772D01*
X349175000Y-183125000D01*
X345425000Y-183125000D01*
X345125000Y-183475000D01*
X345125000Y-186350000D01*
X345363334Y-186625000D01*
X347999064Y-186625000D01*
X347971686Y-186640916D01*
X347942091Y-186644500D01*
X344210978Y-186644500D01*
X344143939Y-186624815D01*
X344099409Y-186574614D01*
X343963545Y-186294500D01*
X342588481Y-183459491D01*
X342551876Y-183384021D01*
X342548309Y-183376668D01*
X342519812Y-183290666D01*
X342457952Y-183190375D01*
X341940867Y-182124285D01*
X341940867Y-182124284D01*
X341864205Y-182009442D01*
X341819674Y-181959240D01*
X341819670Y-181959236D01*
X341714810Y-181869433D01*
X341583935Y-181809663D01*
X341516890Y-181789976D01*
X341469417Y-181783150D01*
X341374473Y-181769500D01*
X338195084Y-181769500D01*
X338190292Y-181769535D01*
X338187617Y-181769555D01*
X338183887Y-181769610D01*
X338176449Y-181769775D01*
X338176446Y-181769775D01*
X338051442Y-181791544D01*
X338034697Y-181794460D01*
X338034695Y-181794460D01*
X338034693Y-181794461D01*
X337968272Y-181816119D01*
X337839230Y-181879733D01*
X337839229Y-181879734D01*
X337752322Y-181959662D01*
X337733323Y-181977135D01*
X337689157Y-182031262D01*
X337689148Y-182031275D01*
X337614983Y-182154556D01*
X337614979Y-182154563D01*
X337185414Y-183174017D01*
X337176683Y-183190963D01*
X337115190Y-183290659D01*
X337115186Y-183290668D01*
X337060003Y-183457198D01*
X337060000Y-183457213D01*
X337059937Y-183457832D01*
X337059512Y-183459491D01*
X337058586Y-183463820D01*
X337058415Y-183463783D01*
X337050851Y-183493363D01*
X336177085Y-185567011D01*
X335691466Y-186719496D01*
X335681288Y-186743650D01*
X335637116Y-186797785D01*
X335570689Y-186819446D01*
X335567018Y-186819500D01*
X331716384Y-186819500D01*
X331649345Y-186799815D01*
X331603650Y-186747144D01*
X330113090Y-183493363D01*
X329457302Y-182061825D01*
X329379562Y-181941095D01*
X329333867Y-181888424D01*
X329225331Y-181794433D01*
X329225329Y-181794432D01*
X329225328Y-181794431D01*
X329094460Y-181734664D01*
X329094455Y-181734662D01*
X329094454Y-181734662D01*
X329049761Y-181721538D01*
X329027412Y-181714976D01*
X328979939Y-181708150D01*
X328884995Y-181694500D01*
X325420070Y-181694500D01*
X325417928Y-181694505D01*
X325417829Y-181694505D01*
X325416899Y-181694509D01*
X325415278Y-181694519D01*
X325329927Y-181707454D01*
X325273025Y-181716078D01*
X325273020Y-181716079D01*
X325273008Y-181716082D01*
X325210607Y-181734921D01*
X325207023Y-181735858D01*
X325206134Y-181736272D01*
X325187807Y-181744811D01*
X325075715Y-181797037D01*
X324967699Y-181892082D01*
X324967697Y-181892084D01*
X324948370Y-181914734D01*
X324937026Y-181928030D01*
X324929170Y-181934435D01*
X324845483Y-182066860D01*
X324845481Y-182066864D01*
X323571053Y-184914661D01*
X322798531Y-186640916D01*
X322796188Y-186646151D01*
X322750837Y-186699302D01*
X322683949Y-186719496D01*
X322683005Y-186719500D01*
X318874687Y-186719500D01*
X318807648Y-186699815D01*
X318763060Y-186649494D01*
X318760644Y-186644500D01*
X316562438Y-182099894D01*
X316485721Y-181984765D01*
X316441134Y-181934445D01*
X316441131Y-181934442D01*
X316441129Y-181934440D01*
X316336087Y-181844434D01*
X316336086Y-181844433D01*
X316232306Y-181797037D01*
X316205212Y-181784663D01*
X316138167Y-181764976D01*
X316090694Y-181758150D01*
X315995750Y-181744500D01*
X310608753Y-181744500D01*
X310608738Y-181744500D01*
X310600876Y-181744561D01*
X310597608Y-181744612D01*
X310596947Y-181744623D01*
X310588949Y-181744811D01*
X310588942Y-181744811D01*
X310447248Y-181769757D01*
X310380854Y-181791544D01*
X310251935Y-181855395D01*
X310251932Y-181855397D01*
X310146219Y-181952983D01*
X310146211Y-181952992D01*
X310106167Y-182002254D01*
X310104961Y-182003590D01*
X310102143Y-182007202D01*
X310028195Y-182130640D01*
X310028194Y-182130642D01*
X308314630Y-186218438D01*
X308270558Y-186272655D01*
X308204171Y-186294439D01*
X308200271Y-186294500D01*
X306240196Y-186294500D01*
X306173157Y-186274815D01*
X306171543Y-186273761D01*
X306169879Y-186272655D01*
X305865754Y-186070458D01*
X305318347Y-185706516D01*
X305273419Y-185653007D01*
X305263000Y-185603255D01*
X305263000Y-174504910D01*
X305273579Y-174454794D01*
X305717340Y-173450492D01*
X305762438Y-173397130D01*
X305770310Y-173392343D01*
X306086748Y-173215728D01*
X306147783Y-173200007D01*
X310171525Y-173219712D01*
G37*
%TD.AperFunction*%
%TA.AperFunction,Conductor*%
G36*
X349237308Y-185430521D02*
G01*
X349230315Y-185454339D01*
X349197666Y-185488493D01*
X349086798Y-185567011D01*
X348403876Y-186214819D01*
X348394287Y-186224161D01*
X348389616Y-186228834D01*
X348380303Y-186238405D01*
X348346793Y-186273761D01*
X348061648Y-186574614D01*
X348032090Y-186605800D01*
X348001214Y-186623749D01*
X349159975Y-185430845D01*
X349249997Y-185415481D01*
X349237308Y-185430521D01*
G37*
%TD.AperFunction*%
%TD*%
%TA.AperFunction,Conductor*%
%TO.N,/C_motor*%
G36*
X349365677Y-165919685D02*
G01*
X349386319Y-165936319D01*
X349513681Y-166063681D01*
X349547166Y-166125004D01*
X349550000Y-166151362D01*
X349550000Y-175298638D01*
X349530315Y-175365677D01*
X349513681Y-175386319D01*
X348661319Y-176238681D01*
X348599996Y-176272166D01*
X348573638Y-176275000D01*
X337676362Y-176275000D01*
X337609323Y-176255315D01*
X337588681Y-176238681D01*
X337261319Y-175911319D01*
X337227834Y-175849996D01*
X337225000Y-175823638D01*
X337225000Y-167601362D01*
X337244685Y-167534323D01*
X337261319Y-167513681D01*
X338838681Y-165936319D01*
X338900004Y-165902834D01*
X338926362Y-165900000D01*
X349298638Y-165900000D01*
X349365677Y-165919685D01*
G37*
%TD.AperFunction*%
%TD*%
%TA.AperFunction,Conductor*%
%TO.N,GND*%
G36*
X328952034Y-182219685D02*
G01*
X328997729Y-182272356D01*
X328998965Y-182275054D01*
X331312349Y-187325000D01*
X335984868Y-187325000D01*
X335984869Y-187325000D01*
X338080814Y-182350849D01*
X338124986Y-182296715D01*
X338191413Y-182275054D01*
X338195084Y-182275000D01*
X341374473Y-182275000D01*
X341441512Y-182294685D01*
X341486042Y-182344886D01*
X343816665Y-187149999D01*
X343816666Y-187150000D01*
X348212775Y-187150000D01*
X348212776Y-187150000D01*
X348212775Y-187149999D01*
X348747203Y-186586133D01*
X348751807Y-186581526D01*
X349434686Y-185933759D01*
X349496869Y-185901906D01*
X349519331Y-185899727D01*
X349709233Y-185898670D01*
X349275000Y-186175000D01*
X349250000Y-187000000D01*
X349675000Y-187350000D01*
X353925000Y-187350000D01*
X354450000Y-186956250D01*
X354450000Y-193112593D01*
X354447542Y-193137160D01*
X354209475Y-194314956D01*
X354176899Y-194376767D01*
X354176780Y-194376889D01*
X353031607Y-195553133D01*
X352970737Y-195587436D01*
X352942858Y-195590633D01*
X339624598Y-195601189D01*
X339557543Y-195581558D01*
X339511746Y-195528790D01*
X339500500Y-195477189D01*
X339500500Y-191651081D01*
X339492962Y-191613190D01*
X339492962Y-191613189D01*
X339471659Y-191506088D01*
X339415084Y-191369506D01*
X339415084Y-191369505D01*
X339355223Y-191279916D01*
X339332952Y-191246585D01*
X339332950Y-191246583D01*
X339332948Y-191246580D01*
X338003421Y-189917052D01*
X338003414Y-189917046D01*
X337929729Y-189867812D01*
X337929729Y-189867813D01*
X337880491Y-189834913D01*
X337743917Y-189778343D01*
X337743907Y-189778340D01*
X337598920Y-189749500D01*
X337598918Y-189749500D01*
X337455604Y-189749500D01*
X337408155Y-189740062D01*
X337384497Y-189730263D01*
X337384493Y-189730262D01*
X337384488Y-189730260D01*
X337229845Y-189699500D01*
X337229842Y-189699500D01*
X337072158Y-189699500D01*
X337072155Y-189699500D01*
X336917510Y-189730261D01*
X336917498Y-189730264D01*
X336771827Y-189790602D01*
X336771814Y-189790609D01*
X336640711Y-189878210D01*
X336640707Y-189878213D01*
X336529213Y-189989707D01*
X336529210Y-189989711D01*
X336441609Y-190120814D01*
X336441602Y-190120827D01*
X336381264Y-190266498D01*
X336381261Y-190266510D01*
X336350500Y-190421153D01*
X336350500Y-190578846D01*
X336381261Y-190733489D01*
X336381264Y-190733501D01*
X336441602Y-190879172D01*
X336441609Y-190879185D01*
X336529210Y-191010288D01*
X336529213Y-191010292D01*
X336556240Y-191037319D01*
X336589725Y-191098642D01*
X336584741Y-191168334D01*
X336556240Y-191212681D01*
X336529213Y-191239707D01*
X336529210Y-191239711D01*
X336441609Y-191370814D01*
X336441602Y-191370827D01*
X336381264Y-191516498D01*
X336381261Y-191516510D01*
X336350500Y-191671153D01*
X336350500Y-191828846D01*
X336381261Y-191983489D01*
X336381264Y-191983501D01*
X336441602Y-192129172D01*
X336441609Y-192129185D01*
X336529210Y-192260288D01*
X336529213Y-192260292D01*
X336640710Y-192371789D01*
X336765299Y-192455036D01*
X336784083Y-192470451D01*
X336938182Y-192624549D01*
X336971666Y-192685871D01*
X336974500Y-192712229D01*
X336974500Y-195479388D01*
X336954815Y-195546427D01*
X336902011Y-195592182D01*
X336850598Y-195603388D01*
X323833387Y-195613705D01*
X323766332Y-195594074D01*
X323745608Y-195577386D01*
X322436819Y-194268597D01*
X322403334Y-194207274D01*
X322400500Y-194180916D01*
X322400500Y-192582229D01*
X322409144Y-192552790D01*
X322415666Y-192522806D01*
X322419422Y-192517788D01*
X322420185Y-192515190D01*
X322436816Y-192494551D01*
X322450292Y-192481074D01*
X322490525Y-192454190D01*
X322514179Y-192444394D01*
X322645289Y-192356789D01*
X322756789Y-192245289D01*
X322844394Y-192114179D01*
X322904737Y-191968497D01*
X322935500Y-191813842D01*
X322935500Y-191656158D01*
X322935500Y-191656155D01*
X322935499Y-191656153D01*
X322912820Y-191542139D01*
X322904737Y-191501503D01*
X322862142Y-191398669D01*
X322844397Y-191355827D01*
X322844390Y-191355814D01*
X322756789Y-191224711D01*
X322756786Y-191224707D01*
X322704759Y-191172680D01*
X322671274Y-191111357D01*
X322676258Y-191041665D01*
X322703002Y-191000054D01*
X322702928Y-190999993D01*
X322703454Y-190999351D01*
X322704764Y-190997313D01*
X322706789Y-190995289D01*
X322794394Y-190864179D01*
X322854737Y-190718497D01*
X322885500Y-190563842D01*
X322885500Y-190406158D01*
X322885500Y-190406155D01*
X322885499Y-190406153D01*
X322862820Y-190292139D01*
X322854737Y-190251503D01*
X322800610Y-190120827D01*
X322794397Y-190105827D01*
X322794390Y-190105814D01*
X322706789Y-189974711D01*
X322706786Y-189974707D01*
X322595292Y-189863213D01*
X322595288Y-189863210D01*
X322464185Y-189775609D01*
X322464172Y-189775602D01*
X322318501Y-189715264D01*
X322318489Y-189715261D01*
X322163845Y-189684500D01*
X322163842Y-189684500D01*
X322006158Y-189684500D01*
X322006155Y-189684500D01*
X321851511Y-189715260D01*
X321851506Y-189715262D01*
X321851504Y-189715262D01*
X321851503Y-189715263D01*
X321827844Y-189725062D01*
X321780396Y-189734500D01*
X321591080Y-189734500D01*
X321446092Y-189763340D01*
X321446082Y-189763343D01*
X321309508Y-189819914D01*
X321265229Y-189849500D01*
X321186581Y-189902049D01*
X319917052Y-191171578D01*
X319917046Y-191171585D01*
X319878200Y-191229723D01*
X319878201Y-191229724D01*
X319834913Y-191294508D01*
X319778343Y-191431082D01*
X319778340Y-191431092D01*
X319749500Y-191576079D01*
X319749500Y-191576082D01*
X319749500Y-194673918D01*
X319749500Y-194673920D01*
X319749499Y-194673920D01*
X319778340Y-194818907D01*
X319778343Y-194818917D01*
X319834912Y-194955488D01*
X319834915Y-194955494D01*
X319834916Y-194955495D01*
X319843881Y-194968912D01*
X319917048Y-195078416D01*
X319933784Y-195095152D01*
X319939799Y-195103604D01*
X319947963Y-195127217D01*
X319959935Y-195149142D01*
X319959182Y-195159666D01*
X319962630Y-195169638D01*
X319956733Y-195193912D01*
X319954951Y-195218834D01*
X319948627Y-195227281D01*
X319946137Y-195237533D01*
X319928050Y-195254767D01*
X319913079Y-195274767D01*
X319903193Y-195278454D01*
X319895555Y-195285733D01*
X319871021Y-195290453D01*
X319847615Y-195299184D01*
X319838769Y-195299500D01*
X308662230Y-195299500D01*
X308595191Y-195279815D01*
X308574549Y-195263181D01*
X307386819Y-194075451D01*
X307353334Y-194014128D01*
X307350500Y-193987770D01*
X307350500Y-192893438D01*
X307370185Y-192826399D01*
X307422989Y-192780644D01*
X307450304Y-192771822D01*
X307495582Y-192762816D01*
X307650363Y-192698703D01*
X307789662Y-192605626D01*
X307908126Y-192487162D01*
X308001203Y-192347863D01*
X308065316Y-192193082D01*
X308098000Y-192028767D01*
X308098000Y-191861233D01*
X308065316Y-191696918D01*
X308001203Y-191542137D01*
X307908126Y-191402838D01*
X307908124Y-191402835D01*
X307904705Y-191398669D01*
X307877388Y-191334361D01*
X307889176Y-191265493D01*
X307904705Y-191241331D01*
X307908124Y-191237164D01*
X307908126Y-191237162D01*
X308001203Y-191097863D01*
X308065316Y-190943082D01*
X308098000Y-190778767D01*
X308098000Y-190611233D01*
X308065316Y-190446918D01*
X308001203Y-190292137D01*
X307970037Y-190245494D01*
X307908126Y-190152837D01*
X307789662Y-190034373D01*
X307650360Y-189941295D01*
X307495582Y-189877184D01*
X307495574Y-189877182D01*
X307331271Y-189844500D01*
X307331267Y-189844500D01*
X307163733Y-189844500D01*
X307163728Y-189844500D01*
X306999425Y-189877182D01*
X306999417Y-189877184D01*
X306847620Y-189940061D01*
X306800167Y-189949500D01*
X306276080Y-189949500D01*
X306149361Y-189974707D01*
X306149341Y-189974711D01*
X306135618Y-189977440D01*
X306131086Y-189978342D01*
X306131082Y-189978343D01*
X305994511Y-190034912D01*
X305994498Y-190034919D01*
X305871584Y-190117048D01*
X305871580Y-190117051D01*
X305474681Y-190513951D01*
X305413358Y-190547436D01*
X305343666Y-190542452D01*
X305287733Y-190500580D01*
X305263316Y-190435116D01*
X305263000Y-190426270D01*
X305263000Y-186924000D01*
X305282685Y-186856961D01*
X305335489Y-186811206D01*
X305387000Y-186800000D01*
X308618962Y-186800000D01*
X308618963Y-186800000D01*
X310494394Y-182326062D01*
X310538466Y-182271845D01*
X310604853Y-182250061D01*
X310608753Y-182250000D01*
X315995750Y-182250000D01*
X316062789Y-182269685D01*
X316107376Y-182320005D01*
X318479901Y-187225000D01*
X323090954Y-187225000D01*
X323090955Y-187225000D01*
X325306887Y-182273348D01*
X325352238Y-182220198D01*
X325419126Y-182200004D01*
X325420070Y-182200000D01*
X328884995Y-182200000D01*
X328952034Y-182219685D01*
G37*
%TD.AperFunction*%
%TD*%
M02*
